<?xml version="1.0" encoding="UTF-8"?>
<svg width="824px" height="829px" viewBox="0 0 824 829" version="1.1" xmlns="http://www.w3.org/2000/svg" xmlns:xlink="http://www.w3.org/1999/xlink">
    <!-- Generator: Sketch 52.2 (67145) - http://www.bohemiancoding.com/sketch -->
    <title>business</title>
    <desc>Created with Sketch.</desc>
    <defs>
        <linearGradient x1="50.0004325%" y1="100%" x2="50.0004325%" y2="-0.00293043733%" id="linearGradient-1">
            <stop stop-color="#808080" stop-opacity="0.25" offset="0%"></stop>
            <stop stop-color="#808080" stop-opacity="0.12" offset="54%"></stop>
            <stop stop-color="#808080" stop-opacity="0.1" offset="100%"></stop>
        </linearGradient>
    </defs>
    <g id="Page-1" stroke="none" stroke-width="1" fill="none" fill-rule="evenodd">
        <g id="business">
            <g id="Group" opacity="0.1" transform="translate(1.000000, 681.000000)" fill="#263B53">
                <path d="M0.71,36.86 C1.87,43.99 6,49.42 9.92,54.4 L56.57,113.54 C60.32,118.3 64.35,123.25 69.39,124.54 C79.92,127.33 88.39,113.81 97.39,105.9 C129.39,77.78 173.12,120.59 209.29,104.22 C223.76,97.67 235.48,82.11 250.23,76.84 C289.28,62.84 322.37,124.69 362.69,127.84 C375.93,128.84 388.92,123.4 401.57,117.99 L485.95,81.87 C491.81,79.36 497.77,76.87 503.95,76.72 C514.33,76.54 524,83.22 533.77,88.03 C573.1,107.41 616.77,96.95 657.17,82.27 C697.57,67.59 738.26,48.7 780.02,51.83 C790.89,52.65 805.25,51.96 808.22,37.7 C809.99,29.22 786.1,38.11 780.57,33.54 C775.04,28.97 788.2,9.9 781.75,9.09 C744.22,4.39 705.98,4.26 669.3,16.09 C650.3,22.21 631.61,31.53 612.1,33.44 C591.76,35.44 571.53,29.28 551.56,23.68 C500.99,9.5 449.56,-1.32 397.93,0.88 C306.17,4.88 215.79,50.14 124.49,37.02 C97.3642931,33.0079993 71.1612264,24.2330188 47.09,11.1 C34.77,4.45 35.32,28 22.75,35.93 C18.66,38.51 7.95,14.45 4.75,19.08 C1.06742551,24.2223628 -0.388801907,30.6312052 0.71,36.86 Z" id="Path"></path>
            </g>
            <path d="M788.64,603.83 L642.79,412.83 C631.4,359.21 614.3,359.21 614.3,359.21 C498.08,343.57 466.18,323.46 466.18,323.46 L440.18,313.28 L438.01,312 C437.91,311.43 437.8,310.86 437.7,310.27 C437.6,309.68 437.5,308.9 437.42,308.21 C465.815955,291.141184 486.306821,263.532439 494.42,231.41 C494.63,230.57 494.82,229.71 495.02,228.86 C500.600587,226.184511 505.311578,221.986564 508.61,216.75 C519.78,198.44 509.17,175.26 509.41,153.93 C509.56,140.45 514.21,127.24 513.68,113.77 C513.24,102.49 509.2,91.66 504.79,81.24 C502.65,76.17 500.29,70.99 496.19,67.24 C485.32,57.37 467.72,61.6 453.76,56.74 C435.7,50.45 427.29,30.85 416.85,15.09 C412.85,9.01 405.57,2.59 399,5.92 C391.29,9.82 393.38,23.17 385.59,26.92 C380.87,29.19 375.1,26.33 371.73,22.37 C368.36,18.41 366.43,13.44 363.11,9.44 C357.046299,2.38927421 347.607699,-0.773558831 338.52,1.2 C336.750921,1.486318 335.116955,2.32254456 333.85,3.59 C331.36,6.49 332.92,10.81 333.09,14.59 C333.68,27.32 318.09,34.39 305.21,35.74 C292.33,37.09 277.15,37.25 269.44,47.5 C265.36,52.93 264.49,60 261.74,66.18 C255.36,80.51 239.93,88.36 226.37,96.59 C212.81,104.82 198.85,116.82 198.97,132.46 C199.09,147.46 212.33,159.61 214.66,174.46 C215.9,182.33 213.97,190.46 215.51,198.29 C218.34,212.65 231.76,222.29 244.14,230.44 C244.98,230.99 245.83,231.54 246.7,232.06 C246.92,232.94 247.14,233.81 247.38,234.68 C256.991059,268.531307 280.329547,296.815988 311.74,312.68 C311.94,313.52 312.13,314.37 312.32,315.24 C312.91,317.92 313.46,320.71 313.95,323.57 L313.57,323.67 L313.57,323.39 L169.52,360.12 C168.652857,359.807937 167.727357,359.691823 166.81,359.78 C160.91,359.3 142.46,365.66 120.93,451.91 L28.65,615 C28.65,615 -24.9,666.39 16.12,710 C37.03,732.21 60.61,737.58 78.7,737.51 C89.2053314,737.659237 99.6497237,735.890265 109.52,732.29 C109.52,732.29 108.78,731.15 107.64,729.13 L119.84,730.62 C143.84,757.3 184.72,747.93 184.72,747.93 C184.72,747.93 242.87,747.27 245.01,716.86 L349.52,748.92 L349.94,754.63 L404.82,754.63 L404.73,750.99 L520.19,716.21 C529.19,732.85 551.19,741.08 551.19,741.08 C551.19,741.08 618.95,743.93 640.25,731.59 C649.199958,726.338016 658.94863,722.585149 669.11,720.48 L669.7,720.42 L669.56,720.56 L800.02,706.56 C859.28,655.21 788.64,603.83 788.64,603.83 Z M131.97,649.25 L129.1,647.59 C134.228184,645.630997 139.500685,644.072985 144.87,642.93 L170.25,611.6 L174.64,642.5 C160.079147,639.141767 144.78335,641.561421 131.97,649.25 Z M622.84,649 C613.390993,641.861645 601.831052,638.078711 589.99,638.25 L590.99,562.19 C600.52,568.28 608.52,575 610.89,581.48 C617.73,600.48 650.77,630.63 650.77,630.63 L633.61,644.73 L630.94,646.92 C630.22,647.09 629.5,647.26 628.78,647.45 L622.84,649 Z" id="Shape" fill="url(#linearGradient-1)" fill-rule="nonzero"></path>
            <polygon id="Path" fill="#EFB7B9" points="105.28 733 131.91 736.33 147.44 659.77 117.48 642.01 78.65 684.18"></polygon>
            <polygon id="Path" fill="#000000" opacity="0.03" points="105.28 733 131.91 736.33 147.44 659.77 117.48 642.01 78.65 684.18"></polygon>
            <path d="M462.52,356.86 L398.17,414.56 C398.17,414.56 273.9,442.3 304.97,403.46 C322.57,381.46 320.23,348.07 314.89,323.25 C312.501361,311.994662 309.183321,300.956827 304.97,290.25 C304.97,290.25 464.77,193.76 442.58,267 C436,288.72 435.08,305.47 437.03,318.27 C441.69,348.63 462.52,356.86 462.52,356.86 Z" id="Path" fill="#EFB7B9"></path>
            <path d="M442.58,267 C436,288.72 435.08,305.47 437.03,318.27 C400.004058,341.195368 353.686153,343.091777 314.91,323.27 C312.521361,312.014662 309.203321,300.976827 304.99,290.27 C304.99,290.27 464.77,193.76 442.58,267 Z" id="Path" fill="#000000" opacity="0.1"></path>
            <path d="M495.84,210.4 C495.839994,279.025916 440.212575,334.660789 371.58666,334.669989 C302.960745,334.679189 247.31841,279.059233 247.300004,210.43332 C247.281599,141.807406 302.89409,86.1576116 371.52,86.13 C404.516435,86.0206793 436.193678,99.07666 459.530502,122.404098 C482.867325,145.731535 495.936047,177.403524 495.84,210.4 Z" id="Path" fill="#EFB7B9"></path>
            <polygon id="Path" fill="#E1E7EF" points="286.13 371.29 286.13 598.74 504.71 580.99 468.1 349.1 371.57 406.79"></polygon>
            <path d="M404.85,511.09 L380.52,442.3 L381.52,442.3 C407.04,414.56 395.94,397.92 395.94,397.92 L360.52,397.92 C337.97,413.92 353.62,434.65 358.93,440.62 L348.31,511.09 L404.85,511.09 Z" id="Path" fill="#000000" opacity="0.1"></path>
            <path d="M404.85,508.87 L380.52,440.08 L381.52,440.08 C407.04,412.34 395.94,395.7 395.94,395.7 L360.52,395.7 C337.97,411.7 353.62,432.43 358.93,438.4 L348.31,508.87 L404.85,508.87 Z" id="Path" fill="#444053"></path>
            <path d="M437.33,322.2 C437.33,322.2 430.33,354.64 381.56,397.91 C381.56,397.91 396.56,402.91 398.76,442.85 L417.07,467.85 C417.07,467.85 431.49,415.7 457.01,397.95 C482.53,380.2 457.01,333.6 457.01,333.6 L437.33,322.2 Z" id="Path" fill="#000000" opacity="0.1"></path>
            <path d="M437.33,320 C437.33,320 430.33,352.44 381.56,395.71 C381.56,395.71 396.56,400.71 398.76,440.65 L417.07,465.65 C417.07,465.65 431.49,413.5 457.01,395.75 C482.53,378 457.01,331.4 457.01,331.4 L437.33,320 Z" id="Path" fill="#E1E7EF"></path>
            <path d="M371.52,397.91 C371.52,397.91 350.52,414.56 349.38,441.19 C348.24,467.82 337.18,467.82 337.18,467.82 C337.18,467.82 309.44,382.39 300.57,374.62 C291.7,366.85 316.57,334.08 316.57,334.08 C316.57,334.08 330.52,380.16 371.52,397.91 Z" id="Path" fill="#000000" opacity="0.1"></path>
            <path d="M371.52,395.7 C371.52,395.7 350.52,412.34 349.38,439 C348.24,465.66 337.18,465.63 337.18,465.63 C337.18,465.63 309.43,380.16 300.52,372.4 C291.61,364.64 316.52,331.86 316.52,331.86 C316.52,331.86 330.52,377.94 371.52,395.7 Z" id="Path" fill="#E1E7EF"></path>
            <path d="M435.92,320.25 L463.66,331.35 C463.66,331.35 494.73,351.35 607.9,366.86 C607.9,366.86 624.54,366.86 635.64,420.12 L777.64,609.85 C777.64,609.85 846.43,660.85 788.74,711.93 L661.74,725.8 C661.74,725.8 734.97,655.9 624.02,653.68 L644.52,636.47 C644.52,636.47 612.34,606.47 605.69,587.65 C599.04,568.83 544.69,547.71 544.69,547.71 L551.35,707.48 L451.45,723 L437.05,425.7 C436.356967,411.677756 437.161518,397.621587 439.45,383.77 C443.21,361.22 447.18,325.5 435.92,320.25 Z" id="Path" fill="#000000" opacity="0.1"></path>
            <path d="M437.03,320.25 L464.77,331.35 C464.77,331.35 495.84,351.35 609.01,366.86 C609.01,366.86 625.65,366.86 636.75,420.12 L778.75,609.85 C778.75,609.85 847.54,660.85 789.85,711.93 L662.85,725.8 C662.85,725.8 736.08,655.9 625.13,653.68 L645.66,636.48 C645.66,636.48 613.48,606.48 606.83,587.66 C600.18,568.84 545.83,547.72 545.83,547.72 L552.49,707.49 L452.52,723 L438.12,425.7 C437.426967,411.677756 438.231518,397.621587 440.52,383.77 C444.32,361.22 448.29,325.5 437.03,320.25 Z" id="Path" fill="#67647E"></path>
            <path d="M317.2,331.34 L176.29,368 C176.29,368 155.21,354.69 129.69,459 L39.82,621 C39.82,621 -12.33,672 27.62,715.31 C67.57,758.62 117.52,737.43 117.52,737.43 C117.52,737.43 72.03,666.43 151.92,648.67 L181.92,610.95 L317.28,626.48 L313.87,431.2 L317.66,408.44 C321.760148,383.839673 321.760148,358.730327 317.66,334.13 L317.2,331.34 Z" id="Path" fill="#000000" opacity="0.1"></path>
            <path d="M316.09,331.34 L175.18,368 C175.18,368 154.1,354.69 128.58,459 L38.71,621 C38.71,621 -13.48,672 26.52,715.24 C66.52,758.48 116.39,737.43 116.39,737.43 C116.39,737.43 70.9,666.43 150.79,648.67 L180.79,610.95 L316.15,626.48 L312.76,431.2 L316.52,408.44 C320.620148,383.839673 320.620148,358.730327 316.52,334.13 L316.09,331.34 Z" id="Path" fill="#67647E"></path>
            <polygon id="Path" fill="#E4E6ED" points="177.4 440.08 164.08 450.06 364.91 501.1 364.91 481.13"></polygon>
            <polygon id="Path" fill="#E4E6ED" points="565.74 436.75 579.05 446.74 364.91 501.1 364.91 481.13"></polygon>
            <polygon id="Path" fill="#263B53" points="151.88 440.08 338.28 483.35 351.59 754.08 188.49 703.04"></polygon>
            <polygon id="Path" fill="#263B53" points="587.93 440.08 389.32 485.57 400.41 757.41 584.6 700.82"></polygon>
            <path d="M331.62,483.35 C331.62,483.35 364.16,503.35 398.37,483.35 L405.03,759.63 L351.6,759.63 L331.62,483.35 Z" id="Path" fill="#263B53"></path>
            <path d="M331.62,483.35 C331.62,483.35 364.16,503.35 398.37,483.35 L405.03,759.63 L351.6,759.63 L331.62,483.35 Z" id="Path" fill="#000000" opacity="0.1"></path>
            <path d="M181.84,436.75 L181.84,444.52 L364.91,481.13 C364.91,481.13 271.71,446.73 181.84,436.75 Z" id="Path" fill="#D8D9E5"></path>
            <path d="M562.41,432.31 L562.41,440.08 L364.91,481.13 C364.91,481.13 472.52,442.3 562.41,432.31 Z" id="Path" fill="#D8D9E5"></path>
            <path d="M623.1,653.18 L617.31,654.74 C617.31,654.74 579.6,621.74 531.53,671.74 C483.46,721.74 547.53,746.21 547.53,746.21 C547.53,746.21 613.53,749.04 634.26,736.78 C643.181589,731.430162 652.952451,727.645602 663.15,725.59 C669.385382,724.367338 675.059833,721.165376 679.33,716.46 C687.19257,707.849771 690.742945,696.147499 688.99,684.62 C686.698238,669.349116 675.528036,656.912434 660.59,653 C648.289822,649.802708 635.368909,649.864744 623.1,653.18 Z" id="Path" fill="#EFB7B9"></path>
            <path d="M134.13,658.66 C134.13,658.66 178.51,618.72 232.88,685.29 C287.25,751.86 190.71,753 190.71,753 C190.71,753 138.52,765.17 118.59,721.9 C98.66,678.63 134.13,658.66 134.13,658.66 Z" id="Path" fill="#EFB7B9"></path>
            <path d="M627.8,650.47 C627.8,650.47 679.39,665.53 668.33,725.06 L699.51,721.66 L706.09,691.39 L692.78,649.23 L667.26,639.23 L627.8,650.47 Z" id="Path" fill="#000000" opacity="0.1"></path>
            <path d="M628.91,650.47 C628.91,650.47 680.5,665.53 669.44,725.06 L700.62,721.66 L707.2,691.39 L693.89,649.23 L668.37,639.23 L628.91,650.47 Z" id="Path" fill="#67647E"></path>
            <path d="M495.84,210.4 C495.849082,220.346416 494.660528,230.257745 492.3,239.92 C484.502696,243.62533 475.773382,244.907208 467.24,243.6 C452.54,241.35 439.56,232.6 428.81,222.33 C418.06,212.06 409.04,200.11 398.67,189.43 C389.27,179.75 377.67,170.7 364.19,170.31 C351.95,169.95 340.8,176.79 329,180.03 C316.64,183.43 291.74,174.15 285.71,184.63 C282.17,190.79 283.42,204.34 281.33,211.63 C279.057387,219.592982 275.858881,227.262013 271.8,234.48 C268.8,239.75 264.39,245.34 258.34,245.29 C255.980167,245.171691 253.691786,244.441063 251.7,243.17 C238.926035,196.505287 254.394439,146.66876 291.345839,115.437948 C328.29724,84.2071353 380.014527,77.2592467 423.898319,97.6303648 C467.78211,118.001483 495.85511,161.988499 495.85,210.37 L495.84,210.4 Z" id="Path" fill="#000000" opacity="0.1"></path>
            <path d="M328.99,177.83 C340.8,174.59 351.99,167.75 364.18,168.11 C377.66,168.5 389.27,177.55 398.66,187.23 C409.02,197.9 418.04,209.85 428.8,220.13 C439.56,230.41 452.53,239.13 467.23,241.4 C481.93,243.67 498.48,238.14 506.11,225.4 C516.98,207.22 506.66,184.19 506.89,163.01 C507.04,149.62 511.56,136.5 511.05,123.12 C510.62,111.92 506.69,101.12 502.4,90.81 C500.31,85.81 498.02,80.63 494.02,76.92 C483.43,67.12 466.3,71.32 452.7,66.49 C435.12,60.24 426.92,40.77 416.76,25.12 C412.84,19.12 405.76,12.71 399.38,16.01 C391.87,19.89 393.91,33.15 386.32,36.87 C381.72,39.12 376.1,36.28 372.82,32.35 C369.54,28.42 367.65,23.48 364.43,19.51 C358.588275,12.5107201 349.331824,9.35195598 340.43,11.32 C338.700004,11.6063727 337.106253,12.4365243 335.88,13.69 C333.46,16.57 334.97,20.86 335.14,24.62 C335.72,37.26 320.57,44.28 307.99,45.62 C295.41,46.96 280.66,47.12 273.16,57.31 C269.16,62.7 268.34,69.72 265.66,75.86 C259.44,90.1 244.42,97.86 231.21,106.07 C218,114.28 204.41,126.17 204.53,141.7 C204.65,156.63 217.53,168.7 219.81,183.43 C221.01,191.25 219.14,199.33 220.64,207.1 C223.39,221.36 236.46,230.93 248.52,239.03 C251.52,241.03 254.72,243.12 258.32,243.15 C264.32,243.2 268.81,237.61 271.78,232.34 C275.838301,225.121731 279.036778,217.452769 281.31,209.49 C283.4,202.18 282.15,188.63 285.69,182.49 C291.73,171.95 316.63,181.22 328.99,177.83 Z" id="Path" fill="#3F3D56"></path>
            <ellipse id="Oval" fill="#416793" cx="691" cy="808" rx="76" ry="21"></ellipse>
            <g id="beer" transform="translate(626.000000, 569.000000)">
                <path d="M115.054474,40.1376806 C119.391126,40.1376806 122.916815,36.6265981 122.998639,32.2630078 C123.082281,27.7652946 119.300211,24.0833432 114.847187,24.0833432 L113.959855,24.0833432 C112.370659,24.0833432 111.0833,22.7806968 111.0833,21.1748954 L111.0833,20.0688403 C111.0833,15.6354328 107.5267,12.0416713 103.139135,12.0416713 L66.0421205,12.0416713 C64.7365793,12.0416713 63.6128679,11.1487432 63.2619356,9.87733086 C62.3273277,6.4948596 59.2562143,4.01266566 55.6105172,4.01266566 C53.5249237,4.01266566 51.6247974,4.82659018 50.2083394,6.15495901 C48.8882513,7.39146255 46.7862937,7.1415896 45.8225929,5.60560585 C43.7097248,2.23599535 39.9876592,0 35.7491952,0 C29.9797204,0 25.1684909,4.14311416 24.0684178,9.6439935 C23.7920357,11.0256439 22.6301401,12.0416713 21.2373203,12.0416713 L19.8590466,12.0416713 C15.4714819,12.0416713 11.9148816,15.6354328 11.9148816,20.0688403 L11.9148816,21.1748954 C11.9148816,22.7806968 10.6275232,24.0833432 9.03832672,24.0833432 L8.15281312,24.0833432 C3.69978958,24.0833432 -0.0822803202,27.7652946 0.0013613776,32.2630078 C0.0813667025,36.6265981 3.60705602,40.1376806 7.94370818,40.1376806 L8.90377208,47 L112.570672,47 L115.054474,40.1376806 Z" id="Path" fill="#FDE9AA"></path>
                <path d="M24.2484592,24 C26.3214795,24 28,22.432255 28,20.5000002 C28,18.5659761 26.3214795,17 24.2484592,17 L12.6752014,17 C12.2200094,17.9572804 11.9601707,19.0154197 11.9601707,20.1319517 L11.9601707,21.1971689 C11.9601707,22.7436807 10.6173542,23.9964613 8.95969679,23.9964613 L8.03603616,23.9964613 C8.0227596,23.9964613 8.01137956,23.9982306 8,24 L24.2484592,24 Z" id="Path" fill="#FDD453"></path>
                <path d="M53.8140674,9.84347843 C54.1615714,11.1102977 55.2667783,12 56.5529018,12 L66,12 C64.7138761,12 63.6086696,11.1102977 63.2629568,9.84347843 C62.3422496,6.47322673 59.3150228,4 55.7235489,4 C53.9484119,4 52.3147841,4.60594979 51,5.62379879 C52.3434442,6.6654463 53.3501313,8.13913044 53.8140674,9.84347843 Z" id="Path" fill="#FDE189"></path>
                <path d="M114.683646,24.0541865 L113.778515,24.0541865 C112.15744,24.0541865 110.844258,22.7518267 110.844258,21.1441111 L110.844258,20.0367376 C110.844258,15.5980453 107.216315,12 102.740738,12 L91,12 C95.4755766,12 99.1053753,15.5980453 99.1053753,20.0367376 L99.1053753,21.1441111 C99.1053753,22.7518267 100.418557,24.0541865 102.039632,24.0541865 L102.942909,24.0541865 C107.485257,24.0541865 111.343193,27.7423663 111.257874,32.2454409 C111.176263,36.6142327 107.579851,40.1295006 103.156208,40.1295006 L100.620728,47 L112.361466,47 L114.895091,40.1295006 C119.318734,40.1295006 122.915146,36.6142327 122.998611,32.2454409 C123.083931,27.7423663 119.225995,24.0541865 114.683646,24.0541865 Z" id="Path" fill="#FDE189"></path>
                <path d="M88,20.5000002 C88,22.432255 89.5958641,24 91.5627754,24 L115,24 C114.987391,24 114.976585,23.9964613 114.965777,23.9964613 L114.086791,23.9964613 C112.512542,23.9964613 111.237292,22.7436807 111.237292,21.1971689 L111.237292,20.1319517 C111.237292,19.0154197 110.992328,17.9572804 110.558239,17 L91.5645765,17 C89.5958641,17 88,18.5659761 88,20.5000002 Z" id="Path" fill="#FDD453"></path>
                <path d="M115.997425,40 L114.889636,66.6232102 C114.847522,67.6156299 115.325428,68.5512876 116.136586,69.1244006 C123.310665,74.1926981 128,82.5476983 128,92.0013183 C128,102.29172 122.442744,111.280258 114.170031,116.145311 C113.316759,116.647014 112.771104,117.538726 112.72899,118.527484 L107.990215,232.39023 L107.979229,232.39023 C107.774151,236.625408 104.285988,240 99.9994854,240 C95.712982,240 32.285187,240 27.998684,240 C23.7140119,240 20.2240186,236.625408 20.0189403,232.39023 L20.0097846,232.39023 L12.7972537,116.85392 C12.7441527,115.995166 12.3101924,115.202329 11.61256,114.698795 C4.57947238,109.612188 0,101.343246 0,92.0013183 C0,83.9118177 3.43323082,76.6298018 8.91724497,71.5193909 C9.54712838,70.9316291 9.87854948,70.0930166 9.82544896,69.2324311 L7.99988534,40.0018314 L115.997425,40 Z" id="Path" fill="#FDBF00"></path>
                <path d="M128,92.0010463 C128,82.5474757 123.312496,74.1925192 116.138417,69.1242482 C115.327259,68.5511382 114.849353,67.6154855 114.891467,66.6230709 L115.999256,40 L8.00171639,40 L9.82544907,69.2322782 C9.88038053,70.0910282 9.54895943,70.9314673 8.91907601,71.5173946 C3.43323093,76.6277792 0,83.911588 0,91.9992154 C0,93.3596654 0.108032447,94.69265 0.294799969,96 L127.714355,96 C127.901123,94.69265 128,93.357834 128,92.0010463 Z" id="Path" fill="#F2F7FB"></path>
                <path d="M44,36 L44,64.0004883 C44,68.4188236 47.5814606,72.0003661 51.9996948,72.0003661 C56.4179285,72.0003661 59.9993895,68.4188236 59.9993895,64.0004883 L59.9993895,55.9987795 C59.9993895,51.5804442 63.5808506,47.9989017 67.9990843,47.9989017 C72.4173185,47.9989017 75.9987791,51.5804442 75.9987791,55.9987795 L75.9987791,88.0001222 C75.9987791,92.418457 79.5802406,96 83.9984743,96 C88.418539,96 92,92.418457 92,88.0001222 L92,36 L44,36 Z" id="Path" fill="#FDE9AA"></path>
                <path d="M58.1714353,48 C53.7530326,48 50.1696041,51.581324 50.1696041,56.0012206 L50.1696041,64.0006103 C50.1696041,66.6023806 48.922637,68.9057066 47,70.3667993 C48.3421839,71.3866345 50.0121312,72 51.8285652,72 C56.2469674,72 59.8285649,68.418676 59.8285649,64.0006103 L59.8285649,56.0012206 C59.8285649,53.3994507 61.0755321,51.0942934 63,49.6332007 C61.6559856,48.6133655 59.9878692,48 58.1714353,48 Z" id="Path" fill="#FDE189"></path>
                <path d="M92,36 L85.1493005,36 C83.5275479,36 82.2138163,37.296381 82.2138163,38.896716 L82.2138163,87.9998929 C82.2138163,90.60181 80.9483298,92.9052669 79,94.3664419 C80.5215525,95.507184 82.4568938,96.138895 84.5518128,95.974101 C88.7973168,95.6390194 92,92.0025611 92,87.800309 L92,36 Z" id="Path" fill="#FDE189"></path>
                <path d="M115.313709,69.1244006 C114.514661,68.5512876 114.043891,67.6156299 114.085376,66.6232102 L115.176626,40 L103.760892,40 L102.669642,66.6232102 C102.628156,67.6156299 103.097124,68.5512876 103.897974,69.1244006 C110.964943,74.1926981 115.582462,82.5476983 115.582462,92.0013183 C115.582462,102.29172 110.109981,111.280258 101.960781,116.145311 C101.120248,116.647014 100.580936,117.538726 100.541254,118.527484 L95.8714273,232.39023 L95.8624088,232.39023 C95.6603924,236.625408 92.2225048,240 88,240 L99.417538,240 C103.640043,240 107.076126,236.625408 107.278143,232.39023 L107.288965,232.39023 L111.956989,118.527484 C111.998474,117.538726 112.535982,116.647014 113.376515,116.145311 C121.525715,111.280258 127,102.29172 127,92.0013183 C126.998196,82.5476983 122.380677,74.1926981 115.313709,69.1244006 Z" id="Path" fill="#FDA400"></path>
                <path d="M104.078827,40 L103.002506,66.6230709 C102.961588,67.6154855 103.424139,68.5511382 104.214033,69.1242482 C111.184319,74.1925192 115.738666,82.5474757 115.738666,92.0010463 C115.738666,93.357834 115.642598,94.69265 115.461135,96 L126.720691,96 C126.809643,95.3628041 126.877246,94.7182841 126.923502,94.0682713 C126.92528,94.0499609 126.927059,94.0298195 126.928838,94.0115095 C126.950187,93.7185459 126.96442,93.4255822 126.975094,93.1307877 C126.976873,93.0886741 126.980431,93.0447295 126.98221,93.000785 C126.994663,92.6693695 127,92.3361236 127,92.0010463 C127,82.5474757 122.445653,74.1925192 115.473589,69.1242482 C114.685473,68.5511382 114.222922,67.6154855 114.262061,66.6230709 L115.340161,40 L104.078827,40 Z" id="Path" fill="#E6F1FA"></path>
                <path d="M95.3905107,220 L31.6094888,220 C29.6149634,220 28,221.566372 28,223.499115 C28,225.433628 29.6149634,227 31.6094888,227 L95.3905107,227 C97.3850361,227 99,225.433628 99,223.499115 C99,221.566372 97.3832114,220 95.3905107,220 Z" id="Path" fill="#FD7E00"></path>
            </g>
        </g>
    </g>
</svg>