<?xml version="1.0" encoding="UTF-8"?>
<svg width="901px" height="787px" viewBox="0 0 901 787" version="1.1" xmlns="http://www.w3.org/2000/svg" xmlns:xlink="http://www.w3.org/1999/xlink">
    <!-- Generator: Sketch 48.2 (47327) - http://www.bohemiancoding.com/sketch -->
    <title>Group 2</title>
    <desc>Created with Sketch.</desc>
    <defs>
        <linearGradient x1="49.9992867%" y1="100.009217%" x2="49.9992867%" y2="-2.61975384e-15%" id="linearGradient-1">
            <stop stop-color="#808080" stop-opacity="0.25" offset="0%"></stop>
            <stop stop-color="#808080" stop-opacity="0.12" offset="54%"></stop>
            <stop stop-color="#808080" stop-opacity="0.1" offset="100%"></stop>
        </linearGradient>
    </defs>
    <g id="Page-1" stroke="none" stroke-width="1" fill="none" fill-rule="evenodd">
        <g id="Group-2">
            <g id="coding">
                <rect id="Rectangle-path" fill="#263B53" fill-rule="nonzero" opacity="0.2" x="763.63" y="283" width="52" height="27"></rect>
                <rect id="Rectangle-path" fill="#263B53" fill-rule="nonzero" opacity="0.2" x="767.63" y="316" width="52" height="27"></rect>
                <rect id="Rectangle-path" fill="#263B53" fill-rule="nonzero" opacity="0.2" x="724.63" y="87" width="52" height="27"></rect>
                <rect id="Rectangle-path" fill="#263B53" fill-rule="nonzero" opacity="0.2" x="761.63" y="118" width="52" height="27"></rect>
                <rect id="Rectangle-path" fill="#263B53" fill-rule="nonzero" opacity="0.2" x="661.63" y="89" width="52" height="27"></rect>
                <rect id="Rectangle-path" fill="#263B53" fill-rule="nonzero" opacity="0.2" x="828.63" y="149" width="52" height="27"></rect>
                <rect id="Rectangle-path" fill="#263B53" fill-rule="nonzero" opacity="0.2" x="765.63" y="151" width="52" height="27"></rect>
                <rect id="Rectangle-path" fill="#263B53" fill-rule="nonzero" opacity="0.2" x="698.63" y="120" width="52" height="27"></rect>
                <rect id="Rectangle-path" fill="#263B53" fill-rule="nonzero" opacity="0.2" x="825.63" y="357" width="52" height="27"></rect>
                <rect id="Rectangle-path" fill="#263B53" fill-rule="nonzero" opacity="0.2" x="762.63" y="359" width="52" height="27"></rect>
                <path d="M130.75,276 C130.75,276 204.04,349.29 162.67,458 C121.3,566.71 233.58,747.64 233.58,747.64 C233.58,747.64 232.38,747.46 230.15,747.07 C79.63,720.5 4.84,548.35 88.58,420.5 C119.66,372.91 145.2,317.14 130.75,276 Z" id="Shape" fill="#263B53" fill-rule="nonzero"></path>
                <path d="M130.75,276 C130.75,276 172.12,365.84 130.75,439.12 C89.38,512.4 123.66,718.12 233.59,747.64" id="Shape" stroke="#535461" stroke-width="2"></path>
                <path d="M0.21,572.42 C0.21,572.42 83.84,559.1 91.46,634.05 C99.08,709 252.28,719.39 252.28,719.39 C252.28,719.39 251.28,720.07 249.41,721.3 C122.92,804.3 2.01,774.19 20.24,663.94 C27.01,622.95 26.45,581.78 0.21,572.42 Z" id="Shape" fill="#263B53" fill-rule="nonzero"></path>
                <path d="M0.21,572.42 C0.21,572.42 83.84,559.1 91.46,634.05 C99.08,709 252.28,719.39 252.28,719.39 C252.28,719.39 251.28,720.07 249.41,721.3 C122.92,804.3 2.01,774.19 20.24,663.94 C27.01,622.95 26.45,581.78 0.21,572.42 Z" id="Shape" fill="#F5F5F5" fill-rule="nonzero" opacity="0.2"></path>
                <path d="M0.21,572.42 C0.21,572.42 65.12,586.67 59.79,645.69 C54.46,704.71 156.19,775.5 252.28,719.39" id="Shape" stroke="#535461" stroke-width="2"></path>
                <rect id="Rectangle-path" fill="#263B53" fill-rule="nonzero" opacity="0.2" x="0.63" y="284" width="52" height="27"></rect>
                <rect id="Rectangle-path" fill="#263B53" fill-rule="nonzero" opacity="0.2" x="37.63" y="315" width="52" height="27"></rect>
                <rect id="Rectangle-path" fill="#263B53" fill-rule="nonzero" opacity="0.2" x="318.63" y="0" width="52" height="27"></rect>
                <rect id="Rectangle-path" fill="#263B53" fill-rule="nonzero" opacity="0.2" x="728.63" y="498" width="52" height="27"></rect>
                <rect id="Rectangle-path" fill="#263B53" fill-rule="nonzero" opacity="0.2" x="41.63" y="348" width="52" height="27"></rect>
                <rect id="Rectangle-path" fill="#263B53" fill-rule="nonzero" opacity="0.2" x="355.63" y="31" width="52" height="27"></rect>
                <rect id="Rectangle-path" fill="#263B53" fill-rule="nonzero" opacity="0.2" x="165.63" y="214" width="52" height="27"></rect>
                <rect id="Rectangle-path" fill="#263B53" fill-rule="nonzero" opacity="0.2" x="202.63" y="245" width="52" height="27"></rect>
                <rect id="Rectangle-path" fill="#263B53" fill-rule="nonzero" opacity="0.2" x="301.63" y="228" width="52" height="27"></rect>
                <rect id="Rectangle-path" fill="#263B53" fill-rule="nonzero" opacity="0.2" x="206.63" y="278" width="52" height="27"></rect>
                <rect id="Rectangle-path" fill="#263B53" fill-rule="nonzero" opacity="0.2" x="798.63" y="498" width="52" height="27"></rect>
                <path d="M720.65,391.11 C717.283013,372.372042 715.218071,353.423355 714.47,334.4 C713.107883,302.297657 691.704546,274.520561 661.01,265.02 C655.55,263.34 649.54,261.77 642.9,260.36 C584.7,248 567.02,258.79 565.01,260.21 C563.307804,257.115523 561.827417,253.904119 560.58,250.6 C560.48,250.26 560.39,249.92 560.29,249.6 C571.808595,237.316417 578.826612,221.493272 580.2,204.71 C589.91,194.87 595.58,182.99 595.58,170.2 C595.58,159.2 591.38,148.88 584.03,139.95 L584.03,122.57 C584.03,102.52759 576.068184,83.3060647 561.896059,69.1339405 C547.723935,54.9618164 528.50241,47 508.46,47 L502.33,47 C482.28759,47 463.066065,54.9618164 448.893941,69.1339405 C434.721816,83.3060647 426.76,102.52759 426.76,122.57 L426.76,141.3 C420.09,149.91 416.31,159.74 416.31,170.18 C416.31,182.7 421.75,194.34 431.09,204.06 C432.366221,221.458091 439.705769,237.857061 451.83,250.4 C452.24,253.24 452.66,256.29 453.07,259.51 L348.97,281.5 C348.97,281.5 308.83,283.15 282.97,336.5 C261.1,381.69 217.58,497.79 204.69,532.35 C202.36,538.61 201.04,542.2 201.04,542.2 C201.04,542.2 201.47,541.77 202.28,541.03 L201.04,544.4 C201.04,544.4 201.67,543.76 202.87,542.71 C201.05,557.17 200.79,582 219.73,585.09 C235.61,587.68 276.53,588.75 307.44,589.18 L309.58,589.18 C330.07,589.45 345.66,589.45 345.66,589.45 L345.66,589.18 L678.1,589.18 L678.1,585.77 C678.103738,582.677231 677.481231,579.615725 676.27,576.77 L676.73,576.21 C678.508978,578.559043 679.692706,581.303918 680.18,584.21 C680.14168,584.492652 680.08827,584.773053 680.02,585.05 L680.22,584.54 C680.298055,585.44822 680.230538,586.363078 680.02,587.25 C680.02,587.25 722.67,477.36 722.21,411.74 C722.3324,404.829792 721.810139,397.923225 720.65,391.11 Z M454.8,274.36 C454.249157,271.22522 453.895131,268.059026 453.74,264.88 C453.74,264.88 453.74,264.82 453.74,264.79 C454.11,267.88 454.47,271.08 454.8,274.36 Z M325.58,510.4 L325.58,536.59 L309.18,540.1 L325.58,510.4 Z" id="Shape" fill="url(#linearGradient-1)" fill-rule="nonzero"></path>
                <path d="M503.71,57.57 C545.446159,57.57 579.28,91.4038415 579.28,133.14 L579.28,165.38 L428.14,165.38 L428.14,133.14 C428.14,91.4038415 461.973841,57.57 503.71,57.57 Z" id="Shape" fill="#E14B5A" fill-rule="nonzero"></path>
                <ellipse id="Oval" fill="#E14B5A" fill-rule="nonzero" cx="504.24" cy="175.95" rx="86.14" ry="59.19"></ellipse>
                <path d="M449.02,233.29 C449.02,233.29 467.02,327.36 449.02,352.73 C431.02,378.1 504.02,388.14 504.02,388.14 L579.58,360.66 L590.15,293.01 C590.15,293.01 544.15,267.11 553.68,214.79 L449.02,233.29 Z" id="Shape" fill="#F7C4A7" fill-rule="nonzero"></path>
                <path d="M672.04,550.39 C672.04,550.39 676.8,571 650.9,574.7 C635.607226,576.949617 620.054724,576.763986 604.82,574.15 L599.11,522.38 L659.36,522.38 L672.04,550.39 Z" id="Shape" fill="#F7C4A7" fill-rule="nonzero"></path>
                <path d="M214.7,524.01 C214.7,524.01 203.26,570.5 229.16,574.7 C255.06,578.9 350.16,578.93 350.16,578.93 L350.16,523.93 L307.1,533.13 L266.68,494.37 L214.7,524.01 Z" id="Shape" fill="#F7C4A7" fill-rule="nonzero"></path>
                <path d="M454.58,263.68 L353.37,285.08 C353.37,285.08 314.79,286.67 289.95,337.93 C265.11,389.19 211.2,535.59 211.2,535.59 C211.2,535.59 257.2,489.08 311.09,538.76 L347.03,473.76 L339.1,576.82 L617.58,576.82 L617.58,528.19 C617.58,528.19 675.71,559.37 671.49,576.81 C671.49,576.81 721.24,448.63 710.49,390.38 C707.25393,372.372286 705.26918,354.162032 704.55,335.88 C703.24915,305.026028 682.674437,278.328555 653.17,269.21 C647.93,267.6 642.17,266.09 635.77,264.74 C576.05,252.06 560.77,264.74 560.77,264.74 C560.77,264.74 549.2,302.38 549.41,319.44 C549.67,341.37 518.23,355.91 518.23,355.91 C518.23,355.91 471.72,344.81 469.61,335.83 C467.5,326.85 450.86,274.25 454.58,263.68 Z" id="Shape" fill="#000000" fill-rule="nonzero" opacity="0.1"></path>
                <path d="M454.58,261.57 L353.37,282.97 C353.37,282.97 314.79,284.56 289.95,335.82 C265.11,387.08 211.19,533.5 211.19,533.5 C211.19,533.5 257.19,486.99 311.08,536.67 L347.02,471.67 L339.09,574.7 L617.58,574.7 L617.58,526.08 C617.58,526.08 675.71,557.26 671.49,574.7 C671.49,574.7 721.24,446.52 710.49,388.27 C707.25393,370.262286 705.26918,352.052032 704.55,333.77 C703.24915,302.916028 682.674437,276.218555 653.17,267.1 C647.93,265.49 642.17,263.98 635.77,262.63 C576.05,249.95 560.77,262.63 560.77,262.63 C560.77,262.63 549.2,300.27 549.41,317.33 C549.67,339.26 518.23,353.8 518.23,353.8 C518.23,353.8 471.72,342.7 469.61,333.72 C467.5,324.74 450.86,272.14 454.58,261.57 Z" id="Shape" fill="#575988" fill-rule="nonzero"></path>
                <path d="M558,257.08 C553.748606,245.043651 552.795644,232.088893 555.24,219.56 L450.58,238.05 C450.58,238.05 452.09,245.96 453.8,257.81 C467.466008,271.990768 486.353143,279.941352 506.046667,279.803357 C525.740192,279.665363 544.514057,271.450884 557.98,257.08 L558,257.08 Z" id="Shape" fill="#000000" fill-rule="nonzero" opacity="0.1"></path>
                <path d="M575.85,203.17 C575.67924,242.406664 544.074959,274.25694 504.840799,274.73191 C465.606638,275.20688 433.240572,244.131031 432.12,204.91 C432.12,204.33 432.12,203.75 432.12,203.17 C432.113329,175.712523 447.747336,150.64922 472.41,138.58 C474.563333,137.526667 476.776667,136.58 479.05,135.74 C490.873919,131.393441 503.627442,130.207708 516.05,132.3 C548.823986,137.880761 573.483943,165.225554 575.66,198.4 C575.786667,199.98 575.85,201.57 575.85,203.17 Z" id="Shape" fill="#F7C4A7" fill-rule="nonzero"></path>
                <g id="Group" opacity="0.1" transform="translate(432.000000, 133.000000)" fill="#000000" fill-rule="nonzero">
                    <path d="M46.94,4.43 L47.04,4.37 C44.7666667,5.21 42.5533333,6.15666667 40.4,7.21 C15.7373357,19.2792202 0.103329339,44.3425231 0.11,71.8 C0.11,72.38 0.11,72.96 0.109997866,73.54 C2.34467313,73.4795975 4.5418899,72.9515841 6.56,71.99 C24.08,63.81 34.56,38.79 38.72,21.34 C40.22,15.09 41.63,8.05 46.94,4.43 Z" id="Shape"></path>
                    <path d="M101.95,6.44 C96.2611483,3.82655169 90.2527888,1.97394615 84.08,0.93 C89.1424264,2.09487162 93.6632467,4.93491928 96.91,8.99 C98.5011666,11.1539449 99.8210134,13.5048169 100.84,15.99 C81.4809363,7.52549258 59.3826025,7.98244738 40.39,17.24 C44.9,27.13 58.89,32.52 68.23,36.13 C78.4566667,40.0766667 88.79,43.6866667 99.23,46.96 L89.99,39.46 L110.86,42.78 C111.084596,38.6265376 110.59068,34.4654703 109.4,30.48 C113.4,33.7 118.7,34.78 123.04,37.48 C131.17,42.61 134.56,52.48 138.99,61.03 C140.16,63.29 141.54,65.6 143.65,67.03 C141.912154,40.7147336 125.908887,17.4620264 101.95,6.44 Z" id="Shape"></path>
                </g>
                <path d="M478.94,135.8 L479.04,135.74 C476.766667,136.58 474.553333,137.526667 472.4,138.58 C447.737336,150.64922 432.103329,175.712523 432.11,203.17 C432.11,203.75 432.11,204.33 432.109998,204.91 C434.344673,204.849597 436.54189,204.321584 438.56,203.36 C456.08,195.18 466.56,170.16 470.72,152.71 C472.22,146.5 473.63,139.43 478.94,135.8 Z" id="Shape" fill="#632652" fill-rule="nonzero"></path>
                <path d="M533.95,137.82 C528.261148,135.206552 522.252789,133.353946 516.08,132.31 C521.142426,133.474872 525.663247,136.314919 528.91,140.37 C530.501167,142.533945 531.821013,144.884817 532.84,147.37 C513.480936,138.905493 491.382603,139.362447 472.39,148.62 C476.9,158.51 490.89,163.9 500.23,167.51 C510.456667,171.456667 520.79,175.066667 531.23,178.34 L521.99,170.84 L542.86,174.16 C543.084596,170.006538 542.59068,165.84547 541.4,161.86 C545.4,165.08 550.7,166.16 555.04,168.86 C563.17,173.99 566.56,183.86 570.99,192.41 C572.16,194.67 573.54,196.98 575.65,198.41 C573.912154,172.094734 557.908887,148.842026 533.95,137.82 Z" id="Shape" fill="#632652" fill-rule="nonzero"></path>
                <path d="M423.91,191.32 C423.91,191.32 497.91,99.32 583.52,191.32 L576.12,170.71 C576.12,170.71 535.95,112.05 507.42,124.71 C478.89,137.37 450.87,146.38 450.87,146.38 L423.91,191.32 Z" id="Shape" fill="#000000" fill-rule="nonzero" opacity="0.1"></path>
                <path d="M423.91,189.69 C423.91,189.69 497.91,97.69 583.52,189.69 L576.12,169.08 C576.12,169.08 535.95,110.42 507.42,123.08 C478.89,135.74 450.87,144.75 450.87,144.75 L423.91,189.69 Z" id="Shape" fill="#E14B5A" fill-rule="nonzero"></path>
                <path d="M363.13,387.88 C363.13,387.88 347.28,430.16 369.47,468.21 C391.66,506.26 349.92,522.12 349.92,522.12" id="Shape" fill="#000000" fill-rule="nonzero" opacity="0.1"></path>
                <path d="M619.98,349.83 C619.98,349.83 647.46,384.71 629.49,415.89 C611.52,447.07 612.58,522.12 612.58,522.12" id="Shape" fill="#000000" fill-rule="nonzero" opacity="0.1"></path>
                <path d="M338.82,553.3 L644.29,553.3 C658.301464,553.3 669.66,564.658536 669.66,578.67 L313.46,578.67 C313.459999,564.66244 324.812441,553.305521 338.82,553.3 Z" id="Shape" fill="#535461" fill-rule="nonzero"></path>
                <path d="M369.9,378.89 L613.22,378.89 C623.563443,378.89 633.483246,382.998917 640.797164,390.312836 C648.111083,397.626754 652.22,407.546557 652.22,417.89 L652.22,559.11 L330.9,559.11 L330.9,417.89 C330.9,396.350895 348.360895,378.89 369.9,378.89 Z" id="Shape" fill="#535461" fill-rule="nonzero"></path>
                <circle id="Oval" fill="#FFFFFF" fill-rule="nonzero" cx="491.29" cy="476.93" r="19.03"></circle>
                <path d="M428.14,148.2 C428.14,148.2 500.86,75.52 579.29,146.87" id="Shape" stroke="#000000" opacity="0.1"></path>
                <rect id="Rectangle-path" fill="#6A5C99" fill-rule="nonzero" x="590.36" y="143.57" width="7.3" height="41.39"></rect>
                <path d="M580.62,170.35 C594.515484,170.35 605.78,181.614516 605.78,195.51 L605.78,197.13 C605.78,211.025484 594.515484,222.29 580.62,222.29 L580.62,170.35 Z" id="Shape" fill="#FFD037" fill-rule="nonzero"></path>
                <rect id="Rectangle-path" fill="#6A5C99" fill-rule="nonzero" x="575.75" y="167.92" width="11.36" height="56.81" rx="5.68"></rect>
                <rect id="Rectangle-path" fill="#6A5C99" fill-rule="nonzero" transform="translate(412.670000, 165.075000) rotate(-180.000000) translate(-412.670000, -165.075000) " x="409.02" y="144.38" width="7.3" height="41.39"></rect>
                <path d="M400.9,171.16 C414.795484,171.16 426.06,182.424516 426.06,196.32 L426.06,197.94 C426.06,204.612847 423.409222,211.012391 418.690807,215.730807 C413.972391,220.449222 407.572847,223.1 400.9,223.1 L400.9,171.16 Z" id="Shape" fill="#FFD037" fill-rule="nonzero" transform="translate(413.480000, 197.130000) rotate(180.000000) translate(-413.480000, -197.130000) "></path>
                <rect id="Rectangle-path" fill="#6A5C99" fill-rule="nonzero" transform="translate(425.250000, 197.125000) rotate(-180.000000) translate(-425.250000, -197.125000) " x="419.57" y="168.72" width="11.36" height="56.81" rx="5.68"></rect>
                <path d="M589.5,99.33 C579.61,78.77 558.07,53.91 511.64,51.92 L511.64,51.86 L511.08,51.86 L494.63,52.64 L494.63,52.72 C448.51,54.84 427.07,79.61 417.21,100.1 C410.64311,113.990437 407.156811,129.136392 406.99,144.5 L412.67,144.36 L418.35,144.23 C418.59507,130.551896 421.741082,117.081646 427.58,104.71 C440.1,78.99 463.14,65.32 496.05,64.05 L510.6,63.24 C543.53,64.5 566.58,78.19 579.09,103.9 C584.938577,116.276245 588.091491,129.753673 588.34,143.44 L594.02,143.57 L599.7,143.71 C599.53657,128.354632 596.05718,113.215872 589.5,99.33 Z" id="Shape" fill="#FFD037" fill-rule="nonzero"></path>
                <rect id="Rectangle-path" fill="#D6D6E3" fill-rule="nonzero" x="74.28" y="579" width="774.71" height="208"></rect>
                <rect id="Rectangle-path" fill="#000000" fill-rule="nonzero" opacity="0.1" x="74.28" y="593" width="774.71" height="27"></rect>
                <rect id="Rectangle-path" fill="#D6D6E3" fill-rule="nonzero" x="22.31" y="576" width="878.63" height="27"></rect>
            </g>
            <g id="white_logo_red_circle" transform="translate(381.500000, 427.500000) rotate(-20.000000) translate(-381.500000, -427.500000) translate(360.000000, 406.000000)" fill-rule="nonzero">
                <path d="M21.5,43 C33.3741222,43 43,33.3741221 43,21.5 C43,9.62587786 33.3741222,0 21.5,0 C9.6258779,0 0,9.62587786 0,21.5 C0,33.3741221 9.6258779,43 21.5,43 Z" id="Red-circle" fill="#D23333"></path>
                <g id="Le-Wagon-icon" transform="translate(7.166667, 12.740741)" fill="#FFFFFF">
                    <path d="M6.36139943,12.2766787 C4.95213524,12.2766787 3.81263756,13.4390797 3.81263756,14.8765436 C3.81263756,16.3140637 4.95219033,17.4764085 6.36139943,17.4764085 C7.77060852,17.4764085 8.91016127,16.3140075 8.91016127,14.8765436 C8.91016127,13.4390797 7.77060852,12.2766787 6.36139943,12.2766787 Z M6.36139943,16.2727621 C5.59947568,16.2727621 4.97240766,15.6331213 4.97240766,14.8559209 C4.97240766,14.0787205 5.59947568,13.4390797 6.36139943,13.4390797 C7.12332313,13.4390797 7.75039115,14.0787205 7.75039115,14.8559209 C7.75039115,15.653744 7.1435405,16.2727621 6.36139943,16.2727621 Z" id="Back-wheel"></path>
                    <path d="M21.1415409,12.2766787 C19.7322768,12.2766787 18.592779,13.4390797 18.592779,14.8765436 C18.592779,16.3140637 19.7323318,17.4764085 21.1415409,17.4764085 C22.5508051,17.4764085 23.6903028,16.3140075 23.6903028,14.8765436 C23.6903579,13.4390797 22.5508051,12.2766787 21.1415409,12.2766787 Z M21.1415409,16.2727621 C20.3796172,16.2727621 19.7525492,15.6331213 19.7525492,14.8559209 C19.7525492,14.0787205 20.3796172,13.4390797 21.1415409,13.4390797 C21.9034646,13.4390797 22.5305327,14.0787205 22.5305327,14.8559209 C22.5305878,15.653744 21.9035197,16.2727621 21.1415409,16.2727621 Z" id="Front-wheel"></path>
                    <path d="M6.36139943,11.7539186 C8.06059234,11.7539186 9.42264601,13.1432816 9.42264601,14.8765436 L18.0804045,14.8765436 C18.0804045,13.1432816 19.4424581,11.7539186 21.1416511,11.7539186 C22.840844,11.7539186 24.2028977,13.1432816 24.2028977,14.8765436 L27.3787276,14.8077638 C27.3787276,14.8077638 27.8507226,14.6495815 27.8507226,13.7141427 C27.8507226,12.77876 27.2236545,12.6893013 27.2236545,12.6893013 L25.7469625,12.6686786 C25.7469625,12.6686786 25.550795,11.4994222 24.3376983,10.3163985 C23.1246016,9.13337491 21.3843693,9.13337491 21.3843693,9.13337491 L0.340158172,9.22277739 L0.340158172,13.4665017 C0.340158172,13.4665017 0.0300120789,13.280785 0.00979474037,14.1474441 C-0.0105327744,14.9934805 0.367041172,14.8559209 0.367041172,14.8559209 L3.30015282,14.8765436 C3.30015282,13.1389363 4.66220648,11.7539186 6.36139943,11.7539186 Z" id="Bottom-frame"></path>
                    <path d="M27.1358992,8.335608 L27.0212608,6.84998697 C27.0212608,6.84998697 26.2004191,4.1183034 24.2315147,2.04114248 L24.5436852,2.04114248 C23.6457278,0.216154834 16.4822426,0.114790956 13.9402571,0.0270204896 C11.3510055,-0.0623819999 1.68188432,0.618504215 0.724397778,1.5126415 C0.299613319,1.89778584 0.367041172,2.46870306 0.367041172,2.46870306 L0.367041172,8.42501048 L21.3996833,8.42501079 C21.3996833,8.42501079 23.3175056,8.42501079 24.7893658,9.6355123 C26.0677161,10.6868655 26.3739203,12.2835343 26.3739203,12.2835343 L27.1358441,12.2835343 L27.1156267,9.93125419 L27.452766,9.95187687 C27.7831845,9.42917294 27.6483288,8.51441297 27.4056106,8.335608 L27.1358992,8.335608 Z M7.19289943,6.91871058 C7.19289943,7.03564746 7.10525424,7.12504995 6.99061588,7.12504995 L2.72244374,7.12504995 C2.60780538,7.12504995 2.52016018,7.03564746 2.52016018,6.91871058 L2.52016018,2.60620645 C2.52016018,2.48926957 2.60780538,2.39986708 2.72244374,2.39986708 L6.99061588,2.39986708 C7.10525424,2.39986708 7.19289943,2.48926957 7.19289943,2.60620645 L7.19289943,6.91871058 Z M12.9501033,6.93938945 C12.9501033,7.05632633 12.8624581,7.14572881 12.7478198,7.14572881 L8.47964766,7.14572881 C8.3650093,7.14572881 8.27736411,7.05632633 8.27736411,6.93938945 L8.27736411,2.62688534 C8.27736411,2.50994846 8.3650093,2.42054597 8.47964766,2.42054597 L12.7478198,2.42054597 C12.8624581,2.42054597 12.9501033,2.50994846 12.9501033,2.62688534 L12.9501033,6.93938945 Z M18.6789856,6.93938945 C18.6789856,7.05632633 18.5913404,7.14572881 18.476702,7.14572881 L14.2085299,7.14572881 C14.0938915,7.14572881 14.0062463,7.05632633 14.0062463,6.93938945 L14.0062463,2.62688534 C14.0062463,2.50994846 14.0938915,2.42054597 14.2085299,2.42054597 L18.4834778,2.42054597 C18.5981162,2.42054597 18.6857614,2.50994846 18.6857614,2.62688534 L18.6857614,6.93938945 L18.6789856,6.93938945 Z M20.0109452,7.15376423 C19.7884442,7.15376423 19.6773475,7.12370814 19.6773475,6.89903585 L19.6773475,2.82006326 C19.6773475,2.59539095 19.6581258,2.42858152 19.8806267,2.42858152 L22.5430313,2.42858152 C24.0399406,2.42858152 25.7188612,5.41073229 25.7188612,6.18009168 C25.7189163,6.92903647 25.53685,7.15376438 25.3345664,7.15376438 L20.0109452,7.15376423 Z" id="Top-Frame"></path>
                </g>
            </g>
        </g>
    </g>
</svg>