<?xml version="1.0" encoding="UTF-8"?>
<svg width="863px" height="797px" viewBox="0 0 863 797" version="1.1" xmlns="http://www.w3.org/2000/svg" xmlns:xlink="http://www.w3.org/1999/xlink">
    <!-- Generator: Sketch 52.2 (67145) - http://www.bohemiancoding.com/sketch -->
    <title>undraw_business_plan_5i9d</title>
    <desc>Created with Sketch.</desc>
    <defs>
        <filter x="-5.6%" y="-9.4%" width="111.3%" height="118.8%" filterUnits="objectBoundingBox" id="filter-1">
            <feOffset dx="0" dy="0" in="SourceAlpha" result="shadowOffsetOuter1"></feOffset>
            <feGaussianBlur stdDeviation="7.5" in="shadowOffsetOuter1" result="shadowBlurOuter1"></feGaussianBlur>
            <feColorMatrix values="0 0 0 0 0   0 0 0 0 0   0 0 0 0 0  0 0 0 0.2 0" type="matrix" in="shadowBlurOuter1" result="shadowMatrixOuter1"></feColorMatrix>
            <feMerge>
                <feMergeNode in="shadowMatrixOuter1"></feMergeNode>
                <feMergeNode in="SourceGraphic"></feMergeNode>
            </feMerge>
        </filter>
        <linearGradient x1="49.9994739%" y1="100%" x2="49.9994739%" y2="0%" id="linearGradient-2">
            <stop stop-color="#808080" stop-opacity="0.25" offset="0%"></stop>
            <stop stop-color="#808080" stop-opacity="0.12" offset="54%"></stop>
            <stop stop-color="#808080" stop-opacity="0.1" offset="100%"></stop>
        </linearGradient>
        <linearGradient x1="49.9899601%" y1="100.007353%" x2="49.9899601%" y2="-0.00193859288%" id="linearGradient-3">
            <stop stop-color="#808080" stop-opacity="0.25" offset="0%"></stop>
            <stop stop-color="#808080" stop-opacity="0.12" offset="54%"></stop>
            <stop stop-color="#808080" stop-opacity="0.1" offset="100%"></stop>
        </linearGradient>
    </defs>
    <g id="Page-1" stroke="none" stroke-width="1" fill="none" fill-rule="evenodd">
        <g id="undraw_business_plan_5i9d" transform="translate(-149.000000, -30.000000)">
            <ellipse id="Oval" fill="#243B55" opacity="0.1" cx="580.68" cy="796.68" rx="430.73" ry="29.88"></ellipse>
            <polygon id="Path" fill="#535461" points="492.46 304.36 491.36 306.63 484.23 321.28 409.44 474.85 282.53 785.81 264.39 785.95 391.37 474.85 477.9 297.15 484.23 300.28 491.36 303.81"></polygon>
            <polygon id="Path" fill="#535461" points="715.12 785.95 700.19 785.81 573.27 474.85 500.45 325.31 491.36 306.63 490.25 304.36 491.36 303.81 500.45 299.31 504.82 297.15 590.05 474.85"></polygon>
            <rect id="Rectangle" fill="#535461" x="484.23" y="255.38" width="16.23" height="530.57"></rect>
            <path d="M490.49,30.034677 C479.08989,30.0506938 469.851025,43.4723324 469.84,60.033692 L469.84,70.7548897 C469.675237,81.6324932 473.575625,91.7878298 480.034064,97.2969034 C486.492503,102.805977 494.497497,102.805977 500.955936,97.2969034 C507.414375,91.7878298 511.314763,81.6324932 511.15,70.7548897 L511.15,60.033692 C511.133465,43.4699827 501.891734,30.0506786 490.49,30.034677 Z M505.98,70.7113076 C505.98,83.1473355 499.040414,93.2287281 490.48,93.2287281 C481.919586,93.2287281 474.98,83.1473355 474.98,70.7113076 L474.98,59.9901099 C474.98,47.554082 481.919586,37.4726894 490.48,37.4726894 C499.040414,37.4726894 505.98,47.554082 505.98,59.9901099 L505.98,70.7113076 Z" id="Shape" fill="#535461" fill-rule="nonzero"></path>
            <polygon id="Path" fill="#000000" opacity="0.1" points="590.05 474.85 573.27 474.85 500.45 325.31 500.45 474.85 484.23 474.85 484.23 321.28 409.44 474.85 391.37 474.85 477.9 297.15 484.23 300.28 484.23 255.38 500.45 255.38 500.45 299.31 504.82 297.15"></polygon>
            <path d="M511.15,61.1087173 L511.15,70.7548897 C511.314763,81.6324932 507.414375,91.7878298 500.955936,97.2969034 C494.497497,102.805977 486.492503,102.805977 480.034064,97.2969034 C473.575625,91.7878298 469.675237,81.6324932 469.84,70.7548897 L469.84,61.1087173 L475,61.1087173 L475,70.7548897 C475.000001,83.1909171 481.939587,93.2723088 490.5,93.2723088 C499.060413,93.2723088 505.999999,83.1909171 506,70.7548897 L506,61.1087173 L511.15,61.1087173 Z" id="Path" fill="#000000" opacity="0.1"></path>
            <rect id="Rectangle" fill="#535461" x="178.45" y="63.2587677" width="624.09" height="409.381232"></rect>
            <rect id="Rectangle" fill="#FFFFFF" x="189.52" y="76.1154885" width="600.48" height="372.946593"></rect>
            <g id="undraw_security_o890" filter="url(#filter-1)" transform="translate(230.000000, 103.000000)">
                <rect id="Rectangle" fill="url(#linearGradient-2)" x="0" y="0" width="524" height="314" rx="12.49"></rect>
                <rect id="Rectangle" fill="#FFFFFF" x="1" y="5" width="522" height="308" rx="12.49"></rect>
                <rect id="Rectangle" fill="#FFFFFF" x="1" y="5" width="522" height="308" rx="12.49"></rect>
                <rect id="Rectangle" fill="#FFFFFF" opacity="0.04" x="1" y="5" width="522" height="308" rx="12.49"></rect>
                <path d="M520.371762,1 L3.65027761,1 C2.1865697,1 1,2.28491071 1,3.8699284 L1,16 L523,16 L523,3.8699284 C523.00005,2.29418451 521.826856,1.0131039 520.371762,1 Z" id="Path" fill="#5A5773"></path>
                <g id="6c975d28-8d47-4ade-9154-b3b78f637b65" transform="translate(9.000000, 5.000000)" fill="#FFFFFF">
                    <ellipse id="Oval" cx="3.48612245" cy="3.89714286" rx="3.44897959" ry="3.71428571"></ellipse>
                    <ellipse id="Oval" cx="12.7718367" cy="3.89714286" rx="3.44897959" ry="3.71428571"></ellipse>
                    <ellipse id="Oval" cx="22.057551" cy="3.89714286" rx="3.44897959" ry="3.71428571"></ellipse>
                </g>
                <rect id="Rectangle" fill="#243B55" opacity="0.2" x="44" y="67" width="138" height="12"></rect>
                <rect id="Rectangle" fill="#243B55" opacity="0.2" x="342" y="67" width="138" height="12"></rect>
                <rect id="Rectangle" fill="#243B55" opacity="0.2" x="192" y="67" width="138" height="12"></rect>
                <rect id="Rectangle" fill="#5A5773" opacity="0.1" x="44" y="102" width="436" height="186"></rect>
                <rect id="Rectangle" fill="#5A5773" opacity="0.1" x="436" y="32" width="44" height="11"></rect>
                <rect id="Rectangle" fill="#5A5773" opacity="0.1" x="376" y="32" width="44" height="11"></rect>
                <rect id="Rectangle" fill="#5A5773" opacity="0.1" x="316" y="32" width="44" height="11"></rect>
            </g>
            <polygon id="Path" fill="#535461" points="699.05 302.39 455.95 317.35 455.95 322.09 704.23 312.24"></polygon>
            <path d="M986.87,401.15 C986.87,401.15 999.59,380.23 996.21,347.41 C992.83,314.59 980.6,261.47 980.6,261.47 C980.6,261.47 985.91,231.71 957.11,227.53 C957.11,227.53 939.21,224.2 926.41,216.15 C921.65,213.15 917.6,209.52 915.41,205.15 C915.41,205.15 915.24,205.64 914.91,206.54 C914.626882,206.090024 914.366554,205.626106 914.13,205.15 C914.13,205.15 914.06,205.33 913.95,205.65 L909.06,198.03 C909.06,198.03 908.39,198.74 907.26,199.91 C905.293313,197.086777 903.618072,194.071343 902.26,190.91 C903.475873,190.616369 904.668971,190.235379 905.83,189.77 C906.940124,189.402775 907.940572,188.763313 908.74,187.91 C909.440765,186.936866 909.893834,185.807624 910.06,184.62 C910.839501,180.819071 911.06183,176.924949 910.72,173.06 C910.45,170.06 909.84,167.06 910.05,164.01 C910.27,160.76 911.42,157.62 911.58,154.36 C911.86,148.62 909.01,143.16 905.49,138.61 C903.39,135.9 901.03,133.38 899.21,130.48 C897.63,127.96 896.48,125.18 894.78,122.73 C890.78,117.03 884.11,113.67 877.27,112.48 C870.43,111.29 863.39,112.03 856.54,113.16 C850.54,114.16 844.54,115.61 838.54,115.96 C833.3,116.26 829.03,114.49 824.23,117.96 C821.013524,120.331426 818.97907,123.977401 818.65,127.96 C818.572008,128.630132 818.622923,129.308998 818.8,129.96 C819.083212,130.634507 819.417517,131.286402 819.8,131.91 C821.93,136.11 818.69,141.1 819.11,145.79 C819.637173,150.059847 823.032846,153.405827 827.31,153.87 C827.12,154.27 826.91,154.66 826.73,155.07 C821.342352,167.241836 822.123335,181.259817 828.829701,192.75786 C835.536068,204.255902 847.353015,211.83703 860.6,213.14 L862.46,214.57 C866.66,217.82 871.38,221.71 875.93,225.94 L875.84,226.01 L875.1,225.59 C873.714767,226.685533 872.258221,227.687744 870.74,228.59 C866.53,231.17 859.74,234.52 852.1,234.9 C852.1,234.9 838.42,242.15 833.71,266.06 C826.95,272.12 812.48,283.06 793.36,285.91 C766.49,289.91 733.36,291.22 733.36,291.22 C733.36,291.22 733.09,291.7 732.71,292.58 L729.65,292.02 C729.65,292.02 729.65,292.39 729.52,293.02 L728.32,292.48 C718.83,288.33 699.87,282.28 697.47,298.95 C694.25,321.31 715.57,318.74 715.57,318.74 C719.785875,317.13825 724.105852,315.825218 728.5,314.81 L729.69,314.58 C729.89218,315.163152 730.174918,315.715164 730.53,316.22 L733.43,316.22 C734.437374,318.304358 735.6536,320.281145 737.06,322.12 L804.64,320.64 C804.64,320.64 816.19,318.12 826.85,319.72 C822.2,354.48 816.71,392.6 816.71,392.6 C816.71,392.6 805.21,452.97 813.26,459.28 C817.932215,457.721146 822.694193,456.445497 827.52,455.46 C827.593246,459.190367 827.988042,462.907471 828.7,466.57 L833.85,500.28 C833.85,500.28 835.85,534.72 842.54,555.28 L848.44,583.38 L853.38,604.62 L856.16,640.67 C859.977648,655.941708 862.737529,671.458521 864.42,687.11 C867.03,711.33 881.2,750.47 883.09,755.62 C878.25,762.47 868.31,774.09 855.84,775.29 C838.04,777.01 837.61,787.74 850.05,791.6 C862.49,795.46 888.67,791.6 888.67,791.6 L925.59,782.47 C924.48,789.28 923.9,794.66 924.71,795.24 C927.07,796.96 962.9,806.24 964.19,791.38 C964.29,790.153333 964.38,788.963333 964.46,787.81 C964.993332,778.290658 963.72096,768.756349 960.71,759.71 C960.42,758.82 960.16,757.92 959.93,757.02 C960.46144,756.425893 960.949371,755.794257 961.39,755.13 C961.39,755.13 963.97,715.01 965.9,700.63 C966.05,699.48 966.15,698.08 966.2,696.5 C967.09,679.26 960.8,633.91 960.8,633.91 C960.8,633.91 953.03,604.41 953.32,590.85 C953.364528,589.723224 953.556151,588.607103 953.89,587.53 C953.89,587.53 953.89,587.26 953.79,586.81 C953.79,586.62 953.88,586.42 953.94,586.24 C953.94,586.24 950,559.24 950.55,543.18 C950.626904,540.784247 950.96218,538.403793 951.55,536.08 C952.175267,533.029452 952.493521,529.923962 952.5,526.81 C953,515.81 952.42,496.81 951.62,478.99 C951.71,478.69 951.8,478.39 951.87,478.04 C952.031329,476.620948 951.863662,475.183804 951.38,473.84 C951.32,472.69 951.27,471.55 951.21,470.42 C951.54,469.29 951.81,468.09 952.05,466.85 L952.57,466.85 L952.57,466.92 C952.57,466.92 986.19,465.31 993.92,456.3 C993.92,456.3 986.11,432.03 981.78,412.3 L986.87,401.15 Z M841.99,325.66 L841.46,325.47 C842.31,322.47 843.32,318.98 844.46,315.32 C843.49,319.28 842.65,322.88 841.99,325.66 Z M876.11,226.17 L876.26,226.31 L876.1,226.22 L876.11,226.17 Z M918.11,746.69 C916.3,740.46 909.11,715.06 909.34,702.95 C909.390219,701.897422 909.575056,700.855611 909.89,699.85 C910.55674,697.655304 910.893752,695.373735 910.89,693.08 C911.61,680.44 906.77,657.79 906.77,657.79 C906.77,657.79 895.94,627.24 896.77,602.98 C896.77,602.37 896.84,601.76 896.88,601.15 C897.06,598.85 897.2,596.36 897.3,593.73 L897.3,593.68 C897.71,584.31 897.62,573.03 897.35,562.51 L897.29,562.12 C896.92,548.19 896.23,535.65 895.94,530.69 C896.94,537.86 903.34,582.49 906.1,589.79 C906.1,589.79 907.61,610.38 914.47,627.79 L921.99,673.05 C921.99,673.05 923.92,726.91 927.13,742.14 C928.57,748.92 929.79,753.49 930.7,756.47 C929.4,762.54 927.3,772.71 925.89,781.13 C925.06,775.64 922.14,754.72 918.12,746.69 L918.11,746.69 Z" id="Shape" fill="url(#linearGradient-3)" fill-rule="nonzero"></path>
            <path d="M885.96,748.08 C885.96,748.08 873.41,770.83 855.76,772.53 C838.11,774.23 837.69,784.86 850.02,788.69 C862.35,792.52 888.3,788.69 888.3,788.69 L925.3,779.55 C925.3,779.55 920.83,742.97 914.88,741.06 C908.93,739.15 885.96,748.08 885.96,748.08 Z" id="Path" fill="#4C4C78"></path>
            <path d="M931.06,748.5 C931.06,748.5 921.7,790.6 924.06,792.31 C926.42,794.02 961.91,803.15 963.19,788.48 C963.29,787.246667 963.38,786.066667 963.46,784.94 C963.984067,775.505269 962.721959,766.056421 959.74,757.09 C958.74,754.09 958.04,750.88 958.3,748.5 C958.89,742.55 931.06,748.5 931.06,748.5 Z" id="Path" fill="#4C4C78"></path>
            <path d="M919.45,215.49 C919.45,215.49 890.74,286.01 895.85,263.36 C899.23,248.36 877.38,228.43 862.27,216.72 C854.58,210.72 848.64,206.91 848.64,206.91 C848.64,206.91 902.54,144.07 898.72,171.18 C897.67226,178.604932 898.689445,186.175003 901.66,193.06 C907.61,207.2 919.45,215.49 919.45,215.49 Z" id="Path" fill="#FFB9B9"></path>
            <path d="M736.06,315.67 C734.54,315.28 732.06,315.53 729.49,316.08 C725.136896,317.085308 720.857058,318.384962 716.68,319.97 C716.68,319.97 695.55,322.52 698.74,300.36 C701.11,283.84 719.9,289.84 729.31,293.94 C732.51,295.35 734.63,296.53 734.63,296.53 L736.06,315.67 Z" id="Path" fill="#FFB9B9"></path>
            <path d="M736.06,315.67 C734.54,315.28 732.06,315.53 729.49,316.08 C727.19,310.28 728.94,296.53 729.31,293.94 C732.51,295.35 734.63,296.53 734.63,296.53 L736.06,315.67 Z" id="Path" fill="#000000" opacity="0.1"></path>
            <path d="M736.15,294.51 L730.62,293.51 C730.62,293.51 727.79,312.51 731.49,317.51 L737.85,317.51 L736.15,294.51 Z" id="Path" fill="#CBCDDA"></path>
            <path d="M847.06,329.18 C847.06,329.18 830.16,319.07 828.14,331.83 C826.12,344.59 823.46,366.39 823.46,366.39 L818.78,394.14 L812.72,449.74 L813.57,459.2 C813.57,459.2 831.57,453.14 835.79,455.27 C840.01,457.4 843.45,431.88 843.45,431.88 L850.45,405.51 L851.51,349.59 L847.06,329.18 Z" id="Path" fill="#4C4C78"></path>
            <path d="M847.06,329.18 C847.06,329.18 830.16,319.07 828.14,331.83 C826.12,344.59 823.46,366.39 823.46,366.39 L818.78,394.14 L812.72,449.74 L813.57,459.2 C813.57,459.2 831.57,453.14 835.79,455.27 C840.01,457.4 843.45,431.88 843.45,431.88 L850.45,405.51 L851.51,349.59 L847.06,329.18 Z" id="Path" fill="#000000" opacity="0.1"></path>
            <path d="M837.95,263.68 C837.95,263.68 820.41,283.46 793.78,287.44 C767.15,291.42 734.29,292.71 734.29,292.71 C734.29,292.71 726,307.54 737.96,323.33 L804.96,321.85 C804.96,321.85 819.79,318.63 831.28,321.85 L837.95,263.68 Z" id="Path" fill="#4C4C78"></path>
            <path d="M837.95,263.68 C837.95,263.68 820.41,283.46 793.78,287.44 C767.15,291.42 734.29,292.71 734.29,292.71 C734.29,292.71 726,307.54 737.96,323.33 L804.96,321.85 C804.96,321.85 819.79,318.63 831.28,321.85 L837.95,263.68 Z" id="Path" fill="#000000" opacity="0.05"></path>
            <g id="Group" transform="translate(0.060000, 0.280000)"></g>
            <path d="M898.82,192.45 C892.28,206.45 880.91,216.77 864.42,216.77 C863.69,216.77 862.98,216.77 862.27,216.72 C854.58,210.72 848.64,206.91 848.64,206.91 C848.64,206.91 902.54,144.07 898.72,171.18 C897.54,179.48 896.19,186.22 898.82,192.45 Z" id="Path" fill="#000000" opacity="0.1"></path>
            <path d="M905.5,174.4 C905.483433,197.090769 887.077452,215.472876 864.38668,215.459992 C841.695909,215.447109 823.310814,197.044112 823.320014,174.353339 C823.329214,151.662566 841.729225,133.274484 864.42,133.28 C875.328556,133.258668 885.795884,137.585374 893.505658,145.302655 C901.215432,153.019936 905.531948,163.49147 905.5,174.4 Z" id="Path" fill="#FFB9B9"></path>
            <path d="M930.61,425.5 C930.61,425.5 838.97,433.59 835.61,421.89 C832.25,410.19 844.96,378.51 844.96,378.51 L840.82,334.28 L840.67,332.59 C840.67,332.59 852.15,284.74 851.73,280.92 C851.33,277.48 870.21,237.33 874.09,229.12 C874.55,228.17 874.79,227.65 874.79,227.65 L875.52,228.07 L875.84,228.26 L880.33,230.88 L898.06,226.68 L919.43,215.49 L921.43,337.9 L930.61,425.5 Z" id="Path" fill="#CBCDDA"></path>
            <path d="M882.98,229.13 C882.98,229.13 876.71,227.43 874.26,233.7 C873.301089,236.395296 872.165286,239.024346 870.86,241.57 L868.42,256.13 L863.95,279.13 L860.65,380.88 L862.14,398.95 L870.33,384.39 L871.82,289.28 L871.82,277.45 C872.299549,267.221898 874.609443,257.162685 878.64,247.75 L879.78,245.08 L886.9,235.93 L882.98,229.13 Z" id="Path" fill="#000000" opacity="0.1"></path>
            <path d="M881.71,227.85 C881.71,227.85 875.43,226.15 872.99,232.42 C872.029262,235.116108 870.890076,237.745257 869.58,240.29 L867.14,254.86 L862.67,277.86 L859.38,379.61 L860.87,397.69 L869.06,383.08 L870.55,288.03 L870.55,276.17 C871.039173,265.94322 873.348679,255.885694 877.37,246.47 L878.52,243.8 L885.64,234.66 L881.71,227.85 Z" id="Path" fill="#4C4C78"></path>
            <path d="M908.5,201.59 C908.5,201.59 886.81,224.59 879.15,227.32 C879.15,227.32 882.98,244.76 886.81,248.16 C886.81,248.16 909.57,224.95 913.6,223.07 L916.98,214.8 L908.5,201.59 Z" id="Path" fill="#000000" opacity="0.1"></path>
            <path d="M908.5,200.28 C908.5,200.28 886.81,223.28 879.15,226.01 C879.15,226.01 882.98,243.45 886.81,246.85 C886.81,246.85 909.57,223.64 913.6,221.76 L916.98,213.5 L908.5,200.28 Z" id="Path" fill="#CBCDDA"></path>
            <path d="M876.06,227.65 L875.84,228.25 L868.89,246.88 L856.46,282.03 C856.46,282.03 856.35,282.39 856.13,283.03 C854.07,289.43 843,324.16 840.82,334.25 L840.67,332.56 C840.67,332.56 852.15,284.71 851.73,280.89 C851.33,277.45 870.21,237.3 874.09,229.09 C874.71,228.67 875.19,228.31 875.52,228.04 L876.06,227.65 Z" id="Path" fill="#000000" opacity="0.1"></path>
            <path d="M874.79,227.64 L867.61,246.88 L855.18,282.03 C855.18,282.03 855.07,282.39 854.85,283.03 C852.67,289.85 840.24,328.78 839.24,335.9 C838.11,343.72 822.48,385.99 822.48,385.99 L813.55,459.18 C805.55,452.97 816.91,393.18 816.91,393.18 C816.91,393.18 829.67,304.51 832.69,275.01 C835.71,245.51 852,236.89 852,236.89 C859.52,236.51 866.3,233.19 870.47,230.64 C871.975866,229.738348 873.419147,228.73607 874.79,227.64 Z" id="Path" fill="#4C4C78"></path>
            <path d="M964.84,698.53 C962.93,712.78 960.38,752.53 960.38,752.53 C951.45,765.92 931.67,758.69 931.67,758.69 C931.67,758.69 929.55,754.69 926.36,739.55 C923.17,724.41 921.26,671.08 921.26,671.08 L913.81,626.28 C907.01,609.05 905.52,588.64 905.52,588.64 C902.52,580.77 895.31,529.1 895.31,529.1 C895.31,529.1 898.31,575.45 896.38,599.91 C894.45,624.37 906.15,657.28 906.15,657.28 C906.15,657.28 912.75,688.12 909.34,697.69 C905.93,707.26 917.85,746.8 917.85,746.8 C916.85,758.29 882.99,753.61 882.99,753.61 C882.99,753.61 867.06,710.86 864.27,685.13 C862.598043,669.627005 859.861583,654.25739 856.08,639.13 L853.32,603.4 L848.42,582.28 L842.58,554.43 C835.98,534.02 833.97,499.89 833.97,499.89 L828.86,466.4 C825.52,449.84 829.86,430.4 832.74,420.23 C833.99,415.82 834.99,413.13 834.99,413.13 C837.92,415.21 854.7,417.65 863.38,419.63 C868.130417,420.724857 873.015939,421.115698 877.88,420.79 C899.824988,419.047538 921.534443,415.066856 942.67,408.91 C944.1,408.48 944.86,408.23 944.86,408.23 L945.31,412.06 L946.37,421.18 L948.26,437.37 C948.26,437.37 954,523.7 950.6,535.37 C947.2,547.04 952.94,586.37 952.94,586.37 C949.75,595.7 959.74,633.62 959.74,633.62 C959.74,633.62 966.76,684.28 964.84,698.53 Z" id="Path" fill="#000000" opacity="0.1"></path>
            <path d="M964.84,697.28 C962.93,711.53 960.38,751.28 960.38,751.28 C951.45,764.68 931.67,757.44 931.67,757.44 C931.67,757.44 929.55,753.44 926.36,738.31 C923.17,723.18 921.26,669.83 921.26,669.83 L913.81,624.97 C907.06,607.74 905.52,587.28 905.52,587.28 C902.52,579.41 895.31,527.74 895.31,527.74 C895.31,527.74 898.31,574.09 896.38,598.55 C894.45,623.01 906.15,655.96 906.15,655.96 C906.15,655.96 912.75,686.8 909.34,696.37 C905.93,705.94 917.85,745.49 917.85,745.49 C916.85,756.97 882.99,752.29 882.99,752.29 C882.99,752.29 867.06,709.59 864.27,683.85 C862.598043,668.347005 859.861583,652.97739 856.08,637.85 L853.32,602.13 L848.42,581.08 L842.58,553.23 C835.98,532.81 833.97,498.68 833.97,498.68 L828.86,465.19 C825.52,448.63 829.86,429.19 832.74,419.02 C833.99,414.62 834.99,411.93 834.99,411.93 C837.92,414.01 854.7,416.44 863.38,418.42 C868.129657,419.519768 873.015908,419.910668 877.88,419.58 C899.824988,417.837538 921.534443,413.856856 942.67,407.7 L944.86,407.03 L945.31,410.85 L946.37,419.98 L948.26,436.17 C948.26,436.17 954,522.49 950.6,534.17 C947.2,545.85 952.94,585.17 952.94,585.17 C949.75,594.49 959.74,632.41 959.74,632.41 C959.74,632.41 966.76,683.01 964.84,697.28 Z" id="Path" fill="#474463"></path>
            <path d="M905.5,174.4 C905.512599,181.585416 903.636609,188.647967 900.06,194.88 C893.66,196.01 886.85,194.76 882.06,190.53 C878.78,187.64 876.66,183.69 873.84,180.34 C872.014599,178.281297 870.053556,176.346981 867.97,174.55 C866.60957,173.194763 865.04779,172.058004 863.34,171.18 C861.59933,170.300724 859.549272,170.278561 857.79,171.12 C855.53,172.38 854.79,175.19 853.48,177.43 C852.494735,179.352985 850.808701,180.824238 848.77,181.54 C846.677519,182.209344 844.393254,181.434398 843.14,179.63 C841.75,177.24 842.77,173.51 840.44,172.05 C839.825401,171.74652 839.190554,171.485898 838.54,171.27 C835.54,169.91 835.19,165.88 834.93,162.58 C834.8,160.96 834.45,159.13 833.09,158.26 C831.73,157.39 829.94,157.83 828.32,157.86 C827.840681,157.878866 827.360794,157.841951 826.89,157.75 C834.760528,140.008396 853.971856,130.193518 872.960046,134.213268 C891.948235,138.233019 905.53416,154.990989 905.54,174.4 L905.5,174.4 Z" id="Path" fill="#000000" opacity="0.1"></path>
            <path d="M824.37,120.96 C821.175318,123.317162 819.158338,126.942619 818.84,130.9 C818.764237,131.5536 818.815166,132.215677 818.99,132.85 C819.269125,133.523201 819.603605,134.172092 819.99,134.79 C822.09,138.96 818.88,143.9 819.29,148.55 C819.865389,153.093109 823.710763,156.51122 828.29,156.55 C829.91,156.55 831.69,156.07 833.06,156.95 C834.43,157.83 834.77,159.65 834.9,161.27 C835.16,164.57 835.49,168.6 838.5,169.96 C839.14864,170.18103 839.783157,170.441516 840.4,170.74 C842.74,172.2 841.72,175.94 843.11,178.32 C844.363254,180.124398 846.647519,180.899344 848.74,180.23 C850.774786,179.517156 852.457566,178.049199 853.44,176.13 C854.73,173.88 855.5,171.13 857.76,169.82 C859.516695,168.970818 861.568889,168.989306 863.31,169.87 C865.018129,170.751602 866.579867,171.891704 867.94,173.25 C870.025971,175.044361 871.987185,176.978847 873.81,179.04 C876.63,182.38 878.75,186.33 882.03,189.22 C888.21,194.65 897.67,195.22 905.29,192.09 C906.389796,191.723255 907.382353,191.091316 908.18,190.25 C908.875629,189.282497 909.325243,188.160177 909.49,186.98 C910.263752,183.21549 910.486077,179.358483 910.15,175.53 C909.88,172.53 909.27,169.53 909.48,166.53 C909.69,163.31 910.84,160.2 911,156.98 C911.28,151.28 908.45,145.87 905,141.36 C902.92,138.67 900.58,136.18 898.78,133.3 C897.21,130.8 896.07,128.05 894.39,125.63 C890.45,119.98 883.81,116.63 877.03,115.46 C870.25,114.29 863.28,115.01 856.49,116.14 C850.57,117.14 844.61,118.56 838.61,118.91 C833.36,119.28 829.13,117.51 824.37,120.96 Z" id="Path" fill="#3F3D56"></path>
            <path d="M874.79,227.64 L867.61,246.88 L855.18,282.03 C855.18,282.03 855.07,282.39 854.85,283.03 L854.85,283.08 L870.49,230.62 C871.988418,229.724032 873.424983,228.72846 874.79,227.64 Z" id="Path" fill="#000000" opacity="0.1"></path>
            <path d="M952.41,447.83 C952.41,447.83 953.15,471.11 946.88,476.96 L930.19,445.49 L944.19,438.68 L952.41,447.83 Z" id="Path" fill="#FFB9B9"></path>
            <path d="M991.37,456.33 C983.71,465.26 950.37,466.86 950.37,466.86 L917.37,414.86 C917.37,414.86 909.56,409.44 894.89,385.03 C880.22,360.62 880.7,341.82 881.52,327.78 C882.34,313.74 891.52,273.39 891.52,273.39 C892.95,264.31 913.52,207.39 913.52,207.39 C915.68,211.7 919.7,215.3 924.4,218.27 C937.1,226.27 954.83,229.55 954.83,229.55 C983.39,233.7 978.12,263.2 978.12,263.2 C978.12,263.2 978.44,377.87 976.68,391.59 C974.92,405.31 991.37,456.33 991.37,456.33 Z" id="Path" fill="#000000" opacity="0.1"></path>
            <polygon id="Path" fill="#CBCDDA" points="952.84 452.29 951.88 460.8 940.29 456.55 931.79 443.68 938.17 438.68"></polygon>
            <path d="M952.43,419.33 L946.37,419.95 L887.94,425.79 C878.556888,426.732421 869.085617,426.267284 859.84,424.41 L832.74,418.99 C833.99,414.59 834.99,411.9 834.99,411.9 C837.92,413.98 854.7,416.41 863.38,418.39 C868.129657,419.489768 873.015908,419.880668 877.88,419.55 C899.824988,417.807538 921.534443,413.826856 942.67,407.67 L945.31,410.82 L952.43,419.33 Z" id="Path" fill="#000000" opacity="0.1"></path>
            <g id="Group" opacity="0.1" transform="translate(834.000000, 407.000000)" fill="#000000">
                <path d="M1.6,5.22 C1.40701004,5.12480093 1.21999718,5.01793644 1.04,4.9 C1.04,4.9 1.04,4.96 0.98,5.05 L1.6,5.22 Z" id="Path"></path>
                <path d="M125.79,225.4 C125.79,225.4 115.79,187.48 118.99,178.16 C118.99,178.16 113.25,138.86 116.66,127.16 C120.07,115.46 114.31,29.16 114.31,29.16 L112.42,12.97 L111.36,3.84 L110.92,0.02 L108.72,0.69 L107.36,1.09 L107.53,2.57 L108.59,11.69 L110.48,27.88 C110.48,27.88 116.22,114.21 112.83,125.88 C109.44,137.55 115.16,176.88 115.16,176.88 C111.97,186.21 121.96,224.12 121.96,224.12 C121.96,224.12 128.96,274.74 127.07,288.98 C125.18,303.22 122.6,342.98 122.6,342.98 C116.08,352.77 103.77,351.55 97.6,350.18 L97.71,350.42 C97.71,350.42 117.49,357.66 126.42,344.26 C126.42,344.26 128.97,304.49 130.89,290.26 C132.81,276.03 125.79,225.4 125.79,225.4 Z" id="Path"></path>
                <path d="M75.4,289.41 C78.8,279.84 72.21,249 72.21,249 C72.21,249 60.52,216 62.43,191.59 C63.23,181.4 63.18,167.42 62.84,154.59 C60.13,138.04 57.53,119.59 57.53,119.59 C57.53,119.59 60.53,165.94 58.61,190.39 C56.69,214.84 68.38,247.81 68.38,247.81 C68.38,247.81 74.98,278.64 71.57,288.21 C68.16,297.78 80.06,337.28 80.06,337.28 C79.21,346.48 57.36,345.28 48.69,344.48 L49.02,345.36 C49.02,345.36 82.83,350.04 83.89,338.56 C83.91,338.53 72,298.98 75.4,289.41 Z" id="Path"></path>
            </g>
            <path d="M992.64,456.33 C984.99,465.26 951.64,466.86 951.64,466.86 L918.64,414.86 C918.64,414.86 910.83,409.44 896.15,385.03 C881.47,360.62 881.97,341.82 882.78,327.78 C883.59,313.74 892.78,273.39 892.78,273.39 C894.21,264.31 914.78,207.39 914.78,207.39 C916.93,211.7 920.95,215.3 925.66,218.27 C938.36,226.27 956.09,229.55 956.09,229.55 C984.64,233.7 979.37,263.2 979.37,263.2 C979.37,263.2 979.69,377.87 977.93,391.59 C976.17,405.31 992.64,456.33 992.64,456.33 Z" id="Path" fill="#4C4C78"></path>
            <path d="M920.89,235.61 L913.71,238.28 L918.49,241.63 L882.79,327.75 C883.62,313.75 892.79,273.36 892.79,273.36 C894.22,264.28 914.79,207.36 914.79,207.36 C916.94,211.67 920.96,215.27 925.67,218.24 L920.89,235.61 Z" id="Path" fill="#000000" opacity="0.1"></path>
            <polygon id="Path" fill="#000000" opacity="0.1" points="929.5 389.03 966.02 379.62 970.81 394.45 933.49 403.55"></polygon>
            <path d="M950.39,241.67 C950.39,241.67 933.8,257.28 940.06,292.07 C946.32,326.86 956.33,364.63 956.33,364.63 L929.33,439.43 C929.33,439.43 948.15,459.05 957.4,461.43 L984.35,401.62 C984.35,401.62 996.95,380.89 993.6,348.36 C990.25,315.83 978.13,263.19 978.13,263.19 C978.13,263.19 978.14,231.15 950.39,241.67 Z" id="Path" fill="#000000" opacity="0.1"></path>
            <path d="M951.66,241.67 C951.66,241.67 935.06,257.28 941.3,292.07 C947.54,326.86 957.56,364.63 957.56,364.63 L930.56,439.43 C930.56,439.43 949.38,459.05 958.63,461.43 L985.63,401.62 C985.63,401.62 998.23,380.89 994.88,348.36 C991.53,315.83 979.41,263.19 979.41,263.19 C979.41,263.19 979.41,231.15 951.66,241.67 Z" id="Path" fill="#4C4C78"></path>
            <path d="M931.46,441.02 C931.46,441.02 952.51,470.16 950.92,477.92 C949.33,485.68 943.16,481.53 943.16,481.53 L934.87,470.16 L927.42,448.89 C927.42,448.89 928.15,439.71 931.46,441.02 Z" id="Path" fill="#000000" opacity="0.1"></path>
            <path d="M928.91,441.02 C928.91,441.02 949.91,470.16 948.37,477.92 C946.83,485.68 940.61,481.53 940.61,481.53 L932.31,470.16 L924.87,448.89 C924.87,448.89 925.6,439.71 928.91,441.02 Z" id="Path" fill="#000000" opacity="0.1"></path>
            <path d="M930.19,441.02 C930.19,441.02 951.19,470.16 949.64,477.92 C948.09,485.68 941.88,481.53 941.88,481.53 L933.59,470.16 L926.15,448.89 C926.15,448.89 926.87,439.71 930.19,441.02 Z" id="Path" fill="#474463"></path>
            <g id="Group-4" transform="translate(275.000000, 128.000000)">
                <path d="M23.2280896,21.415923 C23.203004,21.5835826 23.059147,21.7121212 22.8854327,21.7121212 C22.8806955,21.7121212 22.8759757,21.7120271 22.8712871,21.7118355 L22.8712871,21.7121212 L10.3960396,21.7121212 C10.2046554,21.7121212 10.049505,21.5560976 10.049505,21.3636364 L10.0352728,21.3636364 C9.85918119,19.2171335 8.07102079,17.530303 5.89108911,17.530303 C3.71115743,17.530303 1.92299876,19.2171335 1.74690683,21.3636364 L1.74673842,21.3636364 C1.74673842,21.3643473 1.74673634,21.3650617 1.74673218,21.3657726 C1.74539871,21.3821235 1.74415916,21.3985058 1.74301351,21.4149124 C1.7183555,21.5830668 1.57426673,21.7121212 1.40020376,21.7121212 C1.39549297,21.7121212 1.39080401,21.7120271 1.38613861,21.7118389 L1.38613861,21.7121212 L0.346534653,21.7121212 C0.155148866,21.7121212 0,21.5560976 0,21.3636364 L0,20.6666667 C0,20.4742055 0.155148866,20.3181818 0.346534653,20.3181818 L0.346533822,15.7878788 C0.346534653,15.5954176 0.501683416,15.4393939 0.693069307,15.4393939 L27.3799455,15.4393939 C29.2321144,15.4393939 30.8956262,16.2516912 32.0374267,17.541357 C32.1234505,17.6385215 32.2316213,17.7743539 32.3619426,17.9488542 C32.4928495,18.1241421 32.6981401,18.2272797 32.9161347,18.2272797 L32.9161347,18.2272727 L33.280651,18.2272727 C33.5373015,18.2272727 33.880149,18.2272727 34.3092005,18.2272762 C34.6909257,18.2285064 35,18.5400762 35,18.9242424 L35,21.0151515 C35,21.4000774 34.6897129,21.7121212 34.3069307,21.7121212 L31.8811881,21.7121212 L31.8811881,21.7118459 C31.8765757,21.7120306 31.8719391,21.7121212 31.8672817,21.7121212 C31.6924723,21.7121212 31.547898,21.5819586 31.5241639,21.4127518 C31.5231104,21.3978018 31.5219807,21.3828727 31.5207748,21.367968 C31.520754,21.3665253 31.520747,21.3650826 31.520747,21.3636364 L31.5204178,21.3636364 C31.3443297,19.2171335 29.5561693,17.530303 27.3762376,17.530303 C25.1963059,17.530303 23.4081455,19.2171335 23.2320574,21.3636364 L23.2319673,21.3636364 C23.2319673,21.3640058 23.2319673,21.3643752 23.2319639,21.3647411 C23.2305743,21.381775 23.2292817,21.3988368 23.2280896,21.415923 Z M34.3069307,16.4848485 C34.3069307,16.6773097 34.1517802,16.8333333 33.960396,16.8333333 L33.4155361,16.8333333 C33.316604,16.8333333 33.2223916,16.7908147 33.1566297,16.7164864 L33.1566436,16.7164794 C32.9292995,16.4595241 32.7493233,16.2679445 32.6167114,16.1417373 C31.2513371,14.8423314 29.4081782,14.0454545 27.3799455,14.0454545 L0.693069307,14.0454545 C0.501683416,14.0454545 0.346534653,13.8894309 0.346534653,13.6969697 L0.346531916,5.58984606 C0.346533233,4.02590879 1.49224822,2.70096939 3.03237124,2.48385288 C7.68506089,1.82795212 12.0653005,1.5 16.1730842,1.5 C23.5073342,1.5 26.358902,2.08705758 29.1089109,3.59090909 C30.7834876,4.50665758 32.3740817,6.71807621 33.8806896,10.225158 C34.1618748,10.8797067 34.3069307,11.5851864 34.3069307,12.2982038 L34.3069307,16.4848485 Z M0.346533545,14.3939394 L0.346533545,15.0909091 L0.346533545,14.3939394 Z M2.40535802,5.68181818 C2.22523035,5.68181818 2.07920792,5.82866273 2.07920792,6.00980515 L2.07920792,10.9295888 C2.07920792,11.1107312 2.22523035,11.2575758 2.40535802,11.2575758 L7.29761089,11.2575758 C7.4777396,11.2575758 7.62376238,11.1107312 7.62376238,10.9295888 L7.62376238,6.00980515 C7.62376238,5.82866273 7.4777396,5.68181818 7.29761089,5.68181818 L2.40535802,5.68181818 Z M16.9598149,5.68181818 C16.7796861,5.68181818 16.6336634,5.82866273 16.6336634,6.00980515 L16.6336634,10.9295888 C16.6336634,11.1107312 16.7796861,11.2575758 16.9598149,11.2575758 L21.8520663,11.2575758 C22.032195,11.2575758 22.1782178,11.1107312 22.1782178,10.9295888 L22.1782178,6.00980515 C22.1782178,5.82866273 22.032195,5.68181818 21.8520663,5.68181818 L16.9598149,5.68181818 Z M9.68258713,5.68181818 C9.50245842,5.68181818 9.35643564,5.82866273 9.35643564,6.00980515 L9.35643564,10.9295888 C9.35643564,11.1107312 9.50245842,11.2575758 9.68258713,11.2575758 L14.5748386,11.2575758 C14.7549673,11.2575758 14.9009901,11.1107312 14.9009901,10.9295888 L14.9009901,6.00980515 C14.9009901,5.82866273 14.7549673,5.68181818 14.5748386,5.68181818 L9.68258713,5.68181818 Z M23.9108842,6.00980515 L23.9108842,10.9295888 C23.9108842,11.1107312 24.0569069,11.2575758 24.2370356,11.2575758 L32.1046129,11.2575758 C32.1445822,11.2575758 32.1842084,11.2501879 32.2215163,11.235785 C32.3896723,11.1708588 32.473648,10.9811402 32.4090851,10.8120414 C32.0516381,9.87579848 31.6384891,9.01471682 31.169645,8.22879288 C31.0991738,8.11066348 31.0343856,7.99355167 30.9752738,7.87745045 C30.2890208,6.52968182 28.910097,5.68182167 27.4043936,5.68181818 L24.2370356,5.68181818 C24.0569069,5.68181818 23.9108842,5.82866273 23.9108842,6.00980515 Z M5.89108911,24.5 C4.36000198,24.5 3.11881188,23.2518248 3.11881188,21.7121212 C3.11881188,20.1724176 4.36000198,18.9242424 5.89108911,18.9242424 C7.42217624,18.9242424 8.66336634,20.1724176 8.66336634,21.7121212 C8.66336634,23.2518248 7.42217624,24.5 5.89108911,24.5 Z M5.89108911,23.1060606 C6.65663267,23.1060606 7.27722772,22.481973 7.27722772,21.7121212 C7.27722772,20.9422694 6.65663267,20.3181818 5.89108911,20.3181818 C5.12554554,20.3181818 4.5049505,20.9422694 4.5049505,21.7121212 C4.5049505,22.481973 5.12554554,23.1060606 5.89108911,23.1060606 Z M27.3762376,24.5 C25.8451505,24.5 24.6039604,23.2518248 24.6039604,21.7121212 C24.6039604,20.1724176 25.8451505,18.9242424 27.3762376,18.9242424 C28.9073248,18.9242424 30.1485149,20.1724176 30.1485149,21.7121212 C30.1485149,23.2518248 28.9073248,24.5 27.3762376,24.5 Z M27.3762376,23.1060606 C28.1417812,23.1060606 28.7623762,22.481973 28.7623762,21.7121212 C28.7623762,20.9422694 28.1417812,20.3181818 27.3762376,20.3181818 C26.6106941,20.3181818 25.990099,20.9422694 25.990099,21.7121212 C25.990099,22.481973 26.6106941,23.1060606 27.3762376,23.1060606 Z" id="Fill-1" fill="#FD1015"></path>
                <path d="M52.2693575,13.2448938 L59.7306425,13.2448938 C59.0883443,11.8141903 57.6595277,10.8187594 56,10.8187594 C54.3404723,10.8187594 52.9116557,11.8141903 52.2693575,13.2448938 Z M63.5339786,16.3988717 C63.4507139,16.5439061 63.2951332,16.6414862 63.1169001,16.6414862 L52.2693575,16.6414862 C52.9116557,18.0721897 54.3404723,19.0676172 56,19.0676172 C56.7964031,19.0676172 57.5397103,18.8383602 58.1684171,18.4417602 C58.30845,18.3534215 58.4852073,18.2155687 58.6986889,18.0282052 C58.8686505,17.879034 59.0979887,17.8183778 59.3187122,17.8642043 L62.1421609,18.450338 C62.4025947,18.5044071 62.5702224,18.7610115 62.5165774,19.0234841 C62.5047707,19.0812995 62.4825645,19.1364572 62.4511258,19.1862478 C62.4222954,19.23186 62.3956274,19.2727583 62.3711903,19.3089391 C61.6720552,20.343136 60.7315005,21.1982777 59.6311779,21.7920008 C58.5493204,22.375781 57.3130148,22.7068241 56,22.7068241 C51.7453666,22.7068241 48.2963001,19.2309269 48.2963001,14.9431883 C48.2963001,10.6554531 51.7453666,7.17955597 56,7.17955597 C60.2546334,7.17955597 63.7036999,10.6554531 63.7036999,14.9431883 C63.7036999,15.4407344 63.6572625,15.9273492 63.5685063,16.3988717 L63.5339786,16.3988717 Z M43,21.7189064 L43,1.54304865 C43,1.3043982 43.1666323,1.09864193 43.398785,1.05063467 L46.0114635,0.510375858 C46.2815417,0.454526938 46.5454421,0.629714908 46.6009061,0.901670809 C46.6077018,0.934941698 46.6110997,0.968824297 46.6110997,1.00278984 L46.6110997,21.7189064 C46.6110997,21.9965336 46.3875961,22.2215951 46.1118891,22.2215951 L43.4992106,22.2215951 C43.2235036,22.2215951 43,21.9965336 43,21.7189064 Z M78.8843355,22.2215951 L75.9854476,22.2215951 C75.7720003,22.2215951 75.5821664,22.0849346 75.5130766,21.8815526 L70.9111409,8.33012321 C70.8219385,8.06742938 70.9610791,7.78165295 71.2219591,7.69182466 C71.2739566,7.67391914 71.3285626,7.66478493 71.3835118,7.66478493 L73.9393877,7.66478493 C74.1528693,7.66478493 74.3427032,7.80144544 74.4117586,8.00482744 L77.1987232,16.2115394 C77.2433072,16.342888 77.3852279,16.4129549 77.5156507,16.3680408 C77.5887219,16.3428846 77.6461079,16.2851037 77.6710942,16.2115394 L80.4580244,8.00482744 C80.5270799,7.80144544 80.7169138,7.66478493 80.9303954,7.66478493 L83.8286312,7.66478493 C84.0420785,7.66478493 84.2319124,7.80144544 84.3009679,8.00482744 L87.0879325,16.2115394 C87.1325165,16.342888 87.2744371,16.4129549 87.40486,16.3680408 C87.4779311,16.3428846 87.5353171,16.2851037 87.5603034,16.2115394 L90.3472337,8.00482744 C90.4162891,7.80144544 90.6061573,7.66478493 90.8196046,7.66478493 L93.3754805,7.66478493 C93.6512219,7.66478493 93.8747254,7.8898464 93.8747254,8.1674736 C93.8747254,8.22280757 93.8656645,8.27776485 93.8478858,8.33012321 L89.2459157,21.8815526 C89.1768602,22.0849346 88.986992,22.2215951 88.7735448,22.2215951 L85.8746568,22.2215951 C85.6612095,22.2215951 85.4713756,22.0849346 85.4023202,21.8815526 L82.6156988,13.6757807 C82.5710805,13.544432 82.4291941,13.4743652 82.298737,13.5192793 C82.2256658,13.5444355 82.1682798,13.6022163 82.1433278,13.6757807 L79.3567065,21.8815526 C79.2876167,22.0849346 79.0977828,22.2215951 78.8843355,22.2215951 Z M106.074066,21.3630527 C104.839443,22.2110681 103.347543,22.7068241 101.740733,22.7068241 C97.4860997,22.7068241 94.0370332,19.2309269 94.0370332,14.9431883 C94.0370332,10.6554531 97.4860997,7.17955597 101.740733,7.17955597 C103.347543,7.17955597 104.839443,7.6753119 106.074066,8.52332384 L106.074066,8.15001044 C106.074066,7.88202548 106.289642,7.66478493 106.555567,7.66478493 L109.2037,7.66478493 C109.469625,7.66478493 109.685166,7.88202548 109.685166,8.15001044 L109.685166,21.7363661 C109.685166,22.0043511 109.469625,22.2215951 109.2037,22.2215951 L106.555567,22.2215951 C106.289642,22.2215951 106.074066,22.0043511 106.074066,21.7363661 L106.074066,21.3630527 Z M101.981466,19.0676172 C104.241763,19.0676172 106.074066,17.2210501 106.074066,14.9431883 C106.074066,12.66533 104.241763,10.8187594 101.981466,10.8187594 C99.721204,10.8187594 97.8889003,12.66533 97.8889003,14.9431883 C97.8889003,17.2210501 99.721204,19.0676172 101.981466,19.0676172 Z M123.4074,8.52332384 L123.4074,8.15001044 C123.4074,7.88202548 123.622975,7.66478493 123.8889,7.66478493 L126.537033,7.66478493 C126.802959,7.66478493 127.018534,7.88202548 127.018534,8.15001044 L127.018534,21.7363661 L127.017607,21.7363661 C126.953288,26.0351639 123.475357,29.5 119.194433,29.5 C118.076091,29.5 117.012562,29.2635419 116.050384,28.83753 C115.795236,28.7245573 115.464683,28.5418829 115.058793,28.2895018 C114.771245,28.1107272 114.645113,27.7549547 114.755148,27.4330406 L115.608834,24.9352651 C115.695463,24.6818921 115.969454,24.5472361 116.220895,24.6345069 C116.283395,24.656214 116.340815,24.6906669 116.389552,24.7357192 C116.707578,25.0297348 116.982805,25.2391786 117.215232,25.3640576 C117.805327,25.6811039 118.479064,25.8607985 119.194433,25.8607985 C121.480951,25.8607985 123.342017,24.0251247 123.405718,21.7363661 L123.4074,21.7363661 L123.4074,21.3630527 C122.172776,22.2110681 120.680876,22.7068241 119.074066,22.7068241 C114.819433,22.7068241 111.370367,19.2309269 111.370367,14.9431883 C111.370367,10.6554531 114.819433,7.17955597 119.074066,7.17955597 C120.680876,7.17955597 122.172776,7.6753119 123.4074,8.52332384 Z M119.3148,19.0676172 C121.575096,19.0676172 123.4074,17.2210501 123.4074,14.9431883 C123.4074,12.66533 121.575096,10.8187594 119.3148,10.8187594 C117.054537,10.8187594 115.222234,12.66533 115.222234,14.9431883 C115.222234,17.2210501 117.054537,19.0676172 119.3148,19.0676172 Z M136.4074,22.7068241 C132.152766,22.7068241 128.7037,19.2309269 128.7037,14.9431883 C128.7037,10.6554531 132.152766,7.17955597 136.4074,7.17955597 C140.662033,7.17955597 144.1111,10.6554531 144.1111,14.9431883 C144.1111,19.2309269 140.662033,22.7068241 136.4074,22.7068241 Z M136.4074,19.0676172 C138.667696,19.0676172 140.5,17.2210501 140.5,14.9431883 C140.5,12.66533 138.667696,10.8187594 136.4074,10.8187594 C134.147138,10.8187594 132.3148,12.66533 132.3148,14.9431883 C132.3148,17.2210501 134.147138,19.0676172 136.4074,19.0676172 Z M160,14.2153483 L160,21.7363661 C160,22.0043511 159.784425,22.2215951 159.518499,22.2215951 L156.629633,22.2215951 C156.363708,22.2215951 156.148167,22.0043511 156.148167,21.7363661 L156.148167,14.4579628 L156.13969,14.4579628 C156.145284,14.3778251 156.148167,14.2969237 156.148167,14.2153483 C156.148167,12.3394639 154.639175,10.8187594 152.777766,10.8187594 C150.916358,10.8187594 149.4074,12.3394639 149.4074,14.2153483 C149.4074,14.2969237 149.410248,14.3778251 149.415877,14.4579628 L149.4074,14.4579628 L149.4074,21.7363661 C149.4074,22.0043511 149.191825,22.2215951 148.925934,22.2215951 L146.277766,22.2215951 C146.011875,22.2215951 145.7963,22.0043511 145.7963,21.7363661 L145.7963,8.15001044 C145.7963,7.88202548 146.011875,7.66478493 146.277766,7.66478493 L148.925934,7.66478493 C149.191825,7.66478493 149.4074,7.88202548 149.4074,8.15001044 L149.4074,8.19262635 C150.46101,7.54965529 151.69687,7.17955597 153.018534,7.17955597 C156.874279,7.17955597 160,10.3295871 160,14.2153483 Z" id="Fill-3" fill="#0E0000"></path>
            </g>
        </g>
    </g>
</svg>