<?xml version="1.0" encoding="UTF-8"?>
<svg width="758px" height="470px" viewBox="0 0 758 470" version="1.1" xmlns="http://www.w3.org/2000/svg" xmlns:xlink="http://www.w3.org/1999/xlink">
    <!-- Generator: Sketch 52.2 (67145) - http://www.bohemiancoding.com/sketch -->
    <title>undraw_programming_2svr</title>
    <desc>Created with Sketch.</desc>
    <defs>
        <linearGradient x1="49.9918241%" y1="100%" x2="49.9918241%" y2="-0.0776833077%" id="linearGradient-1">
            <stop stop-color="#808080" stop-opacity="0.25" offset="0%"></stop>
            <stop stop-color="#808080" stop-opacity="0.12" offset="54%"></stop>
            <stop stop-color="#808080" stop-opacity="0.1" offset="100%"></stop>
        </linearGradient>
    </defs>
    <g id="Page-1" stroke="none" stroke-width="1" fill="none" fill-rule="evenodd">
        <g id="undraw_programming_2svr" transform="translate(0.000000, -1.000000)">
            <rect id="Rectangle" fill="#3F3D56" x="105.6" y="182.83" width="19" height="57.66"></rect>
            <rect id="Rectangle" fill="#3F3D56" x="616.93" y="179.83" width="19" height="61"></rect>
            <polygon id="Path" fill="#65617D" points="757.1 450.65 757.1 463.65 605.18 465.05 603.56 465.08 545.82 465.61 544.44 465.63 526.89 465.78 526.37 465.78 419.39 466.77 243.78 468.4 243.63 468.4 198.98 468.82 198.5 468.83 0.1 470.65 0.1 455.65 46.75 427.65 140.35 426.87 142.35 426.86 143.01 426.85 145.01 426.82 189.95 426.45 191.96 426.44 192.6 426.43 194.6 426.42 209.01 426.3 209.39 426.29 244.94 425.99 245.23 425.99 522.63 423.65 529.42 423.6 530.1 423.6 535.28 423.55 572.93 423.24 574.93 423.21 576.78 423.19 577.74 423.19 589.45 423.1 591.77 423.07 594.88 423.05 604.63 422.96 620.1 422.83 622.1 422.81 625.58 422.79 626.23 422.79 700.94 422.15"></polygon>
            <polygon id="Path" fill="#000000" opacity="0.2" points="757.1 450.65 757.1 463.65 605.18 465.05 603.56 465.08 545.82 465.61 544.44 465.63 526.89 465.78 526.37 465.78 419.39 466.77 243.78 468.4 243.63 468.4 198.98 468.82 198.5 468.83 0.1 470.65 0.1 455.65 46.75 427.65 140.35 426.87 142.35 426.86 143.01 426.85 145.01 426.82 189.95 426.45 191.96 426.44 192.6 426.43 194.6 426.42 209.01 426.3 209.39 426.29 244.94 425.99 245.23 425.99 522.63 423.65 529.42 423.6 530.1 423.6 535.28 423.55 572.93 423.24 574.93 423.21 576.78 423.19 577.74 423.19 589.45 423.1 591.77 423.07 594.88 423.05 604.63 422.96 620.1 422.83 622.1 422.81 625.58 422.79 626.23 422.79 700.94 422.15"></polygon>
            <path d="M190.100001,400.66 L190.1,425.15 C190.101102,427.51762 188.73864,429.674202 186.6,430.69 C185.819809,431.068289 184.966897,431.272988 184.1,431.29 L149.2,432.03 C148.267938,432.052355 147.343491,431.857194 146.5,431.46 C144.322514,430.461953 142.927434,428.285316 142.93,425.89 L142.929996,400.66 L190.100001,400.66 Z" id="Path" fill="#3F3D56"></path>
            <path d="M190.100001,400.66 L190.1,425.15 C190.101102,427.51762 188.73864,429.674202 186.6,430.69 C185.819809,431.068289 184.966897,431.272988 184.1,431.29 L149.2,432.03 C148.267938,432.052355 147.343491,431.857194 146.5,431.46 C144.322514,430.461953 142.927434,428.285316 142.93,425.89 L142.929996,400.66 L190.100001,400.66 Z" id="Path" fill="#000000" opacity="0.1"></path>
            <path d="M192.100001,400.66 L192.1,425.15 C192.101102,427.51762 190.73864,429.674202 188.6,430.69 C187.819809,431.068289 186.966897,431.272988 186.1,431.29 L151.2,432.03 C150.267938,432.052355 149.343491,431.857194 148.5,431.46 C146.322514,430.461953 144.927434,428.285316 144.93,425.89 L144.929996,400.66 L192.100001,400.66 Z" id="Path" fill="#3F3D56"></path>
            <rect id="Rectangle" fill="#3F3D56" x="574.93" y="400.66" width="47.17" height="31.5"></rect>
            <rect id="Rectangle" fill="#000000" opacity="0.1" x="574.93" y="400.66" width="47.17" height="31.5"></rect>
            <rect id="Rectangle" fill="#3F3D56" x="572.93" y="400.66" width="47.17" height="31.5"></rect>
            <polygon id="Path" fill="#000000" opacity="0.1" points="124.6 182.82 124.6 188.55 105.6 188.06 105.6 182.82"></polygon>
            <path d="M249.66,21.4 L226.83,185.4 C226.530305,187.568879 224.648764,189.166251 222.46,189.11 L39.66,184.37 L36.19,184.28 C34.9680785,184.251037 33.8162207,183.703436 33.0223541,182.774077 C32.2284875,181.844719 31.8676357,180.621433 32.03,179.41 L57.66,7.73 C58.0025046,5.52546446 59.9741305,3.94903228 62.2,4.1 L245.66,16.52 C246.85667,16.5893588 247.969745,17.156213 248.729621,18.0832614 C249.489497,19.0103098 249.826862,20.2129924 249.66,21.4 Z" id="Path" fill="#65617D"></path>
            <polygon id="Path" fill="#243B55" points="69.93 16.16 50.6 167.49 218.6 172.82 239.26 26.82"></polygon>
            <rect id="Rectangle" fill="#65617D" x="278.6" y="13.82" width="204.67" height="173.33" rx="5.33"></rect>
            <rect id="Rectangle" fill="#243B55" x="288.26" y="25.49" width="186" height="144.33"></rect>
            <polygon id="Path" fill="#000000" opacity="0.1" points="635.93 179.82 635.93 183.61 616.93 184 616.93 179.82"></polygon>
            <path d="M721.66,176.62 C721.714719,177.457206 721.425536,178.280503 720.859292,178.899596 C720.293048,179.518689 719.498754,179.879994 718.66,179.9 L531.46,183.77 C529.846966,183.803326 528.481565,182.586244 528.33,180.98 L512.24,13.7 C512.159725,12.861316 512.426519,12.0263584 512.978237,11.3896152 C513.529956,10.7528719 514.31843,10.3699341 515.16,10.33 L700.94,1.09 L702.94,0.99 C704.592561,0.902932299 706.016751,2.1413582 706.16,3.79 L721.66,176.62 Z" id="Path" fill="#65617D"></path>
            <polygon id="Path" fill="#243B55" points="522.93 20.16 692.6 11.82 706.93 163.82 538.6 167.82"></polygon>
            <path d="M721.66,176.62 C721.714719,177.457206 721.425536,178.280503 720.859292,178.899596 C720.293048,179.518689 719.498754,179.879994 718.66,179.9 L700.94,1.09 L702.94,0.99 C704.592561,0.902932299 706.016751,2.1413582 706.16,3.79 L721.66,176.62 Z" id="Path" fill="#000000" opacity="0.1"></path>
            <path d="M62.23,4.09 L39.66,184.37 L36.19,184.28 C34.9680785,184.251037 33.8162207,183.703436 33.0223541,182.774077 C32.2284875,181.844719 31.8676357,180.621433 32.03,179.41 L57.66,7.73 C57.9986148,5.50917571 59.9897047,3.92327486 62.23,4.09 Z" id="Path" fill="#000000" opacity="0.1"></path>
            <rect id="Rectangle" fill="#000000" opacity="0.1" x="105.6" y="223.41" width="19" height="17.08"></rect>
            <polygon id="Path" fill="#000000" opacity="0.1" points="192.1 400.65 192.1 405.62 144.93 406.88 144.93 400.65"></polygon>
            <path d="M275.35,229.36 L275.35,397.56 C275.324837,399.692461 273.631115,401.430176 271.5,401.51 L79.85,406.61 L79.8,406.61 C77.6297417,406.583037 75.8769628,404.830258 75.85,402.66 L75.85,229.36 C75.8769628,227.189742 77.6297417,225.436963 79.8,225.41 L271.4,225.41 C273.570258,225.436963 275.323037,227.189742 275.35,229.36 Z" id="Path" fill="#65617D"></path>
            <path d="M79.85,225.41 L79.85,406.61 L79.8,406.61 C77.6297417,406.583037 75.8769628,404.830258 75.85,402.66 L75.85,229.36 C75.8769628,227.189742 77.6297417,225.436963 79.8,225.41 L79.85,225.41 Z" id="Path" fill="#000000" opacity="0.1"></path>
            <polygon id="Path" fill="#D4DFEC" points="88.6 236.15 266.1 236.15 266.1 384.4 88.6 388.4"></polygon>
            <rect id="Rectangle" fill="#000000" opacity="0.1" x="616.93" y="223.41" width="19" height="17.42"></rect>
            <polygon id="Path" fill="#000000" opacity="0.1" points="620.1 400.65 620.1 407.06 572.93 405.8 572.93 400.65"></polygon>
            <path d="M682.35,229.36 L682.35,402.66 C682.322628,404.849588 680.539759,406.610171 678.35,406.61 L486.66,401.51 C484.528885,401.430176 482.835163,399.692461 482.81,397.56 L482.81,229.36 C482.836963,227.189742 484.589742,225.436963 486.76,225.41 L678.36,225.41 C680.545863,225.415294 682.322683,227.174301 682.35,229.36 Z" id="Path" fill="#65617D"></path>
            <path d="M682.35,229.36 L682.35,402.66 C682.322628,404.849588 680.539759,406.610171 678.35,406.61 L678.35,225.41 C680.539759,225.409829 682.322628,227.170412 682.35,229.36 Z" id="Path" fill="#000000" opacity="0.1"></path>
            <polygon id="Path" fill="#D4DFEC" points="669.6 236.15 492.1 236.15 492.1 384.4 669.6 388.4"></polygon>
            <path d="M477.85,229.36 L477.85,397.56 C477.824837,399.692461 476.131115,401.430176 474,401.51 L282.35,406.61 C280.160241,406.610171 278.377372,404.849588 278.35,402.66 L278.35,229.36 C278.376963,227.189742 280.129742,225.436963 282.3,225.41 L473.9,225.41 C476.070258,225.436963 477.823037,227.189742 477.85,229.36 Z" id="Path" fill="#65617D"></path>
            <polygon id="Path" fill="#D4DFEC" points="291.1 236.15 468.6 236.15 468.6 384.4 291.1 388.4"></polygon>
            <path d="M298.99,48.86 L440.790302,47.86" id="Path" stroke="#EBEBEB" stroke-width="2"></path>
            <path d="M298.99,61.33 L440.790302,60.34" id="Path" stroke="#EBEBEB" stroke-width="2"></path>
            <path d="M77.127831,37.9130375 L178.732322,46.8069625 L77.127831,37.9130375 Z" id="Path" stroke="#EBEBEB" stroke-width="2" transform="translate(127.930076, 42.360000) rotate(-1.000000) translate(-127.930076, -42.360000) "></path>
            <path d="M75.1280814,50.3830497 L176.732072,59.2869503 L75.1280814,50.3830497 Z" id="Path" stroke="#EBEBEB" stroke-width="2" transform="translate(125.930076, 54.835000) rotate(-1.000000) translate(-125.930076, -54.835000) "></path>
            <path d="M581.128081,29.3830497 L682.732072,38.2869503 L581.128081,29.3830497 Z" id="Path" stroke="#EBEBEB" stroke-width="2" transform="translate(631.930076, 33.835000) scale(-1, 1) rotate(-2.000000) translate(-631.930076, -33.835000) "></path>
            <path d="M583.128081,42.3830497 L684.732072,51.2869503 L583.128081,42.3830497 Z" id="Path" stroke="#EBEBEB" stroke-width="2" transform="translate(633.930076, 46.835000) scale(-1, 1) rotate(-2.000000) translate(-633.930076, -46.835000) "></path>
            <path d="M586.128081,56.3830497 L687.732072,65.2869503 L586.128081,56.3830497 Z" id="Path" stroke="#EBEBEB" stroke-width="2" transform="translate(636.930076, 60.835000) scale(-1, 1) rotate(-2.000000) translate(-636.930076, -60.835000) "></path>
            <path d="M298.99,74.81 L440.790302,73.81" id="Path" stroke="#EBEBEB" stroke-width="2"></path>
            <path d="M298.99,88.86 L440.790302,87.86" id="Path" stroke="#EBEBEB" stroke-width="2"></path>
            <path d="M298.99,101.33 L440.790302,100.34" id="Path" stroke="#EBEBEB" stroke-width="2"></path>
            <path d="M298.99,113.81 L440.790302,112.81" id="Path" stroke="#EBEBEB" stroke-width="2"></path>
            <path d="M92.99,259.86 L194.6,258.86" id="Path" stroke="#243B55" stroke-width="2"></path>
            <path d="M92.99,272.33 L194.6,271.34" id="Path" stroke="#243B55" stroke-width="2"></path>
            <path d="M92.99,284.81 L194.6,283.81" id="Path" stroke="#243B55" stroke-width="2"></path>
            <path d="M295.99,259.86 L397.6,258.86" id="Path" stroke="#243B55" stroke-width="2"></path>
            <path d="M295.99,272.33 L397.6,271.34" id="Path" stroke="#243B55" stroke-width="2"></path>
            <path d="M295.99,284.81 L397.6,283.81" id="Path" stroke="#243B55" stroke-width="2"></path>
            <path d="M498.99,259.86 L600.6,258.86" id="Path" stroke="#243B55" stroke-width="2"></path>
            <path d="M498.99,272.33 L600.6,271.34" id="Path" stroke="#243B55" stroke-width="2"></path>
            <path d="M498.99,284.81 L600.6,283.81" id="Path" stroke="#243B55" stroke-width="2"></path>
            <path d="M498.99,297.86 L600.6,296.86" id="Path" stroke="#243B55" stroke-width="2"></path>
            <path d="M498.99,310.33 L600.6,309.34" id="Path" stroke="#243B55" stroke-width="2"></path>
            <path d="M498.99,322.81 L600.6,321.81" id="Path" stroke="#243B55" stroke-width="2"></path>
            <polygon id="Path" fill="#000000" opacity="0.1" points="757.1 450.65 757.1 463.65 605.18 465.05 603.56 465.08 545.82 465.61 544.44 465.63 526.89 465.78 526.37 465.78 419.39 466.77 243.78 468.4 243.63 468.4 198.98 468.82 198.5 468.83 0.1 470.65 0.1 455.65 202.61 454.32 203.09 454.32 244.08 454.04 244.27 454.04 527.35 452.17 527.64 452.17 527.81 452.16 528.28 452.16 533.07 452.13 534.53 452.13 609.02 451.63 613.42 451.61 614.4 451.6"></polygon>
            <circle id="Oval" fill="#FBBEBE" cx="381.26" cy="189.16" r="51.33"></circle>
            <path d="M198.4,469.18 C198.4,469.07 198.46,468.95 198.5,468.83 C199.5,465.24 201.28,459.17 202.61,454.32 C202.78,453.72 202.94,453.13 203.09,452.57 C204.56,447.1 207.42,434.29 209.01,426.3 C209.57,423.49 210.01,421.3 210.1,420.2 C210.3,418.51 213.31,411.28 216.72,402.97 C219.11,397.13 221.72,390.75 223.63,385.37 C224.880289,382.174342 225.86039,378.879464 226.56,375.52 C226.709917,374.817914 226.709917,374.092086 226.56,373.39 C226.259787,372.24689 226.098622,371.071728 226.08,369.89 C225.85,363.69 227.7,353.89 230.56,349.78 C234.06,344.78 236.56,326.12 236.56,326.12 C236.56,326.12 241.74,326.87 242.56,322.59 C242.64665,322.128679 242.680202,321.658954 242.66,321.19 C242.657885,320.818266 242.6278,320.447219 242.57,320.08 C241.68,313.84 257.29,307.2 266.07,305.77 C267.06137,305.600102 268.064312,305.506494 269.07,305.49 C271.20277,305.257794 273.300642,304.774445 275.32,304.05 C276.253333,303.763333 277.253333,303.43 278.32,303.05 C282,301.81 286.4,300.17 291.07,298.37 C308.63,291.56 329.89,282.37 329.89,282.37 C330.04,281.66 330.21,280.98 330.4,280.31 C332.529996,271.759212 338.600055,264.731308 346.75,261.38 C346.75,260.72 346.75,260.05 346.75,259.38 C346.75,255.93 346.6,252.38 346.45,248.84 C346.45,248.15 346.39,247.46 346.35,246.77 C346.35,246.57 346.35,246.36 346.35,246.16 C346.35,245.96 346.35,245.81 346.35,245.64 C346.35,244.94 346.28,244.24 346.24,243.55 L346.06,243.41 C344.523685,242.249622 343.203554,240.827942 342.16,239.21 C341.57907,238.264565 341.102924,237.258624 340.74,236.21 C339.49,232.82 339.2,229.04 338.36,225.46 L338.18,224.72 C337.08589,221.107468 335.749528,217.57279 334.18,214.14 C331.97,208.72 330.27,203.14 328.58,197.49 C327.553333,194.07 326.516667,190.643333 325.47,187.21 L323.89,181.97 C323.59,180.97 323.29,179.97 323.06,178.97 C322.94834,178.508323 322.861548,178.040984 322.8,177.57 C322.51937,176.035646 322.601559,174.456919 323.04,172.96 C323.428611,171.938168 323.869186,170.936862 324.36,169.96 C324.569292,169.51658 324.736687,169.054572 324.86,168.58 C324.892515,168.474881 324.919222,168.368053 324.94,168.26 C325.011247,167.904365 325.048084,167.542696 325.05,167.18 C325.015387,165.868539 324.841068,164.564505 324.53,163.29 C324.523845,163.273902 324.523845,163.256098 324.53,163.24 C324.518176,163.14917 324.501485,163.059041 324.48,162.97 C324.300761,161.978002 324.18055,160.976241 324.12,159.97 C323.768205,154.555287 324.972206,149.152897 327.59,144.4 L327.78,144.04 C328.331348,143.073766 328.946024,142.145071 329.62,141.26 C329.93,140.84 330.25,140.44 330.62,140.04 C329.22,141.38 326.92,140.79 325.62,139.35 C325.405095,139.124761 325.220228,138.872669 325.07,138.6 C324.983459,138.455256 324.906623,138.304925 324.84,138.15 C324.79,138.03 324.75,137.9 324.71,137.77 C324.01,135.32 325.23,132.71 326.83,130.72 C328.406161,128.781637 330.358791,127.182793 332.57,126.02 C332.699096,125.942211 332.832661,125.872089 332.97,125.81 C333.819068,125.384037 334.702116,125.029479 335.61,124.75 C336.144678,124.572969 336.688866,124.426071 337.24,124.31 L333.53,123.97 L332.03,123.83 C333.557469,117.770598 338.797481,113.373019 345.03,112.92 L346.11,112.92 C346.635655,112.928102 347.160171,112.971533 347.68,113.05 C345.977276,112.303788 344.919723,110.575786 345.03,108.72 C347.648489,110.769836 350.895353,111.850946 354.22,111.78 L354.6,111.78 C354.426982,110.697034 354.313478,109.605395 354.26,108.51 C354.159999,107.025015 354.159999,105.534985 354.26,104.05 C356.07379,105.770227 358.556832,106.597908 361.04,106.31 L358.96,103.41 C360.813729,104.888958 363.154005,105.620294 365.52,105.46 L366,105.41 C366.40257,105.367883 366.800729,105.290928 367.19,105.18 L367.28,105.18 C367.09,104.94 366.92,104.69 366.75,104.43 L366.69,104.31 C366.27411,103.655928 365.938367,102.954226 365.69,102.22 C365.590213,101.935825 365.510025,101.645144 365.45,101.35 C365.013881,99.5319124 365.171586,97.6219335 365.9,95.9 C369.13,98.6 372.67,102.29 376.9,99.5 C381.13,96.71 381.27,91.59 387.9,92.11 C391.61099,92.4600908 394.83549,94.8065763 396.31,98.23 C398.22735,96.0630741 401.312508,95.3591594 403.98,96.48 C406.60218,97.7229809 408.156632,100.483334 407.86,103.37 C410.61,102.68 413.57,102 416.21,103.04 C418.85,104.08 420.55,107.45 419.05,109.7 C419.00912,109.770536 418.962282,109.837446 418.91,109.9 C417.68,111.49 414.96,112.36 415.25,114.36 L415.67,114.66 L416.97,115.6 C422.07,119.28 427.036667,123.146667 431.87,127.2 C434.35,129.28 436.99,131.78 437.16,135.03 C437.189811,135.827292 437.109043,136.624871 436.92,137.4 C436.76,138.18 436.54,138.96 436.37,139.74 C435.942272,141.726652 435.827556,143.767933 436.03,145.79 C436.1,146.38 436.19,146.96 436.3,147.55 C437.83,155.28 444.01,161.66 444.62,169.55 L444.62,170.11 C444.656796,170.953925 444.633404,171.7994 444.55,172.64 C444.09,177.44 441.87,182.05 440.07,186.64 C439.96,186.92 439.85,187.2 439.75,187.48 C436.28,196.48 434.28,206.07 432.75,215.64 C432.256419,219.035339 431.588874,222.403104 430.75,225.73 C429.837674,229.537487 428.100055,233.098069 425.66,236.16 C424.68498,237.311405 423.554078,238.32114 422.3,239.16 C421.455943,239.700365 420.569746,240.171888 419.65,240.57 C419.65,240.57 419.65,240.57 419.65,240.63 C419.76,241.24 419.85,241.85 419.96,242.46 C420.02,242.78 420.07,243.1 420.13,243.46 C420.125664,243.479765 420.125664,243.500235 420.13,243.52 C420.97,248.25 421.93,252.88 422.94,257.28 L423.45,259.47 C436.05,264.02 437.54,273.34 437.63,276.91 C437.665403,277.386009 437.665403,277.863991 437.63,278.34 C437.63,278.34 456.63,278.84 464.13,284.34 C465.531683,285.291495 467.046749,286.064145 468.64,286.64 C471.664415,287.782667 474.753012,288.747645 477.89,289.53 C479.5,289.95 481.18,290.36 482.89,290.76 C485.89,291.45 489.07,292.12 492.14,292.76 C500.33,294.41 508.04,295.76 511.95,296.76 C521.28,299.12 542.62,319.58 542.62,319.58 C542.62,319.58 545.12,340.22 547.62,343.23 C550.12,346.24 554.62,356.82 554.62,356.82 L571.16,386.23 L578.16,398.6 L582.66,398.6 C583.28,398.6 584.5,399.48 585.87,400.7 C587.06,401.76 588.38,403.08 589.54,404.28 L591.46,406.33 L592.66,407.66 C592.66,407.66 599.93,407.84 601.9,413.59 C607.82,413.42 615.09,413.81 620.18,416.09 C620.874568,416.395747 621.543395,416.756914 622.18,417.17 C624.290808,418.392541 625.789786,420.446831 626.31,422.83 C626.411727,423.303858 626.471955,423.785682 626.49,424.27 C626.49,424.84 626.49,425.41 626.49,425.97 C626.13,433.54 621.2,439.84 616.67,444.08 L616.99,444.65 C616.99,444.65 616.84,445.01 616.55,445.65 C616.47,445.84 616.37,446.05 616.26,446.29 C615.67,447.55 614.73,449.44 613.5,451.65 C610.890079,456.433561 607.673492,460.86015 603.93,464.82 L603.64,465.12 L545.9,465.65 L545.73,465.45 L534.53,452.09 L528.96,445.45 L528.79,445.24 L528.63,446.83 L528.09,452.13 L526.79,464.94 L526.72,465.58 L526.72,465.75 L526.57,467.23 L526.68,465.75 L526.39,465.75 L419.39,466.75 L243.77,468.69 L243.77,469.53 L243.63,469.53 L243.63,468.69 L198.88,469.17 L198.4,469.18 Z" id="Path" fill="url(#linearGradient-1)"></path>
            <path d="M432.6,294.16 C432.6,294.16 333.1,306.16 342.6,294.16 C346.04,289.82 346.99,276.96 346.8,262.31 C346.74,257.86 346.58,253.25 346.35,248.66 C345.25,226.66 342.6,205.16 342.6,205.16 C342.6,205.16 429.6,164.16 419.6,196.66 C415.6,209.79 416.91,228.23 419.95,245.54 C420.84,250.59 421.87,255.54 422.95,260.24 C425.585742,271.703928 428.806624,283.025411 432.6,294.16 Z" id="Path" fill="#FBBEBE"></path>
            <path d="M432.6,294.16 C432.6,294.16 333.1,306.16 342.6,294.16 C346.04,289.82 346.99,276.96 346.8,262.31 C361.97,255.83 381.27,260.66 381.27,260.66 C401.59,256.61 414.62,257.4 422.95,260.24 C425.585742,271.703928 428.806624,283.025411 432.6,294.16 Z" id="Path" fill="#000000" opacity="0.1"></path>
            <path d="M243.74,469.53 L243.74,468.69 L419.36,466.78 L526.36,465.78 L526.66,465.78 L526.55,467.26 L526.7,465.78 L526.89,465.78 L526.89,465.61 L528.26,452.16 L528.78,447.07 L528.94,445.48 L529.08,444.15 L535.26,423.54 L541.44,402.96 L546.64,385.63 L554.58,359.15 C554.58,359.15 550.08,348.65 547.58,345.65 C545.08,342.65 542.58,322.15 542.58,322.15 C542.58,322.15 521.24,301.82 511.91,299.48 C508,298.48 500.28,297.15 492.08,295.48 C489.01,294.86 485.86,294.2 482.83,293.48 C481.12,293.09 479.44,292.68 477.83,292.27 C474.69647,291.487312 471.608454,290.532531 468.58,289.41 C466.992174,288.833153 465.480935,288.0641 464.08,287.12 C456.73,281.73 438.31,281.12 437.6,281.12 C437.598052,281.096707 437.598052,281.073293 437.6,281.05 L437.6,280.96 C437.625814,280.540397 437.625814,280.119603 437.6,279.7 C437.6,279.3 437.6,278.83 437.51,278.3 C437.51,278.14 437.51,277.97 437.44,277.8 C437.39,277.44 437.33,277.06 437.24,276.66 C437.209637,276.481289 437.169578,276.304361 437.12,276.13 C436.830207,274.925053 436.41111,273.754933 435.87,272.64 C435.8,272.48 435.71,272.31 435.63,272.15 C435.139734,271.226244 434.570974,270.346339 433.93,269.52 C433.8,269.35 433.66,269.17 433.51,269 C432.690848,268.034103 431.779913,267.149961 430.79,266.36 C430.52,266.15 430.24,265.93 429.95,265.73 C429.78822,265.598759 429.617839,265.478491 429.44,265.37 L428.55,264.79 L427.72,264.31 C426.99,263.91 426.22,263.52 425.38,263.15 C425.12,263.03 424.84,262.92 424.56,262.81 C424.28,262.7 423.84,262.53 423.47,262.39 L423.41,262.39 L422.66,262.09 C422.09,261.9 421.51,261.73 420.9,261.56 L419.97,261.32 L418.97,261.09 L417.97,260.88 C416.97,260.68 415.9,260.5 414.78,260.36 L413.64,260.22 L412.47,260.1 L411.26,260 L409.54,259.9 L407.54,259.83 C398.719267,259.829181 389.923349,260.764418 381.3,262.62 C375.309356,261.286952 369.173309,260.722409 363.04,260.94 L362.17,260.94 L361.17,261 L360.53,261 L359.24,261.12 C358.81,261.12 358.37,261.21 357.94,261.27 C357.51,261.33 357.06,261.38 356.63,261.45 L355.97,261.56 C355.32,261.67 354.66,261.79 353.97,261.93 C353.75,261.97 353.53,262.02 353.31,262.08 C352.44,262.27 351.57,262.5 350.71,262.76 C350.28,262.88 349.85,263.02 349.42,263.17 C349.2,263.23 348.99,263.31 348.78,263.39 L348.14,263.62 L347.51,263.87 L346.76,264.17 C346.38,264.33 346.01,264.5 345.64,264.68 C345.43,264.77 345.22,264.87 345.02,264.98 C344.82,265.09 344.61,265.18 344.42,265.29 C342.15894,266.45832 340.069352,267.932136 338.21,269.67 L337.7,270.16 L337.2,270.67 C337.03,270.84 336.87,271.02 336.71,271.2 C336.058292,271.91242 335.450504,272.663807 334.89,273.45 C334.73,273.66 334.58,273.87 334.43,274.09 C333.795389,275.025915 333.220898,276.001214 332.71,277.01 C332.58,277.25 332.46,277.5 332.34,277.74 C331.523959,279.429385 330.854824,281.185866 330.34,282.99 C330.153333,283.656667 329.983333,284.323333 329.83,284.99 C329.83,284.99 308.66,294.33 291.1,301.09 C286.43,302.89 282.03,304.52 278.35,305.75 C277.28,306.11 276.28,306.44 275.35,306.75 C273.332096,307.479389 271.233626,307.962877 269.1,308.19 C268.094312,308.206494 267.09137,308.300102 266.1,308.47 C258.03,309.78 244.2,315.47 242.69,321.18 C242.567403,321.635971 242.533456,322.111233 242.59,322.58 C242.59,322.58 242.59,322.65 242.59,322.69 C243.59,329.69 236.59,328.69 236.59,328.69 C236.59,328.69 234.09,347.19 230.59,352.19 C228.06,355.79 226.33,363.82 226.11,369.88 C225.984268,371.768066 226.132471,373.664391 226.55,375.51 C226.55,375.56 226.55,375.61 226.55,375.65 C226.95,376.99 225.99,380.65 224.36,385.34 C222.59,390.49 220.01,396.89 217.53,402.93 C213.79,412.05 210.27,420.33 210.05,422.15 C209.96,422.96 209.7,424.41 209.34,426.28 C207.88,433.9 204.64,448.41 203.04,454.28 C201.85,458.66 200.12,464.66 198.93,468.78 C198.93,468.9 198.86,469.02 198.83,469.13 L243.66,468.69 L243.66,469.53 L243.8,469.53 L243.74,469.53 Z" id="Path" fill="#243B55"></path>
            <path d="M260.1,351.66 C260.1,351.66 317.1,381.16 337.6,377.66 L260.1,351.66 Z" id="Path" fill="#000000" opacity="0.1"></path>
            <path d="M376.1,339.66 C376.1,339.66 431.6,357.66 450.1,360.16 C468.6,362.66 376.1,339.66 376.1,339.66 Z" id="Path" fill="#000000" opacity="0.1"></path>
            <path d="M437.66,281.74 C408.66,287.08 354.06,285.93 330.46,285.12 C339.11,254.12 381.29,264.66 381.29,264.66 C433.5,254.24 437.5,275.86 437.66,281.74 Z" id="Path" fill="#000000" opacity="0.1"></path>
            <path d="M437.66,279.74 C408.66,285.08 354.06,283.93 330.46,283.12 C339.11,252.12 381.29,262.66 381.29,262.66 C433.5,252.24 437.5,273.86 437.66,279.74 Z" id="Path" fill="#243B55"></path>
            <path d="M591.6,416.41 C591.6,416.41 625.76,411.16 626.43,426.16 C627.1,441.16 609.01,451.64 609.01,451.64 L591.6,416.41 Z" id="Path" fill="#FBBEBE"></path>
            <path d="M419.95,245.54 C418.480778,246.196658 416.9788,246.777423 415.45,247.28 C404.67,251 393.8,254.75 382.45,256.11 C371.1,257.47 359.19,256.27 349.29,250.61 C348.25051,250.022874 347.248573,249.371614 346.29,248.66 C345.19,226.66 342.54,205.16 342.54,205.16 C342.54,205.16 429.54,164.16 419.54,196.66 C415.56,209.79 416.91,228.23 419.95,245.54 Z" id="Path" fill="#000000" opacity="0.1"></path>
            <path d="M367.18,108.93 C364.285951,109.694344 361.200908,109.045446 358.86,107.18 L360.94,110.07 C358.458799,110.356342 355.977712,109.532973 354.16,107.82 C353.971378,110.407093 354.07874,113.007263 354.48,115.57 C351.038317,115.736 347.649765,114.672646 344.92,112.57 C344.810752,114.417721 345.864364,116.137822 347.56,116.88 C340.408239,116.025654 333.732406,120.608871 331.96,127.59 L337.18,128.07 C333.077596,128.946152 329.395645,131.192707 326.74,134.44 C325.14,136.44 323.92,139 324.62,141.44 C325.32,143.88 328.7,145.44 330.54,143.7 C325.241823,150.023565 323.009061,158.365312 324.44,166.49 C324.914637,168.200282 325.070566,169.983293 324.9,171.75 C324.57,173.4 323.53,174.83 323.01,176.44 C322.01,179.36 322.96,182.53 323.85,185.44 L328.54,200.86 C330.24,206.43 331.93,212.01 334.15,217.4 C335.722036,220.807769 337.058506,224.319342 338.15,227.91 C339.41,232.75 339.46,238.05 342.15,242.28 C343.993583,244.941935 346.457988,247.114593 349.33,248.61 C359.22,254.27 371.17,255.47 382.49,254.11 C393.81,252.75 404.67,249 415.44,245.28 C417.832575,244.559324 420.12924,243.552015 422.28,242.28 C429.73,237.4 431.39,227.42 432.78,218.63 C434.33,208.83 436.4,199.05 440.07,189.83 C442.25,184.34 445.07,178.77 444.59,172.89 C443.98,165.08 437.8,158.75 436.27,151.07 C435.757821,148.502833 435.781653,145.857523 436.34,143.3 C436.814494,141.776227 437.080247,140.195166 437.13,138.6 C436.96,135.38 434.32,132.9 431.84,130.83 C426.46,126.336667 420.906667,122.09 415.18,118.09 C414.89,116.09 417.61,115.23 418.84,113.65 C420.58,111.42 418.78,107.88 416.14,106.84 C413.5,105.8 410.54,106.48 407.79,107.17 C408.157928,104.279407 406.583788,101.490337 403.919025,100.311381 C401.254263,99.1324251 398.131572,99.8435045 396.24,102.06 C394.752466,98.6492016 391.525579,96.3190981 387.82,95.98 C381.19,95.46 381.06,100.53 376.82,103.32 C372.58,106.11 369.08,102.43 365.82,99.75 C364.600895,102.833238 365.119327,106.332655 367.18,108.93 Z" id="Path" fill="#3F3D56"></path>
            <path d="M616.93,446.41 C616.93,446.41 616.04,448.53 614.4,451.6 C611.919236,456.323174 608.899059,460.742699 605.4,464.77 L605.13,465.06 L603.51,465.06 L545.77,465.59 L544.39,465.59 L544.22,465.39 L533.02,452.1 L528.8,447.09 L528.63,446.88 L528.27,446.46 L528.07,446.22 L527.81,445.91 L519.6,436.17 L522.6,423.67 L527.71,402.61 L527.84,402.1 L528.84,398.1 L529.55,395.1 L531.93,385.32 L540.09,351.67 L554.59,359.17 L569.88,386.17 L578.09,400.67 L582.59,400.67 C583.44,400.67 585.39,402.31 587.35,404.2 C588.05,404.87 588.75,405.58 589.35,406.2 C591.13,408.04 592.54,409.62 592.54,409.62 C592.54,409.62 599.83,409.78 601.79,415.52 C601.891199,415.79777 601.974699,416.081672 602.04,416.37 C602.690609,418.626198 603.537164,420.821216 604.57,422.93 C605.86,425.74 607.48,428.93 609.12,432.12 C612.17,437.97 615.27,443.54 616.41,445.56 L616.55,445.81 L616.93,446.41 Z" id="Path" fill="#243B55"></path>
            <path d="M531.03,401.26 L530.93,402.69 L530.93,402.79 L530.76,405.09 L529.43,423.6 L527.82,445.9 L527.36,452.18 L526.36,465.62 L526.36,465.79 L419.36,466.79 L243.77,468.69 L243.77,469.53 L243.63,469.53 L243.63,468.69 L243.63,468.41 L244.08,454.05 L244.94,425.99 L245.68,402.2 L245.75,399.83 C245.838419,396.939025 247.112088,394.211696 249.272064,392.288144 C251.432041,390.364592 254.288138,389.414188 257.17,389.66 C261.89,390.06 268.02,390.55 275.35,391.07 L278.35,391.29 C320.68,394.23 398.91,398.03 477.85,393.29 C479.51,393.2 481.18,393.1 482.85,392.98 C495.09,392.21 507.32,391.22 519.43,389.98 C522.529024,389.655301 525.612718,390.719818 527.851469,392.88716 C530.09022,395.054503 531.254104,398.102082 531.03,401.21 L531.03,401.26 Z" id="Path" fill="#000000" opacity="0.1"></path>
            <path d="M243.74,469.53 L243.74,468.69 L419.36,466.78 L526.36,465.78 L526.66,465.78 L526.66,465.61 L527.66,452.17 L528.09,446.17 L529.73,423.56 L531.02,405.66 L531.02,405.22 C531.079626,404.395192 531.042709,403.566242 530.91,402.75 C530.915595,402.716901 530.915595,402.683099 530.91,402.65 C530.635293,400.962326 529.948314,399.368534 528.91,398.01 C526.671435,395.139413 523.110065,393.627154 519.49,394.01 C507.38,395.25 495.15,396.24 482.91,397.01 C481.24,397.13 479.57,397.23 477.91,397.32 C398.97,402.01 320.74,398.21 278.41,395.32 L275.41,395.1 C268.08,394.58 261.95,394.1 257.23,393.69 C251.851994,393.236187 247.000129,396.918252 245.99,402.22 C245.889031,402.76139 245.828861,403.309598 245.81,403.86 L245.13,426.02 L244.2,454.09 L243.76,468.45 L243.76,468.73 L243.76,469.57 L243.74,469.53 Z" id="Path" fill="#3F3D56"></path>
            <path d="M531.33,408.27 L530.1,423.6 L528.27,446.45 L527.81,452.17 L526.81,464.98 L526.75,465.62 L526.75,465.79 L526.6,467.27 L526.71,465.79 L526.42,465.79 L419.42,466.79 L243.77,468.69 L243.77,468.41 L244.26,454.05 L245.26,425.99 L245.9,407.34 C245.963941,405.184384 247.115877,403.208024 248.96,402.09 C250.092371,401.395996 251.41638,401.080756 252.74,401.19 C254.84,401.36 257.42,401.56 260.43,401.78 C265.32,402.14 271.35,402.56 278.37,403 C291.37,403.82 307.68,404.7 326.37,405.42 C378.37,407.42 448.57,408.09 515.25,402.25 C518.25,401.99 521.35,401.7 524.38,401.41 C525.579349,401.290393 526.787727,401.519569 527.86,402.07 C528.163724,402.221286 528.451786,402.402161 528.72,402.61 C529.590527,403.240774 530.280186,404.089053 530.72,405.07 C530.822021,405.265163 530.905713,405.469372 530.97,405.68 C531.270401,406.50851 531.39306,407.39097 531.33,408.27 Z" id="Path" fill="#000000" opacity="0.1"></path>
            <path d="M192.100001,421.96 L192.1,425.15 C192.101102,427.51762 190.73864,429.674202 188.6,430.69 L148.5,431.46 C146.322514,430.461953 144.927434,428.285316 144.93,425.89 L144.93,422.89 L192.100001,421.96 Z" id="Path" fill="#000000" opacity="0.1"></path>
            <polygon id="Path" fill="#3F3D56" points="192.6 432.57 140.35 433.57 140.35 424.9 192.6 423.9"></polygon>
            <polygon id="Path" fill="#000000" opacity="0.1" points="192.6 432.57 140.35 433.57 140.35 424.9 192.6 423.9"></polygon>
            <polygon id="Path" fill="#3F3D56" points="194.6 432.57 142.35 433.57 142.35 424.9 194.6 423.9"></polygon>
            <g id="Group" opacity="0.1" transform="translate(322.000000, 101.000000)" fill="#000000">
                <path d="M45.59,4.65 C44.6130511,3.38055421 43.9639205,1.88995815 43.7,0.31 C43.4590028,1.85452245 43.6032763,3.43466076 44.12,4.91 C44.6163546,4.86419076 45.1080455,4.77722502 45.59,4.65 Z" id="Path"></path>
                <path d="M32.89,11.29 C32.7014156,10.0640658 32.5779092,8.82900175 32.52,7.59 C32.52,8.82 32.52,10.06 32.52,11.3 L32.89,11.29 Z" id="Path"></path>
                <path d="M114.39,44.66 C114.44535,43.7690829 114.56567,42.8833954 114.75,42.01 C115.223011,40.4889511 115.492027,38.9118445 115.55,37.32 C115.527571,36.9626885 115.474035,36.6080124 115.39,36.26 C115.22,37.18 114.95,38.1 114.75,39.01 C114.350586,40.8650749 114.229259,42.7692339 114.39,44.66 Z" id="Path"></path>
                <path d="M93.59,13.76 L94.68,14.55 C95.5989416,13.8853183 96.4587993,13.1425619 97.25,12.33 C98.015765,11.2708836 98.1605035,9.88444116 97.63,8.69 C97.5303915,8.91828039 97.4027426,9.13326795 97.25,9.33 C96.02,10.91 93.3,11.78 93.59,13.76 Z" id="Path"></path>
                <path d="M11.42,23.38 C11.0552587,24.1093347 10.7638294,24.8730805 10.55,25.66 C12.1143168,24.7868194 13.7992313,24.1499217 15.55,23.77 L11.42,23.38 Z" id="Path"></path>
                <path d="M25.21,12.5 C24.5531343,12.1381254 23.9246648,11.7269459 23.33,11.27 C23.3048227,11.6656058 23.3351163,12.0627887 23.42,12.45 C24.0170741,12.4215342 24.6154459,12.4382485 25.21,12.5 Z" id="Path"></path>
                <path d="M122.98,71.42 C122.57,76.27 120.31,80.94 118.48,85.54 C114.81,94.76 112.74,104.54 111.19,114.35 C109.8,123.14 108.19,133.12 100.69,137.99 C98.5470147,139.270266 96.2526143,140.278056 93.86,140.99 C83.08,144.72 72.21,148.46 60.86,149.82 C49.51,151.18 37.6,149.99 27.7,144.33 C24.829586,142.832265 22.3656924,140.660058 20.52,138 C17.85,133.77 17.8,128.47 16.52,123.63 C15.4285506,120.036075 14.0920862,116.521173 12.52,113.11 C10.31,107.73 8.61,102.11 6.92,96.58 C5.35333333,91.44 3.79,86.2966667 2.23,81.15 C1.71621201,79.6017955 1.3348415,78.0127517 1.09,76.4 C0.7,78.96 1.46,81.64 2.23,84.15 C3.79,89.3033333 5.35333333,94.4466667 6.92,99.58 C8.61,105.15 10.31,110.73 12.52,116.11 C14.0920862,119.521173 15.4285506,123.036075 16.52,126.63 C17.78,131.47 17.83,136.77 20.52,141 C22.3656924,143.660058 24.829586,145.832265 27.7,147.33 C37.6,152.99 49.54,154.18 60.86,152.82 C72.18,151.46 83.04,147.72 93.86,143.99 C96.2526143,143.278056 98.5470147,142.270266 100.69,140.99 C108.14,136.12 109.8,126.14 111.19,117.35 C112.74,107.54 114.81,97.76 118.48,88.54 C120.66,83.06 123.48,77.49 123,71.6 C123,71.54 122.98,71.48 122.98,71.42 Z" id="Path"></path>
                <path d="M3.29,67.55 C3.29,67.55 3.29,67.48 3.29,67.44 C3.47040142,65.6766593 3.31430288,63.8950999 2.83,62.19 C2.63049614,61.0926084 2.5002388,59.9837511 2.44,58.87 C2.32487327,60.984661 2.45575017,63.1055379 2.83,65.19 C2.99,65.97 3.17,66.76 3.29,67.55 Z" id="Path"></path>
                <path d="M6.34,43.09 C7.10909718,41.7979518 7.98197286,40.5705749 8.95,39.42 C7.12,41.17 3.74,39.61 3.03,37.18 C2.76830504,38.1628789 2.76830504,39.1971211 3.03,40.18 C3.53120707,41.6736877 4.79441759,42.7842444 6.34,43.09 Z" id="Path"></path>
            </g>
            <path d="M578.1,400.66 C578.1,400.66 581.27,412.16 578.1,422.16 C574.93,432.16 578.1,400.66 578.1,400.66 Z" id="Path" fill="#000000" opacity="0.1"></path>
            <path d="M591.6,412.39 C591.6,412.39 592.93,426.99 589.93,429.58 C586.93,432.17 591.6,412.39 591.6,412.39 Z" id="Path" fill="#000000" opacity="0.1"></path>
            <ellipse id="Oval" fill="#393748" cx="105.5" cy="442.5" rx="25.5" ry="6.5"></ellipse>
            <g id="logo-8c380521138aad4dabda807b52a7f0d4999c903eff9b1ed4e377948dfe8fff97" transform="translate(83.000000, 394.000000)">
                <path d="M37.19,26.375 C36.191,24.392 34.704,22.557 32.503,21.256 C32.272,21.12 32.208,20.82 32.38,20.615 C33.496,19.283 37.049,14.747 37.049,11 C37.049,4.925 32.124,0 26.049,0 C19.974,0 15.049,4.925 15.049,11 C15.049,17 20.057,20.048 20.922,20.88 C21.008,20.962 21.052,21.066 21.05,21.185 C21.038,22.2 20.708,26.979 15.518,25.17 C14.12,24.683 12.878,23.829 11.832,22.783 L5.888,16.84 C5.419,16.371 4.649,16.431 4.254,16.965 C2.92,18.768 0.431,23.017 1.048,29 C1.048,29 1.414,45.187 12.652,48.514 C13.861,48.872 15.126,49 16.386,49 L23.244,49 C26.098,49 28.889,48.171 31.271,46.598 C31.354,46.543 31.437,46.488 31.521,46.432 C38.085,42.017 40.75,33.439 37.19,26.375 Z" id="Path" fill="#F6C346"></path>
                <path d="M47.538,10 L39.332,10 L36.997,10 C37.027,10.33 37.047,10.662 37.047,11 C37.047,13.351 35.649,16.011 34.331,17.997 L34.331,18 L40.202,18 C41.128,18 42.056,17.782 42.834,17.279 C45.402,15.621 47.268,12.215 47.995,10.725 C48.161,10.389 47.912,10 47.538,10 Z" id="Path" fill="#D77328"></path>
                <circle id="Oval" fill="#FFFFFF" cx="28.048" cy="9" r="4"></circle>
                <circle id="Oval" fill="#2C2F38" cx="30.048" cy="10" r="2"></circle>
                <path d="M20.515,29.887 C27.238,26.474 28.048,34.012 28.048,34.012 C28.048,42.762 21.048,42.012 21.048,42.012 C15.101,42.012 12.115,35.743 11.29,33.669 C11.152,33.323 11.361,32.942 11.724,32.861 L12.101,32.777 C15.006,32.132 17.863,31.233 20.515,29.887 Z" id="Path" fill="#D77328"></path>
            </g>
        </g>
    </g>
</svg>