<?xml version="1.0" encoding="UTF-8"?>
<svg width="565px" height="301px" viewBox="0 0 565 301" version="1.1" xmlns="http://www.w3.org/2000/svg" xmlns:xlink="http://www.w3.org/1999/xlink">
    <!-- Generator: Sketch 52.3 (67297) - http://www.bohemiancoding.com/sketch -->
    <title>undraw_programming_2svr (1)</title>
    <desc>Created with Sketch.</desc>
    <defs>
        <linearGradient x1="49.9918241%" y1="100%" x2="49.9918241%" y2="-0.0776833077%" id="linearGradient-1">
            <stop stop-color="#808080" stop-opacity="0.25" offset="0%"></stop>
            <stop stop-color="#808080" stop-opacity="0.12" offset="54%"></stop>
            <stop stop-color="#808080" stop-opacity="0.1" offset="100%"></stop>
        </linearGradient>
    </defs>
    <g id="Page-1" stroke="none" stroke-width="1" fill="none" fill-rule="evenodd">
        <g id="Desktop-HD" transform="translate(-770.000000, -288.000000)">
            <g id="undraw_programming_2svr-(1)" transform="translate(770.000000, 288.000000)">
                <path d="M521.696195,237.265777 C521.066775,238.619493 520.439165,239.955159 519.813362,241.272775 C518.836677,243.319593 517.872652,245.326702 516.921288,247.294102 C516.498057,248.165895 516.074827,249.021443 515.662449,249.876992 C510.996062,259.390905 506.638959,267.805601 502.938406,274.725795 C496.098916,287.497564 482.825165,295.531364 468.314902,295.681312 L386.029142,296.574764 L385.160977,296.574764 L378.107136,296.650572 L372.07339,296.71555 L353.570624,296.9159 L352.821832,296.9159 L343.402242,297.018782 L343.114662,297.018782 L285.05613,297.646907 L233.232108,298.188393 L227.203788,298.253371 L189.764174,298.659486 L189.720765,298.659486 L165.439277,298.919399 L165.178827,298.919399 L88.4004883,299.747873 L65.432099,299.996957 C60.5305999,300.052219 55.6497593,299.354565 50.9608743,297.928479 C42.801262,295.468763 35.468147,290.835328 29.750519,284.526695 C19.8859946,273.680726 12.6965035,261.026193 7.86733594,247.294102 C7.16918662,245.312263 6.5180629,243.305154 5.91396478,241.272775 C-10.8036368,184.876985 9.57653571,112.117481 46.2565054,63.4270391 C47.7938808,61.3910508 49.3565778,59.4056013 50.9445962,57.4706906 L50.9825784,57.4273717 C62.2632969,43.6086432 74.9113752,32.0641568 88.3842102,23.8552256 C112.258747,9.28383123 138.710648,5.17936563 164.728467,17.4115395 C186.741874,27.7647562 207.29568,32.6327173 227.220066,33.9539437 C229.233123,34.0839004 231.246181,34.1813679 233.248386,34.2409314 C278.951845,35.6758699 321.784934,19.2417629 372.084242,8.63404776 C374.086447,8.2116885 376.094079,7.79474411 378.117988,7.39945916 C414.000331,0.273500413 453.805695,-3.484414 501.14239,4.41587005 C506.060317,5.21762836 510.913181,6.37586447 515.662449,7.8813819 C517.749662,8.55282482 519.760911,9.27480646 521.696195,10.0473268 C544.290188,19.2201035 556.612705,36.1686224 561.848825,57.4057122 C562.344402,59.3767221 562.773059,61.3820261 563.134794,63.4216242 C572.418733,114.505435 545.228892,186.967122 521.696195,237.265777 Z" id="Path" fill="#15CBCB" opacity="0.1"></path>
                <g id="Group" opacity="0.1" transform="translate(6.000000, 7.000000)" fill="#15CBCB">
                    <path d="M82.8456226,16.8643173 L82.8456226,293.300258 L59.9100097,293.549779 C55.0155052,293.605137 50.1416296,292.90626 45.4594358,291.477675 L45.4594358,50.4953137 L45.4973638,50.4953137 C56.7619844,36.6360886 69.3920136,25.0713653 82.8456226,16.8643173 Z" id="Path"></path>
                    <path d="M556.945817,56.5054982 L40.778035,56.5054982 C42.3132166,54.465941 43.8736835,52.4770111 45.4594358,50.5387085 L45.4594358,50.4953137 L555.661683,50.4953137 C556.156553,52.4589299 556.584598,54.4623247 556.945817,56.5054982 Z" id="Path"></path>
                    <path d="M515.539261,3.03763838 L515.539261,234.657565 L513.659115,234.657565 C512.683823,236.70797 511.721174,238.718598 510.771167,240.689446 C510.348541,241.562768 509.925914,242.419815 509.514125,243.276863 L509.514125,0.846199262 C511.598359,1.51881919 513.606738,2.24929889 515.539261,3.03763838 Z" id="Path"></path>
                    <path d="M372.165944,0.363431734 L372.165944,290.159557 L366.140807,290.224649 L366.140807,1.6001845 C368.140156,1.17708487 370.144922,0.759409594 372.165944,0.363431734 Z" id="Path"></path>
                    <path d="M227.503074,27.2519557 L227.503074,291.73262 L221.483356,291.797712 L221.483356,26.9644649 C223.493541,27.0946494 225.503726,27.1705904 227.503074,27.2519557 Z" id="Path"></path>
                    <path d="M513.659115,234.662989 C512.683823,236.713395 511.721174,238.724022 510.771167,240.694871 L2.44364786,240.694871 C1.74649481,238.709557 1.09630026,236.69893 0.493064202,234.662989 L513.659115,234.662989 Z" id="Path"></path>
                </g>
                <rect id="Rectangle" fill="#3F3D56" x="115" y="144" width="10" height="31"></rect>
                <rect id="Rectangle" fill="#3F3D56" x="392" y="143" width="10" height="33"></rect>
                <polygon id="Path" fill="#65617D" points="468 289.278351 468 296.247423 385.718362 296.997938 384.840951 297.014021 353.568296 297.298144 352.820872 297.308866 343.315588 297.389278 343.03395 297.389278 285.092338 297.92 189.979921 298.793814 189.898679 298.793814 165.71572 299.018969 165.455746 299.02433 58 300 58 291.958763 83.2661823 276.948454 133.96103 276.530309 135.044254 276.524948 135.401717 276.519588 136.484941 276.503505 160.824967 276.305155 161.913606 276.299794 162.260238 276.294433 163.343461 276.289072 171.148085 276.224742 171.353897 276.219381 190.60819 276.058557 190.765258 276.058557 341.008322 274.804124 344.685865 274.77732 345.054161 274.77732 347.859709 274.750515 368.251387 274.58433 369.33461 274.568247 370.336592 274.557526 370.856539 274.557526 377.198811 274.509278 378.45535 274.493196 380.139762 274.482474 385.420476 274.434227 393.799207 274.364536 394.882431 274.353814 396.767239 274.343093 397.119287 274.343093 437.583091 274"></polygon>
                <polygon id="Path" fill="#000000" opacity="0.2" points="468 289.278351 468 296.247423 385.718362 296.997938 384.840951 297.014021 353.568296 297.298144 352.820872 297.308866 343.315588 297.389278 343.03395 297.389278 285.092338 297.92 189.979921 298.793814 189.898679 298.793814 165.71572 299.018969 165.455746 299.02433 58 300 58 291.958763 83.2661823 276.948454 133.96103 276.530309 135.044254 276.524948 135.401717 276.519588 136.484941 276.503505 160.824967 276.305155 161.913606 276.299794 162.260238 276.294433 163.343461 276.289072 171.148085 276.224742 171.353897 276.219381 190.60819 276.058557 190.765258 276.058557 341.008322 274.804124 344.685865 274.77732 345.054161 274.77732 347.859709 274.750515 368.251387 274.58433 369.33461 274.568247 370.336592 274.557526 370.856539 274.557526 377.198811 274.509278 378.45535 274.493196 380.139762 274.482474 385.420476 274.434227 393.799207 274.364536 394.882431 274.353814 396.767239 274.343093 397.119287 274.343093 437.583091 274"></polygon>
                <path d="M161,262 L161,275.270867 C161.000607,276.553855 160.249621,277.722484 159.070808,278.272934 C158.640768,278.477924 158.170645,278.588848 157.692813,278.598067 L138.456012,278.999065 C137.942261,279.011179 137.432708,278.905423 136.967778,278.690188 C135.767553,278.149357 134.998588,276.969861 135.000002,275.671865 L135,262 L161,262 Z" id="Path" fill="#3F3D56"></path>
                <path d="M161,262 L161,275.270867 C161.000607,276.553855 160.249621,277.722484 159.070808,278.272934 C158.640768,278.477924 158.170645,278.588848 157.692813,278.598067 L138.456012,278.999065 C137.942261,279.011179 137.432708,278.905423 136.967778,278.690188 C135.767553,278.149357 134.998588,276.969861 135.000002,275.671865 L135,262 L161,262 Z" id="Path" fill="#000000" opacity="0.1"></path>
                <path d="M162,262 L162,275.270867 C162.000607,276.553855 161.249621,277.722484 160.070808,278.272934 C159.640768,278.477924 159.170645,278.588848 158.692813,278.598067 L139.456012,278.999065 C138.942261,279.011179 138.432708,278.905423 137.967778,278.690188 C136.767553,278.149357 135.998588,276.969861 136.000002,275.671865 L136,262 L162,262 Z" id="Path" fill="#3F3D56"></path>
                <rect id="Rectangle" fill="#3F3D56" x="369" y="262" width="26" height="17"></rect>
                <rect id="Rectangle" fill="#000000" opacity="0.1" x="369" y="262" width="26" height="17"></rect>
                <rect id="Rectangle" fill="#3F3D56" x="368" y="262" width="26" height="17"></rect>
                <polygon id="Path" fill="#000000" opacity="0.1" points="125 144 125 147 115 146.743455 115 144"></polygon>
                <path d="M192.977349,56.3556672 L180.603361,144.994048 C180.440924,146.166279 179.421118,147.029624 178.234796,146.999221 L79.1561708,144.437356 L77.2754114,144.388713 C76.6131231,144.373059 75.9888097,144.077093 75.5585295,143.574795 C75.1282494,143.072497 74.9326657,142.411338 75.020668,141.756585 L88.9122718,48.9673338 C89.0979112,47.775831 90.1665435,46.9238042 91.3729772,47.0053989 L190.809326,53.7181349 C191.457928,53.7556218 192.061221,54.061994 192.473078,54.5630432 C192.884935,55.0640923 193.067788,55.7141158 192.977349,56.3556672 Z" id="Path" fill="#65617D"></path>
                <polygon id="Path" fill="#15CBCB" points="95.450864 54 85 136.108068 175.830065 139 187 59.7838631"></polygon>
                <rect id="Rectangle" fill="#65617D" x="209" y="53" width="111" height="94" rx="5.33"></rect>
                <rect id="Rectangle" fill="#15CBCB" x="214" y="59" width="101" height="78"></rect>
                <polygon id="Path" fill="#000000" opacity="0.1" points="402 143 402 144.813397 392 145 392 143"></polygon>
                <path d="M448.996427,141.127055 C449.026211,141.580503 448.868807,142.026417 448.560596,142.36173 C448.252386,142.697043 447.820046,142.892733 447.363506,142.903569 L345.469215,144.999638 C344.591229,145.017688 343.848032,144.358492 343.765534,143.488518 L335.007633,52.8863308 C334.963939,52.4320828 335.109157,51.9798531 335.409461,51.6349803 C335.709765,51.2901074 336.138937,51.0827007 336.59701,51.0610716 L437.718384,46.0565031 L438.806998,46.0023411 C439.706499,45.9551835 440.481696,46.6259397 440.559667,47.518877 L448.996427,141.127055 Z" id="Path" fill="#65617D"></path>
                <polygon id="Path" fill="#15CBCB" points="341 55.5442308 433.211957 51 441 133.820513 349.516304 136"></polygon>
                <path d="M448.996516,141.221719 C449.025557,141.675618 448.872082,142.121975 448.571565,142.457622 C448.271048,142.793269 447.8495,142.989154 447.404357,143 L438,46.0565593 L439.06144,46.0023434 C439.938487,45.9551389 440.694333,46.6265626 440.770358,47.5203885 L448.996516,141.221719 Z" id="Path" fill="#000000" opacity="0.1"></path>
                <path d="M91,47.0065327 L79.0574635,145 L77.2213713,144.951079 C76.5748121,144.935336 75.9653259,144.637681 75.5452647,144.132516 C75.1252035,143.627352 74.9342648,142.962419 75.0201772,142.303929 L88.5818613,48.9851006 C88.7610336,47.7779436 89.8145853,46.9159072 91,47.0065327 Z" id="Path" fill="#000000" opacity="0.1"></path>
                <rect id="Rectangle" fill="#000000" opacity="0.1" x="115" y="166" width="10" height="9"></rect>
                <polygon id="Path" fill="#000000" opacity="0.1" points="162 262 162 264.393258 136 265 136 262"></polygon>
                <path d="M207,169.136313 L207,260.105408 C206.986378,261.258726 206.069476,262.19855 204.915789,262.241722 L101.165414,265 L101.138346,265 C99.9634692,264.985417 99.0145964,264.037447 99,262.863687 L99,169.136313 C99.0145964,167.962553 99.9634692,167.014583 101.138346,167 L204.861654,167 C206.036531,167.014583 206.985404,167.962553 207,169.136313 Z" id="Path" fill="#65617D"></path>
                <path d="M101,167 L101,265 L100.975,265 C99.8898709,264.985417 99.0134814,264.037447 99,262.863687 L99,169.136313 C99.0134814,167.962553 99.8898709,167.014583 100.975,167 L101,167 Z" id="Path" fill="#000000" opacity="0.1"></path>
                <polygon id="Path" fill="#D4DFEC" points="106 173 202 173 202 253.819376 106 256"></polygon>
                <rect id="Rectangle" fill="#000000" opacity="0.1" x="392" y="166" width="10" height="9"></rect>
                <polygon id="Path" fill="#000000" opacity="0.1" points="394 263 394 266 368 265.410296 368 263"></polygon>
                <path d="M427,169.136313 L427,262.863687 C426.985185,264.047901 426.020216,265.000093 424.835021,265 L321.083793,262.241722 C319.930337,262.19855 319.013619,261.258726 319,260.105408 L319,169.136313 C319.014593,167.962553 319.963276,167.014583 321.137917,167 L424.840433,167 C426.02352,167.002863 426.985215,167.954203 427,169.136313 Z" id="Path" fill="#65617D"></path>
                <path d="M427,169.136313 L427,262.863687 C426.986314,264.047901 426.09488,265.000093 425,265 L425,167 C426.09488,166.999907 426.986314,167.952099 427,169.136313 Z" id="Path" fill="#000000" opacity="0.1"></path>
                <polygon id="Path" fill="#D4DFEC" points="420 173 324 173 324 253.819376 420 256"></polygon>
                <path d="M316,169.136313 L316,260.105408 C315.986378,261.258726 315.069476,262.19855 313.915789,262.241722 L210.165414,265 C208.97998,265.000093 208.014818,264.047901 208,262.863687 L208,169.136313 C208.014596,167.962553 208.963469,167.014583 210.138346,167 L313.861654,167 C315.036531,167.014583 315.985404,167.962553 316,169.136313 Z" id="Path" fill="#65617D"></path>
                <polygon id="Path" fill="#D4DFEC" points="215 173 311 173 311 253.819376 215 256"></polygon>
                <polygon id="Path" fill="#000000" opacity="0.1" points="468 289 468 296.15 385.718362 296.92 384.840951 296.9365 353.568296 297.228 352.820872 297.239 343.315588 297.3215 343.03395 297.3215 285.092338 297.866 189.979921 298.7625 189.898679 298.7625 165.71572 298.9935 165.455746 298.999 58 300 58 291.75 167.68177 291.0185 167.941744 291.0185 190.142404 290.8645 190.24531 290.8645 343.564729 289.836 343.721797 289.836 343.813871 289.8305 344.068428 289.8305 346.662748 289.814 347.453501 289.814 387.798151 289.539 390.181242 289.528 390.712021 289.5225"></polygon>
                <circle id="Oval" fill="#FBBEBE" cx="264" cy="148" r="28"></circle>
                <path d="M165,299.809912 C165,299.75017 165.032517,299.684997 165.054194,299.619824 C165.596136,297.670064 166.560793,294.373396 167.281576,291.739319 C167.373706,291.413454 167.460417,291.09302 167.541709,290.788879 C168.338363,287.818075 169.888318,280.860855 170.750006,276.521418 C171.053493,274.995283 171.291948,273.805875 171.340723,273.208456 C171.449111,272.290602 173.080357,268.363928 174.92838,263.850696 C176.223621,260.678942 177.63809,257.213909 178.6732,254.291985 C179.350784,252.556396 179.881942,250.76692 180.26109,248.942366 C180.342336,248.561057 180.342336,248.166854 180.26109,247.785545 C180.098392,247.164712 180.01105,246.526472 180.000958,245.884665 C179.876311,242.517392 180.878904,237.194928 182.428858,234.962752 C184.325656,232.24721 185.680511,222.112804 185.680511,222.112804 C185.680511,222.112804 188.487771,222.520136 188.932164,220.195631 C188.979123,219.945084 188.997306,219.689972 188.986358,219.435279 C188.985212,219.233387 188.968908,219.031868 188.937583,218.832429 C188.455255,215.443431 196.914971,211.837191 201.673223,211.060546 C202.210488,210.968272 202.754025,210.917433 203.299049,210.908475 C204.454887,210.782362 205.591812,210.519851 206.686187,210.126399 C207.192,209.970708 207.733942,209.789672 208.312014,209.58329 C210.306361,208.909836 212.690906,208.019138 215.221776,207.041542 C224.738279,203.342973 236.259969,198.351806 236.259969,198.351806 C236.34126,197.966199 236.43339,197.596885 236.536359,197.233002 C237.690693,192.588996 240.980314,188.772081 245.397113,186.951958 C245.397113,186.593506 245.397113,186.229623 245.397113,185.86574 C245.397113,183.992016 245.315821,182.063981 245.23453,180.141376 C245.23453,179.766632 245.202014,179.391887 245.180336,179.017142 C245.180336,178.90852 245.180336,178.794467 245.180336,178.685846 C245.180336,178.577224 245.180336,178.495758 245.180336,178.403429 C245.180336,178.023253 245.1424,177.643077 245.120722,177.268332 L245.023173,177.192297 C244.190579,176.562086 243.475144,175.789959 242.909598,174.911241 C242.594768,174.397767 242.336725,173.851432 242.140041,173.281916 C241.462613,171.440778 241.30545,169.387827 240.850218,167.443499 L240.752669,167.041598 C240.159724,165.079601 239.435494,163.159888 238.5849,161.29551 C237.387208,158.351862 236.465907,155.321316 235.550025,152.252753 C234.993631,150.395322 234.431817,148.53427 233.864585,146.669597 L233.008316,143.823708 C232.845733,143.2806 232.683151,142.737491 232.558504,142.194383 C232.497991,141.943642 232.450955,141.689826 232.417599,141.434031 C232.265514,140.60071 232.310056,139.74329 232.547665,138.9303 C232.75827,138.375335 232.997036,137.831517 233.263029,137.300975 C233.376453,137.06015 233.467171,136.809229 233.534,136.551485 C233.551621,136.494394 233.566095,136.436375 233.577355,136.37769 C233.615967,136.184542 233.63593,135.988117 233.636969,135.791133 C233.61821,135.078868 233.52374,134.370635 233.355159,133.678441 C233.351823,133.669698 233.351823,133.660029 233.355159,133.651285 C233.348751,133.601955 233.339705,133.553005 233.328062,133.504646 C233.230925,132.965883 233.165777,132.421819 233.132963,131.875321 C232.94231,128.934544 233.594809,126.000459 235.013502,123.419121 L235.116471,123.223601 C235.41527,122.698831 235.748388,122.194449 236.113644,121.71376 C236.281646,121.485654 236.455068,121.268411 236.655586,121.051167 C235.896867,121.778933 234.650401,121.458499 233.945876,120.676422 C233.82941,120.554093 233.729222,120.41718 233.647808,120.269091 C233.600907,120.190479 233.559267,120.108833 233.523161,120.024692 C233.496064,119.959519 233.474386,119.888915 233.452709,119.818311 C233.073349,118.487695 233.734518,117.070182 234.601626,115.989396 C235.455814,114.936654 236.514026,114.068309 237.712374,113.436786 C237.782336,113.394538 237.854721,113.356454 237.92915,113.322733 C238.389296,113.091388 238.867857,112.898825 239.359878,112.747038 C239.649642,112.650891 239.944561,112.571109 240.243243,112.50807 L238.232638,112.323413 L237.419725,112.247378 C238.247525,108.956465 241.087308,106.568102 244.464972,106.322064 L245.05027,106.322064 C245.335145,106.326464 245.619402,106.350052 245.901119,106.392668 C244.978341,105.987394 244.405208,105.048901 244.464972,104.041008 C245.884042,105.154291 247.643654,105.741451 249.44542,105.70292 L249.651358,105.70292 C249.557592,105.114752 249.49608,104.521874 249.467098,103.926955 C249.412904,103.120447 249.412904,102.311199 249.467098,101.504691 C250.450067,102.438961 251.795732,102.888482 253.141466,102.732116 L252.014226,101.157102 C253.01884,101.960336 254.287134,102.357531 255.569366,102.270474 L255.829498,102.243319 C256.047668,102.220444 256.263447,102.178649 256.47441,102.118404 L256.523184,102.118404 C256.420215,101.988058 256.328085,101.85228 256.235955,101.711072 L256.203439,101.645899 C255.97805,101.290667 255.796097,100.909567 255.661496,100.510802 C255.607418,100.356465 255.56396,100.198593 255.53143,100.038298 C255.295079,99.050879 255.380546,98.0135532 255.775304,97.0783564 C257.525777,98.5447495 259.444252,100.54882 261.736668,99.0335471 C264.029083,97.5182743 264.104955,94.7375586 267.698031,95.019975 C269.709172,95.2101123 271.456665,96.4845086 272.255764,98.3437993 C273.294857,97.1669234 274.966834,96.7846212 276.41246,97.3933594 C277.83353,98.0684329 278.675953,99.5676042 278.515195,101.135377 C280.005536,100.760632 281.609685,100.391318 283.040412,100.956151 C284.471139,101.520984 285.392441,103.35126 284.579528,104.573254 C284.557373,104.611563 284.53199,104.647902 284.503656,104.681876 C283.837067,105.545419 282.362984,106.017923 282.520148,107.10414 L282.747763,107.267073 L283.452288,107.777595 C286.216193,109.776234 288.907839,111.876254 291.527226,114.077654 C292.871242,115.207319 294.301969,116.565091 294.394099,118.330194 C294.410255,118.76321 294.366484,119.196381 294.264033,119.617361 C294.177323,120.040985 294.058095,120.46461 293.965965,120.888235 C293.734161,121.967202 293.671992,123.07584 293.781705,124.174041 C293.819641,124.494475 293.868416,124.809478 293.928029,125.129912 C294.757201,129.328141 298.106403,132.793174 298.436988,137.0783 L298.436988,137.382441 C298.456929,137.840784 298.444252,138.299969 298.399052,138.756506 C298.149758,141.363427 296.946647,143.867157 295.971151,146.360025 C295.911537,146.512096 295.851924,146.664166 295.797729,146.816236 C293.91719,151.704213 292.833306,156.912624 292.004135,162.110173 C291.736642,163.954211 291.374872,165.783272 290.92025,167.590138 C290.425823,169.658017 289.484134,171.591799 288.161765,173.25476 C287.633361,173.880098 287.020477,174.428494 286.34084,174.884086 C285.88341,175.177562 285.403142,175.433651 284.904693,175.649869 C284.904693,175.649869 284.904693,175.649869 284.904693,175.682455 C284.964307,176.013752 285.013081,176.345048 285.072695,176.676344 C285.105212,176.850139 285.132309,177.023933 285.164825,177.219452 C285.162475,177.230187 285.162475,177.241304 285.164825,177.252039 C285.620057,179.820942 286.140321,182.335535 286.687682,184.725212 L286.964073,185.91462 C293.792544,188.385764 294.600037,193.447536 294.648812,195.386433 C294.667999,195.644958 294.667999,195.904554 294.648812,196.163078 C294.648812,196.163078 304.945712,196.434633 309.010278,199.42173 C309.769909,199.938494 310.590987,200.358127 311.454437,200.670879 C313.093495,201.291472 314.767336,201.815559 316.467402,202.240463 C317.339929,202.468568 318.250391,202.691243 319.177112,202.908486 C320.802939,203.283231 322.526315,203.647114 324.190077,203.994703 C328.628583,204.890833 332.806956,205.624029 334.92595,206.167138 C339.98227,207.448874 351.547315,218.560875 351.547315,218.560875 C351.547315,218.560875 352.90217,229.770635 354.257025,231.405391 C355.611881,233.040148 358.05062,238.786237 358.05062,238.786237 L367.014343,254.759059 L370.807938,261.477311 L373.246677,261.477311 C373.582681,261.477311 374.243851,261.955247 374.986311,262.617839 C375.631222,263.193534 376.346586,263.910438 376.975239,264.562168 L378.015768,265.67554 L378.666098,266.397875 C378.666098,266.397875 382.606017,266.495634 383.673643,269.618508 C386.881941,269.52618 390.82186,269.737992 393.580345,270.97628 C393.956761,271.142334 394.319226,271.338486 394.664229,271.562837 C395.808165,272.226809 396.620525,273.342512 396.90245,274.636831 C396.95758,274.894188 396.99022,275.15587 397,275.418908 C397,275.728479 397,276.038051 397,276.342192 C396.804901,280.453524 394.133126,283.875107 391.678128,286.177888 L391.85155,286.48746 C391.85155,286.48746 391.770259,286.682979 391.613095,287.030568 C391.56974,287.133759 391.515546,287.247811 391.455932,287.378158 C391.136186,288.062474 390.626761,289.088949 389.960172,290.289219 C388.545746,292.887212 386.802542,295.29133 384.773786,297.441959 L384.616623,297.604891 L353.324885,297.892739 L353.232755,297.784117 L347.163003,290.528187 L344.144386,286.921946 L344.052255,286.807894 L343.965545,287.671436 L343.672896,290.549911 L342.968371,297.507132 L342.930435,297.854721 L342.930435,297.94705 L342.849144,298.75085 L342.908758,297.94705 L342.751594,297.94705 L284.763788,298.490158 L189.587914,299.543789 L189.587914,300 L189.512042,300 L189.512042,299.543789 L165.260132,299.804481 L165,299.809912 Z" id="Path" fill="url(#linearGradient-1)"></path>
                <path d="M292,205.087416 C292,205.087416 238.209938,211.640731 243.345672,205.087416 C245.205349,202.7173 245.718922,195.694331 245.616208,187.693825 C245.583772,185.263637 245.497275,182.746072 245.372936,180.239429 C244.778272,168.225018 243.345672,156.483662 243.345672,156.483662 C243.345672,156.483662 290.378189,134.093168 284.972153,151.84173 C282.809738,159.012149 283.517929,169.08241 285.161364,178.535567 C285.642501,181.293421 286.199323,183.996663 286.783175,186.563378 C288.208067,192.823939 289.949287,199.006709 292,205.087416 Z" id="Path" fill="#FBBEBE"></path>
                <path d="M292,205.053332 C292,205.053332 238.209938,211.683335 243.345672,205.053332 C245.205349,202.655481 245.718922,195.550327 245.616208,187.456199 C253.817165,183.875997 264.250815,186.544573 264.250815,186.544573 C275.235881,184.306947 282.279947,184.743422 286.783175,186.312523 C288.208067,192.646346 289.949287,198.901468 292,205.053332 Z" id="Path" fill="#000000" opacity="0.1"></path>
                <path d="M189.364385,300 L189.364385,299.543348 L284.641012,298.505007 L342.690204,297.961373 L342.852959,297.961373 L342.793282,298.765951 L342.874659,297.961373 L342.977737,297.961373 L342.977737,297.868956 L343.720984,290.557082 L344.003092,287.789986 L344.089895,286.925608 L344.165847,286.202575 L347.518595,274.998283 L350.871342,263.810301 L353.692424,254.389127 L358,239.993705 C358,239.993705 355.558679,234.285551 354.202389,232.65465 C352.8461,231.023748 351.48981,219.879256 351.48981,219.879256 C351.48981,219.879256 339.912523,208.827182 334.85085,207.555079 C332.729613,207.011445 328.541391,206.288412 324.092762,205.380544 C322.427238,205.043491 320.718313,204.684693 319.074491,204.293276 C318.146788,204.081259 317.235362,203.858369 316.361911,203.63548 C314.661922,203.209984 312.986625,202.690933 311.34364,202.080687 C310.48222,201.767093 309.662348,201.34901 308.902319,200.835766 C304.914828,197.90558 294.921687,197.573963 294.5365,197.573963 C294.535444,197.5613 294.535444,197.548571 294.5365,197.535909 L294.5365,197.486982 C294.550505,197.258871 294.550505,197.030114 294.5365,196.802003 C294.5365,196.58455 294.5365,196.329042 294.487674,196.040916 C294.487674,195.953934 294.487674,195.861517 294.449698,195.769099 C294.422572,195.573391 294.390021,195.36681 294.341195,195.149356 C294.324722,195.052203 294.30299,194.956019 294.276093,194.861231 C294.118876,194.206181 293.891509,193.570064 293.597948,192.963949 C293.559972,192.876967 293.511145,192.78455 293.467744,192.697568 C293.201767,192.195384 292.893206,191.717037 292.545467,191.267811 C292.47494,191.175394 292.398988,191.07754 292.317611,190.985122 C291.873208,190.460028 291.379011,189.979378 290.841968,189.549929 C290.695488,189.435766 290.543584,189.316166 290.386254,189.207439 C290.298486,189.136093 290.206052,189.070711 290.109571,189.011731 L289.626732,188.696424 L289.176444,188.43548 C288.780408,188.218026 288.36267,188.006009 287.906957,187.804864 C287.765903,187.739628 287.613999,187.679829 287.462094,187.620029 C287.31019,187.560229 287.071483,187.467811 286.870752,187.391703 L286.838201,187.391703 L286.431314,187.228613 C286.12208,187.125322 285.807421,187.032904 285.476486,186.940487 L284.971947,186.810015 L284.429431,186.684979 L283.886915,186.570816 C283.344399,186.462089 282.763907,186.364235 282.15629,186.288126 L281.537822,186.212017 L280.903078,186.146781 L280.246634,186.092418 L279.313507,186.038055 L278.228475,186 C273.443088,185.999555 268.671164,186.507981 263.99286,187.516738 C260.742841,186.792049 257.413939,186.485144 254.086521,186.603434 L253.614533,186.603434 L253.072017,186.636052 L252.724807,186.636052 L252.024961,186.701288 C251.79168,186.701288 251.552973,186.750215 251.319691,186.782833 C251.086409,186.815451 250.842277,186.842633 250.608995,186.880687 L250.250935,186.940487 C249.898299,187.000286 249.540239,187.065522 249.165903,187.141631 C249.04655,187.163377 248.927196,187.190558 248.807843,187.223176 C248.335854,187.326467 247.863865,187.451502 247.397301,187.592847 C247.16402,187.658083 246.930738,187.734192 246.697456,187.815737 C246.578103,187.848355 246.464174,187.891846 246.350246,187.935336 L246.003036,188.060372 L245.661251,188.196281 L245.254364,188.359371 C245.048208,188.446352 244.847477,188.53877 244.646746,188.636624 C244.532818,188.685551 244.41889,188.739914 244.310387,188.799714 C244.201883,188.859514 244.087955,188.908441 243.984877,188.968241 C242.758216,189.603379 241.624582,190.404595 240.615854,191.349357 L240.339171,191.615737 L240.067913,191.89299 C239.975685,191.985408 239.888883,192.083262 239.80208,192.181116 C239.448518,192.568412 239.118784,192.976891 238.814701,193.404292 C238.727899,193.518455 238.646521,193.632618 238.565144,193.752218 C238.220858,194.261013 237.909187,194.791218 237.632017,195.339628 C237.56149,195.4701 237.496388,195.606009 237.431286,195.736481 C236.988571,196.654888 236.625554,197.60977 236.346254,198.590558 C236.244985,198.952981 236.152757,199.315403 236.069571,199.677826 C236.069571,199.677826 224.584512,204.755365 215.057934,208.430329 C212.524385,209.40887 210.137316,210.294993 208.140857,210.963663 C207.560365,211.159371 207.01785,211.33877 206.51331,211.507296 C205.418565,211.903817 204.280112,212.166657 203.122586,212.290129 C202.576984,212.299096 202.032873,212.349984 201.495039,212.442346 C197.116936,213.154507 189.613942,216.247783 188.794743,219.351932 C188.728233,219.599813 188.709816,219.858181 188.740492,220.113019 C188.740492,220.113019 188.740492,220.151073 188.740492,220.172819 C189.283008,223.978255 185.485397,223.434621 185.485397,223.434621 C185.485397,223.434621 184.129108,233.491846 182.230302,236.210014 C180.857737,238.167096 179.919185,242.532475 179.799831,245.826896 C179.73162,246.853312 179.812022,247.884218 180.038538,248.887554 C180.038538,248.914735 180.038538,248.941917 180.038538,248.963663 C180.255545,249.692132 179.734729,251.681831 178.850429,254.231474 C177.890176,257.031188 176.490485,260.510444 175.145046,263.793992 C173.116037,268.751931 171.206381,273.253219 171.087027,274.242632 C171.038201,274.682976 170.897147,275.471245 170.701841,276.48784 C169.909768,280.630329 168.152017,288.518455 167.283992,291.709585 C166.638398,294.090701 165.699845,297.352504 165.054252,299.592275 C165.054252,299.657511 165.016275,299.722747 165,299.782546 L189.320984,299.543348 L189.320984,300 L189.396936,300 L189.364385,300 Z" id="Path" fill="#15CBCB"></path>
                <path d="M199,236 C199,236 229.890323,251.710284 241,249.846352 L199,236 Z" id="Path" fill="#000000" opacity="0.1"></path>
                <path d="M262,229 C262,229 291.766,238.569851 301.688,239.898997 C311.61,241.228143 262,229 262,229 Z" id="Path" fill="#000000" opacity="0.1"></path>
                <path d="M295,197.786902 C279.309701,200.684795 249.768657,200.060716 237,199.621148 C241.680037,182.798175 264.501306,188.517986 264.501306,188.517986 C292.749254,182.863297 294.913433,194.595964 295,197.786902 Z" id="Path" fill="#000000" opacity="0.1"></path>
                <path d="M295,196.786902 C279.309701,199.684795 249.768657,199.060716 237,198.621148 C241.680037,181.798175 264.501306,187.517986 264.501306,187.517986 C292.749254,181.863297 294.913433,193.595964 295,196.786902 Z" id="Path" fill="#15CBCB"></path>
                <path d="M378,270.492877 C378,270.492877 396.624799,267.585911 396.990098,275.891527 C397.355397,284.197143 387.492323,290 387.492323,290 L378,270.492877 Z" id="Path" fill="#FBBEBE"></path>
                <path d="M284.789219,178.038436 C283.99607,178.391727 283.185238,178.704187 282.359927,178.974581 C276.540423,180.975993 270.672334,182.993546 264.54512,183.725245 C258.417906,184.456944 251.98838,183.811327 246.643938,180.766167 C246.082777,180.450285 245.541888,180.099899 245.02441,179.71704 C244.430583,167.880731 243,156.313428 243,156.313428 C243,156.313428 289.96631,134.254851 284.567884,151.740308 C282.41931,158.804433 283.148097,168.725413 284.789219,178.038436 Z" id="Path" fill="#000000" opacity="0.1"></path>
                <path d="M256.114478,104.03874 C254.549638,104.452998 252.881526,104.101309 251.615774,103.090277 L252.74045,104.656595 C251.398841,104.811787 250.057293,104.365538 249.074439,103.437143 C248.972449,104.839293 249.030501,106.24853 249.247466,107.637479 C247.386516,107.727447 245.554292,107.151132 244.078283,106.011542 C244.019211,107.012968 244.588909,107.945226 245.505756,108.347471 C241.63873,107.884434 238.029043,110.36844 237.070686,114.152064 L239.89319,114.412214 C237.674981,114.88707 235.684115,116.104654 234.248182,117.864618 C233.383047,118.948576 232.723381,120.336042 233.101878,121.65847 C233.480374,122.980898 235.307973,123.826385 236.302878,122.883342 C233.438104,126.31058 232.230827,130.83163 233.00455,135.235039 C233.261191,136.161975 233.345503,137.12833 233.253276,138.085847 C233.074842,138.980112 232.512504,139.755142 232.231335,140.627728 C231.690626,142.210306 232.2043,143.928378 232.685531,145.505537 L235.221459,153.86285 C236.140666,156.881671 237.054465,159.905913 238.25484,162.827179 C239.104855,164.674117 239.827497,166.577315 240.417679,168.523376 C241.098973,171.146553 241.126008,174.019041 242.580517,176.311611 C243.57736,177.754323 244.909887,178.931858 246.462812,179.742337 C251.81043,182.809937 258.27191,183.460311 264.392742,182.72322 C270.513575,181.986129 276.385681,179.953708 282.209124,177.937547 C283.502812,177.546956 284.744641,177.001016 285.907577,176.311611 C289.935864,173.666755 290.833442,168.257806 291.585028,163.493813 C292.423128,158.182421 293.542397,152.881868 295.526801,147.884824 C296.705548,144.90936 298.230349,141.890538 297.970808,138.703703 C297.640976,134.470849 294.29939,131.040123 293.472105,126.877726 C293.195164,125.486376 293.20805,124.052674 293.509954,122.666551 C293.766518,121.840698 293.910213,120.983796 293.937115,120.11925 C293.845194,118.374079 292.417721,117.029971 291.076761,115.908075 C288.167743,113.472784 285.165003,111.17118 282.068539,109.003265 C281.911733,107.919308 283.382463,107.453206 284.047536,106.596879 C284.988371,105.388267 284.015094,103.469662 282.58762,102.906004 C281.160147,102.342346 279.559647,102.710892 278.072695,103.084857 C278.271637,101.518217 277.420485,100.0066 275.979622,99.3676308 C274.538759,98.7286618 272.85029,99.1140517 271.827499,100.315345 C271.023175,98.4667649 269.278367,97.2038982 267.274724,97.0201142 C263.68982,96.7382853 263.619528,99.4861177 261.326919,100.998239 C259.03431,102.510359 257.141826,100.515877 255.379113,99.0633743 C254.719932,100.734424 255.000253,102.631034 256.114478,104.03874 Z" id="Path" fill="#3F3D56"></path>
                <path d="M392,287.561447 C392,287.561447 391.51536,288.715239 390.622316,290.38606 C389.271443,292.956608 387.626838,295.361898 385.721463,297.553722 L385.574437,297.711552 L384.692284,297.711552 L353.250591,298 L352.499127,298 L352.406555,297.891152 L346.307716,290.658181 L344.009761,287.931531 L343.917189,287.81724 L343.721155,287.588659 L343.612247,287.458041 L343.470667,287.289326 L339,281.988413 L340.633618,275.185393 L343.416213,263.723666 L343.487003,263.446103 L344.031542,261.269136 L344.418165,259.636412 L345.714168,254.313729 L350.157608,236 L358.053426,240.081812 L366.379431,254.776334 L370.850098,262.667837 L373.300524,262.667837 C373.763382,262.667837 374.825234,263.560393 375.892531,264.58901 C376.273708,264.953652 376.654885,265.340063 376.981609,265.677493 C377.950889,266.678897 378.718689,267.538799 378.718689,267.538799 C378.718689,267.538799 382.68838,267.625878 383.755677,270.749824 C383.810783,270.900998 383.856253,271.05551 383.891811,271.21243 C384.246094,272.440346 384.707076,273.634967 385.269496,274.782654 C385.971951,276.311973 386.854105,278.048104 387.747149,279.784235 C389.407993,282.968048 391.096065,285.999473 391.71684,287.098841 L391.793075,287.234902 L392,287.561447 Z" id="Path" fill="#15CBCB"></path>
                <path d="M345.98518,262.262687 L345.930906,263.032195 L345.930906,263.086007 L345.838639,264.323678 L345.116787,274.284242 L344.242966,286.284273 L343.993303,289.663653 L343.450557,296.895959 L343.450557,296.987439 L285.376742,297.525557 L190.075984,298.547981 L190.075984,299 L190,299 L190,298.547981 L190,298.397308 L190.244236,290.669934 L190.710997,275.570344 L191.112629,262.768518 L191.150621,261.493178 C191.19861,259.937493 191.889889,258.469868 193.062208,257.43477 C194.234526,256.399672 195.784661,255.888242 197.34878,256.020518 C199.910541,256.235766 203.237573,256.499443 207.215901,256.779265 L208.844139,256.897651 C231.818574,258.479717 274.277588,260.524566 317.121952,257.973887 C318.02291,257.925456 318.929296,257.871644 319.835681,257.80707 C326.478892,257.392719 333.116674,256.859982 339.689328,256.192716 C341.37131,256.01799 343.044973,256.590825 344.260046,257.757111 C345.475119,258.923397 346.106812,260.563354 345.98518,262.235781 L345.98518,262.262687 Z" id="Path" fill="#000000" opacity="0.1"></path>
                <path d="M190,299.978398 L190,299.524749 L285.35674,298.493238 L343.454742,297.95318 L343.617634,297.95318 L343.617634,297.86137 L344.160606,290.602991 L344.394084,287.362643 L345.284558,275.151932 L345.984992,265.484894 L345.984992,265.247268 C346.017367,264.801824 345.997322,264.354143 345.925265,263.913325 C345.928302,263.89545 345.928302,263.877194 345.925265,263.859319 C345.776106,262.947877 345.403096,262.087137 344.839321,261.35345 C343.623843,259.803167 341.690118,258.986459 339.724525,259.193218 C333.149134,259.86289 326.508587,260.397547 319.862609,260.813392 C318.955846,260.878199 318.049083,260.932205 317.14775,260.98081 C274.285541,263.513682 231.808843,261.461462 208.824839,259.900694 L207.195923,259.781881 C203.215938,259.501051 199.88752,259.241823 197.324692,259.020399 C194.404586,258.775314 191.770159,260.763843 191.221687,263.627094 C191.166863,263.919476 191.134193,264.21554 191.123952,264.512789 L190.754731,276.480474 L190.249767,291.639902 L190.010859,299.395135 L190.010859,299.546351 L190.010859,300 L190,299.978398 Z" id="Path" fill="#3F3D56"></path>
                <path d="M345.991267,265.89128 L345.324035,274.291755 L344.331324,286.81301 L344.08179,289.947434 L343.539325,296.967008 L343.506777,297.317713 L343.506777,297.410869 L343.425407,298.221874 L343.485079,297.410869 L343.327764,297.410869 L285.283997,297.958845 L190,299 L190,298.846567 L190.265808,290.977629 L190.808273,275.601418 L191.155451,265.381662 C191.190136,264.200436 191.815021,263.117437 192.815394,262.504787 C193.429666,262.12449 194.147894,261.951746 194.865912,262.011609 C196.005089,262.104765 197.404649,262.21436 199.037469,262.334915 C201.690123,262.532186 204.961188,262.762336 208.769293,263.003445 C215.821339,263.452786 224.668945,263.935005 234.807618,264.329548 C263.015804,265.4255 301.096855,265.792644 337.268428,262.592463 C338.895824,262.449989 340.577466,262.291076 342.221135,262.132163 C342.87174,262.066622 343.527243,262.192204 344.108913,262.493828 C344.273673,262.576729 344.429936,262.675844 344.575433,262.789735 C345.047664,263.135384 345.42178,263.600221 345.660364,264.137756 C345.715707,264.244701 345.761107,264.356602 345.79598,264.472022 C345.958937,264.926025 346.025475,265.409593 345.991267,265.89128 Z" id="Path" fill="#000000" opacity="0.1"></path>
                <path d="M162,274 L162,275.678947 C162.000607,276.925063 161.249621,278.060107 160.070808,278.594737 L137.967778,279 C136.767553,278.474712 135.998588,277.329114 136.000002,276.068421 L136.000002,274.489474 L162,274 Z" id="Path" fill="#000000" opacity="0.1"></path>
                <polygon id="Path" fill="#3F3D56" points="162 279.482937 134 280 134 275.517063 162 275"></polygon>
                <polygon id="Path" fill="#000000" opacity="0.1" points="162 279.482937 134 280 134 275.517063 162 275"></polygon>
                <polygon id="Path" fill="#3F3D56" points="163 279.482937 135 280 135 275.517063 163 275"></polygon>
                <g id="Group" opacity="0.1" transform="translate(232.000000, 100.000000)" fill="#000000">
                    <path d="M24.6333065,2.53636364 C24.1054389,1.84393866 23.754699,1.03088627 23.6120968,0.169090909 C23.4818805,1.0115577 23.5598348,1.87345132 23.8390323,2.67818182 C24.1072238,2.65319496 24.3728956,2.6057591 24.6333065,2.53636364 Z" id="Path"></path>
                    <path d="M17.7712097,6.15818182 C17.6693133,5.48949042 17.60258,4.81581914 17.5712903,4.14 C17.5712903,4.81090909 17.5712903,5.48727273 17.5712903,6.16363636 L17.7712097,6.15818182 Z" id="Path"></path>
                    <path d="M61.8075,24.36 C61.8374071,23.8740452 61.9024186,23.390943 62.0020161,22.9145455 C62.2575949,22.0848824 62.4029503,21.2246424 62.4342742,20.3563636 C62.4221554,20.1614664 62.3932287,19.9680068 62.3478226,19.7781818 C62.2559677,20.28 62.1100806,20.7818182 62.0020161,21.2781818 C61.7862038,22.2900408 61.7206481,23.328673 61.8075,24.36 Z" id="Path"></path>
                    <path d="M50.5687903,7.50545455 L51.1577419,7.93636364 C51.6542669,7.57380998 52.1188673,7.16867014 52.546371,6.72545455 C52.9601311,6.14775468 53.0383366,5.39151336 52.7516935,4.74 C52.6978728,4.86451657 52.6289012,4.98178252 52.546371,5.08909091 C51.8817742,5.95090909 50.4120968,6.42545455 50.5687903,7.50545455 Z" id="Path"></path>
                    <path d="M6.17048387,12.7527273 C5.9734059,13.1505462 5.81594006,13.5671348 5.70040323,13.9963636 C6.54563892,13.5200833 7.45603627,13.1726846 8.40201613,12.9654545 L6.17048387,12.7527273 Z" id="Path"></path>
                    <path d="M13.6215323,6.81818182 C13.2666129,6.62079568 12.9270366,6.39651592 12.6057258,6.14727273 C12.5921219,6.36305769 12.6084903,6.57970293 12.6543548,6.79090909 C12.9769675,6.77538231 13.3002813,6.78449919 13.6215323,6.81818182 Z" id="Path"></path>
                    <path d="M66.448871,38.9563636 C66.2273387,41.6018182 65.0062097,44.1490909 64.0174194,46.6581818 C62.0344355,51.6872727 60.9159677,57.0218182 60.0784677,62.3727273 C59.3274194,67.1672727 58.4575,72.6109091 54.4050806,75.2672727 C53.2471773,75.9655999 52.007461,76.5153032 50.7146774,76.9036364 C44.89,78.9381818 39.0166935,80.9781818 32.8840323,81.72 C26.751371,82.4618182 20.316129,81.8127273 14.9669355,78.7254545 C13.415986,77.908508 12.0846886,76.7236678 11.0874194,75.2727273 C9.64475806,72.9654545 9.61774194,70.0745455 8.92612903,67.4345455 C8.33639428,65.4742227 7.61427238,63.5570037 6.76483871,61.6963636 C5.57072581,58.7618182 4.65217742,55.6963636 3.73903226,52.68 C2.89252688,49.8763636 2.04782258,47.0709091 1.20491935,44.2636364 C0.9273081,43.4191612 0.721245005,42.55241 0.588951613,41.6727273 C0.378225806,43.0690909 0.788870968,44.5309091 1.20491935,45.9 C2.04782258,48.7109091 2.89252688,51.5163636 3.73903226,54.3163636 C4.65217742,57.3545455 5.57072581,60.3981818 6.76483871,63.3327273 C7.61427238,65.1933674 8.33639428,67.1105863 8.92612903,69.0709091 C9.60693548,71.7109091 9.63395161,74.6018182 11.0874194,76.9090909 C12.0846886,78.3600315 13.415986,79.5448717 14.9669355,80.3618182 C20.316129,83.4490909 26.7675806,84.0981818 32.8840323,83.3563636 C39.0004839,82.6145455 44.8683871,80.5745455 50.7146774,78.54 C52.007461,78.1516668 53.2471773,77.6019635 54.4050806,76.9036364 C58.4304839,74.2472727 59.3274194,68.8036364 60.0784677,64.0090909 C60.9159677,58.6581818 62.0344355,53.3236364 64.0174194,48.2945455 C65.1953226,45.3054545 66.7190323,42.2672727 66.4596774,39.0545455 C66.4596774,39.0218182 66.448871,38.9890909 66.448871,38.9563636 Z" id="Path"></path>
                    <path d="M1.77766129,36.8454545 C1.77766129,36.8454545 1.77766129,36.8072727 1.77766129,36.7854545 C1.87513625,35.8236324 1.79079268,34.8518727 1.5291129,33.9218182 C1.42131646,33.3232409 1.35093548,32.7184097 1.3183871,32.1109091 C1.25618153,33.2643605 1.32689727,34.4212025 1.5291129,35.5581818 C1.61556452,35.9836364 1.71282258,36.4145455 1.77766129,36.8454545 Z" id="Path"></path>
                    <path d="M3.42564516,23.5036364 C3.84120574,22.7988828 4.31284017,22.1294045 4.8358871,21.5018182 C3.84709677,22.4563636 2.02080645,21.6054545 1.63717742,20.28 C1.49577773,20.8161158 1.49577773,21.3802479 1.63717742,21.9163636 C1.90799092,22.7311024 2.59053209,23.3368606 3.42564516,23.5036364 Z" id="Path"></path>
                </g>
                <path d="M371,262 C371,262 373.25,268.372286 371,273.913404 C368.75,279.454523 371,262 371,262 Z" id="Path" fill="#000000" opacity="0.1"></path>
                <path d="M378.802127,269 C378.802127,269 379.698021,276.541395 377.677207,277.879217 C375.656393,279.21704 378.802127,269 378.802127,269 Z" id="Path" fill="#000000" opacity="0.1"></path>
                <path d="M108,186 L163,185" id="Path" stroke="#15CBCB" stroke-width="2"></path>
                <path d="M108,192.995 L163,192.005" id="Path" stroke="#15CBCB" stroke-width="2"></path>
                <path d="M108,200 L163,199" id="Path" stroke="#15CBCB" stroke-width="2"></path>
                <ellipse id="Oval" fill="#3F3D4F" cx="105" cy="284" rx="15" ry="4"></ellipse>
                <g id="duckling" transform="translate(90.000000, 250.000000)">
                    <path d="M25.8677345,18.8392857 C25.154631,17.4228571 24.0931848,16.1121429 22.522073,15.1828571 C22.3571812,15.0857143 22.3114969,14.8714286 22.4342735,14.725 C23.2308935,13.7735714 25.7670862,10.5335714 25.7670862,7.85714286 C25.7670862,3.51785714 22.2515363,0 17.9150965,0 C13.5786567,0 10.0631068,3.51785714 10.0631068,7.85714286 C10.0631068,12.1428571 13.6379036,14.32 14.2553555,14.9142857 C14.3167438,14.9728571 14.3481517,15.0471429 14.3467241,15.1321429 C14.3381583,15.8571429 14.1025986,19.2707143 10.3978871,17.9785714 C9.39997057,17.6307143 8.51340955,17.0207143 7.7667567,16.2735714 L3.52382699,12.0285714 C3.1890467,11.6935714 2.63940742,11.7364286 2.35744961,12.1178571 C1.4052174,13.4057143 -0.37147373,16.4407143 0.0689515116,20.7142857 C0.0689515116,20.7142857 0.330208624,32.2764286 8.35208685,34.6528571 C9.2150919,34.9085714 10.1180707,35 11.0174804,35 L15.9128391,35 C17.9500736,35 19.9423375,34.4078571 21.6426502,33.2842857 C21.701897,33.245 21.7611438,33.2057143 21.8211045,33.1657143 C26.5066009,30.0121429 28.4089239,23.885 25.8677345,18.8392857 Z" id="Path" fill="#F6C346"></path>
                    <path d="M32.628617,7 L26.6459994,7 L24.9436581,7 C24.9655297,7.2475 24.9801108,7.4965 24.9801108,7.75 C24.9801108,9.51325 23.9608933,11.50825 23,12.99775 L23,13 L27.2802764,13 C27.9553805,13 28.6319426,12.8365 29.1991467,12.45925 C31.0713575,11.21575 32.4317724,8.66125 32.9617947,7.54375 C33.0828177,7.29175 32.9012832,7 32.628617,7 Z" id="Path" fill="#D77328"></path>
                    <circle id="Oval" fill="#FFFFFF" cx="19" cy="6" r="3"></circle>
                    <circle id="Oval" fill="#2C2F38" cx="20.5" cy="7.5" r="1.5"></circle>
                    <path d="M13.6195486,21.6126835 C18.4214568,19.254907 19,24.4623256 19,24.4623256 C19,30.5070208 14.0002443,29.9889041 14.0002443,29.9889041 C9.75259462,29.9889041 7.61984167,25.658139 7.03058474,24.2253735 C6.93201813,23.986349 7.08129655,23.7231457 7.3405696,23.6671891 L7.60984216,23.60916 C9.68474079,23.1635796 11.7253554,22.5425304 13.6195486,21.6126835 Z" id="Path" fill="#D77328"></path>
                </g>
            </g>
        </g>
    </g>
</svg>