<?xml version="1.0" encoding="UTF-8"?>
<svg width="525px" height="411px" viewBox="0 0 525 411" version="1.1" xmlns="http://www.w3.org/2000/svg" xmlns:xlink="http://www.w3.org/1999/xlink">
    <!-- Generator: Sketch 52.3 (67297) - http://www.bohemiancoding.com/sketch -->
    <title>undraw_instant_support_elxh</title>
    <desc>Created with Sketch.</desc>
    <defs>
        <linearGradient x1="51.7668476%" y1="92.2309164%" x2="48.4783547%" y2="16.6314708%" id="linearGradient-1">
            <stop stop-color="#808080" stop-opacity="0.25" offset="0%"></stop>
            <stop stop-color="#808080" stop-opacity="0.12" offset="54%"></stop>
            <stop stop-color="#808080" stop-opacity="0.1" offset="100%"></stop>
        </linearGradient>
        <linearGradient x1="-4.52905442%" y1="-25.4187544%" x2="96.7464467%" y2="-25.4187544%" id="linearGradient-2">
            <stop stop-color="#808080" stop-opacity="0.25" offset="0%"></stop>
            <stop stop-color="#808080" stop-opacity="0.12" offset="54%"></stop>
            <stop stop-color="#808080" stop-opacity="0.1" offset="100%"></stop>
        </linearGradient>
    </defs>
    <g id="Page-1" stroke="none" stroke-width="1" fill="none" fill-rule="evenodd">
        <g id="Desktop-HD" transform="translate(-810.000000, -1085.000000)">
            <g id="undraw_instant_support_elxh" transform="translate(810.000000, 1085.000000)">
                <path d="M78.0783745,258.649573 C78.0756811,259.793206 77.1494934,260.719634 76.0061565,260.722328 L73.0668403,260.722328 C74.2112947,260.722328 75.1390582,261.650332 75.1390582,262.795083 C75.1390582,263.939834 74.2112947,264.867838 73.0668403,264.867838 L77.2063773,264.867838 C78.3508317,264.867838 79.2785952,265.795842 79.2785952,266.940593 C79.2785952,268.085344 78.3508317,269.013348 77.2063773,269.013348 L57.7530028,269.013348 C71.043611,306.254334 95.9641136,338.810797 128.727692,363.345747 C129.06946,363.110881 129.474069,362.984515 129.888722,362.983137 L153.858845,362.983137 C155.0033,362.983137 155.931063,363.911141 155.931063,365.055892 C155.931063,366.200643 155.0033,367.128647 153.858845,367.128647 L150.919529,367.128647 C152.063984,367.128647 152.991747,368.056651 152.991747,369.201402 C152.991747,370.346153 152.063984,371.274157 150.919529,371.274157 L155.063965,371.274157 C156.208419,371.274157 157.136183,372.202161 157.136183,373.346912 C157.136183,374.491663 156.208419,375.419667 155.063965,375.419667 L146.544847,375.419667 C183.252008,397.862261 227.669975,410.99951 275.522043,410.99951 C303.890556,411.055449 332.065393,406.325846 358.861455,397.009639 C362.421294,395.758472 365.940308,394.435437 369.418499,393.040534 C375.473491,390.593736 381.386415,387.926432 387.157273,385.038622 C389.645894,383.793989 392.106754,382.506888 394.539855,381.177319 L394.652529,381.118518 L395.201201,380.81471 L396.62677,380.025789 C399.504034,378.418546 402.337208,376.755769 405.126292,375.037457 L406.840893,373.974129 C408.290956,373.062704 409.726322,372.13658 411.146992,371.195755 C413.981799,369.330439 416.767618,367.403054 419.504448,365.413602 L420.48422,364.688383 L421.272936,364.105267 C424.956879,361.380795 428.539579,358.556687 432.021036,355.632943 L432.168002,355.510439 C433.872805,354.076335 435.553114,352.617729 437.208929,351.134623 L437.355895,351.00232 C442.756246,346.17031 447.908291,341.067629 452.792204,335.713915 C460.11468,327.698623 466.791445,319.116199 472.759959,310.047035 L463.207181,310.047035 C462.062726,310.047035 461.134963,309.119031 461.134963,307.97428 C461.134963,306.829529 462.062726,305.901525 463.207181,305.901525 L459.067644,305.901525 C457.923189,305.901525 456.995426,304.973521 456.995426,303.82877 C456.995426,302.684019 457.923189,301.756015 459.067644,301.756015 L462.00696,301.756015 C461.243479,301.79318 460.521542,301.406911 460.128671,300.751046 C459.735799,300.095181 459.735799,299.27624 460.128671,298.620375 C460.521542,297.96451 461.243479,297.578241 462.00696,297.615406 L480.27481,297.615406 C495.461277,270.311882 503.999991,239.548867 503.999991,206.997305 C504.006385,186.463846 500.572065,166.074528 493.839755,146.676707 L453.184113,146.676707 C450.823666,146.597708 448.950986,144.66082 448.950986,142.298441 C448.950986,139.936061 450.823666,137.999173 453.184113,137.920175 L444.434748,137.920175 C442.018678,137.920175 440.060066,135.961055 440.060066,133.544359 C440.060066,131.127662 442.018678,129.168543 444.434748,129.168543 L450.685694,129.168543 C448.325247,129.089544 446.452567,127.152656 446.452567,124.790277 C446.452567,122.427897 448.325247,120.491009 450.685694,120.412011 L482.484196,120.412011 C446.012181,51.0408728 367.05235,3 275.522043,3 C222.055881,3 172.886019,19.3909343 133.944978,46.8463617 L144.134608,46.8463617 C146.495054,46.9253604 148.367734,48.8622484 148.367734,51.2246277 C148.367734,53.5870069 146.495054,55.5238949 144.134608,55.6028937 L137.898358,55.6028937 C140.314429,55.6028937 142.273041,57.5620132 142.273041,59.9787096 C142.273041,62.395406 140.314429,64.3545255 137.898358,64.3545255 L146.647723,64.3545255 C148.246443,64.30102 149.747155,65.123613 150.562357,66.5002738 C151.377559,67.8769347 151.377559,69.5886483 150.562357,70.9653092 C149.747155,72.3419701 148.246443,73.164563 146.647723,73.1110575 L103.106652,73.1110575 C68.1630811,108.940807 47.0000043,155.761547 47.0000043,206.997305 C46.996374,223.75692 49.2857876,240.438194 53.8045214,256.576818 L76.0061565,256.576818 C77.1483822,256.582182 78.0730118,257.507051 78.0783745,258.649573 Z" id="Path" fill="#15CBCB" opacity="0.1"></path>
                <path d="M399.889145,171.308769 C397.84463,171.1312 390.720693,165.355285 386.592438,163.653585 C384.690106,162.869323 383.498698,164.526631 382.76326,166.539076 C380.233356,164.876836 377.458305,163.037027 375.408887,162.198508 C374.871933,161.946428 374.254197,161.933891 373.707575,162.163981 C371.050194,163.32311 370.481456,170.312411 370.481456,170.312411 L370.574612,170.7514 C369.270436,171.782285 365.357909,172.428438 363.6615,172.541885 C361.666014,172.670129 359.028245,172.966076 358.096691,173.429728 C357.165137,173.89338 346.329693,176.51745 340.098087,178.431246 C333.866481,180.345042 317.770208,189.879495 317.770208,189.879495 L302.512334,193.33222 L300.36976,192.917893 C299.688254,190.451661 296.57,190.476323 292.917328,191.472681 C286.984799,190.377674 281.06698,189.524357 279.154843,190.397404 C284.621594,187.595764 291.343492,183.151614 291.265045,178.248745 C291.157181,171.560324 277.997755,180.94187 273.016392,184.734935 L272.589838,185.060478 L272.477071,184.636286 C272.477071,184.636286 268.844011,186.061768 261.097404,185.874334 C253.350797,185.686901 249.904047,189.351721 249.207833,189.716724 C248.511619,190.081726 241.422002,192.483836 240.872876,192.577553 C240.446322,192.646607 228.21845,193.761344 222.045679,194.318712 C213.509703,193.544316 201.183772,194.895811 200.50717,196.178251 C199.732509,197.65799 190.348328,203.044241 190.348328,203.044241 L187.132015,203.892625 C187.132015,203.892625 186.749588,204.879117 186.308325,206.141828 C185.994568,205.661193 185.728532,205.150695 185.514053,204.617697 C185.028301,203.308898 184.647917,201.962933 184.376577,200.592806 C184.337353,200.410305 184.293227,200.227804 184.249101,200.045303 C184.249101,200.000911 184.224586,199.956519 184.21478,199.912126 L184.09711,199.453407 L184.067693,199.339961 C183.908096,198.748923 183.714931,198.167581 183.489149,197.598801 C183.265756,197.028155 182.986552,196.481254 182.655653,195.966155 C182.187857,195.212812 181.553653,194.578161 180.802351,194.111549 C179.571719,193.356882 178.086136,193.179313 176.654484,193.016542 C175.448546,192.840981 174.228094,192.788101 173.011618,192.858703 C171.967297,192.957352 170.942587,193.243435 169.898266,193.307557 C168.216566,193.406207 166.564283,192.927758 164.897292,192.671269 C163.2303,192.414781 161.416222,192.419714 159.994376,193.356882 C158.798065,194.155941 158.106753,195.502504 157.336996,196.720822 C155.892693,199.008916 154.037122,201.006142 151.865342,202.610184 C150.394467,203.680529 148.722573,204.711414 148.188155,206.437776 C147.653737,208.164138 148.394077,209.836244 148.722573,211.537944 C149.448204,215.286616 148.276407,219.400291 149.580583,222.88261 C149.61,222.96153 149.639418,223.035517 149.673738,223.114436 C149.747282,223.30187 149.825729,223.494236 149.918884,223.676737 C150.001306,223.846114 150.092966,224.010781 150.193447,224.169983 C150.290074,224.327483 150.398238,224.477517 150.51704,224.618838 C150.632379,224.760394 150.762204,224.889348 150.90437,225.00357 C151.044285,225.121263 151.197298,225.222232 151.360341,225.30445 C151.961072,225.563569 152.623906,225.640709 153.267576,225.526411 L153.620585,225.477086 L153.944178,225.417897 C154.325003,225.349656 154.701535,225.259073 155.071849,225.146611 C155.440575,225.037582 155.793369,224.880024 156.121073,224.678027 C156.721524,224.30062 157.122624,223.672726 157.214423,222.966462 C157.262366,222.658101 157.285322,222.346329 157.283064,222.034227 L157.283064,221.817198 L157.356607,222.044092 C159.291355,227.494257 164.231403,231.289903 169.967124,231.733279 C175.702845,232.176656 181.161304,229.184824 183.900994,224.095997 L184.455023,223.908563 C186.234902,223.335753 188.058311,222.910146 189.907066,222.635987 C190.108355,223.047295 190.334305,223.445915 190.583668,223.829643 C196.619157,233.295042 215.480675,233.620584 215.480675,233.620584 C215.480675,233.620584 236.32297,232.806728 237.936029,232.382536 C239.549089,231.958344 244.358849,232.698213 245.746374,233.995451 C247.133899,235.292689 253.247835,235.830328 255.233516,232.476253 C257.219197,229.122177 259.499053,229.76833 259.499053,229.76833 C259.910476,229.206819 260.262146,228.603393 260.548277,227.967981 L261.876967,228.032103 C265.382552,228.219536 271.0111,228.584539 272.227023,229.077785 C274.02149,229.802857 281.728874,229.7486 285.896352,227.982778 C290.063831,226.216956 303.056558,218.729476 303.056558,218.729476 C303.056558,218.729476 311.136563,216.263244 312.573117,215.769998 C314.009672,215.276751 317.770208,211.666188 317.770208,211.666188 L325.516815,208.64752 C325.516815,208.64752 333.699782,204.208302 337.151434,203.744651 C340.603087,203.280999 343.731147,200.242601 343.731147,200.242601 L365.671696,189.963347 C367.142878,189.746995 368.641927,189.822399 370.08432,190.185308 C372.045486,190.801866 384.817582,188.917664 388.685983,184.759597 C388.685983,184.759597 388.828167,184.221959 389.019381,183.34398 C389.195886,183.34398 389.377294,183.309453 389.568508,183.304521 C390.392197,183.487022 390.897198,183.610333 390.897198,183.610333 C392.526965,184.838022 394.263032,185.915984 396.084483,186.831232 C398.687931,188.089011 401.47769,188.779555 402.458273,186.624069 C402.604832,186.291199 402.70387,185.939154 402.752448,185.578386 C405.272547,187.378736 413.754591,192.927758 413.994834,186.318256 C414.289009,178.554558 401.928758,171.486337 399.889145,171.308769 Z" id="Path" fill="url(#linearGradient-1)"></path>
                <path d="M195.999996,221.767572 C195.999996,221.767572 192.208199,221.51514 186.924086,223.297016 C185.172591,223.879053 183.469584,224.612437 181.832378,225.489713 C174.061072,229.617726 180.513696,207.344275 180.513696,207.344275 C180.513696,207.344275 182.677086,207.344275 185.276907,207.111641 C188.383552,206.849309 192.10965,206.304847 193.489338,205.166426 C196.02346,203.052923 195.999996,221.767572 195.999996,221.767572 Z" id="Path" fill="#EFB7B9"></path>
                <path d="M290.999341,177.404489 C291.098079,183.860282 280.07894,189.541173 274.845837,191.876138 C273.216664,192.59972 272.140422,193 272.140422,193 L271,185.569168 C271,185.569168 271.715849,184.968748 272.871081,184.060421 C277.842529,180.165393 290.890729,170.538154 290.999341,177.404489 Z" id="Path" fill="#EFB7B9"></path>
                <path d="M276,191.868542 C274.30552,192.597015 273.186136,193 273.186136,193 L272,185.518944 C272,185.518944 272.744544,184.914466 273.946085,184 L276,191.868542 Z" id="Path" fill="#000000" opacity="0.1"></path>
                <path d="M220,193.189232 C220,193.189232 241.554754,191.186047 242.121207,191.0892 C242.687659,190.992354 249.711672,188.540618 250.401267,188.178719 C251.090861,187.816821 254.504354,184.065307 262.183481,184.259 C269.862609,184.452692 273.463277,183 273.463277,183 L276,192.990443 L224.802533,199 L220,193.189232 Z" id="Path" fill="#E1E7EF"></path>
                <path d="M220,193.189232 C220,193.189232 241.554754,191.186047 242.121207,191.0892 C242.687659,190.992354 249.711672,188.540618 250.401267,188.178719 C251.090861,187.816821 254.504354,184.065307 262.183481,184.259 C269.862609,184.452692 273.463277,183 273.463277,183 L276,192.990443 L224.802533,199 L220,193.189232 Z" id="Path" fill="#000000" opacity="0.05"></path>
                <path d="M370,169.991042 C370,169.991042 370.786841,160.555985 374.868579,162.190177 C378.950317,163.82437 386.00238,169.399849 388.023578,169.553656 C390.044776,169.707462 402.285073,176.518199 401.994925,183.972999 C401.704778,191.4278 390.192309,182.766581 390.192309,182.766581 C390.192309,182.766581 379.481435,180.195131 376.019334,181.353485 C372.557233,182.511839 370,169.991042 370,169.991042 Z" id="Path" fill="#B07473"></path>
                <path d="M401.995411,183.972546 C401.714922,191.428464 390.185354,182.765947 390.185354,182.765947 C390.185354,182.765947 379.472649,180.194112 376.003445,181.352639 C375.019274,181.689141 374.035103,180.871922 373.247765,179.521108 C371.697696,176.963695 370.57574,172.531486 370.167309,170.752834 C370.054129,170.272117 370,169.988494 370,169.988494 C370,169.988494 370.787337,160.552023 374.871648,162.191267 C378.955959,163.830512 386.007547,169.377984 388.030019,169.551042 C390.052491,169.7241 402.270979,176.516628 401.995411,183.972546 Z" id="Path" fill="#000000" opacity="0.1"></path>
                <path d="M379.738689,175.726283 C379.38965,176.670235 376.916878,178.169148 373.077445,180 C371.528891,177.240756 370.408032,172.458757 370,170.539734 C370.722659,170.212981 371.233928,169.834363 371.317501,169.409066 C371.602631,167.987951 381.739521,170.311525 379.738689,175.726283 Z" id="Path" fill="#000000" opacity="0.1"></path>
                <path d="M294,194.465423 L317.552108,189.267962 C317.552108,189.267962 333.499617,180.124457 339.701426,178.292879 C345.903236,176.461302 356.598895,173.944081 357.524244,173.498173 C358.449594,173.052266 361.058291,172.764583 363.032042,172.644716 C365.005792,172.524848 370.021382,171.685774 370.306862,170.37682 C370.592342,169.067865 380.741652,171.206304 378.738369,176.211977 C376.735086,181.21765 305.158334,203 305.158334,203 L294,194.465423 Z" id="Path" fill="#444053"></path>
                <path d="M294,194.465423 L317.552108,189.267962 C317.552108,189.267962 333.499617,180.124457 339.701426,178.292879 C345.903236,176.461302 356.598895,173.944081 357.524244,173.498173 C358.449594,173.052266 361.058291,172.764583 363.032042,172.644716 C365.005792,172.524848 370.021382,171.685774 370.306862,170.37682 C370.592342,169.067865 380.741652,171.206304 378.738369,176.211977 C376.735086,181.21765 305.158334,203 305.158334,203 L294,194.465423 Z" id="Path" fill="#000000" opacity="0.1"></path>
                <path d="M412.995411,185.971177 C412.714966,193.43005 401.187171,184.764877 401.187171,184.764877 C401.187171,184.764877 393.693858,182.967442 389.216567,183.05395 C388.468992,183.043397 387.724115,183.143867 387.007442,183.35192 C383.563372,184.51016 381,171.990595 381,171.990595 C381,171.990595 381.049201,171.385042 381.191884,170.510355 C381.610092,167.915128 382.820437,162.96978 385.875819,164.190497 C389.959502,165.829335 397.010006,171.39946 399.032167,171.548445 C401.054328,171.697431 413.270937,178.531527 412.995411,185.971177 Z" id="Path" fill="#B07473"></path>
                <path d="M389.093255,182.627845 C388.356899,182.617334 387.6232,182.717402 386.917284,182.924623 C383.524902,184.078227 381,171.608773 381,171.608773 C381,171.608773 381.048463,171.005643 381.189004,170.134457 C384.01922,169.536115 386.389041,169 386.389041,169 C391.584232,169.224977 389.878349,179.061725 389.093255,182.627845 Z" id="Path" fill="#000000" opacity="0.1"></path>
                <path d="M387.777984,184.203183 C383.962946,188.2766 371.366953,190.115261 369.44719,189.518674 C368.03094,189.162495 366.558633,189.086083 365.113033,189.293731 L343.496115,199.342796 C343.496115,199.342796 340.410782,202.30617 337.012019,202.765835 C333.613256,203.2255 325.547315,207.55809 325.547315,207.55809 L317.917238,210.492123 C317.917238,210.492123 314.190353,214.076534 312.779915,214.56554 C311.369477,215.054545 303.401483,217.455563 303.401483,217.455563 C303.401483,217.455563 290.604699,224.790646 286.495819,226.507056 C282.38694,228.223465 274.80094,228.282146 273.028098,227.573088 C271.833143,227.084082 266.284442,226.736888 262.836705,226.551066 C261.200989,226.467935 260.035419,226.423925 260.035419,226.423925 L256,195.953987 C256,195.953987 259.335098,195.215589 263.546822,194.222908 C269.663616,192.785231 277.63161,190.799869 279.840316,189.763177 C283.576997,188.007647 303.494533,193.186216 307.147958,193.259567 C310.801384,193.332917 329.435814,187.3915 329.435814,187.3915 C329.435814,187.3915 352.717831,174.27637 357.429085,174.27148 C362.140339,174.26659 368.257134,172.217657 372.05748,171.694421 C375.857826,171.171185 385.348897,169 385.348897,169 C391.759532,169.293403 387.777984,184.203183 387.777984,184.203183 Z" id="Path" fill="#444053"></path>
                <path d="M187.817954,213.749831 C188.314763,216.721303 187.788164,219.767641 186.318488,222.424143 C184.489585,222.978806 182.711313,223.677697 181.001751,224.513713 C172.88699,228.447577 179.62479,207.221693 179.62479,207.221693 C179.62479,207.221693 181.88379,207.221693 184.598511,207 C186.294169,208.923324 187.407897,211.258348 187.817954,213.749831 Z" id="Path" fill="#000000" opacity="0.1"></path>
                <path d="M187.817285,213.203936 C188.996995,220.602654 184.35282,227.683336 177.100387,229.543317 C169.847954,231.403298 162.373186,227.430676 159.851612,220.376096 C159.762644,220.12878 159.683561,219.881465 159.604478,219.629202 C159.421618,219.022765 159.27961,218.404737 159.179408,217.77928 C157.974903,210.148131 162.955644,202.910401 170.509369,201.315225 C178.063094,199.72005 185.541422,204.326706 187.520725,211.794235 C187.645482,212.258302 187.744487,212.728922 187.817285,213.203936 Z" id="Path" fill="#EFB7B9"></path>
                <path d="M262.25863,213.171955 C265.219243,219.042007 263.746065,223.751587 262.634053,226 C261.046823,225.9178 259.915802,225.874282 259.915802,225.874282 L256,195.745542 C256,195.745542 259.236239,195.015413 263.32312,194.033847 L263.746065,194 C263.746065,194 258.071954,204.874584 262.25863,213.171955 Z" id="Path" fill="#000000" opacity="0.1"></path>
                <path d="M261.194579,213.455904 C265.52608,221.846361 260.702921,227.886317 260.702921,227.886317 C260.702921,227.886317 258.446214,227.255934 256.484501,230.534907 C254.522787,233.81388 248.460652,233.291003 247.09876,232.000915 C245.736869,230.710828 240.967792,230.002257 239.374822,230.422513 C237.781852,230.842768 217.166657,231.629527 217.166657,231.629527 C217.166657,231.629527 198.513174,231.316778 192.539537,222.066262 C192.293813,221.692004 192.07054,221.30365 191.870883,220.903229 C191.870883,220.903229 187.155888,212.136496 187.008391,210.181817 C186.944475,209.419493 187.25422,208.100085 187.647545,206.76113 C188.27195,204.684284 189.122518,202.578118 189.122518,202.578118 L192.303541,201.74738 C192.303541,201.74738 201.586033,196.484408 202.348102,195.042833 C203.110171,193.601258 218.966123,192.081495 227.024388,193.689218 C235.082653,195.296941 250.3142,195.0917 250.3142,195.0917 L262.762966,194.050834 C262.762966,194.050834 256.88766,205.070333 261.194579,213.455904 Z" id="Path" fill="#E1E7EF"></path>
                <path d="M242,229 C243.866215,228.27943 245.671264,227.410181 247.397664,226.400673 C250.258426,224.692264 242,229 242,229 Z" id="Path" fill="#000000" opacity="0.1"></path>
                <path d="M197,207.841793 C197,207.841793 203.105779,218.904961 216.160189,215.265007 C229.2146,211.625053 238.990706,214.309638 238.990706,214.309638 C238.990706,214.309638 251.202264,213.62655 253.451504,212.714173 C256.825033,211.471934 260.271081,210.425566 263.771544,209.580564 C265.697364,209.198416 268.382731,208.443675 270.509463,207.798802 C272.636195,207.153928 284,204.822829 284,204.822829 C284,204.822829 280.408077,196.99836 282.147685,196 C282.147685,196 270.930889,198.226009 270.803481,197.433053 C270.676073,196.640097 258.106793,196.157636 257.082629,196.955369 C256.058466,197.753101 244.831869,198.54128 243.851808,198.899544 C242.871747,199.257807 225.52467,200.743405 225.52467,200.743405 C225.52467,200.743405 199.499155,190.430201 197,207.841793 Z" id="Path" fill="#000000" opacity="0.1"></path>
                <path d="M280,197.521613 C280,197.521613 300.237276,185.982732 300.979617,193.602117 C301.721958,201.221502 281.94076,204 281.94076,204 L280,197.521613 Z" id="Path" fill="#EFB7B9"></path>
                <path d="M197,206.841793 C197,206.841793 203.125035,217.904961 216.15911,214.265007 C229.193185,210.625053 238.993241,213.309638 238.993241,213.309638 C238.993241,213.309638 251.204112,212.62655 253.448324,211.714173 C256.823078,210.471224 260.270606,209.424844 263.772684,208.580564 C265.693495,208.198416 268.38361,207.443675 270.510222,206.798802 C272.636835,206.153928 284,203.822829 284,203.822829 C284,203.822829 280.403379,195.99836 282.142889,195 C282.142889,195 270.931625,197.226009 270.799324,196.433053 C270.667023,195.640097 258.103351,195.157636 257.079245,195.955369 C256.055139,196.753101 244.829175,197.54128 243.849169,197.899544 C242.869164,198.257807 225.537764,199.738628 225.537764,199.738628 C225.537764,199.738628 199.503914,189.430201 197,206.841793 Z" id="Path" fill="#000000" opacity="0.1"></path>
                <path d="M197,206.841793 C197,206.841793 203.110335,217.904961 216.15911,214.265007 C229.207885,210.625053 238.993241,213.309638 238.993241,213.309638 C238.993241,213.309638 251.204112,212.62655 253.448324,211.714173 C256.823021,210.469744 260.270541,209.421771 263.772684,208.575787 C265.693495,208.198416 268.38361,207.438898 270.510222,206.794025 C272.636835,206.149151 284,203.822829 284,203.822829 C284,203.822829 280.403379,195.993583 282.142889,195 C282.142889,195 270.931625,197.226009 270.799324,196.433053 C270.667023,195.640097 258.103351,195.157636 257.079245,195.955369 C256.055139,196.753101 244.853675,197.54128 243.849169,197.90432 C242.844663,198.26736 225.527964,199.733851 225.527964,199.733851 C225.527964,199.733851 199.503914,189.430201 197,206.841793 Z" id="Path" fill="#E1E7EF"></path>
                <path d="M240.007856,204.015244 C239.817046,203.469794 243.104833,203.729775 249.592342,202.424773 C256.07985,201.119771 267,198 267,198 C267,198 241.465832,208.134157 240.007856,204.015244 Z" id="Path" fill="#000000" opacity="0.1"></path>
                <path d="M213.991426,201 C213.991426,201 214.314131,201.947368 211,204" id="Path" fill="#000000" opacity="0.1"></path>
                <path d="M220.877457,202 C221.410623,203.709646 220.158869,205.449729 218,206" id="Path" fill="#000000" opacity="0.1"></path>
                <path d="M192,221.758725 L194.540978,224.100826 C194.540978,224.100826 197.269082,225.567695 197.55962,226.350025 C197.850158,227.132355 203.390081,226.990558 203.390081,226.990558 L209.791769,231 L207.073514,227.235036 C209.258925,227.759092 211.565785,227.271856 213.347168,225.909965 C216.464298,223.602091 222.649314,217.597707 222.649314,217.597707 L233.812874,208.972517 L234,203.413084 L225.214914,202 L204.768906,222.565503 L200.135069,223.215815 L195.210693,222.673074 L192,221.758725 Z" id="Path" fill="#000000" opacity="0.1"></path>
                <path d="M192,221.750928 L194.539787,224.095005 C194.539787,224.095005 197.26169,225.563112 197.557014,226.346102 C197.852338,227.129092 203.389664,226.987175 203.389664,226.987175 L209.788351,231 L207.07137,227.23186 C209.254182,227.756978 211.558743,227.269204 213.337162,225.90567 C216.457752,223.595849 222.639869,217.586399 222.639869,217.586399 L233.812961,208.9784 L234,203.414276 L225.219032,202 L204.757998,222.582855 L200.126333,223.233716 L195.204266,222.690516 L192,221.750928 Z" id="Path" fill="#67647E"></path>
                <path d="M199,220.534312 L193.472572,223 C193.229576,222.632686 193.010561,222.250489 192.816857,221.855729 C192.816857,221.855729 188.154,213.271305 188.008286,211.35142 C187.945143,210.604532 188.251143,209.311842 188.644572,208 L199,220.534312 Z" id="Path" fill="#000000" opacity="0.1"></path>
                <path d="M198,219.538314 L192.472573,222 C192.22982,221.633203 192.009246,221.252592 191.812002,220.860153 C191.812002,220.860153 187.154004,212.268199 187.008289,210.35249 C186.945147,209.605364 187.251146,208.312261 187.639718,207 L198,219.538314 Z" id="Path" fill="#E1E7EF"></path>
                <path d="M187,212.584716 C186.771629,212.883588 186.480496,213.128637 186.147154,213.302561 C185.289462,213.695436 184.291244,213.302561 183.351175,213.346214 C182.411105,213.389867 181.461345,213.903999 180.487355,213.981604 C179.800592,213.991681 179.115726,213.906808 178.452154,213.729388 C177.168039,213.462621 175.772472,213.312262 174.57558,213.894299 C173.378687,214.476336 172.637293,216.047836 173.335076,217.158556 C172.574298,218.230474 171.096354,218.574846 169.792856,218.395385 C166.740054,217.963707 164.181515,215.33484 161.070564,217.37197 C159.718609,218.269277 159.805832,219.656465 159.834906,221 C159.747683,220.757485 159.670152,220.514969 159.59262,220.267603 C159.413348,219.672938 159.274124,219.066906 159.175889,218.453588 C157.995012,210.970563 162.878046,203.873319 170.28359,202.309107 C177.689133,200.744894 185.020759,205.262134 186.961234,212.584716 L187,212.584716 Z" id="Path" fill="url(#linearGradient-2)"></path>
                <path d="M158.093337,223.131341 C157.422541,223.502898 156.68525,223.746065 155.921043,223.847789 C155.071638,224.083629 154.166818,224.044567 153.342063,223.736449 C152.704756,223.381107 152.202043,222.834398 151.908746,222.177692 C150.073703,218.624499 151.492142,214.30645 150.713488,210.399875 C150.386157,208.753982 149.667018,207.05968 150.177854,205.462196 C150.688691,203.864712 152.399744,202.794881 153.842981,201.758937 C156.006923,200.203507 157.856688,198.269993 159.298513,196.056402 C160.067248,194.875231 160.756629,193.57304 161.946927,192.803343 C163.345527,191.893261 165.160731,191.893261 166.822189,192.140145 C168.483647,192.387029 170.130226,192.84691 171.811522,192.750093 C172.853033,192.692003 173.874705,192.416074 174.916216,192.319256 C176.13023,192.24764 177.348584,192.299556 178.551585,192.474164 C179.979943,192.629072 181.457896,192.803343 182.687871,193.529472 C184.855205,194.807459 185.698333,197.402161 186.263725,199.822592 C186.829116,202.243023 187.399467,204.847407 189.313863,206.459414 C189.628446,206.6572 189.868651,206.949419 189.998285,207.292042 C190.018344,207.699698 189.861737,208.096777 189.566802,208.386077 L187.305235,211.319639 C187.011535,211.773091 186.607812,212.148861 186.129816,212.413673 C185.256931,212.810624 184.230299,212.413673 183.268141,212.4524 C182.305983,212.491127 181.338866,213.018781 180.337032,213.091394 C179.633993,213.103993 178.932674,213.019242 178.25401,212.839669 C176.939723,212.573422 175.511365,212.423355 174.311148,213.004259 C173.110931,213.585162 172.327318,215.153601 173.041497,216.262159 C172.257884,217.331989 170.745213,217.680531 169.416047,217.496578 C166.286555,217.070582 163.667899,214.441995 160.488811,216.475156 C157.909832,218.159776 160.543367,221.616152 158.093337,223.131341 Z" id="Path" fill="#585268"></path>
                <g id="Group" opacity="0.1" transform="translate(151.000000, 195.000000)" fill="#000000">
                    <path d="M34.455,3.17 C34.895,5.075 35.335,7.11 36.385,8.705 C35.8986068,7.40431001 35.517383,6.06668289 35.245,4.705 C34.9362392,3.06503194 34.3476559,1.49040255 33.505,0.05 C33.9073587,1.06195446 34.225114,2.1055298 34.455,3.17 Z" id="Path"></path>
                    <path d="M38.315,11.54 L38.16,11.395 C38.0642702,11.6195532 37.9380859,11.8298604 37.785,12.02 L35.505,15.05 C35.2076386,15.5173194 34.8009136,15.9051668 34.32,16.18 C33.44,16.59 32.405,16.18 31.435,16.22 C30.465,16.26 29.49,16.805 28.48,16.88 C27.7712303,16.8930133 27.0641949,16.8054756 26.38,16.62 C25.055,16.345 23.615,16.19 22.38,16.79 C21.145,17.39 20.38,19.01 21.1,20.155 C20.31,21.26 18.79,21.62 17.445,21.43 C14.295,20.99 11.655,18.275 8.445,20.375 C5.82,22.105 8.475,25.675 6,27.24 C5.32582018,27.6244141 4.58402632,27.8756395 3.815,27.98 C2.945,28.145 2.005,28.26 1.215,27.865 C0.813695641,27.6526399 0.470395701,27.3453865 0.215,26.97 C0.314263356,27.241555 0.429463553,27.5070163 0.56,27.765 C0.855687355,28.4432945 1.36249842,29.0079767 2.005,29.375 C2.8364771,29.6932465 3.74867228,29.7335936 4.605,29.49 C5.37543648,29.3849318 6.11873703,29.1337709 6.795,28.75 C9.265,27.185 6.61,23.615 9.24,21.885 C12.425,19.785 15.065,22.5 18.24,22.94 C19.58,23.13 21.105,22.77 21.895,21.665 C21.175,20.52 21.96,18.9 23.175,18.3 C24.39,17.7 25.825,17.855 27.15,18.13 C27.8341949,18.3154756 28.5412303,18.4030133 29.25,18.39 C30.25,18.315 31.195,17.775 32.205,17.73 C33.215,17.685 34.205,18.1 35.09,17.69 C35.5718921,17.4164818 35.9789057,17.0283592 36.275,16.56 L38.555,13.53 C38.8523394,13.2311902 39.0102225,12.8210571 38.99,12.4 C38.8632407,12.0482576 38.6265534,11.7467005 38.315,11.54 Z" id="Path"></path>
                </g>
                <path d="M304,200 C304,200 308.895369,206.779703 307.854868,207.903197 C306.814367,209.02669 304,200 304,200 Z" id="Path" fill="#000000" opacity="0.1"></path>
                <path d="M317,198 C317,198 319.42716,202.171512 318.933835,203" id="Path" fill="#000000" opacity="0.1"></path>
                <path d="M331,188 C331,188 333.810408,190.424242 332.768236,192" id="Path" fill="#000000" opacity="0.1"></path>
                <path d="M333,187 C333,187 337.078494,190.928889 335.724637,192" id="Path" fill="#000000" opacity="0.1"></path>
                <path d="M383,175 C383,175 383.670387,182.60905 386.321462,181.960815 C388.972537,181.312579 383,175 383,175 Z" id="Path" fill="#000000" opacity="0.1"></path>
                <path d="M364.58906,355 C364.58906,355 368.173598,344.9769 363.915851,337.599392 C362.101997,334.51251 361.556861,331.023444 362.362748,327.658967 C362.756649,326.066104 363.327945,324.506521 364.06939,323" id="Path" stroke="#535461" stroke-width="2"></path>
                <path d="M363,317.149848 C363,318.390699 365.002186,322 365.002186,322 C365.002186,322 367,318.390699 367,317.149848 C366.950043,315.946612 366.069412,315 365,315 C363.930588,315 363.049957,315.946612 363,317.149848 Z" id="Path" fill="#15CBCB"></path>
                <path d="M358.373457,324.297514 C359.067438,325.288737 363,327 363,327 C363,327 362.924567,322.964973 362.235615,321.97375 C361.541275,320.982165 360.113828,320.701659 359.047323,321.347222 C357.980818,321.992785 357.679118,323.319956 358.373457,324.311541 L358.373457,324.297514 Z" id="Path" fill="#15CBCB"></path>
                <path d="M359.059955,335.73153 C360.087994,336.227918 364,335.88393 364,335.88393 C364,335.88393 361.962118,332.670469 360.934079,332.174081 C359.918142,331.739283 358.724588,332.145543 358.223501,333.096703 C357.722414,334.047863 358.090731,335.208061 359.059955,335.73153 Z" id="Path" fill="#15CBCB"></path>
                <path d="M360.889594,344.954649 C361.850197,345.673927 366,346 366,346 C366,346 364.477445,342.163851 363.502433,341.430188 C362.871821,340.96421 362.040109,340.869507 361.320596,341.181754 C360.601082,341.494001 360.103078,342.16576 360.014176,342.943985 C359.925275,343.72221 360.258982,344.488671 360.889594,344.954649 Z" id="Path" fill="#15CBCB"></path>
                <path d="M368.284894,327.434212 C367.351659,328.203985 363,329 363,329 C363,329 364.062135,325.334831 365.000526,324.565058 C365.934531,323.795711 367.426922,323.814313 368.333876,324.606608 C369.240829,325.398903 369.218899,326.664864 368.284894,327.434212 Z" id="Path" fill="#15CBCB"></path>
                <path d="M369.940045,337.733253 C368.912006,338.225515 365,337.885724 365,337.885724 C365,337.885724 367.037882,334.670779 368.065921,334.174162 C369.081858,333.739163 370.275412,334.14561 370.776499,335.09721 C371.277586,336.048809 370.909269,337.209543 369.940045,337.733253 Z" id="Path" fill="#15CBCB"></path>
                <path d="M371.045924,347.96704 C370.097442,348.677792 366,349 366,349 C366,349 367.503344,345.209322 368.466053,344.479616 C369.087192,343.980095 369.932325,343.860771 370.667673,344.16877 C371.403021,344.476768 371.910352,345.162569 371.989298,345.955318 C372.068244,346.748068 371.706112,347.520305 371.045924,347.96704 Z" id="Path" fill="#15CBCB"></path>
                <path d="M437.588589,344 C437.588589,344 441.174322,333.979945 436.915157,326.604679 C435.102731,323.516503 434.557528,320.027522 435.361536,316.662413 C435.75551,315.068442 436.326993,313.507715 437.068747,312" id="Path" stroke="#535461" stroke-width="2"></path>
                <path d="M436.002192,307.291571 C436.002192,308.496164 438.002183,312 438.002183,312 C438.002183,312 439.997808,308.496164 439.997808,307.291571 C440.032229,306.485871 439.659156,305.724713 439.026853,305.310591 C438.394551,304.89647 437.605449,304.89647 436.973147,305.310591 C436.340844,305.724713 435.967771,306.485871 436.002192,307.291571 Z" id="Path" fill="#15CBCB"></path>
                <path d="M431.373457,314.297514 C432.067438,315.288737 436,317 436,317 C436,317 435.929596,312.964973 435.235615,311.97375 C434.541275,310.982165 433.113828,310.701659 432.047323,311.347222 C430.980818,311.992785 430.679118,313.319956 431.373457,314.311541 L431.373457,314.297514 Z" id="Path" fill="#15CBCB"></path>
                <path d="M431.364111,325.733922 C432.532844,326.222859 437,325.888323 437,325.888323 C437,325.888323 434.672923,322.718808 433.498996,322.23416 C432.738657,321.89622 431.816039,321.925842 431.089778,322.311511 C430.363516,322.69718 429.948173,323.37806 430.005199,324.089483 C430.062226,324.800905 430.582625,325.430648 431.364111,325.733922 Z" id="Path" fill="#15CBCB"></path>
                <path d="M433.830128,334.944635 C434.801908,335.670804 439,336 439,336 C439,336 437.459728,332.127102 436.473371,331.381569 C435.485275,330.714821 434.145214,330.943315 433.435879,331.899491 C432.726544,332.855667 432.900477,334.199105 433.830128,334.944635 Z" id="Path" fill="#15CBCB"></path>
                <path d="M441.284894,317.434212 C440.351659,318.203985 436,319 436,319 C436,319 437.067291,315.334831 438.000526,314.565058 C438.934531,313.795711 440.426922,313.814313 441.333876,314.606608 C442.240829,315.398903 442.218899,316.664864 441.284894,317.434212 Z" id="Path" fill="#15CBCB"></path>
                <path d="M442.873034,326.733898 C441.858941,327.225908 438,326.884954 438,326.884954 C438,326.884954 440.014726,323.699839 441.024333,323.212145 C442.03543,322.721125 443.268932,323.111446 443.779437,324.083951 C444.289942,325.056457 443.884132,326.242878 442.873034,326.733898 Z" id="Path" fill="#15CBCB"></path>
                <path d="M444.110314,337.954675 C443.149728,338.673935 439,339 439,339 C439,339 440.522528,335.163947 441.497522,334.430301 C442.472346,333.70998 443.847491,333.915001 444.568993,334.88823 C445.290496,335.861459 445.085138,337.234354 444.110314,337.954675 Z" id="Path" fill="#15CBCB"></path>
                <path d="M380.588684,343 C380.588684,343 384.174176,332.978423 379.915297,325.602036 C378.102579,322.513492 377.557395,319.023867 378.361781,315.658259 C378.755787,314.065638 379.327235,312.506292 380.068877,311" id="Path" stroke="#535461" stroke-width="2"></path>
                <path d="M378,306.149848 C378,307.390699 380.002186,311 380.002186,311 C380.002186,311 382,307.390699 382,306.149848 C381.950043,304.946612 381.069412,304 380,304 C378.930588,304 378.049957,304.946612 378,306.149848 Z" id="Path" fill="#15CBCB"></path>
                <path d="M374.373213,313.297406 C375.067231,314.288669 379,316 379,316 C379,316 378.929592,311.964813 378.235574,310.97355 C377.786392,310.332081 377.003249,309.962139 376.181148,310.003077 C375.359047,310.044014 374.622885,310.489612 374.249967,311.172019 C373.877049,311.854425 373.92403,312.669965 374.373213,313.311434 L374.373213,313.297406 Z" id="Path" fill="#15CBCB"></path>
                <path d="M374.130088,324.734077 C375.139977,325.225756 379,324.885031 379,324.885031 C379,324.885031 376.989197,321.702058 375.974819,321.210379 C375.319769,320.893729 374.538676,320.936938 373.92577,321.323731 C373.312863,321.710524 372.96126,322.382137 373.003404,323.085581 C373.045548,323.789024 373.475037,324.417427 374.130088,324.734077 Z" id="Path" fill="#15CBCB"></path>
                <path d="M376.889594,332.954649 C377.850197,333.673927 382,334 382,334 C382,334 380.477445,330.163851 379.502433,329.430188 C378.871821,328.96421 378.040109,328.869507 377.320596,329.181754 C376.601082,329.494001 376.103078,330.16576 376.014176,330.943985 C375.925275,331.72221 376.258982,332.488671 376.889594,332.954649 Z" id="Path" fill="#15CBCB"></path>
                <path d="M383.284894,316.434212 C382.351659,317.203985 378,318 378,318 C378,318 379.067291,314.334831 380.000526,313.565058 C380.934531,312.795711 382.426922,312.814313 383.333876,313.606608 C384.240829,314.398903 384.218899,315.664864 383.284894,316.434212 Z" id="Path" fill="#15CBCB"></path>
                <path d="M384.940045,325.733253 C383.912006,326.225515 380,325.885724 380,325.885724 C380,325.885724 382.042431,322.670779 383.065921,322.174162 C384.081858,321.739163 385.275412,322.14561 385.776499,323.09721 C386.277586,324.048809 385.909269,325.209543 384.940045,325.733253 Z" id="Path" fill="#15CBCB"></path>
                <path d="M386.045924,336.96704 C385.097442,337.677792 381,338 381,338 C381,338 382.503344,334.209322 383.466053,333.479616 C384.087192,332.980095 384.932325,332.860771 385.667673,333.16877 C386.403021,333.476768 386.910352,334.162569 386.989298,334.955318 C387.068244,335.748068 386.706112,336.520305 386.045924,336.96704 Z" id="Path" fill="#15CBCB"></path>
                <path d="M432.00081,354.726131 C432.00081,355.157287 432.00081,355.583543 432.00081,356 L432.14939,355.877513 C433.872908,354.443594 435.571663,352.985177 437.245655,351.502263 L437.394234,351.369977 C442.853869,346.538592 448.062472,341.436572 453,336.08355 C447.715534,326.990086 435.338889,326.941091 433.115154,327.009684 L432.768469,327.009684 C432.768469,327.009684 431.971095,343.378899 432.00081,354.726131 Z" id="Path" fill="#A8A8A8"></path>
                <path d="M432.00081,354.726131 C432.00081,355.157287 432.00081,355.583543 432.00081,356 L432.14939,355.877513 C433.872908,354.443594 435.571663,352.985177 437.245655,351.502263 L437.394234,351.369977 C442.853869,346.538592 448.062472,341.436572 453,336.08355 C447.715534,326.990086 435.338889,326.941091 433.115154,327.009684 L432.768469,327.009684 C432.768469,327.009684 431.971095,343.378899 432.00081,354.726131 Z" id="Path" fill="#FFFFFF" opacity="0.1"></path>
                <path d="M380,335.878397 L380.408881,338.592371 L384.575576,366.168112 L385.938514,375.211427 L387.267378,384 C389.740137,382.755687 392.185312,381.468917 394.602904,380.13969 L394.714859,380.080904 L395.260034,379.777174 L396.676516,378.988456 C399.53544,377.381626 402.350555,375.719276 405.121862,374.001406 L406.825534,372.938351 C408.266354,372.027161 409.69257,371.101274 411.104184,370.160691 C413.920922,368.295855 416.688984,366.368966 419.408369,364.380024 L420.381896,363.654991 L421.165585,363.072026 C424.826046,360.348254 428.385909,357.524872 431.845175,354.601879 L431.991204,354.479407 C433.685141,353.045671 435.35474,351.587441 437,350.104716 L434.566183,337.490125 C434.079419,334.936181 433.677028,332.372438 433.359009,329.798898 C433.183775,328.407619 433.037746,327.013074 432.920922,325.615263 C432.886849,325.28214 432.857643,324.944118 432.833305,324.610995 C431.996072,314.09312 429.425961,292.244158 422.216994,287.105243 C420.825691,286.049197 419.016307,285.726881 417.34936,286.238143 C416.633934,286.440144 415.930277,286.682199 415.241674,286.963176 C410.184202,289.001106 405.399317,293.047573 401.432195,297.250804 C395.742719,303.310066 391.132255,310.309912 387.802818,317.943632 L380.501366,334.506713 L380.477028,334.5606 L380.408881,334.712465 L380,335.878397 Z" id="Path" fill="#A8A8A8"></path>
                <path d="M397,364 L405.636273,334.917364 C405.636273,334.917364 413.721295,356.308846 420.083035,363.511052 L420.882598,362.929204 L409.415574,335.034712 C409.415574,335.034712 405.661104,319.139008 408.665673,313.349862 C411.049464,308.753749 418.876242,293.302988 422,287.103125 C420.580516,286.049102 418.734483,285.727404 417.03377,286.237687 C416.303854,286.439301 415.585944,286.680891 414.883393,286.96133 C410.910409,293.161193 403.560389,305.54136 403.014104,313.222735 C402.590372,319.941117 402.883326,326.684725 403.888161,333.342951 L397,364 Z" id="Path" fill="#FFFFFF" opacity="0.1"></path>
                <path d="M359,397 C362.580619,395.759864 366.120175,394.448493 369.61867,393.065888 C375.709006,390.640661 381.656447,387.996873 387.460991,385.134523 C389.964139,383.900863 392.439365,382.62511 394.886668,381.307263 L395,381.24898 L394.714208,379.466487 L394.403778,377.523715 L393.383794,371.083428 C393.383794,371.083428 388.638653,350.859176 383.622502,340.654768 C382.877833,338.999269 381.897234,337.45702 380.710375,336.074685 C380.636463,335.992117 380.557624,335.919263 380.478785,335.846409 C379.451643,335.20666 378.239984,334.916612 377.029565,335.020731 C375.434173,335.197889 373.942781,335.889374 372.787024,336.987787 C370.323296,339.149121 367.637832,343.476644 365.331782,351.757708 C361.779086,364.45372 359.931289,383.22575 359,397 Z" id="Path" fill="#A8A8A8"></path>
                <path d="M370,393 C376.025741,390.53942 381.910101,387.857093 387.653081,384.953018 C390.12968,383.701374 392.578653,382.407024 395,381.069967 C394.975624,380.458928 394.917122,379.838034 394.829368,379.202357 C394.829368,379.202357 394.210218,375.752946 387.662832,376.014116 C387.214314,376.014116 386.765796,376.068321 386.322153,376.122526 C379.3302,377.00584 373.430214,381.802246 371.077418,388.515766 C370.547227,389.963152 370.185651,391.468039 370,393 Z" id="Path" fill="#FFFFFF" opacity="0.1"></path>
                <path d="M377.716448,344.641799 C377.943491,338.723045 374.689203,336.695324 372,336.017757 C373.182113,334.889157 374.709888,334.179533 376.344097,334 C378.215939,335.546751 379.542606,337.639998 380.133199,339.978539 L387,373 C387,373 377.332997,354.561191 377.716448,344.641799 Z" id="Path" fill="#FFFFFF" opacity="0.1"></path>
                <path d="M407.816111,372.745293 L406,375 L407.708706,374.03876 C409.153784,373.214839 410.584215,372.37763 412,371.527132 L409.222132,371 L407.816111,372.745293 Z" id="Path" fill="#A8A8A8"></path>
                <path d="M408,373 C409.374081,372.069936 410.734236,371.124871 412.080464,370.164805 C414.766731,368.26134 417.406576,366.294538 420,364.264398 C418.175629,362.864301 416.439458,361.894234 415.232495,362.009242 C415.232495,362.009242 409.044487,362.464274 408.102128,371.539899 C408.055706,372.004931 408.018569,372.489965 408,373 Z" id="Path" fill="#FFFFFF" opacity="0.1"></path>
                <path d="M380,334 L380.152057,334.455544 L394.344067,376.504198 L395.525045,380 L397,379.202799 C395.226019,365.010346 390.551547,351.310678 383.254025,338.9169 C381.794275,336.490635 380.684258,334.92099 380.21288,334.302045 C380.101371,334.143595 380.030411,334.049516 380,334.014855 L380,334 Z" id="Path" fill="#000000" opacity="0.1"></path>
                <path d="M431.720673,354.842758 C431.764264,355.226864 431.817541,355.61097 431.870819,356 C433.556329,354.558782 435.217622,353.092942 436.854697,351.602479 L437,351.469519 L433.251193,331.190695 L432.476246,327 C430.806242,336.184972 430.551338,345.578135 431.720673,354.842758 Z" id="Path" fill="#000000" opacity="0.1"></path>
                <path d="M253.37521,36.6682836 L259.626911,36.6682836 C257.266179,36.590081 255.393273,34.672713 255.393273,32.3341418 C255.393273,29.9955706 257.266179,28.0782026 259.626911,28 L310.267642,28 C312.628373,28.0782026 314.50128,29.9955706 314.50128,32.3341418 C314.50128,34.672713 312.628373,36.590081 310.267642,36.6682836 L304.015942,36.6682836 C306.432304,36.6682836 308.391152,38.6076591 308.391152,41 C308.391152,43.3923409 306.432304,45.3317164 304.015942,45.3317164 L312.766363,45.3317164 C315.127094,45.409919 317,47.327287 317,49.6658582 C317,52.0044294 315.127094,53.9217974 312.766363,54 L262.125631,54 C259.7649,53.9217974 257.891993,52.0044294 257.891993,49.6658582 C257.891993,47.327287 259.7649,45.409919 262.125631,45.3317164 L253.37521,45.3317164 C250.958848,45.3317164 249,43.3923409 249,41 C249,38.6076591 250.958848,36.6682836 253.37521,36.6682836 Z" id="Path" fill="#15CBCB" opacity="0.1"></path>
                <path d="M325.374265,103.665049 L331.624614,103.665049 C329.208774,103.665049 327.250349,101.725312 327.250349,99.3325247 C327.250349,96.9397374 329.208774,95 331.624614,95 L382.254402,95 C384.670242,95 386.628667,96.9397374 386.628667,99.3325247 C386.628667,101.725312 384.670242,103.665049 382.254402,103.665049 L376.004053,103.665049 C378.419892,103.665049 380.378318,105.604787 380.378318,107.997574 C380.378318,110.390362 378.419892,112.330099 376.004053,112.330099 L384.767277,112.330099 C387.127499,112.408316 389,114.326042 389,116.665049 C389,119.004057 387.127499,120.921783 384.767277,121 L334.122794,121 C331.762573,120.921783 329.890072,119.004057 329.890072,116.665049 C329.890072,114.326042 331.762573,112.408316 334.122794,112.330099 L325.374265,112.330099 C322.958425,112.330099 321,110.390362 321,107.997574 C321,105.604787 322.958425,103.665049 325.374265,103.665049 Z" id="Path" fill="#15CBCB" opacity="0.1"></path>
                <path d="M252.05371,313 L254.966773,313 C253.83254,313 252.913063,312.104569 252.913063,311 C252.913063,309.895431 253.83254,309 254.966773,309 L278.75679,309 C279.891022,309 280.810499,309.895431 280.810499,311 C280.810499,312.104569 279.891022,313 278.75679,313 L275.843726,313 C276.977959,313 277.897436,313.895431 277.897436,315 C277.897436,316.104569 276.977959,317 275.843726,317 L279.94629,317 C281.080523,317 282,317.895431 282,319 C282,320.104569 281.080523,321 279.94629,321 L256.161129,321 C255.026896,321 254.107419,320.104569 254.107419,319 C254.107419,317.895431 255.026896,317 256.161129,317 L252.05371,317 C250.919477,317 250,316.104569 250,315 C250,313.895431 250.919477,313 252.05371,313 Z" id="Path" fill="#15CBCB" opacity="0.1"></path>
                <path d="M186.712498,348.332507 L189.002937,348.332507 C188.151074,348.284314 187.484109,347.552609 187.484109,346.666254 C187.484109,345.779898 188.151074,345.048194 189.002937,345 L207.564047,345 C208.415909,345.048194 209.082874,345.779898 209.082874,346.666254 C209.082874,347.552609 208.415909,348.284314 207.564047,348.332507 L205.273608,348.332507 C206.12547,348.380701 206.792435,349.112406 206.792435,349.998761 C206.792435,350.885116 206.12547,351.616821 205.273608,351.665015 L208.481173,351.665015 C209.333035,351.713208 210,352.444913 210,353.331268 C210,354.217624 209.333035,354.949329 208.481173,354.997522 L189.901055,354.997522 C189.307248,355.031116 188.744173,354.721082 188.43754,354.191696 C188.130907,353.662311 188.130907,353.000226 188.43754,352.470841 C188.744173,351.941455 189.307248,351.63142 189.901055,351.665015 L186.69349,351.665015 C186.099682,351.698609 185.536608,351.388574 185.229975,350.859189 C184.923342,350.329803 184.923342,349.667719 185.229975,349.138333 C185.536608,348.608948 186.099682,348.298913 186.69349,348.332507 L186.712498,348.332507 Z" id="Path" fill="#15CBCB" opacity="0.1"></path>
                <path d="M105.054021,287 L107.991806,287 C106.857401,287 105.937785,286.104569 105.937785,285 C105.937785,283.895431 106.857401,283 107.991806,283 L131.751442,283 C132.885846,283 133.805463,283.895431 133.805463,285 C133.805463,286.104569 132.885846,287 131.751442,287 L128.837936,287 C129.972341,287 130.891958,287.895431 130.891958,289 C130.891958,290.104569 129.972341,291 128.837936,291 L132.945979,291 C134.080383,291 135,291.895431 135,293 C135,294.104569 134.080383,295 132.945979,295 L109.162064,295 C108.027659,295 107.108042,294.104569 107.108042,293 C107.108042,291.895431 108.027659,291 109.162064,291 L105.054021,291 C103.919617,291 103,290.104569 103,289 C103,287.895431 103.919617,287 105.054021,287 Z" id="Path" fill="#15CBCB" opacity="0.1"></path>
                <path d="M314.059823,352.000785 L316.981557,352.000785 C315.843949,352.000785 314.921734,351.105179 314.921734,350.000393 C314.921734,348.895606 315.843949,348 316.981557,348 L340.842389,348 C341.979997,348 342.902211,348.895606 342.902211,350.000393 C342.902211,351.105179 341.979997,352.000785 340.842389,352.000785 L337.920654,352.000785 C339.058263,352.000785 339.980477,352.896391 339.980477,354.001178 C339.980477,355.105964 339.058263,356.00157 337.920654,356.00157 L342.0403,356.00157 C343.137688,356.053434 344,356.932611 344,357.999598 C344,359.066586 343.137688,359.945763 342.0403,359.997626 L318.169729,359.997626 C317.410815,360.033493 316.693197,359.66071 316.302675,359.027742 C315.912154,358.394774 315.912154,357.604423 316.302675,356.971455 C316.693197,356.338487 317.410815,355.965703 318.169729,356.00157 L314.059823,356.00157 C312.922214,356.00157 312,355.105964 312,354.001178 C312,352.896391 312.922214,352.000785 314.059823,352.000785 Z" id="Path" fill="#15CBCB" opacity="0.1"></path>
                <path d="M347.630583,151.141983 C347.907086,150.615377 347.744042,149.965171 347.251749,149.631228 C347.215136,149.606898 347.181906,149.57783 347.152923,149.544782 C346.978811,149.353105 346.95042,149.070201 347.082974,148.847767 C347.215528,148.625334 347.477903,148.515599 347.729409,148.577405 C347.772429,148.588829 347.813908,148.605416 347.852941,148.626803 C348.379944,148.904544 349.031494,148.743476 349.368274,148.252201 C349.392549,148.214321 349.421614,148.179731 349.454747,148.149289 C349.647396,147.977575 349.92945,147.951297 350.150522,148.084466 C350.371593,148.217635 350.480146,148.479207 350.418301,148.729715 C350.405406,148.772222 350.388874,148.813539 350.368888,148.85321 C350.092385,149.379817 350.255429,150.030022 350.747722,150.363965 C350.784827,150.389286 350.819313,150.418245 350.850666,150.450412 C351.022432,150.643002 351.048718,150.92497 350.915508,151.145974 C350.782299,151.366978 350.520647,151.475498 350.270062,151.413672 C350.226479,151.404009 350.184756,151.387326 350.14653,151.364274 C349.618291,151.089318 348.967859,151.251876 348.631197,151.742992 C348.608386,151.780764 348.580696,151.815366 348.548842,151.845904 C348.356644,152.021464 348.071936,152.05001 347.848692,151.916104 C347.625448,151.782199 347.516663,151.517629 347.58117,151.265478 C347.594065,151.222972 347.610597,151.181654 347.630583,151.141983 Z" id="Path" fill="#15CBCB" opacity="0.3"></path>
                <path d="M502.631609,68.1419833 C502.910028,67.615617 502.746684,66.964016 502.252891,66.6312283 C502.217111,66.6058409 502.184008,66.576876 502.154096,66.5447819 C501.978536,66.3526433 501.94999,66.0680218 502.083896,65.8448456 C502.217801,65.6216693 502.482371,65.5129174 502.734522,65.5774048 C502.775953,65.5895931 502.815971,65.6061521 502.8539,65.6268027 C503.381504,65.9057223 504.034495,65.7424745 504.368772,65.2480849 C504.394159,65.2123041 504.423124,65.1792014 504.455218,65.1492889 C504.647808,64.9775749 504.929777,64.9512968 505.150781,65.0844658 C505.371784,65.2176347 505.480304,65.4792072 505.418479,65.7297152 C505.408399,65.77186 505.391727,65.8121489 505.369081,65.8490936 C505.094124,66.3771716 505.256683,67.0274053 505.747799,67.3639651 C505.784893,67.3892856 505.819368,67.4182446 505.850711,67.4504115 C506.022425,67.6430017 506.048703,67.9249701 505.915534,68.145974 C505.782365,68.3669778 505.520793,68.4754978 505.270285,68.4136722 C505.227156,68.4026182 505.185644,68.3860136 505.14679,68.3642742 C504.619949,68.0898314 503.971117,68.2524814 503.636035,68.742992 C503.609474,68.7791288 503.580598,68.8135051 503.549588,68.8459045 C503.35745,69.0214641 503.072828,69.05001 502.849652,68.9161043 C502.626476,68.7821985 502.517724,68.5176285 502.582211,68.2654782 C502.595103,68.2229719 502.61163,68.1816544 502.631609,68.1419833 Z" id="Path" fill="#15CBCB" opacity="0.3"></path>
                <path d="M505.636448,290.159797 C505.914058,289.631014 505.750361,288.978121 505.256098,288.642798 C505.219339,288.618366 505.185975,288.589178 505.156876,288.555994 C504.979255,288.364744 504.94927,288.079205 505.083289,287.855241 C505.217308,287.631277 505.483136,287.522689 505.735669,287.588751 C505.779428,287.598454 505.821317,287.615207 505.859696,287.638354 C506.39005,287.914447 507.043085,287.751216 507.381095,287.25807 C507.403997,287.220142 507.431798,287.185397 507.46378,287.154732 C507.656746,286.978447 507.942594,286.949783 508.166732,287.084242 C508.39087,287.218702 508.50009,287.484365 508.435325,287.737558 C508.422378,287.78024 508.40578,287.821728 508.385714,287.861563 C508.108104,288.390347 508.271801,289.04324 508.766064,289.378563 C508.802823,289.402994 508.836187,289.432182 508.865285,289.465367 C509.02306,289.656063 509.044251,289.925215 508.918264,290.138245 C508.792276,290.351275 508.546182,290.462407 508.303029,290.416075 C508.259517,290.407663 508.21764,290.392311 508.179002,290.370606 C507.649891,290.091717 506.995732,290.253451 506.657604,290.746756 C506.633232,290.784793 506.604051,290.819526 506.570785,290.850094 C506.377365,291.022518 506.094182,291.048905 505.872225,290.915185 C505.650269,290.781466 505.541282,290.518812 505.603374,290.267269 C505.611788,290.230693 505.622842,290.194775 505.636448,290.159797 Z" id="Path" fill="#15CBCB" opacity="0.3"></path>
                <path d="M24.6326236,18.1470587 C24.9090726,17.6190541 24.7464532,16.9672538 24.2545593,16.6317256 C24.2180208,16.6073876 24.1848577,16.5783109 24.1559338,16.5452528 C23.9793797,16.3547321 23.949575,16.0702821 24.0827889,15.8471718 C24.2160027,15.6240614 24.4802336,15.5158879 24.7312491,15.5816985 C24.7741817,15.5931266 24.8155765,15.6097182 24.854531,15.6311115 C25.3814639,15.9081228 26.0319411,15.7451727 26.3667883,15.2522783 C26.3920651,15.2151727 26.4209741,15.1806872 26.4530856,15.1493344 C26.6453434,14.9775681 26.9268252,14.9512819 27.1474477,15.0844915 C27.3680702,15.2177011 27.4764029,15.4793533 27.4146839,15.7299376 C27.4032791,15.7729575 27.3867212,15.8144365 27.3653712,15.8534702 C27.0889223,16.3814749 27.2515416,17.0332751 27.7434355,17.3688034 C27.7803916,17.3926755 27.8148155,17.4202706 27.8461704,17.4511585 C28.021427,17.6433556 28.0499237,17.9280638 27.9162491,18.1513081 C27.7825744,18.3745524 27.5184609,18.4833375 27.2667457,18.4188305 C27.2238132,18.4074024 27.1824184,18.3908108 27.1434639,18.3694174 C26.616531,18.0924062 25.9660538,18.2553563 25.6312066,18.7482507 C25.6083832,18.7847556 25.5807365,18.817999 25.5490187,18.8470768 C25.3576727,19.0211892 25.0752568,19.0495802 24.8532069,18.9170261 C24.6311571,18.784472 24.5216117,18.5220973 24.5833109,18.2705913 C24.5947157,18.2275715 24.6112737,18.1860925 24.6326236,18.1470587 Z" id="Path" fill="#15CBCB" opacity="0.3"></path>
                <path d="M0.628302753,3.1458351 C0.903806523,2.61863913 0.741352002,1.96770598 0.250839105,1.63338963 C0.214358661,1.60903185 0.181248239,1.57993144 0.152370328,1.54684643 C-0.0211125708,1.35495516 -0.04940092,1.07173455 0.0826739352,0.849051932 C0.21474879,0.62636931 0.476174914,0.51651183 0.726771531,0.57838679 C0.769635866,0.589824136 0.810964897,0.606429239 0.849857503,0.627840048 C1.37495458,0.90589183 2.02414937,0.744643599 2.35971209,0.252819508 C2.38375705,0.215946121 2.41123275,0.181448825 2.44176941,0.149791888 C2.6313736,-0.0203035617 2.90846579,-0.0483979293 3.12808764,0.0802061065 C3.34770948,0.208810142 3.45988997,0.464851038 3.40594286,0.71438325 C3.3937949,0.755860771 3.37729067,0.795923316 3.35670847,0.83389529 C3.07319931,1.36531074 3.23631883,2.02603213 3.73417212,2.36282518 C3.77065256,2.38718296 3.80376298,2.41628337 3.83264089,2.44936838 C4.02035399,2.64096757 4.0539707,2.93637768 3.91414369,3.165582 C3.77431669,3.39478632 3.49701284,3.49882794 3.24182823,3.41782802 C3.19840195,3.40815446 3.15683077,3.39145206 3.11874226,3.36837476 C2.59241314,3.09311045 1.94433286,3.25585077 1.60888766,3.74751641 C1.58470046,3.78543949 1.55574114,3.82006812 1.52272748,3.85054403 C1.33077511,4.02245017 1.04974049,4.04875771 0.829468553,3.91543971 C0.60919662,3.78212172 0.501036004,3.52025657 0.562656901,3.26946825 C0.580776284,3.22635022 0.602748064,3.18497 0.628302753,3.1458351 Z" id="Path" fill="#15CBCB" opacity="0.3"></path>
                <path d="M187.630142,111.14679 C187.906452,110.620183 187.743522,109.969978 187.251573,109.636035 C187.214986,109.611704 187.181779,109.582636 187.152816,109.549588 C186.978826,109.357912 186.950454,109.075008 187.082916,108.852574 C187.215377,108.63014 187.477569,108.520406 187.728899,108.582211 C187.771888,108.593636 187.813338,108.610222 187.852345,108.631609 C188.378979,108.90935 189.030074,108.748282 189.366618,108.257008 C189.389413,108.219236 189.417084,108.184634 189.448916,108.154096 C189.640979,107.978536 189.925488,107.94999 190.148576,108.083896 C190.371664,108.217801 190.480373,108.482371 190.415911,108.734522 C190.403728,108.775953 190.387175,108.815971 190.366533,108.8539 C190.089715,109.381744 190.252551,110.033346 190.745101,110.368772 C190.781689,110.393102 190.814896,110.42217 190.843858,110.455218 C191.020648,110.645681 191.050492,110.930044 190.917101,111.153086 C190.783709,111.376129 190.519126,111.484269 190.267776,111.418479 C190.224223,111.408816 190.18253,111.392132 190.14433,111.369081 C189.61646,111.094124 188.966483,111.256683 188.630056,111.747799 C188.605798,111.785679 188.576754,111.820269 188.543644,111.850711 C188.35113,112.022425 188.069272,112.048703 187.848356,111.915534 C187.627439,111.782365 187.518962,111.520793 187.580763,111.270285 C187.59365,111.227778 187.61017,111.186461 187.630142,111.14679 Z" id="Path" fill="#15CBCB" opacity="0.3"></path>
                <path d="M100.632941,169.143013 C100.909022,168.617038 100.746227,167.967613 100.254687,167.634071 C100.21813,167.60977 100.18495,167.580737 100.156012,167.547729 C99.9793694,167.357495 99.9495497,167.073473 100.08283,166.850698 C100.216111,166.627923 100.480474,166.519913 100.731616,166.585624 C100.775133,166.595275 100.816791,166.611939 100.85496,166.634963 C101.382391,166.909589 102.031828,166.747226 102.367975,166.2567 C102.392071,166.219912 102.419604,166.185494 102.450204,166.153911 C102.642108,165.978562 102.92638,165.95005 103.149283,166.083795 C103.372186,166.21754 103.480805,166.481793 103.416397,166.73364 C103.403521,166.776095 103.387014,166.817363 103.367059,166.856987 C103.090978,167.382962 103.253773,168.032387 103.745313,168.365929 C103.78187,168.39023 103.81505,168.419263 103.843988,168.452271 C104.020631,168.642505 104.05045,168.926527 103.91717,169.149302 C103.783889,169.372077 103.519526,169.480087 103.268384,169.414376 C103.224867,169.404725 103.183209,169.388061 103.14504,169.365037 C102.617609,169.090411 101.968172,169.252774 101.632025,169.7433 C101.607929,169.780088 101.580396,169.814506 101.549796,169.846089 C101.357892,170.021438 101.07362,170.04995 100.850717,169.916205 C100.627814,169.78246 100.519195,169.518207 100.583603,169.26636 C100.596479,169.223905 100.612986,169.182637 100.632941,169.143013 Z" id="Path" fill="#15CBCB" opacity="0.3"></path>
                <path d="M236.040636,94.0522071 C236.296352,93.3874362 236.012335,92.6364911 235.380888,92.307822 C235.332969,92.2840669 235.288293,92.2542578 235.247953,92.2191244 C235.009628,92.0175868 234.93358,91.682392 235.061569,91.3976057 C235.189557,91.1128195 235.4906,90.9473826 235.799385,90.9921417 C235.851922,90.9976917 235.903353,91.0109753 235.952013,91.0315628 C236.617635,91.2856565 237.368012,91.0021772 237.699854,90.3712589 C237.724784,90.3240012 237.75448,90.2794204 237.788477,90.2382125 C237.99327,90.0061486 238.325426,89.9350659 238.607133,90.0630167 C238.888841,90.1909676 239.054094,90.4879721 239.014428,90.795036 C239.004233,90.8471742 238.989403,90.8982964 238.970116,90.9477929 C238.717554,91.6138175 239.003246,92.3635963 239.634788,92.692178 C239.680443,92.7171782 239.723348,92.7469071 239.762799,92.7808756 C239.993404,92.985356 240.064387,93.316148 239.938003,93.5973611 C239.81162,93.8785743 239.51723,94.0448836 239.211368,94.0078583 C239.159282,93.9999575 239.10814,93.9867485 239.058739,93.9684372 C238.394528,93.7125059 237.644214,93.996762 237.315822,94.6287411 C237.289737,94.675301 237.260108,94.7197813 237.227199,94.7617875 C237.022406,94.9938514 236.69025,95.0649341 236.408543,94.9369833 C236.126835,94.8090324 235.961582,94.5120279 236.001248,94.204964 C236.007383,94.1524906 236.020634,94.1010987 236.040636,94.0522071 Z" id="Path" fill="#15CBCB" opacity="0.3"></path>
                <path d="M457.553395,245.55566 C458.455199,245.164701 458.919243,244.158371 458.631123,243.218492 C458.610567,243.148196 458.597432,243.075939 458.591932,243.002904 C458.582146,242.584243 458.839429,242.20563 459.232232,242.060652 C459.625034,241.915674 460.066535,242.036375 460.330993,242.36104 C460.374439,242.42019 460.410623,242.484346 460.438765,242.55213 C460.829647,243.45411 461.83578,243.918246 462.775475,243.630069 C462.845587,243.607884 462.917829,243.593104 462.99102,243.585971 C463.412162,243.573424 463.794166,243.831583 463.939667,244.227068 C464.085168,244.622554 463.961581,245.066795 463.632758,245.330273 C463.57362,245.373728 463.509477,245.409918 463.441706,245.438066 C462.549704,245.838992 462.0898,246.836342 462.363979,247.775234 C462.38849,247.844735 462.403325,247.917277 462.408068,247.990822 C462.420612,248.412047 462.162504,248.794125 461.767096,248.939655 C461.371688,249.085185 460.927534,248.961574 460.664109,248.632686 C460.620364,248.574552 460.585679,248.510124 460.561235,248.441597 C460.170353,247.539616 459.16422,247.07548 458.224525,247.363658 C458.154295,247.385385 458.082099,247.400155 458.00898,247.407755 C457.587838,247.420302 457.205834,247.162143 457.060333,246.766658 C456.914832,246.371172 457.038419,245.926931 457.367242,245.663454 C457.425317,245.621054 457.487715,245.584921 457.553395,245.55566 Z" id="Path" fill="#15CBCB" opacity="0.3"></path>
                <path d="M158.558795,264.562035 C159.451597,264.161122 159.911913,263.163801 159.637489,262.224936 C159.613447,262.156989 159.598606,262.086134 159.59336,262.014255 C159.578573,261.592125 159.836138,261.208029 160.232467,261.061183 C160.628797,260.914337 161.074692,261.037789 161.338883,261.36751 C161.381367,261.427299 161.417518,261.491337 161.446753,261.558594 C161.836268,262.462223 162.844861,262.927063 163.785558,262.636501 C163.853645,262.613607 163.924621,262.600411 163.996393,262.597304 C164.415347,262.587516 164.794226,262.844843 164.939306,263.23771 C165.084385,263.630578 164.963599,264.072153 164.638707,264.336655 C164.581262,264.380089 164.518685,264.416292 164.452387,264.444445 C163.549774,264.835393 163.085313,265.841693 163.373693,266.781544 C163.394267,266.851838 163.407413,266.924093 163.412918,266.997125 C163.422713,267.415774 163.165199,267.794376 162.772045,267.93935 C162.37889,268.084324 161.936993,267.963626 161.672298,267.63897 C161.628812,267.579823 161.592596,267.515669 161.564429,267.447887 C161.163223,266.555736 160.165173,266.095755 159.225624,266.369979 C159.155448,266.392164 159.083141,266.406943 159.009885,266.414076 C158.588365,266.426622 158.206019,266.168471 158.060387,265.772997 C157.914756,265.377524 158.038453,264.933296 158.367572,264.669826 C158.426762,264.626372 158.490963,264.590182 158.558795,264.562035 Z" id="Path" fill="#15CBCB" opacity="0.3"></path>
                <path d="M251.552625,268.561235 C252.455415,268.170353 252.919967,267.16422 252.631531,266.224525 C252.609784,266.154295 252.595001,266.082099 252.587394,266.00898 C252.574836,265.587838 252.833226,265.205834 253.229066,265.060333 C253.624906,264.914832 254.069546,265.038419 254.33326,265.367242 C254.376754,265.42638 254.412977,265.490523 254.441151,265.558294 C254.834243,266.458179 255.840991,266.919892 256.780415,266.631123 C256.850774,266.610567 256.923096,266.597432 256.996196,266.591932 C257.415233,266.582146 257.794186,266.839429 257.939294,267.232232 C258.084402,267.625034 257.963592,268.066535 257.638636,268.330993 C257.579434,268.374439 257.51522,268.410623 257.447375,268.438765 C256.544585,268.829647 256.080033,269.83578 256.368469,270.775475 C256.390216,270.845705 256.404999,270.917901 256.412606,270.99102 C256.425164,271.412162 256.166774,271.794166 255.770934,271.939667 C255.375094,272.085168 254.930454,271.961581 254.66674,271.632758 C254.623246,271.57362 254.587023,271.509477 254.558849,271.441706 C254.157565,270.549704 253.159319,270.0898 252.219585,270.363979 C252.150022,270.38849 252.077415,270.403325 252.003804,270.408068 C251.584767,270.417854 251.205814,270.160571 251.060706,269.767768 C250.915598,269.374966 251.036408,268.933465 251.361364,268.669007 C251.420566,268.625561 251.48478,268.589377 251.552625,268.561235 Z" id="Path" fill="#15CBCB" opacity="0.3"></path>
                <circle id="Oval" fill="#15CBCB" opacity="0.1" cx="60" cy="51" r="8"></circle>
                <circle id="Oval" fill="#15CBCB" opacity="0.1" cx="464" cy="59" r="8"></circle>
                <circle id="Oval" fill="#15CBCB" opacity="0.1" cx="98.5" cy="10.5" r="4.5"></circle>
                <circle id="Oval" fill="#15CBCB" opacity="0.1" cx="520.5" cy="138.5" r="4.5"></circle>
                <circle id="Oval" fill="#15CBCB" opacity="0.1" cx="67.5" cy="364.5" r="4.5"></circle>
                <circle id="Oval" fill="#15CBCB" opacity="0.1" cx="85.5" cy="384.5" r="4.5"></circle>
                <circle id="Oval" fill="#15CBCB" opacity="0.1" cx="51.5" cy="396.5" r="4.5"></circle>
            </g>
        </g>
    </g>
</svg>