<?xml version="1.0" encoding="UTF-8"?>
<svg width="565px" height="468px" viewBox="0 0 565 468" version="1.1" xmlns="http://www.w3.org/2000/svg" xmlns:xlink="http://www.w3.org/1999/xlink">
    <!-- Generator: Sketch 52.3 (67297) - http://www.bohemiancoding.com/sketch -->
    <title>undraw_on_the_office_fbfs</title>
    <desc>Created with Sketch.</desc>
    <defs>
        <linearGradient x1="49.9932333%" y1="99.9996569%" x2="49.9932333%" y2="-0.0100913522%" id="linearGradient-1">
            <stop stop-color="#808080" stop-opacity="0.25" offset="0%"></stop>
            <stop stop-color="#808080" stop-opacity="0.12" offset="54%"></stop>
            <stop stop-color="#808080" stop-opacity="0.1" offset="100%"></stop>
        </linearGradient>
    </defs>
    <g id="Page-1" stroke="none" stroke-width="1" fill="none" fill-rule="evenodd">
        <g id="Desktop-HD" transform="translate(-770.000000, -278.000000)">
            <g id="undraw_on_the_office_fbfs" transform="translate(770.000000, 278.000000)">
                <path d="M563.943503,154 L512,154 L512,217.141392 L560.146893,217.141392 C560.271186,217.792918 560.389831,218.444444 560.531073,219.090305 L512,219.090305 L512,270 L512.242938,269.920684 C513.613936,269.437232 514.975518,268.923565 516.327684,268.379683 L517.19774,268.022759 C518.583804,267.452438 519.945386,266.842458 521.282486,266.192821 C521.762712,265.971868 522.237288,265.739585 522.706215,265.501636 C530.175403,261.813829 537.061206,257.041248 543.141243,251.338022 C543.316384,251.185055 543.480226,251.026422 543.638418,250.873455 C544.468927,250.068962 545.282486,249.258803 546.073446,248.425983 L546.943503,247.49685 C547.875706,246.482735 548.774011,245.434628 549.649718,244.375189 L550.033898,243.910623 C553.554289,239.582269 556.512054,234.822963 558.836158,229.747009 C558.909605,229.594042 558.971751,229.435409 559.039548,229.282442 C559.745763,227.684786 560.384181,226.064469 560.937853,224.415824 C561.175141,223.718974 561.40113,223.022125 561.59887,222.325275 C561.666667,222.115653 561.728814,221.911697 561.785311,221.707741 C564.666667,211.594921 565,201.085519 565,190.632772 C565,189.414701 565,188.190965 565,186.978559 C565,182.757802 564.937853,178.480391 564.858757,174.259634 C564.858757,173.160537 564.80791,172.067106 564.779661,170.962344 C564.711864,168.15606 564.610169,165.353553 564.474576,162.554823 C564.440678,161.772991 564.40678,160.996825 564.355932,160.226325 C564.355932,159.778755 564.310734,159.331184 564.282486,158.883614 C564.169492,157.223639 564.067797,155.614652 563.943503,154 Z" id="Path" fill="#15CBCB" opacity="0.1"></path>
                <path d="M511.017241,84 L540,84 C535.248517,77.5145763 530.095091,71.3226709 524.568966,65.4594213 C520.258621,60.8412138 515.735632,56.335921 511,52 L511.017241,84 Z" id="Path" fill="#15CBCB" opacity="0.1"></path>
                <path d="M512,86.0168913 L512,152 L564,152 C564,151.808565 563.965957,151.6115 563.948936,151.436956 C563.903546,150.918956 563.858156,150.400955 563.807092,149.877325 C563.756028,149.353694 563.687943,148.66115 563.619858,148.047432 C563.551773,147.433714 563.483688,146.724279 563.404255,146.071148 C563.324823,145.418017 563.256738,144.747995 563.171631,144.089234 C563.086525,143.430473 563.007092,142.771711 562.916312,142.11858 C562.825532,141.46545 562.740426,140.801058 562.638298,140.147927 C562.558865,139.584883 562.485106,139.066883 562.4,138.52073 C562.280851,137.754991 562.156028,136.983621 562.025532,136.223511 C562.010735,136.109891 561.989902,135.997125 561.963121,135.885685 C561.024306,130.291144 559.747297,124.757695 558.139007,119.315305 C556.438582,113.549334 554.281509,107.925778 551.687943,102.497185 C548.891102,96.7549841 545.645238,91.239047 541.980142,86 L512,86.0168913 Z" id="Path" fill="#15CBCB" opacity="0.1"></path>
                <path d="M387.641141,154.158002 L387.641141,217.213122 L499,217.213122 L499,154.158002 L387.641141,154.158002 Z M387.641141,219.159373 L387.641141,261.858072 C400.604088,257.722289 415.426986,259.391312 428.866261,262.785935 C439.271776,265.422426 449.410774,269.009411 459.799277,271.589324 C464.43923,272.771765 469.149564,273.659916 473.902011,274.248445 L475.070151,274.372915 C475.637209,274.429492 476.204267,274.486069 476.771325,274.53133 L478.472499,274.650142 L478.648287,274.650142 L479.408145,274.650142 C479.495002,274.655769 479.582134,274.655769 479.668991,274.650142 L480.587625,274.684089 L480.615978,274.684089 C481.052613,274.684089 481.494918,274.684089 481.937223,274.718035 L482.504282,274.718035 C482.940916,274.718035 483.383221,274.718035 483.825527,274.718035 L484.795196,274.718035 L485.577736,274.718035 C485.9123,274.718035 486.241194,274.718035 486.570088,274.684089 C487.103122,274.684089 487.636157,274.638827 488.174862,274.599223 L489.167214,274.536988 L490.392059,274.440807 C491.259658,274.372915 492.093233,274.282391 492.972173,274.180553 C493.312408,274.140949 493.658313,274.101345 493.998548,274.050426 L494.50323,273.988191 C495.359487,273.875037 496.204404,273.739252 497.060661,273.597809 C497.690096,273.501628 498.31953,273.382816 498.954635,273.269662 L498.954635,219.159373 L387.641141,219.159373 Z M470.465639,83.9402266 L470.465639,85.8864771 L387.641141,85.8864771 L387.641141,152.211751 L499,152.211751 L499,85.9091079 L493.414478,85.9091079 L493.414478,83.9628575 L499,83.9628575 L499,41.1114008 C477.338383,23.7026429 452.019241,10.0675742 423.819445,3.77054868 C411.942688,1.14760582 399.804749,-0.114682872 387.641141,0.00817494227 L387.641141,83.9628575 L470.465639,83.9402266 Z M215.856578,83.5668181 L216.247848,83.9402266 L375.182876,83.9402266 L375.182876,0.590918544 C346.88668,2.93886606 319.293635,12.4211794 297.047948,28.1326258 C286.358904,35.6743464 276.758612,44.6135201 264.765334,50.4013522 C258.471865,53.5171156 251.596563,55.2898446 244.578068,55.6064407 L215.856578,83.5668181 Z M214.762156,49.3716499 L214.762156,68.2400956 L230.118088,53.2867817 C224.407813,51.3179004 219.905372,49.9713666 214.739473,49.3942807 L214.762156,49.3716499 Z M214.251803,286.746315 L214.762156,286.746315 L214.762156,328.104138 C220.557489,327.674152 226.33014,327.081979 232.080108,326.327619 C257.792187,323.021993 282.986848,316.510014 307.073535,306.944322 C309.659319,305.910848 312.226202,304.843427 314.774183,303.742061 C316.471577,303.006559 318.159519,302.252198 319.838011,301.478979 C322.355749,300.324807 324.854585,299.138575 327.334519,297.920282 C338.308931,292.538759 348.894976,286.40232 359.016051,279.555372 C359.645486,279.131045 360.280591,278.701059 360.904355,278.265416 C362.159443,277.397901 363.405081,276.522843 364.641267,275.640241 C365.25936,275.193282 365.877454,274.746323 366.489876,274.293707 L367.748745,273.331897 C369.018955,272.38706 370.283495,271.436566 371.565046,270.503045 C372.750197,269.654389 373.94669,268.805733 375.160194,268.013654 L375.160194,219.131084 L247.487075,219.131084 C247.577805,218.842541 247.662863,218.565314 247.759263,218.259798 C247.657193,218.553999 247.566464,218.825568 247.481405,219.131084 L214.739473,219.131084 L214.739473,286.735 L214.251803,286.746315 Z M214.762156,85.8977925 L214.762156,152.211751 L375.182876,152.211751 L375.182876,85.9091079 L214.762156,85.8977925 Z M214.762156,154.146686 L214.762156,217.213122 L375.182876,217.213122 L375.182876,154.158002 L214.762156,154.146686 Z M182.689353,51.3122427 L202.286879,70.3956812 L202.286879,49.2867843 C195.720347,49.6941391 189.187838,50.3692919 182.689353,51.3122427 Z M46.2268346,154.158002 L46.2268346,217.213122 L202.286879,217.213122 L202.286879,154.158002 L46.2268346,154.158002 Z M83.9475357,309.886328 C107.601783,318.870826 132.333613,324.725426 157.511976,327.300744 L157.619717,327.300744 C162.379224,327.802394 167.151962,328.190889 171.937932,328.466231 L172.11372,328.466231 C182.144977,329.032001 192.215928,329.162129 202.269867,328.78872 L202.269867,219.159373 L46.2268346,219.159373 L46.7938927,291.759042 L83.9475357,309.886328 Z M3,217.213122 L33.7799106,217.213122 L33.7799106,154.158002 L21.6051744,154.158002 C20.340635,156.375822 19.1157896,158.604958 17.9533206,160.86804 C17.3295568,162.071245 16.7228047,163.287651 16.1330643,164.517259 C8.12053413,181.111308 3.0283529,199.351748 3,217.213122 Z M3,219.159373 C3.24950554,231.968417 6.14150156,244.539837 12.4868811,256.155105 C17.7605209,265.801492 25.0869108,274.259761 33.7572283,281.614777 L33.7572283,219.159373 L3,219.159373 Z M22.7222788,152.211751 L33.7572283,152.211751 L33.7572283,135.804407 C29.7799279,141.062396 26.1033222,146.540227 22.7449611,152.211751 L22.7222788,152.211751 Z M91.863666,83.9628575 L198.606672,83.9628575 L198.992272,83.5894489 L198.425214,83.0236784 L168.410831,53.8129482 C159.502191,55.6682251 150.704685,58.0198551 142.059644,60.8567908 C141.24308,61.1227029 140.426517,61.4225613 139.615624,61.677158 C122.923337,67.326115 106.908618,74.8001379 91.863666,83.9628575 Z M46.2268346,120.947274 L46.2268346,152.211751 L183.091964,152.211751 L183.120317,152.211751 L202.303891,152.211751 L202.303891,87.7139158 L200.115046,85.9373965 L88.7221644,85.9373965 C73.1051757,95.7329518 58.8218729,107.500285 46.2268346,120.947274 Z" id="Shape" fill="#15CBCB" fill-rule="nonzero" opacity="0.1"></path>
                <path d="M512,119 L512,152 L564,152 C564,151.806818 563.965957,151.607955 563.948936,151.431818 C563.903546,150.909091 563.858156,150.386364 563.807092,149.857955 C563.756028,149.329545 563.687943,148.630682 563.619858,148.011364 C563.551773,147.392045 563.483688,146.676136 563.404255,146.017045 C563.324823,145.357955 563.256738,144.681818 563.171631,144.017045 C563.086525,143.352273 563.007092,142.6875 562.916312,142.028409 C562.825532,141.369318 562.740426,140.698864 562.638298,140.039773 C562.558865,139.471591 562.485106,138.948864 562.4,138.397727 C562.280851,137.625 562.156028,136.846591 562.025532,136.079545 C562.010735,135.964888 561.989902,135.851093 561.963121,135.738636 C561.024306,130.093043 559.747297,124.509099 558.139007,119.017045 L512,119 Z" id="Path" fill="#15CBCB" opacity="0.1"></path>
                <path d="M563.943503,154 L512,154 L512,217.141392 L560.146893,217.141392 C560.271186,217.792918 560.389831,218.444444 560.531073,219.090305 L512,219.090305 L512,270 L512.242938,269.920684 C513.613936,269.437232 514.975518,268.923565 516.327684,268.379683 L517.19774,268.022759 C518.583804,267.452438 519.945386,266.842458 521.282486,266.192821 C521.762712,265.971868 522.237288,265.739585 522.706215,265.501636 C530.175403,261.813829 537.061206,257.041248 543.141243,251.338022 C543.316384,251.185055 543.480226,251.026422 543.638418,250.873455 C544.468927,250.068962 545.282486,249.258803 546.073446,248.425983 L546.943503,247.49685 C547.875706,246.482735 548.774011,245.434628 549.649718,244.375189 L550.033898,243.910623 C553.554289,239.582269 556.512054,234.822963 558.836158,229.747009 C558.909605,229.594042 558.971751,229.435409 559.039548,229.282442 C559.745763,227.684786 560.384181,226.064469 560.937853,224.415824 C561.175141,223.718974 561.40113,223.022125 561.59887,222.325275 C561.666667,222.115653 561.728814,221.911697 561.785311,221.707741 C564.666667,211.594921 565,201.085519 565,190.632772 C565,189.414701 565,188.190965 565,186.978559 C565,182.757802 564.937853,178.480391 564.858757,174.259634 C564.858757,173.160537 564.80791,172.067106 564.779661,170.962344 C564.711864,168.15606 564.610169,165.353553 564.474576,162.554823 C564.440678,161.772991 564.40678,160.996825 564.355932,160.226325 C564.355932,159.778755 564.310734,159.331184 564.282486,158.883614 C564.169492,157.223639 564.067797,155.614652 563.943503,154 Z" id="Path" fill="#15CBCB" opacity="0.1"></path>
                <polygon id="Path" fill="#15CBCB" opacity="0.1" points="460 95.2247601 460 152 499 152 499 95.2247601 493.443078 95.2247601 493.443078 76 470.611746 76 470.611746 95.2247601"></polygon>
                <rect id="Rectangle" fill="#15CBCB" opacity="0.1" x="460" y="154" width="39" height="63"></rect>
                <path d="M499,219 L460,219 L460,271.814166 C464.615444,273.003057 469.30032,273.89769 474.02691,274.492774 L475.189236,274.618156 C475.753472,274.680847 476.317708,274.732139 476.881944,274.777733 L478.574653,274.897415 C478.631076,274.897415 478.693142,274.897415 478.749566,274.897415 C478.99783,274.897415 479.251736,274.897415 479.505642,274.93161 L479.765191,274.93161 C480.069878,274.93161 480.374566,274.93161 480.684896,274.965805 C481.119358,274.965805 481.559462,274.965805 481.999566,275 L482.563802,275 C483.003906,275 483.438368,275 483.878472,275 L484.843316,275 L485.621962,275 L486.615017,274.965805 C487.139757,274.965805 487.675781,274.920212 488.206163,274.880318 L489.187934,274.817627 L490.412326,274.720741 C491.269965,274.646652 492.105035,274.561164 492.973958,274.458579 L493.995226,274.327498 L494.497396,274.264808 C495.349392,274.145125 496.190104,274.019744 497.042101,273.871565 C497.674045,273.774679 498.294705,273.654997 498.926649,273.541014 L499,219 Z" id="Path" fill="#15CBCB" opacity="0.1"></path>
                <rect id="Rectangle" fill="#15CBCB" opacity="0.1" x="215" y="88" width="32" height="64"></rect>
                <polygon id="Path" fill="#15CBCB" opacity="0.1" points="215 154 215 217 375 217 375 189.827187 289.774864 189.827187 289.774864 205.858412 247.232982 205.858412 247.232982 154"></polygon>
                <path d="M214,286.57577 L214.510499,286.57577 L214.510499,328 C220.307497,327.561828 226.081807,326.968785 231.833427,326.220872 C257.560743,322.897445 282.769711,316.366528 306.871089,306.780777 C313.768496,304.015762 320.524098,301.00522 327.137895,297.74915 C338.115623,292.357894 348.704713,286.210548 358.82853,279.351602 C361.358336,277.636688 363.848436,275.882113 366.29883,274.087875 C368.000493,272.835686 369.702156,271.560832 371.403819,270.319975 C372.589311,269.470073 373.786147,268.620171 375,267.821263 L375,218.8669 L247.273182,218.8669 C247.363937,218.577933 247.449021,218.300299 247.539776,218 C247.443348,218.288967 247.346921,218.566601 247.261838,218.8669 L214.510499,218.8669 L214.510499,286.54744 L214,286.57577 Z" id="Path" fill="#15CBCB" opacity="0.1"></path>
                <path d="M131,84 L152,84 L152,78.2049461 L142.591276,78.2049461 L142.591276,61 C141.77706,61.2646915 140.962843,61.5631734 140.154281,61.8166014 L140.154281,78.2049461 L131,78.2049461 L131,84 Z" id="Path" fill="#15CBCB" opacity="0.1"></path>
                <polygon id="Path" fill="#15CBCB" opacity="0.1" points="80 152 183.743028 152 183.708894 152 183.760094 152 203 152 203 88.7708849 197.550021 88.7708849 197.550021 135.515488 172.632579 135.515488 172.632579 107.851694 152.044401 107.851694 152.044401 86 130.915776 86 130.915776 107.851694 110.333287 107.851694 110.333287 135.509856 80 135.509856"></polygon>
                <path d="M80.4435522,154 L80.4435522,217.112103 L203,217.112103 L203,154 L80.4435522,154 Z M84.7231932,309.869055 C108.368339,318.861673 133.090654,324.721563 158.259329,327.299208 L158.367029,327.299208 C163.124705,327.801311 167.895607,328.190158 172.679735,328.465749 L172.855456,328.465749 C182.882853,329.03203 192.949929,329.162275 203,328.788529 L203,219.060112 L80.4435522,219.060112 L80.4435522,241.433904 L47,241.433904 L47.1757204,291.385619 L84.7231932,309.869055 Z" id="Shape" fill="#15CBCB" fill-rule="nonzero" opacity="0.1"></path>
                <path d="M31.8224558,219 L3,219 C3.25147493,231.920736 6.17201327,244.601776 12.5617625,256.318326 C17.877028,266.054534 25.2669617,274.58085 34,282 L34,241.54851 L31.8224558,241.54851 L31.8224558,219 Z" id="Path" fill="#15CBCB" opacity="0.1"></path>
                <path d="M3,217 L32,217 L32,164 L16.3077075,164 C8.18862691,180.689822 3.02872994,199.035538 3,217 Z" id="Path" fill="#15CBCB" opacity="0.1"></path>
                <rect id="Rectangle" fill="#15CBCB" opacity="0.1" x="215" y="106" width="17" height="20"></rect>
                <rect id="Rectangle" fill="#15CBCB" opacity="0.1" x="215" y="147" width="17" height="5"></rect>
                <rect id="Rectangle" fill="#15CBCB" opacity="0.1" x="215" y="154" width="17" height="13"></rect>
                <rect id="Rectangle" fill="#15CBCB" opacity="0.1" x="215" y="189" width="17" height="20"></rect>
                <rect id="Rectangle" fill="#15CBCB" opacity="0.1" x="215" y="230" width="17" height="20"></rect>
                <polygon id="Path" fill="#15CBCB" opacity="0.1" points="214.515267 286.357955 214 286.357955 214.515267 286.357955 214.515267 291 232 291 232 271 214.515267 271"></polygon>
                <path d="M215,313 L215,328 C220.688933,327.573373 226.355599,326.995954 232,326.267745 L232,313.027584 L215,313 Z" id="Path" fill="#15CBCB" opacity="0.1"></path>
                <rect id="Rectangle" fill="#15CBCB" opacity="0.1" x="301" y="216" width="74" height="1"></rect>
                <rect id="Rectangle" fill="#15CBCB" opacity="0.1" x="301" y="219" width="74" height="6"></rect>
                <rect id="Rectangle" fill="#15CBCB" opacity="0.1" x="301" y="243" width="74" height="9"></rect>
                <path d="M301,270 L301,279 L359.361943,279 C361.896775,277.294856 364.399304,275.544542 366.86953,273.749059 C368.579687,272.506901 370.289843,271.236512 372,270.005646 L301,270 Z" id="Path" fill="#15CBCB" opacity="0.1"></path>
                <path d="M301,298 L301,307 L307.023231,307 C313.820105,304.252196 320.479028,301.252196 327,298 L301,298 Z" id="Path" fill="#15CBCB" opacity="0.1"></path>
                <rect id="Rectangle" fill="#15CBCB" opacity="0.1" transform="translate(165.500000, 166.500000) rotate(-180.000000) translate(-165.500000, -166.500000) " x="158" y="160" width="15" height="13"></rect>
                <rect id="Rectangle" fill="#15CBCB" opacity="0.1" transform="translate(481.500000, 105.500000) rotate(-180.000000) translate(-481.500000, -105.500000) " x="474" y="99" width="15" height="13"></rect>
                <rect id="Rectangle" fill="#15CBCB" opacity="0.1" transform="translate(481.500000, 136.500000) rotate(-180.000000) translate(-481.500000, -136.500000) " x="474" y="130" width="15" height="13"></rect>
                <rect id="Rectangle" fill="#15CBCB" opacity="0.1" transform="translate(481.500000, 166.500000) rotate(-180.000000) translate(-481.500000, -166.500000) " x="474" y="160" width="15" height="13"></rect>
                <rect id="Rectangle" fill="#15CBCB" opacity="0.1" transform="translate(481.500000, 196.500000) rotate(-180.000000) translate(-481.500000, -196.500000) " x="474" y="190" width="15" height="13"></rect>
                <rect id="Rectangle" fill="#15CBCB" opacity="0.1" transform="translate(481.500000, 226.500000) rotate(-180.000000) translate(-481.500000, -226.500000) " x="474" y="220" width="15" height="13"></rect>
                <rect id="Rectangle" fill="#15CBCB" opacity="0.1" transform="translate(481.500000, 256.500000) rotate(-180.000000) translate(-481.500000, -256.500000) " x="474" y="250" width="15" height="13"></rect>
                <rect id="Rectangle" fill="#15CBCB" opacity="0.1" transform="translate(109.500000, 166.500000) rotate(-180.000000) translate(-109.500000, -166.500000) " x="102" y="160" width="15" height="13"></rect>
                <rect id="Rectangle" fill="#15CBCB" opacity="0.1" transform="translate(165.500000, 198.500000) rotate(-180.000000) translate(-165.500000, -198.500000) " x="158" y="192" width="15" height="13"></rect>
                <rect id="Rectangle" fill="#15CBCB" opacity="0.1" transform="translate(109.500000, 198.500000) rotate(-180.000000) translate(-109.500000, -198.500000) " x="102" y="192" width="15" height="13"></rect>
                <rect id="Rectangle" fill="#15CBCB" opacity="0.1" transform="translate(165.500000, 230.500000) rotate(-180.000000) translate(-165.500000, -230.500000) " x="158" y="224" width="15" height="13"></rect>
                <rect id="Rectangle" fill="#15CBCB" opacity="0.1" transform="translate(109.500000, 230.500000) rotate(-180.000000) translate(-109.500000, -230.500000) " x="102" y="224" width="15" height="13"></rect>
                <rect id="Rectangle" fill="#15CBCB" opacity="0.1" transform="translate(165.500000, 262.500000) rotate(-180.000000) translate(-165.500000, -262.500000) " x="158" y="256" width="15" height="13"></rect>
                <rect id="Rectangle" fill="#15CBCB" opacity="0.1" transform="translate(109.500000, 262.500000) rotate(-180.000000) translate(-109.500000, -262.500000) " x="102" y="256" width="15" height="13"></rect>
                <rect id="Rectangle" fill="#15CBCB" opacity="0.1" transform="translate(165.500000, 294.500000) rotate(-180.000000) translate(-165.500000, -294.500000) " x="158" y="288" width="15" height="13"></rect>
                <rect id="Rectangle" fill="#15CBCB" opacity="0.1" transform="translate(109.500000, 294.500000) rotate(-180.000000) translate(-109.500000, -294.500000) " x="102" y="288" width="15" height="13"></rect>
                <polygon id="Path" fill="#15CBCB" opacity="0.1" points="173 328 173 320 158 320 158 326.862559"></polygon>
                <path d="M512,136 L512,143 L562,143 L562,136 L512,136 Z M557.020982,136.443173 L561.098333,136.443173 L561.098333,142.562166 L556.998299,142.562166 L557.020982,136.443173 Z M552.041964,136.443173 L556.141998,136.443173 L556.141998,142.562166 L552.024952,142.562166 L552.041964,136.443173 Z M547.074288,136.443173 L551.174322,136.443173 L551.174322,142.562166 L547.074288,142.562166 L547.074288,136.443173 Z M542.095271,136.443173 L546.195305,136.443173 L546.195305,142.562166 L542.095271,142.562166 L542.095271,136.443173 Z M537.121924,136.443173 L541.250312,136.443173 L541.250312,142.562166 L537.150278,142.562166 L537.121924,136.443173 Z M532.142906,136.443173 L536.24294,136.443173 L536.24294,142.562166 L532.142906,142.562166 L532.142906,136.443173 Z M527.163888,136.443173 L531.263922,136.443173 L531.263922,142.562166 L527.163888,142.562166 L527.163888,136.443173 Z M522.190541,136.443173 L526.290575,136.443173 L526.290575,142.562166 L522.190541,142.562166 L522.190541,136.443173 Z M517.217194,136.443173 L521.317228,136.443173 L521.317228,142.562166 L517.217194,142.562166 L517.217194,136.443173 Z M512.243847,136.443173 L516.343881,136.443173 L516.343881,142.562166 L512.243847,142.562166 L512.243847,136.443173 Z" id="Shape" fill="#15CBCB" fill-rule="nonzero" opacity="0.1"></path>
                <path d="M512,157 L512,164 L562,164 L562,157 L512,157 Z M557.020982,157.443173 L561.098333,157.443173 L561.098333,163.556827 L556.998299,163.556827 L557.020982,157.443173 Z M552.041964,157.443173 L556.141998,157.443173 L556.141998,163.556827 L552.024952,163.556827 L552.041964,157.443173 Z M547.074288,157.443173 L551.174322,157.443173 L551.174322,163.556827 L547.074288,163.556827 L547.074288,157.443173 Z M542.095271,157.443173 L546.195305,157.443173 L546.195305,163.556827 L542.095271,163.556827 L542.095271,157.443173 Z M537.121924,157.443173 L541.250312,157.443173 L541.250312,163.556827 L537.150278,163.556827 L537.121924,157.443173 Z M532.142906,157.443173 L536.24294,157.443173 L536.24294,163.556827 L532.142906,163.556827 L532.142906,157.443173 Z M527.163888,157.443173 L531.263922,157.443173 L531.263922,163.556827 L527.163888,163.556827 L527.163888,157.443173 Z M522.190541,157.443173 L526.290575,157.443173 L526.290575,163.556827 L522.190541,163.556827 L522.190541,157.443173 Z M517.217194,157.443173 L521.317228,157.443173 L521.317228,163.556827 L517.217194,163.556827 L517.217194,157.443173 Z M512.243847,157.443173 L516.343881,157.443173 L516.343881,163.556827 L512.243847,163.556827 L512.243847,157.443173 Z" id="Shape" fill="#15CBCB" fill-rule="nonzero" opacity="0.1"></path>
                <path d="M512,179 L512,186 L562,186 L562,179 L512,179 Z M557.020982,179.438168 L561.098333,179.438168 L561.098333,185.561832 L556.998299,185.561832 L557.020982,179.438168 Z M552.041964,179.438168 L556.141998,179.438168 L556.141998,185.561832 L552.024952,185.561832 L552.041964,179.438168 Z M547.074288,179.438168 L551.174322,179.438168 L551.174322,185.561832 L547.074288,185.561832 L547.074288,179.438168 Z M542.095271,179.438168 L546.195305,179.438168 L546.195305,185.561832 L542.095271,185.561832 L542.095271,179.438168 Z M537.121924,179.438168 L541.250312,179.438168 L541.250312,185.561832 L537.150278,185.561832 L537.121924,179.438168 Z M532.142906,179.438168 L536.24294,179.438168 L536.24294,185.561832 L532.142906,185.561832 L532.142906,179.438168 Z M527.163888,179.438168 L531.263922,179.438168 L531.263922,185.561832 L527.163888,185.561832 L527.163888,179.438168 Z M522.190541,179.438168 L526.290575,179.438168 L526.290575,185.561832 L522.190541,185.561832 L522.190541,179.438168 Z M517.217194,179.438168 L521.317228,179.438168 L521.317228,185.561832 L517.217194,185.561832 L517.217194,179.438168 Z M512.243847,179.438168 L516.343881,179.438168 L516.343881,185.561832 L512.243847,185.561832 L512.243847,179.438168 Z" id="Shape" fill="#15CBCB" fill-rule="nonzero" opacity="0.1"></path>
                <path d="M512,201 L512,208 L562,208 L562,201 L512,201 Z M557.020982,201.438168 L561.098333,201.438168 L561.098333,207.561832 L556.998299,207.561832 L557.020982,201.438168 Z M552.041964,201.438168 L556.141998,201.438168 L556.141998,207.561832 L552.024952,207.561832 L552.041964,201.438168 Z M547.074288,201.438168 L551.174322,201.438168 L551.174322,207.561832 L547.074288,207.561832 L547.074288,201.438168 Z M542.095271,201.438168 L546.195305,201.438168 L546.195305,207.561832 L542.095271,207.561832 L542.095271,201.438168 Z M537.121924,201.438168 L541.250312,201.438168 L541.250312,207.561832 L537.150278,207.561832 L537.121924,201.438168 Z M532.142906,201.438168 L536.24294,201.438168 L536.24294,207.561832 L532.142906,207.561832 L532.142906,201.438168 Z M527.163888,201.438168 L531.263922,201.438168 L531.263922,207.561832 L527.163888,207.561832 L527.163888,201.438168 Z M522.190541,201.438168 L526.290575,201.438168 L526.290575,207.561832 L522.190541,207.561832 L522.190541,201.438168 Z M517.217194,201.438168 L521.317228,201.438168 L521.317228,207.561832 L517.217194,207.561832 L517.217194,201.438168 Z M512.243847,201.438168 L516.343881,201.438168 L516.343881,207.561832 L512.243847,207.561832 L512.243847,201.438168 Z" id="Shape" fill="#15CBCB" fill-rule="nonzero" opacity="0.1"></path>
                <path d="M511,222 L511,229 L558.236467,229 C558.304843,228.856055 558.373219,228.706778 558.435897,228.562833 L556.236467,228.562833 L556.236467,222.442498 L560.333333,222.442498 L560.333333,223.961919 C560.57265,223.3115 560.80057,222.661081 561,222 L511,222 Z M551.233618,222.442498 L555.353276,222.442498 L555.353276,228.546839 L551.216524,228.546839 L551.233618,222.442498 Z M546.242165,222.442498 L550.361823,222.442498 L550.361823,228.546839 L546.242165,228.546839 L546.242165,222.442498 Z M541.239316,222.442498 L545.358974,222.442498 L545.358974,228.546839 L541.239316,228.546839 L541.239316,222.442498 Z M536.242165,222.442498 L540.390313,222.442498 L540.390313,228.546839 L536.270655,228.546839 L536.242165,222.442498 Z M531.239316,222.442498 L535.358974,222.442498 L535.358974,228.546839 L531.239316,228.546839 L531.239316,222.442498 Z M526.236467,222.442498 L530.356125,222.442498 L530.356125,228.546839 L526.236467,228.546839 L526.236467,222.442498 Z M521.239316,222.442498 L525.358974,222.442498 L525.358974,228.546839 L521.239316,228.546839 L521.239316,222.442498 Z M516.242165,222.442498 L520.361823,222.442498 L520.361823,228.546839 L516.242165,228.546839 L516.242165,222.442498 Z M511.245014,222.442498 L515.364672,222.442498 L515.364672,228.546839 L511.245014,228.546839 L511.245014,222.442498 Z" id="Shape" fill="#15CBCB" fill-rule="nonzero" opacity="0.1"></path>
                <path d="M512,244 L512,251 L543.107843,251 C543.288473,250.855725 543.446524,250.700763 543.61022,250.561832 L541.956328,250.561832 L541.956328,244.454198 L546.037433,244.454198 L546.037433,248.274809 L546.912359,247.39313 L546.912359,244.454198 L549.616162,244.454198 C549.745989,244.30458 549.870172,244.154962 550,244.016031 L512,244 Z M537.005942,244.438168 L541.11527,244.438168 L541.11527,250.561832 L537.034165,250.561832 L537.005942,244.438168 Z M532.049911,244.438168 L536.131016,244.438168 L536.131016,250.561832 L532.049911,250.561832 L532.049911,244.438168 Z M527.09388,244.438168 L531.174985,244.438168 L531.174985,250.561832 L527.09388,250.561832 L527.09388,244.438168 Z M522.143494,244.438168 L526.224599,244.438168 L526.224599,250.561832 L522.143494,250.561832 L522.143494,244.438168 Z M517.193108,244.438168 L521.274213,244.438168 L521.274213,250.561832 L517.193108,250.561832 L517.193108,244.438168 Z M512.242721,244.438168 L516.323827,244.438168 L516.323827,250.561832 L512.242721,250.561832 L512.242721,244.438168 Z" id="Shape" fill="#15CBCB" fill-rule="nonzero" opacity="0.1"></path>
                <path d="M511,266 L511,270 C511.085211,269.980097 511.168635,269.954809 511.249604,269.924338 L511.249604,266.393443 L515.446438,266.393443 L515.446438,268.542245 L516.340369,268.224464 L516.340369,266.413619 L520.537203,266.413619 L520.537203,266.615385 C521.030607,266.418663 521.518206,266.211854 522,266.005044 L511,266 Z" id="Path" fill="#15CBCB" opacity="0.1"></path>
                <path d="M215,287 L215.510013,287 L215,287 Z M248.230207,219.325783 C248.320876,219.036964 248.405878,218.759471 248.502214,218.453663 C248.405878,218.748145 248.315209,219.036964 248.230207,219.325783 Z M471.066397,84 L471.066397,85.9481114 L494,85.9481114 L494,84 L471.066397,84 Z M215,287 L215.510013,287 L215,287 Z M248.230207,219.325783 C248.320876,219.036964 248.405878,218.759471 248.502214,218.453663 C248.405878,218.748145 248.315209,219.036964 248.230207,219.325783 Z M215,287 L215.510013,287 L215,287 Z M248.230207,219.325783 C248.320876,219.036964 248.405878,218.759471 248.502214,218.453663 C248.405878,218.748145 248.315209,219.036964 248.230207,219.325783 Z" id="Shape" fill="#15CBCB" fill-rule="nonzero" opacity="0.1"></path>
                <ellipse id="Oval" fill="#15CBCB" opacity="0.1" cx="511.5" cy="464" rx="19.5" ry="2"></ellipse>
                <polygon id="Path" fill="#D48A9B" points="379 303 368.846154 302.465481 368.158654 274.541058 368 267.890511 378.712073 266 378.782585 274.574818"></polygon>
                <polygon id="Path" fill="#D48A9B" points="370.906454 297.639902 320.454423 329.077051 319.363568 338.643145 324.817842 338.916462 324.817842 332.083538 357.816197 313.497982 318 362.968358 318 370.621234 324.545128 370.621234 323.999701 362.148407 370.088313 309.671544 375.8153 310.218178 424.364017 365.428211 425.454872 374.726683 432 375 430.909145 365.428211 392.456516 317.32442 418.091602 335.090025 418.63703 342.7429 423.81859 343.016217 423.273162 333.72344 374.451732 296"></polygon>
                <path d="M308.068555,244.320084 C312.809365,238.41103 316.783391,231.92385 319.895622,225.013636 C323.349895,217.356752 327.137722,208.516222 327.42605,205.899743 C327.991397,201.006586 341.808488,191.220272 357.005026,190.676588 C366.915566,190.319796 382.355203,182.572297 391.909574,177.220407 C400.896841,172.101485 410.891042,169.009067 421.19457,168.159006 C432.371488,167.315163 442.881296,169.512553 437.589645,182.504337 L366.525476,268.712244 C366.525476,268.712244 305.920234,279.410361 302.183288,262.210689 C301.974207,261.343559 301.684619,260.497921 301.318307,259.684823 C300.611622,258.059434 300.425058,253.817566 308.068555,244.320084 Z" id="Path" fill="#15CBCB"></path>
                <path d="M313.443663,245.901506 C318.213125,239.95837 322.22357,233.447234 325.382821,226.517753 C328.603512,219.395351 332.021964,211.410822 332.29318,208.993488 C332.813011,204.344768 346.046095,195.041693 360.578757,194.523291 C370.054368,194.185202 384.818693,186.826138 393.949635,181.737902 C402.551284,176.879811 412.111184,173.949343 421.963995,173.150449 C432.648778,172.350306 442.700724,174.440821 437.660625,186.786694 L381.321136,269.054949 C381.321136,269.054949 311.822017,278.887695 308.143649,262.619993 C307.925266,261.756346 307.636127,260.912043 307.279148,260.095598 C306.63501,258.484041 306.544604,254.534038 313.443663,245.901506 Z" id="Path" fill="#DDA2A6" opacity="0.2"></path>
                <path d="M378,274 C374.850136,274 371.531335,274 368.147139,273.964544 L368,266.979645 L377.934605,265 L378,274 Z" id="Path" fill="#000000" opacity="0.1"></path>
                <g id="Group" opacity="0.1" transform="translate(318.000000, 308.000000)" fill="#000000">
                    <polygon id="Path" points="99.8459406 25.6176471 74.3821782 8.0512605 77.299901 11.6827731 99.8459406 27.2391597 100.387723 34.8062185 105.534653 35.0764706 105.438713 33.4493277 100.387723 33.1847059"></polygon>
                    <polygon id="Path" points="7.19554455 22.6448739 7.19554455 24.2663866 37.5748515 7.23487395 39.9733663 4.26773109"></polygon>
                    <polygon id="Path" points="0.423267327 60.7504202 0.423267327 62.3719328 6.92465347 62.3719328 6.81742574 60.7504202"></polygon>
                    <polygon id="Path" points="7.19554455 29.4011765 1.95831683 29.1421849 1.77772277 30.752437 7.19554455 31.0226891"></polygon>
                    <polygon id="Path" points="107.16 64.8098319 106.076436 55.6156303 57.8521782 1.02470588 52.1634653 0.484201681 6.38287129 52.372605 6.47881188 53.8871429 52.1634653 2.10571429 57.8521782 2.64621849 106.076436 57.2371429 107.16 66.4313445 113.661386 66.7015966 113.475149 65.0688235"></polygon>
                </g>
                <path d="M373,221 C373,221 386.370604,229.896319 380.517991,229.999135 C374.665378,230.101952 373,221 373,221 Z" id="Path" fill="#000000" opacity="0.1"></path>
                <path d="M319,270.965707 C319,270.965707 340.065491,269.342944 347.948062,254.197159 C347.948062,254.197159 363.985017,222.547651 377.037693,219.031666 C390.09037,215.51568 414.276045,207.672326 424.333119,195.501606 C434.390192,183.330886 438.608953,174 438.608953,174 C438.608953,174 441.2025,183.849268 433.031128,195.462164 C424.859756,207.07506 421.886803,224.959257 416.178735,243.919662 C410.470666,262.880067 408.296164,270.402248 397.967278,271.529166 C390.180974,272.346182 349.012662,271.934857 329.328886,271.529166 C322.890321,271.354494 319,270.965707 319,270.965707 Z" id="Path" fill="#15CBCB"></path>
                <path d="M319,270.965707 C319,270.965707 340.065491,269.342944 347.948062,254.197159 C347.948062,254.197159 363.985017,222.547651 377.037693,219.031666 C390.09037,215.51568 414.276045,207.672326 424.333119,195.501606 C434.390192,183.330886 438.608953,174 438.608953,174 C438.608953,174 441.2025,183.849268 433.031128,195.462164 C424.859756,207.07506 421.886803,224.959257 416.178735,243.919662 C410.470666,262.880067 408.296164,270.402248 397.967278,271.529166 C390.180974,272.346182 349.012662,271.934857 329.328886,271.529166 C322.890321,271.354494 319,270.965707 319,270.965707 Z" id="Path" fill="#DDA2A6" opacity="0.2"></path>
                <path d="M324,271.020913 C324,271.020913 344.190311,269.446656 351.741806,254.759239 C351.741806,254.759239 367.11733,224.075345 379.619879,220.667277 C392.122428,217.25921 415.310626,209.647483 424.951556,197.849023 C434.592487,186.050564 438.629414,177 438.629414,177 C438.629414,177 441.099263,186.592243 433.286589,197.849023 C425.473915,209.105803 422.606619,226.433908 417.133205,244.794591 C411.659791,263.155273 409.58171,270.496161 399.6796,271.545665 C392.218951,272.335614 352.763812,271.934997 333.896432,271.545665 C327.730325,271.427172 324,271.020913 324,271.020913 Z" id="Path" fill="#15CBCB"></path>
                <path d="M308,263.35154 C308,263.35154 319.006969,267.651498 325.25784,265.293457 C331.508711,262.935415 347,256 347,256 C347,256 320.909408,257.687618 308,263.35154 Z" id="Path" fill="#000000" opacity="0.1"></path>
                <path d="M382,461 C382,461 350.326083,459.306069 342.605991,454.788918 C334.885899,450.271768 323.957604,450.271768 323.900922,450.271768 L197.78341,422.886544 L145.352535,410.46438 L136,409.239103 L166.891705,374.027916 L167.832627,373.621372 L213.370968,354 C213.370968,354 233.776498,355.129288 237.80659,368.375831 C238.082348,369.309047 238.272074,370.265375 238.37341,371.232929 C238.796262,375.364094 237.647329,379.502908 235.153871,382.830712 C233.544101,385.02153 231.565899,388.132718 230.942396,390.87124 C230.590968,392.418364 230.670323,393.846913 231.509217,394.936675 C233.209452,396.618247 235.087073,398.111926 237.109401,399.391715 C248.21341,406.732084 276.28235,418.826755 325.317972,400.300792 C325.317972,400.300792 346.290323,379.691293 362.16129,388.443272 C378.032258,397.195251 382,461 382,461 Z" id="Path" fill="#E1DEE5"></path>
                <path d="M231.489603,391.213978 C231.137416,392.775484 231.216942,394.217312 232.057647,395.317204 C233.761552,397.014407 235.643226,398.52197 237.669919,399.813656 L142,407 L168.220897,373.803763 L213.857527,354 C213.857527,354 234.3071,355.139785 238.345891,368.509462 C238.622244,369.451353 238.81238,370.416571 238.913934,371.393118 C239.337699,375.562685 238.186286,379.739972 235.687446,383.09871 C234.096924,385.309892 232.114451,388.45 231.489603,391.213978 Z" id="Path" fill="#000000" opacity="0.1"></path>
                <polygon id="Path" fill="#A36468" points="137.870769 261 216 262.70428 216 356.547626 141.833846 407 124 390.525292 127.68 335.988327 124 285.143969"></polygon>
                <path d="M93,245.735638 L184.238675,217.604701 C185.878328,217.102969 187.596966,216.910838 189.306861,217.038117 L407.267177,232.953484 C425.909622,234.233583 443.852424,240.565738 459.172198,251.271172 C473.278178,261.226067 487.248251,276.50686 493.715143,299.646184 C498.392969,316.720634 498.068648,334.78038 492.780784,351.675669 L473.52734,414 C473.52734,414 487.967423,278.586226 343.849729,271.787208 L93,245.735638 Z" id="Path" fill="#D9D6DF"></path>
                <path d="M142,259.392424 L142,410 C142,410 116.986689,406.475057 112.539249,401.582142 C108.890648,397.569043 87.7525597,386.256304 78.5800683,374.602991 C76.5688055,372.048685 75.1297611,369.494378 74.5802048,366.957101 C71.5094881,352.94815 59,319.84434 59,319.84434 L62.3993174,287.489794 L76.5631399,266.48772 L104.040956,254 L125.286689,254 L142,259.392424 Z" id="Path" fill="#B8797D"></path>
                <path d="M101.553778,261 C101.553778,261 61.1157646,286.397727 69.9629887,327.265492 C70.6842911,330.595417 71.3097955,333.942273 71.7211632,337.328636 C73.3384583,350.546742 83.042229,388.530455 141,406.049242 L141,410 L116.413733,403.131326 L99.7223459,393.914773 L86.9812161,382.468864 L71.4055934,363.4375 L64.1756644,347.916667 L61.5271323,327.474318 L60,304.136629 L63.7248504,284.117576 L72.5100877,271.091364 L83.2169194,262.755265 L101.553778,261 Z" id="Path" fill="#D9D6DF"></path>
                <path d="M142,259.388055 L142,283.227656 C124.268105,285.147927 69.3672104,296.217725 79.1169203,359.473714 L78.5787318,374 C76.5676063,371.458465 75.1286602,368.916929 74.5791414,366.392338 C71.5086342,352.453429 59,319.515132 59,319.515132 L62.3990854,287.322351 L76.5619412,266.425284 L104.037881,254 L125.282165,254 L142,259.388055 Z" id="Path" fill="#000000" opacity="0.1"></path>
                <path d="M234.868341,382.779116 C233.343194,385.019076 231.468982,388.20005 230.878257,391 C228.536834,388.113454 228.032032,384.793926 231.41528,382.167169 C235.652395,378.853414 237.064767,373.103414 237.381611,368 C237.642873,368.954148 237.822625,369.931928 237.918634,370.921185 C238.319258,375.145015 237.230722,379.376667 234.868341,382.779116 Z" id="Path" fill="#FFFFFF" opacity="0.1"></path>
                <path d="M464,398.428793 L453.265,434.972136 L428.97,458.767802 L398.46,465 L351,456.501548 L351,287.382353 C351,287.382353 359.1925,282 360.04,282 C360.8875,282 383.77,285.682663 383.77,285.682663 L435.5805,322.945542 L437.7275,324.49226 L460.8925,359.052632 L464,398.428793 Z" id="Path" fill="#B8797D"></path>
                <polygon id="Path" fill="#A36468" points="351 280 351 456.178589 356 457 356 280"></polygon>
                <path d="M437,335 C402.940594,306.889188 365.077888,302.755245 351,302.242066 L351,287.416891 C351,287.416891 359.231023,282 360.082508,282 C360.933993,282 383.924092,285.706294 383.924092,285.706294 L435.978218,323.208284 L437,335 Z" id="Path" fill="#000000" opacity="0.1"></path>
                <path d="M343.315095,268.53342 L130.562091,245.348666 L106.650517,244.081987 C91.5513029,243.20992 76.8911754,249.331749 66.9054508,260.678878 C54.451506,274.985567 45.0374559,300.22302 58.7877431,343.55589 C58.7877431,343.55589 73.1267623,399.725197 142.568826,411.792579 L344.345376,457.466544 C348.817474,458.478756 353.232964,459.728471 357.591844,461.14783 C375.910465,467.158902 437.976397,482.73227 467.214863,429.791864 C477.234628,411.639899 480.234896,390.473915 476.374173,370.099606 C469.337695,332.834355 442.771166,269.596526 343.315095,268.53342 Z M447.548952,427.371602 C420.263491,471.773233 364.039591,458.557923 347.136192,453.344181 C342.998085,452.066192 338.809031,450.952193 334.569029,450.047422 L148.178762,410.214885 C83.9616943,399.679959 70.6982431,350.635722 70.6982431,350.635722 C59.8576502,318.40326 64.5958101,297.604839 73.3588585,284.440423 C82.5351515,270.659632 98.5101662,262.952115 115.062591,263.789028 L137.094752,264.919991 L327.391028,290.315779 C331.240429,290.830367 335.118135,291.169656 339.001501,291.299717 C423.626056,294.16671 449.954828,340.649314 456.645993,372.683858 C460.574646,391.40696 457.585699,411.051798 447.548952,427.371602 Z" id="Shape" fill="#E1DEE5" fill-rule="nonzero"></path>
                <path d="M2.39185332,363.029482 C9.35932118,367.690138 19.9378731,365.472933 19.9378731,365.472933 C19.9378731,365.472933 35.8934311,357.921992 40.6082165,357.921992 C45.3230018,357.921992 56.7901747,353.25568 56.7901747,353.25568 L56.3996343,350.110869 L55.233673,340.636842 C62.4954612,346.292977 70.5666303,344.341611 74.5399548,343.928713 C78.8075996,343.487534 101.611765,329.94109 103.807848,329.04742 C104.402148,328.809862 105.098329,328.034972 105.80583,327.033836 C107.27478,324.789023 108.565439,322.432629 109.665954,319.986291 C111.092276,318.730629 112.133717,317.723837 112.060137,317.503248 C111.986557,317.282658 112.626138,315.631067 113.458159,313.770198 C116.695682,313.204585 119.486065,312.005484 120.374686,311.281499 C121.855109,310.097955 122.693446,308.288386 122.638689,306.394597 C122.638689,306.394597 144.888174,283.96802 141.961951,274.641053 C139.035728,265.314085 149.155819,265.08784 149.155819,265.08784 C149.155819,265.08784 164.658576,258.424912 166.815039,254.43168 C168.14514,251.971262 179.776454,246.569652 188.526823,242.780041 L189.602225,242.316238 C192.998228,249.754056 210.249928,244.013079 213.645932,240.885236 C217.240036,237.553772 227.795948,235.998335 227.795948,235.998335 C227.795948,235.998335 228.248748,192.446091 231.616452,186.914391 C233.218234,184.284288 233.603114,175.686962 233.563494,167.383755 C233.563494,167.089636 233.563494,166.818141 233.563494,166.501398 C238.28394,165.579448 249.513392,163.447085 254.726258,162.932376 C258.031702,162.60432 261.478646,160.545487 264.121869,158.543215 L264.433169,158.933488 C265.341506,159.306131 266.322967,159.466694 267.302792,159.402948 C268.17039,159.500088 269.047275,159.336646 269.821495,158.933488 C271.847777,157.802261 279.262386,155.602025 281.956549,154.493422 C284.650712,153.38482 281.509408,145.387044 279.488786,143.831607 C277.468164,142.276169 276.092782,140.279554 277.224784,139.39154 C278.356785,138.503527 274.53062,136.280666 272.283598,135.833831 C270.036575,135.386996 263.295508,132.281778 263.295508,132.281778 C263.295508,132.281778 260.822085,127.191256 256.78084,127.191256 C252.739596,127.191256 247.33995,123.192368 247.33995,123.192368 C247.11921,121.416342 242.845905,121.195752 242.845905,121.195752 C242.845905,121.195752 226.669606,108.752254 223.969783,110.313348 C221.26996,111.874441 213.861012,107.869897 213.861012,107.869897 C213.861012,107.869897 204.765382,108.888001 202.625899,107.213785 C202.606438,106.664018 202.407678,106.135677 202.059899,105.709253 C201.578798,104.204721 199.229895,102.145888 196.965893,100.432079 C197.138933,99.3699158 197.226002,98.2955407 197.226253,97.2193939 C197.226253,96.7555908 197.226253,96.2917877 197.175313,95.8336407 C197.175313,95.7544548 197.175313,95.680925 197.175313,95.6017391 L197.497934,92.4738962 C197.520189,91.4453286 197.78798,90.4369515 198.279014,89.5327057 C198.658235,88.9670922 199.218575,88.4863207 199.643076,87.9263632 C199.742079,87.7944675 199.832813,87.6565709 199.914756,87.5134653 L199.982676,87.3946865 C200.044877,87.2863845 200.101549,87.1750046 200.152477,87.0609745 L200.203417,86.9478518 C200.328479,86.6405842 200.425103,86.3225108 200.492077,85.997621 L200.492077,85.9240913 C200.520377,85.7770317 200.543017,85.6299722 200.559997,85.4772566 C200.557451,85.4565954 200.557451,85.4357002 200.559997,85.4150391 C200.65281,84.122855 200.479438,82.8253784 200.050596,81.6028037 C199.377056,79.5043775 198.324294,77.4794809 198.211094,75.2905565 C198.154494,74.2045785 198.335614,73.0959759 198.097894,72.0326224 C197.531894,69.6061403 195.058471,68.0733276 192.652968,67.0552232 C189.330544,65.6638139 187.655182,64.1423134 184.989319,62.0721678 C182.725317,60.3187658 178.978393,61.2011229 176.125749,61.3821193 C169.605422,61.8006733 163.169995,63.7633523 157.034548,65.7882488 C154.651685,66.5801078 152.223542,67.4850895 150.36706,69.0970881 C149.117227,70.1594431 148.258583,71.6087832 147.927598,73.2147548 C147.863309,73.5881929 147.838646,73.9673693 147.854018,74.3459819 C147.854018,74.3799187 147.854018,74.4138555 147.854018,74.4421362 C147.854018,74.5891957 147.854018,74.7305991 147.904958,74.8720025 C147.901801,74.9190842 147.901801,74.9663242 147.904958,75.0134059 C147.933047,75.1860894 147.974682,75.3562981 148.029478,75.5224581 C148.289838,76.3425977 148.770939,77.0835515 149.048279,77.898035 C149.111082,78.0831705 149.162123,78.2720842 149.201099,78.4636485 C149.201099,78.4636485 149.201099,78.5032415 149.201099,78.5202099 C149.240719,78.7012062 149.269019,78.8765464 149.291659,79.0858234 C149.540699,81.1050638 148.793579,83.2148024 148.465298,85.2736357 C148.420018,85.5620986 148.386058,85.8392492 148.363418,86.1559928 C148.265272,87.3472127 148.370539,88.5464375 148.674718,89.7023898 C148.672265,89.7154735 148.672265,89.728899 148.674718,89.7419827 C148.708678,89.8833861 148.759619,90.0247895 148.804899,90.1605368 C148.820374,90.221876 148.839271,90.2823025 148.861499,90.3415331 C148.901119,90.4603119 148.952059,90.5790908 148.997339,90.6922135 L149.093559,90.9297712 C149.138839,91.0315816 149.189779,91.1333921 149.240719,91.2352025 C149.291659,91.3370129 149.325619,91.4048866 149.370899,91.4840725 C149.417237,91.577082 149.468242,91.6676954 149.523719,91.755567 C149.574659,91.8460651 149.63126,91.9309072 149.68786,92.0157492 C149.74446,92.1005912 149.7954,92.1797771 149.85766,92.258963 C149.91992,92.3381489 149.98784,92.4343032 150.05576,92.5191453 L150.23122,92.7340784 L150.46894,92.9829484 L150.655721,93.1696009 L150.933061,93.4071585 C151.000981,93.4580638 151.057581,93.5146251 151.125501,93.5598742 C151.193421,93.6051233 151.357561,93.7239021 151.476422,93.7974319 L151.640562,93.9105546 C151.821682,94.0180212 152.014122,94.1141755 152.206562,94.2046737 C153.497044,94.7702872 155.127126,95.0021888 155.902547,96.139072 C156.087465,96.4044808 156.216482,96.7046742 156.281767,97.0214291 C156.281767,97.0949589 156.281767,97.1741448 156.281767,97.2476746 L156.281767,97.4456393 C156.281767,98.101751 156.327047,98.7522066 156.394967,99.3913499 C156.389977,99.7430793 156.410786,100.094701 156.457227,100.443391 C156.494952,100.706273 156.567272,100.963021 156.672307,101.206969 C157.578206,105.676583 159.972268,109.707818 163.464315,112.643675 C163.532235,112.9887 163.611475,113.390285 163.696375,113.842776 C161.718881,115.325603 159.510116,116.472229 157.159068,117.236457 C151.765082,118.814519 144.141053,126.093966 144.141053,126.093966 C144.141053,126.093966 140.348849,153.407444 139.437588,156.738908 C138.526327,160.070372 137.852786,172.955048 137.852786,172.955048 C137.852786,172.955048 136.952845,178.283128 135.588784,180.947168 C134.632243,182.825005 134.807703,190.89631 137.467906,195.80018 C137.034222,196.76442 136.4788,197.669214 135.815184,198.4925 C130.421198,204.714249 114.23924,204.488004 108.845253,204.488004 C103.881428,204.488004 102.347566,207.497068 102.138146,207.972183 C92.2614348,210.800251 60.2823987,219.895317 56.4901944,221.546909 C51.9961493,223.509588 49.5227265,242.904476 49.5227265,242.904476 C49.5227265,242.904476 40.1327759,275.0992 40.5799164,279.318677 C41.0270569,283.538154 37.4329529,295.291603 37.4329529,295.291603 C37.4329529,295.291603 37.4329529,308.577866 35.9104111,309.477191 C35.8972506,309.489404 35.8818837,309.499002 35.8651311,309.505472 C34.2916493,310.172896 34.5123896,316.615234 34.5123896,316.615234 C34.5123896,316.615234 35.6726909,316.948946 37.4782329,317.407093 C36.9971324,320.659371 35.2142304,325.21256 33.8388488,328.44787 C33.137008,327.559857 32.4521472,327.192208 32.0446268,328.221624 C30.9126255,331.049692 14.0684465,351.038475 9.79514167,351.038475 C7.76319938,351.038475 4.40115558,352.701379 2.18809309,354.946865 C-0.234389647,357.418596 -1.26451081,360.591688 2.39185332,363.029482 Z M79.6792406,247.321918 C98.7817621,249.097945 119.231365,245.970102 119.231365,245.970102 C119.231365,245.970102 117.657883,251.541395 116.310802,253.764256 C114.96372,255.987118 111.137556,268.645549 111.137556,271.298277 C111.137556,273.951004 105.070029,296.835728 103.275807,297.944331 C102.523026,298.41379 101.849486,299.578954 101.317445,300.772399 C100.844961,301.875486 100.44785,303.009312 100.128844,304.16608 C100.155257,304.743006 100.206197,305.291651 100.281664,305.812015 C98.9402423,307.039397 97.5195807,308.328996 96.2573993,309.471535 C96.2573993,309.471535 88.2201902,313.939882 85.5033871,316.383333 C82.7865841,318.826783 70.2213699,321.824535 70.2213699,321.824535 C67.1059013,323.16333 64.0808488,324.703162 61.1653597,326.434286 C57.2656153,328.781582 53.3658709,331.768021 52.3470697,334.714868 C52.7885502,329.748781 53.507371,323.770246 53.9884716,319.969323 L54.7016324,319.941042 C61.0012195,319.550769 60.0616584,313.543953 59.727718,312.056389 C59.682438,311.841456 59.6484779,311.722677 59.6484779,311.722677 C64.142523,306.835776 74.2512944,270.432888 72.9042129,266.417032 C71.5571314,262.401175 74.0362142,258.866091 74.5625948,258.866091 C75.0889754,258.866091 75.8247762,254.426024 74.7040949,251.982574 C73.5834137,249.539123 79.6792406,247.321918 79.6792406,247.321918 Z M234.140815,149.346339 L232.946554,149.640458 L232.946554,149.385932 C232.946554,149.385932 233.382374,149.385932 234.140815,149.346339 Z M168.846981,115.833736 C168.665861,116.059981 168.484741,116.274914 168.280981,116.484191 L168.04892,116.721749 C168.04892,116.308851 168.04892,115.890297 168.04892,115.488712 C168.320601,115.596178 168.580961,115.726269 168.846981,115.833736 Z M146.337136,158.922176 L146.416376,160.172182 C146.416376,160.172182 146.297516,160.93576 146.071115,162.242328 L146.337136,158.922176 Z M249.603952,146.512615 L245.681568,147.185695 C246.247569,146.976418 246.785269,146.750173 247.31731,146.495646 C247.711489,146.311093 248.134717,146.196268 248.568171,146.156278 C249.064425,146.208996 249.553829,146.313255 250.028453,146.467366 C249.885981,146.471252 249.744039,146.486382 249.603952,146.512615 Z" id="Shape" fill="url(#linearGradient-1)" fill-rule="nonzero"></path>
                <path d="M117,307.65158 C117,307.65158 112.436915,316.870461 112.670773,317.523767 C112.904632,318.177074 102.888661,326 102.888661,326 L92,318.389259 L93.1407712,313.162807 C93.1407712,313.162807 105.364134,302.380458 106.25964,301.135267 C107.155145,299.890076 117,307.65158 117,307.65158 Z" id="Path" fill="#EFB7B9"></path>
                <path d="M55.4860431,338.682644 C63.0582062,345.986869 71.9619271,343.794465 76.1966237,343.334401 C80.4313202,342.874337 103.022083,329.390488 105.193722,328.504439 C105.765206,328.265887 106.479561,327.493434 107.176772,326.493789 C108.633778,324.254606 109.912095,321.905452 111,319.467875 C110.851414,319.507633 103.444981,321.61484 101.576229,319.467875 C101.576229,319.467875 98.4559259,315.668087 97.7872896,315.668087 C97.1186533,315.668087 97.7358561,309 97.7358561,309 C97.7358561,309 89.769369,313.452965 87.1005386,315.889599 C84.4317083,318.326234 71.9562123,321.30813 71.9562123,321.30813 C68.8709297,322.642465 65.8774859,324.177445 62.995343,325.90309 C57.097628,329.481365 51.1541943,334.530709 55.4860431,338.682644 Z" id="Path" fill="#67647E"></path>
                <path d="M55.4812555,338.711119 C63.0282247,345.976229 71.9023213,343.795566 76.1229283,343.337966 C80.3435352,342.880365 102.859135,329.468723 105.023548,328.587419 C105.593131,328.350145 106.305109,327.581828 107,326.587536 C104.374224,325.033955 87.218397,335.852529 82.4168158,337.835464 C77.6152346,339.818398 65.4660382,338.711119 58.5683931,335.852529 C55.1508976,334.423235 58.6139597,330.033662 62.954179,326 C57.0874784,329.559113 51.1638196,334.581417 55.4812555,338.711119 Z" id="Path" fill="#000000" opacity="0.1"></path>
                <path d="M56,316.157814 C56,316.157814 52.8668206,339.494051 53.6628176,342.550321 C54.4588145,345.60659 34,332.082879 34,332.082879 C34,332.082879 41.1583269,317.456448 39.0808314,314.097911 C37.0033359,310.739373 56,316.157814 56,316.157814 Z" id="Path" fill="#EFB7B9"></path>
                <path d="M37.0108531,315.665996 C37.0108531,315.665996 49.8192553,319.404399 56.8808788,318.963923 C63.0697174,318.579918 62.1459255,312.627837 61.8228818,311.153935 C61.7775423,310.944991 61.7435377,310.826401 61.7435377,310.826401 C66.1584692,305.981159 76.0991495,269.895965 74.7786372,265.937323 C73.458125,261.978681 75.8554498,258.483104 76.4221932,258.483104 C76.9889367,258.483104 77.6633614,254.078339 76.5582117,251.661365 C75.4530619,249.244391 81.4208706,247.042008 81.4208706,247.042008 C100.191414,248.798267 120.288137,245.69799 120.288137,245.69799 C120.288137,245.69799 118.740927,251.220888 117.414748,253.423271 C116.088568,255.625654 112.314056,268.162294 112.314056,270.805153 C112.314056,273.448013 106.351915,296.109966 104.583676,297.211158 C103.846909,297.674223 103.183819,298.826239 102.662415,300.034725 C102.196707,301.13651 101.806645,302.268543 101.494924,303.423007 C102.158014,318.167677 118.939288,312.458423 121.370617,310.464984 C121.71664,310.178206 122.031921,309.856485 122.311411,309.504971 C123.164179,308.39096 123.610013,307.020397 123.575249,305.619742 C123.575249,305.619742 145.440212,283.398265 142.566822,274.153905 C139.693433,264.909544 149.634113,264.694953 149.634113,264.694953 C149.634113,264.694953 164.873845,258.093452 166.993465,254.129163 C168.302643,251.695248 179.728191,246.34741 188.331357,242.586418 C193.721087,240.231563 198,238.509187 198,238.509187 L194.418181,225.712778 L191.584464,215.621347 L186.26841,213.633556 L169.266107,207.263587 L138.763974,203 L135.969928,203.361417 L106.334913,207.184527 C106.334913,207.184527 63.0697174,219.517871 58.6491184,221.449191 C54.2285194,223.380511 51.8028574,242.609007 51.8028574,242.609007 C51.8028574,242.609007 42.5309344,274.515321 42.9843292,278.71679 C43.437724,282.918258 39.8899099,294.528769 39.8899099,294.528769 C39.8899099,294.528769 39.8899099,307.692241 38.3880397,308.584488 C38.3732483,308.588882 38.3574917,308.588882 38.3427003,308.584488 C36.7898232,309.307322 37.0108531,315.665996 37.0108531,315.665996 Z" id="Path" fill="#444053"></path>
                <path d="M81,247.459436 C99.8490402,249.221802 120.029806,246.110745 120.029806,246.110745 C121.361532,241.934335 140,230.45346 140,230.45346 C124.707919,226.702058 81,247.459436 81,247.459436 Z" id="Path" fill="#000000" opacity="0.1"></path>
                <path d="M101,304.321335 C101.668935,318.87168 118.598149,313.23767 121.050912,311.270504 C121.399986,310.987505 121.718046,310.670024 122,310.323143 C116.082494,312.446346 105.59107,314.090295 102.177784,301 C101.708943,302.080013 101.315454,303.189648 101,304.321335 Z" id="Path" fill="#444053"></path>
                <path d="M37.0109479,315.795526 C37.0109479,315.795526 49.7847398,319.388688 56.8272817,318.965325 C62.9993972,318.596238 62.0781015,312.875404 61.7559307,311.458765 C55.289905,311.263366 44.155228,310.682598 38.3731089,309 C38.3583574,309.004223 38.3426434,309.004223 38.3278919,309 C36.7905152,309.683895 37.0109479,315.795526 37.0109479,315.795526 Z" id="Path" fill="#444053"></path>
                <path d="M101,304.321335 C101.668935,318.87168 118.598149,313.23767 121.050912,311.270504 C121.399986,310.987505 121.718046,310.670024 122,310.323143 C116.082494,312.446346 105.59107,314.090295 102.177784,301 C101.708943,302.080013 101.315454,303.189648 101,304.321335 Z" id="Path" fill="#000000" opacity="0.1"></path>
                <path d="M37.0109479,315.795526 C37.0109479,315.795526 49.7847398,319.388688 56.8272817,318.965325 C62.9993972,318.596238 62.0781015,312.875404 61.7559307,311.458765 C55.289905,311.263366 44.155228,310.682598 38.3731089,309 C38.3583574,309.004223 38.3426434,309.004223 38.3278919,309 C36.7905152,309.683895 37.0109479,315.795526 37.0109479,315.795526 Z" id="Path" fill="#000000" opacity="0.1"></path>
                <path d="M5.35139047,362.062171 C12.2260611,366.675457 22.6518862,364.475969 22.6518862,364.475969 C22.6518862,364.475969 38.3930609,357.008987 43.053951,357.008987 C47.7148411,357.008987 59,352.390061 59,352.390061 L58.6187062,349.282578 L56.7862195,334.371174 C56.7862195,334.371174 39.5141785,333.931276 38.8198823,332.391634 C38.8198823,332.391634 35.7183132,324.823137 34.6085774,327.620436 C33.4988417,330.417734 16.8698784,350.179293 12.6528826,350.179293 C10.6439763,350.179293 7.326151,351.826089 5.14651617,354.048137 C2.77338897,356.512692 1.75470846,359.648373 5.35139047,362.062171 Z" id="Path" fill="#67647E"></path>
                <path d="M65,232 C65,232 79.2548357,240.871375 75.3098536,242.800899 C71.3648714,244.730423 65,232 65,232 Z" id="Path" fill="#000000" opacity="0.1"></path>
                <path d="M58,249 C58,249 70.6901818,260.684087 65.9328176,260.994234 C61.1754534,261.304381 58,249 58,249 Z" id="Path" fill="#000000" opacity="0.1"></path>
                <path d="M45,287 C45,287 50.6470573,298.777493 48.5217659,300.818624 C46.3964745,302.859754 45,287 45,287 Z" id="Path" fill="#000000" opacity="0.1"></path>
                <path d="M114.152561,298.671633 C111.890842,300.854623 135.60989,291.454859 130.193364,291.017138 C124.776838,290.579418 114.152561,298.671633 114.152561,298.671633 Z" id="Path" fill="#000000" opacity="0.1"></path>
                <path d="M161,133 L161.742236,132.892329 C164.484543,132.472977 174.439573,130.90891 183.369069,128.970826 C185.544784,128.494805 187.652508,128.001784 189.601586,127.491762 C196.440357,125.701018 201.029755,123.768601 198.100473,122.181866 C194.22498,120.079442 192.185248,116.259943 191.108722,112.973135 C191.006735,112.650121 190.910415,112.338441 190.81976,112.02676 C190.344293,110.362808 190.046118,108.653226 189.93021,106.92654 C189.93021,106.92654 165.000143,98.091825 169.838842,106.92654 C172.224196,111.261727 170.62074,114.79788 168.371368,117.27432 C166.824822,118.911488 165.005396,120.267187 162.994405,121.280827 L161,133 Z" id="Path" fill="#EFB7B9"></path>
                <path d="M187.146708,126 C187.146708,126 178.277855,132.396109 169.217547,127.103753 C160.15724,121.811397 148.309578,173.863274 148.309578,173.863274 L136.022698,204.298566 C136.022698,204.298566 128.066069,210.915426 137.97103,213.785184 C147.87599,216.654943 169.848221,210.915426 175.42856,219.298291 C181.008898,227.681156 191.572688,229 192.653843,229 C193.734998,229 197.913214,197.455295 197.913214,197.455295 L199,151.799527 L187.146708,126 Z" id="Path" fill="#000000" opacity="0.1"></path>
                <path d="M138.953015,212.76107 C148.858157,215.624382 170.836423,209.8921 176.416864,218.272662 C178.768056,221.687278 182.051399,224.346084 185.871517,225.928909 C188.337649,227.041579 190.968361,227.741188 193.659358,228 C193.800136,228 194.008487,227.434128 194.250625,226.421217 C195.793552,220.038183 198.918825,196.46396 198.918825,196.46396 L200,150.820734 L189.576795,128.100978 L188.152121,125 C186.755523,125.936322 185.240421,126.680457 183.647224,127.212559 C180.217871,128.378255 175.256853,129.034667 170.233893,126.080815 C167.576004,124.530326 164.675977,127.91424 161.911096,133.471102 C155.243849,146.848313 149.32554,172.827491 149.32554,172.827491 L137.027171,203.294034 C136.734812,203.546204 136.456584,203.814461 136.193765,204.097572 C134.448118,205.930997 131.176436,210.5089 138.953015,212.76107 Z" id="Path" fill="#F3F5F9"></path>
                <path d="M186.251152,213.900866 C185.769133,217.761779 185.671648,221.662079 185.960171,225.542789 C186.31297,231.064177 186.996921,236.558673 188.008229,241.995799 C188.071088,242.337287 188.16091,242.673101 188.276827,243 C193.59842,240.634171 197.823239,238.903768 197.823239,238.903768 L194.286702,226.047726 C195.819947,219.648073 198.925609,196.012473 198.925609,196.012473 L200,150.250411 L189.642199,127.48285 C196.396313,125.690039 200.928901,123.755392 198.035879,122.166825 C193.839039,119.857731 191.81896,115.477826 190.845293,112 C189.071154,114.507489 186.993827,116.779472 184.661949,118.762754 L184.52765,118.876223 L183.74424,126.592118 L183.503621,128.963621 L183,133.882503 C183,133.882503 185.400592,192.024036 187.140882,195.343006 C188.881172,198.661975 188.013825,205.067302 186.491771,212.584625 C186.396643,213.010134 186.340685,213.44699 186.251152,213.900866 Z" id="Path" fill="#000000" opacity="0.1"></path>
                <path d="M187.515147,211.56058 C185.980444,219.073075 187.295097,231.444596 189.055492,240.941524 C190.815886,250.438452 209.503151,244.258362 213.02394,240.941524 C216.544729,237.624686 226.87012,236.082499 226.87012,236.082499 C226.87012,236.082499 227.310219,192.782177 230.610959,187.259784 C232.173873,184.640333 232.551906,176.090263 232.51241,167.829353 C232.484199,160.413244 232.11745,153.229598 231.982035,150.819929 C231.948181,150.252949 231.931255,149.941109 231.931255,149.941109 C231.931255,149.941109 246.217533,125.640313 245.997484,123.859993 C245.777435,122.079674 241.60214,121.875561 241.60214,121.875561 C241.60214,121.875561 225.803727,109.50404 223.134924,111.046228 C220.466121,112.588415 213.238347,108.61955 213.238347,108.61955 C213.238347,108.61955 204.047057,109.668464 202.145605,107.882475 C201.911039,107.681567 201.785388,107.38064 201.807068,107.071692 C202.021475,104.236789 192.440866,98.2041131 192.141825,98 C200.221584,105.302712 187.159682,116.557281 185.67576,117.793299 L185.540345,117.906695 L184,132.903337 C184,132.903337 186.420542,191.007527 188.175295,194.324364 C189.930047,197.641202 189.055492,204.048085 187.515147,211.56058 Z" id="Path" fill="#67647E"></path>
                <circle id="Oval" fill="#444053" cx="188" cy="149" r="1"></circle>
                <path d="M185,118.588197 L191.895512,125 L202,108.7605 C201.757883,108.562072 201.628188,108.264859 201.650565,107.959724 C201.871874,105.15981 191.977047,99.2015938 191.674203,99 C200.014046,106.251777 186.554985,117.367435 185,118.588197 Z" id="Path" fill="#000000" opacity="0.1"></path>
                <circle id="Oval" fill="#000000" opacity="0.1" cx="190" cy="184" r="1"></circle>
                <circle id="Oval" fill="#444053" cx="190" cy="184" r="1"></circle>
                <path d="M185,117.588197 L191.895512,124 L202,107.7605 C201.757883,107.562072 201.628188,107.264859 201.650565,106.959724 C201.871874,104.15981 191.982871,98.2015938 191.674203,98 C200.014046,105.251777 186.531689,116.361835 185,117.588197 Z" id="Path" fill="#67647E"></path>
                <path d="M180.298531,147.573379 L192.267461,147.573082 C193.206345,147.573063 193.967476,148.334164 193.967494,149.273049 C193.967494,149.27307 193.967494,149.273092 193.967494,149.273113 L193.966828,178.320144 C193.966811,179.259003 193.20572,180.020094 192.266862,180.020113 L180.297931,180.020475 C179.359047,180.020493 178.597916,179.259392 178.597898,178.320508 C178.597898,178.320486 178.597898,178.320465 178.597898,178.320443 L178.598564,149.273413 C178.598581,148.334554 179.359672,147.573462 180.298531,147.573444 Z" id="Rectangle" fill="#D1D9EC" transform="translate(186.282696, 163.796778) rotate(-178.690000) translate(-186.282696, -163.796778) "></path>
                <path d="M180.377214,148.290781 L192.346145,148.290483 C193.285029,148.290465 194.046159,149.051566 194.046178,149.99045 C194.046178,149.990471 194.046178,149.990493 194.046178,149.990514 L194.045512,179.037545 C194.045495,179.976404 193.284404,180.737495 192.345545,180.737514 L180.376615,180.737876 C179.437731,180.737894 178.6766,179.976793 178.676582,179.037909 C178.676582,179.037888 178.676582,179.037866 178.676582,179.037845 L178.677247,149.990814 C178.677265,149.051955 179.438355,148.290864 180.377214,148.290845 Z" id="Rectangle" fill="#DFE6F5" transform="translate(186.361380, 164.514179) rotate(-178.690000) translate(-186.361380, -164.514179) "></path>
                <circle id="Oval" fill="#FFFFFF" cx="186.5" cy="157.5" r="2.5"></circle>
                <path d="M104,210.452595 C109.495379,212.894032 145.553864,206.468898 150.829202,204.909566 C156.10454,203.350233 163.805969,191.382071 160.065275,182.714686 C156.32458,174.047301 161.379877,165.641702 161.379877,165.641702 C161.379877,165.641702 169.278779,148.568717 171.056032,145.239485 C172.833285,141.910254 176.483706,132.229871 176.991492,130.607938 C177.033135,130.23961 176.920679,129.870444 176.681178,129.58925 C175.248092,127.409599 169.718861,123.52834 169.718861,123.52834 C168.167291,124.09744 167.97546,119.607245 168.026239,116.312159 C168.060091,114.468277 168.167291,113 168.167291,113 C168.167291,113 167.439463,113.74552 166.248986,114.764208 C165.814546,115.134123 165.318044,115.543875 164.765121,115.965008 C162.703466,117.630975 160.370588,118.923065 157.870508,119.783666 C152.595171,121.360071 145.119424,128.627472 145.119424,128.627472 L147.319833,162.682385 C147.319833,162.682385 142.241967,194.711303 136.983556,200.920179 C131.725144,207.129054 115.876563,206.907105 110.601225,206.907105 C105.325887,206.907105 104,210.452595 104,210.452595 Z" id="Path" fill="#000000" opacity="0.1"></path>
                <path d="M103,208.460011 C108.495397,210.87123 144.554001,204.516429 149.829356,202.967165 C155.104711,201.417901 162.806166,189.575888 159.065459,180.995781 C155.324753,172.415673 160.380067,164.094716 160.380067,164.094716 C160.380067,164.094716 168.278994,147.193651 170.056253,143.897943 C171.833512,140.602236 175.483944,131.019332 175.991733,129.413731 C176.032681,129.049176 175.920309,128.683999 175.681418,128.4053 C174.237042,126.253231 168.736003,122.422323 168.736003,122.422323 C167.184428,122.985692 166.992597,118.546346 167.043376,115.28444 C167.077229,113.453492 167.184428,112 167.184428,112 C167.184428,112 166.456599,112.738013 165.266117,113.752077 C164.831676,114.112633 164.335172,114.518259 163.782248,114.935152 C161.710361,116.587762 159.365753,117.866988 156.85376,118.715356 C151.578404,120.275888 144.102634,127.470108 144.102634,127.470108 L146.303049,161.182099 C146.303049,161.182099 141.225167,192.888497 135.966738,199.034851 C130.708309,205.181205 114.865318,204.961491 109.58432,204.961491 C104.303323,204.961491 103,208.460011 103,208.460011 Z" id="Path" fill="#67647E"></path>
                <path d="M163,112 C163,112 163.217943,113.174623 163.589035,114.985263 C164.826008,121.116224 167.771183,134.501202 169.897599,133.985514 C171.423199,133.613072 174.020843,130.988791 176,128.719763 C174.509742,126.508033 168.748981,122.600261 168.748981,122.600261 C167.129135,123.173248 166.928863,118.65811 166.981876,115.340515 L165.126416,113.78199 L163,112 Z" id="Path" fill="#000000" opacity="0.1"></path>
                <path d="M163,111 C163,111 163.217943,112.174623 163.589035,113.985263 C164.826008,120.116224 167.771183,133.501202 169.897599,132.985514 C171.423199,132.613072 174.020843,129.988791 176,127.719763 C174.48029,125.513762 168.7372,121.61745 168.7372,121.61745 C167.117354,122.190437 166.917082,117.675299 166.970095,114.357704 L165.114635,112.799179 L163,111 Z" id="Path" fill="#67647E"></path>
                <path d="M149.789087,176.42657 C149.789087,176.42657 160.933323,174.209129 164.049592,169.32392 C167.165861,164.43871 188.390799,160.203342 185.777707,165.333667 C183.164615,170.463992 164.049592,187.16035 164.049592,187.16035 L155.752883,199 L144.671545,196.195422 L140,187.137548 L149.789087,176.42657 Z" id="Path" fill="#EFB7B9"></path>
                <path d="M175,189 C175,189 164.678506,192.802177 163.125086,197.88623 C161.571665,202.970284 175,189 175,189 Z" id="Path" fill="#000000" opacity="0.1"></path>
                <path d="M181.984843,195 C181.984843,195 182.92483,200.382165 170,199.978364 L181.984843,195 Z" id="Path" fill="#000000" opacity="0.1"></path>
                <path d="M239.781937,124.441324 L244.682734,124 C244.682734,124 250.023346,127.960604 254.027377,127.960604 C258.031408,127.960604 260.481807,133.052808 260.481807,133.052808 C260.481807,133.052808 267.159,136.142079 269.386635,136.583403 C271.61427,137.024728 275.395538,139.225692 274.28172,140.10834 C273.167903,140.990989 274.504484,142.976949 276.509355,144.515926 C278.514227,146.054904 281.650051,153.998743 278.954042,155.102054 C276.258032,156.205365 268.941108,158.406329 266.959084,159.50964 C264.97706,160.612951 262.509526,159.50964 262.509526,159.50964 C262.509526,159.50964 250.720196,144.295264 244.705582,147.163873 C238.690967,150.032481 230.45443,150.015507 230.45443,150.015507 L224,136.572087 L239.781937,124.441324 Z" id="Path" fill="#000000" opacity="0.1"></path>
                <path d="M137.931152,196.94007 C138.979439,198.486393 140.335376,199.569948 142.073025,199.790045 C146.41829,200.293238 150.821776,199.889529 155,198.604907 C155,198.604907 132.638442,191.567445 154.168207,174.45631 L148.414023,174.45631 L146.47697,173.73394 L147.354341,169.179624 L148.619122,128.100485 L143.958803,127 C143.958803,127 140.20434,154.049363 139.309877,157.345175 C138.415415,160.640987 137.743144,173.400973 137.743144,173.400973 C137.743144,173.400973 136.854379,178.677658 135.521231,181.301892 C134.512825,183.299696 134.791988,192.244666 137.931152,196.94007 Z" id="Path" fill="#67647E"></path>
                <path d="M139,196.972366 C140.038385,198.502368 141.394526,199.574487 143.125167,199.792261 C147.452904,200.290143 151.838629,199.890695 156,198.619631 C156,198.619631 133.728638,191.656447 155.171562,174.714745 L149.446262,174.714745 L147.534045,174 C144.339453,179.50019 139.40287,189.266517 139,196.972366 Z" id="Path" fill="#000000" opacity="0.1"></path>
                <path d="M138,196.971065 C139.044059,198.501725 140.394526,199.574304 142.125167,199.792171 C146.452904,200.290268 150.838629,199.890648 155,198.619038 C155,198.619038 132.728638,191.652861 154.171562,174.715053 L148.440587,174.715053 L146.511348,174 C143.379172,179.491381 138.419893,189.261904 138,196.971065 Z" id="Path"></path>
                <path d="M138,196.971065 C139.044059,198.501725 140.394526,199.574304 142.125167,199.792171 C146.452904,200.290268 150.838629,199.890648 155,198.619038 C155,198.619038 132.728638,191.652861 154.171562,174.715053 L148.440587,174.715053 L146.511348,174 C143.379172,179.491381 138.419893,189.261904 138,196.971065 Z" id="Path" fill="#67647E"></path>
                <path d="M168,117.213269 C175.819615,120.701999 185.025083,118.983136 191,112.918666 C190.896835,112.597416 190.799402,112.287439 190.7077,111.977461 C190.226741,110.322596 189.925122,108.622351 189.807874,106.905095 C189.807874,106.905095 164.589833,98.118631 169.484426,106.905095 C171.897334,111.233514 170.275355,114.750354 168,117.213269 Z" id="Path" fill="#000000" opacity="0.1"></path>
                <path d="M156,97.9740032 L156,98.1716691 C156,98.8211427 156.045121,99.4649687 156.112803,100.0975 C156.180485,100.73003 156.270727,101.306085 156.38353,101.899083 C158.156678,110.769807 165.647458,117.349677 174.661965,117.954785 C183.676472,118.559892 191.977317,113.040049 194.917059,104.485682 C195.052422,104.095998 195.170866,103.706314 195.278029,103.310982 C195.760303,101.573216 196.003196,99.7776171 195.999968,97.9740032 C195.999968,97.5165479 195.999968,97.053445 195.949207,96.6016373 C195.183708,85.8563282 186.06626,77.6426183 175.314169,78.0119824 C164.562079,78.3813465 156.028247,87.2014267 156,97.9740032 Z" id="Path" fill="#EFB7B9"></path>
                <path d="M156,98.5138776 C156.109461,99.1605418 156.147314,99.817669 156.112851,100.472928 C156.10616,100.828131 156.125019,101.183356 156.169276,101.535756 C156.20685,101.800923 156.278957,102.059812 156.383693,102.305588 C157.190577,104.235913 159.831288,105.488326 161.574834,104.241658 C162.246164,103.681594 162.779491,102.969383 163.132177,102.161962 C164.982931,98.663248 167.550289,94.6417372 171.595994,94.572797 C173.322612,94.5383269 174.942023,95.2794339 176.612216,95.7218001 C178.282409,96.1641663 180.2573,96.2043814 181.49866,95.0496333 C182.457893,94.1591559 182.909296,92.6424718 184.190154,92.332241 C185.471011,92.0220102 186.655946,93.2169734 187.24277,94.3889565 C187.829595,95.5609397 188.297926,96.9397434 189.499788,97.548715 C190.030188,97.8129857 190.628297,97.8934159 191.192552,98.1806667 C193.584991,99.5135103 192.484695,104.184208 194.967414,104.94255 C195.04505,104.96711 195.124225,104.986304 195.204401,105 C195.243899,104.586359 195.289039,104.161228 195.328537,103.747587 C195.554239,101.472561 195.77806,99.1975344 196,96.9225083 C195.234176,85.9918468 186.112863,77.6364536 175.356213,78.0121891 C164.599564,78.3879246 156.062115,87.3601478 156.033855,98.3185471 L156,98.5138776 Z" id="Path" fill="#000000" opacity="0.1"></path>
                <path d="M192.167098,67.9717819 C194.537082,68.9706846 197.003684,70.5057214 197.532242,72.9042165 C197.765262,73.9595544 197.589076,75.0543968 197.64591,76.1266652 C197.759579,78.2937761 198.782593,80.3028685 199.45892,82.379683 C200.135246,84.4564976 200.362583,86.8944973 199.032664,88.6439879 C198.617774,89.2083397 198.066483,89.6541776 197.691378,90.2298164 C197.20216,91.1370489 196.937224,92.1467974 196.918433,93.1757327 L195.821534,104 C193.013927,103.475153 194.264278,98.638658 191.774943,97.2955008 C191.257752,97.0133249 190.63826,96.9343156 190.098335,96.6690703 C188.899135,96.1047185 188.433095,94.7220566 187.824969,93.570779 C187.216844,92.4195013 186.063111,91.2400061 184.750242,91.5503996 C183.437373,91.8607931 183.005433,93.3506818 182.044936,94.2197835 C180.788901,95.3484871 178.794023,95.303339 177.117415,94.8800751 C175.440808,94.4568113 173.803984,93.7513715 172.070543,93.7513715 C167.989851,93.8190938 165.398214,97.7695563 163.54542,101.206459 C163.188761,102.001914 162.649624,102.703476 161.971114,103.255056 C159.993286,104.632074 156.856041,102.89387 156.532086,100.591315 C156.33885,99.2989496 156.748056,97.8598526 155.997845,96.7650101 C155.247634,95.6701676 153.622178,95.4387834 152.354776,94.8518575 C149.11523,93.3732558 148.114949,89.3607146 148.64919,85.997178 C149.041345,83.5704653 150.013209,81.0760304 149.217531,78.739614 C148.939044,77.932591 148.46732,77.1989336 148.211567,76.3919106 C147.50114,74.1345034 148.660556,71.6287815 150.484933,70.0203789 C152.309309,68.4119763 154.702027,67.525944 157.05496,66.7471385 C163.09643,64.7324026 169.439122,62.796676 175.867064,62.3790557 C178.680354,62.1984631 182.368891,61.3237179 184.602473,63.0675649 C187.256628,65.0879443 188.893451,66.5947635 192.167098,67.9717819 Z" id="Path" fill="#585268"></path>
                <circle id="Oval" fill="#000000" opacity="0.1" cx="187" cy="131" r="1"></circle>
                <circle id="Oval" fill="#444053" cx="187" cy="131" r="1"></circle>
                <circle id="Oval" fill="#000000" opacity="0.1" cx="194" cy="201" r="1"></circle>
                <circle id="Oval" fill="#444053" cx="194" cy="200" r="1"></circle>
                <circle id="Oval" fill="#000000" opacity="0.1" cx="190" cy="219" r="1"></circle>
                <circle id="Oval" fill="#444053" cx="190" cy="218" r="1"></circle>
                <path d="M152,148 C152,148 149.75,164.810046 152,167.738807 C154.25,170.667567 152,148 152,148 Z" id="Path" fill="#000000" opacity="0.1"></path>
                <path d="M224.047963,179 C224.047963,179 228.440046,189.06101 224.047963,198.705427 C219.655881,208.349844 216.933649,212.270386 218.399466,218.427975 C219.865283,224.585564 224.047963,179 224.047963,179 Z" id="Path" fill="#000000" opacity="0.1"></path>
                <path d="M5.35139047,362.009353 C12.2260611,366.70558 22.6518862,364.466547 22.6518862,364.466547 C22.6518862,364.466547 38.3930609,356.865319 43.053951,356.865319 C47.7148411,356.865319 59,352.163351 59,352.163351 L58.6187062,349 C54.0261075,349.889872 43.5775186,352.019823 42.3710367,353.058964 C40.8174067,354.402383 21.7470247,360.889836 21.7470247,360.889836 C21.7470247,360.889836 8.76027103,359.25362 5.14651617,353.86846 C2.77338897,356.360102 1.75470846,359.552158 5.35139047,362.009353 Z" id="Path" fill="#000000" opacity="0.1"></path>
                <g id="Group" opacity="0.1" transform="translate(148.000000, 74.000000)" fill="#000000">
                    <path d="M49.4621739,0.992 C49.4621739,0.755272727 49.4621739,0.518545455 49.4621739,0.276181818 C49.4621739,0.552363636 49.4621739,0.839818182 49.4621739,1.09909091 C49.4734783,1.06527273 49.4621739,1.03145455 49.4621739,0.992 Z" id="Path"></path>
                    <path d="M4.42565217,19.6765455 C5.68608696,20.2401818 7.25173913,20.4656364 8.04869565,21.5816364 C8.84565217,22.6976364 8.38782609,24.1123636 8.58,25.4030909 C8.91347826,27.7027273 12.0221739,29.4443636 13.9891304,28.0634545 C14.6639107,27.5125742 15.2000839,26.8119012 15.5547826,26.0174545 C17.4030435,22.5849091 19.9804348,18.6394545 24.0330435,18.5718182 C25.7626087,18.5436364 27.3847826,19.2707273 29.0578261,19.6990909 C30.7308696,20.1274545 32.7091304,20.1725455 33.9582609,19.0396364 C34.9134783,18.1716364 35.3656522,16.678 36.6486957,16.3736364 C37.9317391,16.0692727 39.1130435,17.2416364 39.7065217,18.3914545 C40.3,19.5412727 40.7634783,20.894 41.9673913,21.4914545 C42.4986957,21.7507273 43.0978261,21.8296364 43.6347826,22.1114545 C46.1104348,23.4585455 44.8669565,28.3114545 47.6591304,28.8074545 C48.035942,25.2001818 48.3995652,21.5966667 48.75,17.9969091 C48.7731682,16.9806428 49.0365394,15.9841765 49.5186957,15.0885455 C49.8917391,14.5249091 50.44,14.0514545 50.8526087,13.4990909 C51.3520118,12.8169386 51.663781,12.0163784 51.7569565,11.1769091 C51.9910323,12.6024572 51.6673078,14.0632133 50.8526087,15.2576364 C50.44,15.8212727 49.8917391,16.2665455 49.5186957,16.8414545 C49.0290987,17.7448692 48.7617571,18.7513573 48.7386957,19.778 C48.3618841,23.3815152 47.9982609,26.9850303 47.6478261,30.5885455 C44.8556522,30.0643636 46.0991304,25.234 43.6234783,23.8925455 C43.1091304,23.6107273 42.4930435,23.5318182 41.956087,23.2669091 C40.7634783,22.7032727 40.3,21.3223636 39.6952174,20.1725455 C39.0904348,19.0227273 37.9430435,17.8447273 36.6373913,18.1547273 C35.3317391,18.4647273 34.9021739,19.9527273 33.9469565,20.8207273 C32.6978261,21.948 30.713913,21.9029091 29.0465217,21.4801818 C27.3791304,21.0574545 25.7513043,20.3529091 24.0217391,20.3529091 C19.9691304,20.4205455 17.3917391,24.366 15.5434783,27.7985455 C15.1887795,28.5929921 14.6526064,29.2936651 13.9778261,29.8445455 C12.0108696,31.2198182 8.89086957,29.4838182 8.56869565,27.1841818 C8.37652174,25.8934545 8.78347826,24.4561818 8.0373913,23.3627273 C7.29130435,22.2692727 5.67478261,22.0381818 4.41434783,21.452 C1.46956522,20.0992727 0.384347826,16.6329091 0.633043478,13.4821818 C0.859130435,16.058 2.02347826,18.5718182 4.42565217,19.6765455 Z" id="Path"></path>
                    <path d="M0.305217391,1.23436364 C0.559565217,2.04036364 1.02869565,2.77872727 1.30565217,3.57909091 C1.5973692,4.51361255 1.68222066,5.50013627 1.55434783,6.47054545 C1.51035163,6.08729128 1.42701623,5.70955359 1.30565217,5.34327273 C1.02869565,4.53727273 0.559565217,3.80454545 0.305217391,2.99854545 C0.0820062426,2.25463894 0.0374726834,1.46879291 0.175217391,0.704545455 C0.208053443,0.883549594 0.25146235,1.06046366 0.305217391,1.23436364 Z" id="Path"></path>
                </g>
                <path d="M272.733007,256.986088 L227.515723,251.293151 C226.865621,251.212061 226.316957,250.768111 226.098747,250.146607 C225.880537,249.525103 226.03029,248.832882 226.485499,248.35888 L245.451762,228.532728 C245.824793,228.141893 246.358007,227.949079 246.892951,228.011584 L281.464581,231.908839 C281.997334,231.969042 282.47216,232.274601 282.749925,232.735983 C283.02769,233.197364 283.076943,233.762324 282.883251,234.265319 L274.56264,255.898482 C274.270872,256.638648 273.518083,257.086136 272.733007,256.986088 Z" id="Path" fill="#746D83"></path>
                <path d="M272.733007,256.986088 L227.515723,251.293151 C226.865621,251.212061 226.316957,250.768111 226.098747,250.146607 C225.880537,249.525103 226.03029,248.832882 226.485499,248.35888 L245.451762,228.532728 C245.824793,228.141893 246.358007,227.949079 246.892951,228.011584 L281.464581,231.908839 C281.997334,231.969042 282.47216,232.274601 282.749925,232.735983 C283.02769,233.197364 283.076943,233.762324 282.883251,234.265319 L274.56264,255.898482 C274.270872,256.638648 273.518083,257.086136 272.733007,256.986088 Z" id="Path" fill="#000000" opacity="0.1"></path>
                <path d="M271.727458,255.987885 L226.514388,250.278305 C225.86435,250.194873 225.316637,249.75023 225.098722,249.129041 C224.880806,248.507853 225.029918,247.81625 225.484131,247.341464 L244.450989,227.536181 C244.824897,227.146669 245.356763,226.952462 245.892222,227.009926 L280.459306,230.903079 C280.99348,230.963306 281.469662,231.269129 281.748481,231.731039 C282.027301,232.192949 282.077228,232.758711 281.88365,233.262737 L273.557149,254.87313 C273.273575,255.622336 272.519475,256.081777 271.727458,255.987885 Z" id="Path" fill="#746D83"></path>
                <path d="M245.252457,234.939445 L258.749906,236 L278,234.775442 L277.669839,234.775442 L259.835522,233.091674 C255.750473,231.626577 258.582027,223 258.582027,223 L244.922295,223.677881 L243.831083,223.732548 C239.001772,234.775442 245.252457,234.939445 245.252457,234.939445 Z" id="Path" fill="#D1D9EC"></path>
                <path d="M245.252457,235.880604 L258.749906,237 L278,235.707501 L277.669839,235.707501 L258.207098,236.422992 L245.168517,234.96316 C241.463993,233.959166 243.584861,227.335109 244.922295,224 L243.831083,224.057701 C239.001772,235.707501 245.252457,235.880604 245.252457,235.880604 Z" id="Path" fill="#000000" opacity="0.1"></path>
                <path d="M221.026429,154.348407 L225.197793,214.008913 L225.763019,221.837769 C225.880105,223.632251 227.385059,225.021525 229.188285,224.999747 L230.45439,224.999747 L293.250943,224.622114 C293.746137,224.616502 294.216302,224.404178 294.547175,224.036744 C294.878049,223.669311 295.039335,223.180408 294.991837,222.688854 L294.426612,214.854361 L290.006548,162.391443 C289.865701,160.99454 288.92367,159.806569 287.593035,159.347827 L227.741308,150.397342 C225.706496,149.692802 223.632119,149.9408 222.337752,151.017338 C221.369025,151.8388 220.8768,153.089166 221.026429,154.348407 Z" id="Path" fill="#4C4C56"></path>
                <path d="M225,214 L225.566827,221.835205 C225.684245,223.631142 227.193463,225.021542 229.0018,224.999747 L230.271492,224.999747 L293.245986,224.621807 C293.742584,224.616191 294.214082,224.403695 294.545892,224.035963 C294.877703,223.668231 295.039446,223.178932 294.991814,222.68698 L294.424987,214.846134 L225,214 Z" id="Path" fill="#DFE6F5"></path>
                <ellipse id="Oval" fill="#FFFFFF" cx="268" cy="220.5" rx="1" ry="1.5"></ellipse>
                <path d="M265,242.807671 C265,242.807671 247.735732,235.728114 243.081539,240.87576 C243.081539,240.87576 242.320048,242.443509 245.451256,242.807671 L258.101112,243.912501 C258.101112,243.912501 263.306533,244.46183 265,242.807671 Z" id="Path" fill="#D1D9EC"></path>
                <path d="M264.313717,241.952741 C260.87363,240.498901 250.593501,236.739175 244,240.898111 C244,240.898111 251.292986,240.057982 255.300688,242.46516 C259.30839,244.872338 264.778129,243.728332 264.778129,243.728332 L264.858398,243.579373 C265.013509,243.292173 265.042684,242.949641 264.938529,242.638591 C264.834373,242.327541 264.606884,242.077829 264.313717,241.952741 Z" id="Path" fill="#DFE6F5"></path>
                <path d="M221.024072,154.320574 L225.522824,221.837028 C225.634564,223.63193 227.070806,225.02153 228.791702,224.999747 L230,225 C229.172175,224.174084 228.466771,223.224031 227.907055,222.180924 C227.907055,222.180924 223.489216,154.337487 223.165564,152.657468 C223.023758,152.028563 222.715296,151.454132 222.275523,151 C221.354424,151.819324 220.885023,153.064824 221.024072,154.320574 Z" id="Path" fill="#DFE6F5"></path>
                <path d="M221.024072,154.320574 L225.522824,221.837028 C225.634564,223.63193 227.070806,225.02153 228.791702,224.999747 L230,225 C229.172175,224.174084 228.466771,223.224031 227.907055,222.180924 C227.907055,222.180924 223.489216,154.337487 223.165564,152.657468 C223.023758,152.028563 222.715296,151.454132 222.275523,151 C221.354424,151.819324 220.885023,153.064824 221.024072,154.320574 Z" id="Path" fill="#000000" opacity="0.1"></path>
                <path d="M213.046971,172.630464 C218.099615,171.518929 229.889118,168.095402 229.889118,168.095402 L232,167.673019 C231.97193,160.403583 231.607017,153.362011 231.472279,151 L231.421753,151 C231.421753,151 221.355763,154.251239 218.952951,156.001906 C216.550138,157.752573 209.105909,157.296844 209.105909,157.296844 C209.105909,157.296844 197.518512,157.913745 187.901646,168.545574 C178.284781,179.177403 208.016783,173.725325 213.046971,172.630464 Z" id="Path" fill="#000000" opacity="0.1"></path>
                <path d="M263.268189,153.047833 C264.194558,153.464039 264.838598,154.318518 264.973748,155.310681 C265.108899,156.302844 264.716227,157.29371 263.933869,157.934712 C261.231322,160.13213 257.288448,162.760086 253.521951,163.129118 C247.263421,163.749763 232.129158,166.729976 230.62711,167.043095 C230.546266,167.056425 230.466431,167.075105 230.388148,167.099008 C229.142132,167.456858 218.240911,170.59363 213.433222,171.628039 C208.312607,172.746318 178.157872,178.175562 187.938247,167.501589 C196.916393,157.671916 207.584341,156.318799 209.228628,156.190197 C209.359244,156.179084 209.490592,156.179084 209.621208,156.190197 C210.759123,156.240519 217.199719,156.458584 219.424342,154.876219 C220.583127,154.161777 221.81035,153.560626 223.088427,153.081381 C227.909273,151.121002 232.93776,149.695688 238.080451,148.831921 L248.509437,147.042674 C249.103158,146.942184 249.713919,147.020135 250.261826,147.26633 L263.268189,153.047833 Z" id="Path" fill="#EFB7B9"></path>
                <path d="M240.79424,124.441324 L245.687828,124 C245.687828,124 251.032516,127.960604 255.035322,127.960604 C259.038129,127.960604 261.487778,133.052808 261.487778,133.052808 C261.487778,133.052808 268.162928,136.142079 270.389882,136.583403 C272.616835,137.024728 276.396946,139.225692 275.283469,140.10834 C274.169993,140.990989 275.506165,142.976949 277.510423,144.515926 C279.514681,146.054904 282.649547,153.998743 279.954362,155.102054 C277.259177,156.205365 269.944491,158.406329 267.963073,159.50964 C265.981656,160.612951 263.514876,159.50964 263.514876,159.50964 C263.514876,159.50964 251.706312,144.283948 245.693538,147.152557 C239.680763,150.021165 231.452455,150.015507 231.452455,150.015507 L225,136.572087 L240.79424,124.441324 Z" id="Path" fill="#67647E"></path>
                <path d="M531.120959,402.233864 C530.580321,402.979998 530.149559,403.801104 529.84206,404.671664 C529.757551,404.881917 529.68431,405.126266 529.605435,405.359249 C529.462126,405.292807 529.313162,405.239554 529.160355,405.200138 C528.50366,405.032836 527.824214,404.975248 527.149046,405.029663 C527.149046,404.762585 527.149046,404.489824 527.188484,404.194333 C527.267359,401.199646 526.918056,397.028678 524.089828,398.795941 C521.368645,400.500696 523.306713,403.341955 525.058862,405.160361 L525.509576,405.60928 C523.915176,406.745783 523.610945,409.433614 523.340517,412.22373 C523.070088,415.013847 520.726378,418.065359 519.171416,419.798526 C519.013666,419.980367 518.867185,420.133795 518.73197,420.28154 C517.462997,419.26243 515.82462,418.834843 514.224835,419.105259 L514.01638,418.338119 C512.754382,413.740963 510.134609,405.779755 506.793695,404.035222 C506.934543,403.859064 507.081025,403.677224 507.233141,403.466971 C508.652888,401.597422 510.247288,398.812989 507.886675,398.102674 C505.526063,397.392359 505.317608,400.517744 505.447188,402.853259 C505.447188,403.14875 505.469724,403.427193 505.514795,403.688589 C504.559292,403.732242 503.664183,404.172347 503.041505,404.904648 L502.680934,404.467094 C500.765401,402.194087 497.249835,398.574323 496.190658,401.307614 C495.199089,403.853382 498.29211,407.160607 500.466803,409.075616 L500.602017,409.194948 C499.137198,415.167274 505.514795,420.037192 508.945852,422.168136 L509.385298,422.440897 C504.652806,428.06659 501.734435,438.613343 501.734435,438.613343 L514.985414,441 C514.985414,441 523.768695,433.351331 522.647545,426.168629 L522.737687,426.168629 C531.515334,424.395683 533.515375,414.951339 532.146333,409.348376 L532.304083,409.280186 C533.901769,408.618446 535.301535,407.549286 536.366139,406.177531 C538.794358,402.739608 533.639322,398.852766 531.120959,402.233864 Z" id="Path" fill="#15CBCB"></path>
                <path d="M531.120959,402.233864 C530.580321,402.979998 530.149559,403.801104 529.84206,404.671664 C529.757551,404.881917 529.68431,405.126266 529.605435,405.359249 C529.462126,405.292807 529.313162,405.239554 529.160355,405.200138 C528.50366,405.032836 527.824214,404.975248 527.149046,405.029663 C527.149046,404.762585 527.149046,404.489824 527.188484,404.194333 C527.267359,401.199646 526.918056,397.028678 524.089828,398.795941 C521.368645,400.500696 523.306713,403.341955 525.058862,405.160361 L525.509576,405.60928 C523.915176,406.745783 523.610945,409.433614 523.340517,412.22373 C523.070088,415.013847 520.726378,418.065359 519.171416,419.798526 C519.013666,419.980367 518.867185,420.133795 518.73197,420.28154 C517.462997,419.26243 515.82462,418.834843 514.224835,419.105259 L514.01638,418.338119 C512.754382,413.740963 510.134609,405.779755 506.793695,404.035222 C506.934543,403.859064 507.081025,403.677224 507.233141,403.466971 C508.652888,401.597422 510.247288,398.812989 507.886675,398.102674 C505.526063,397.392359 505.317608,400.517744 505.447188,402.853259 C505.447188,403.14875 505.469724,403.427193 505.514795,403.688589 C504.559292,403.732242 503.664183,404.172347 503.041505,404.904648 L502.680934,404.467094 C500.765401,402.194087 497.249835,398.574323 496.190658,401.307614 C495.199089,403.853382 498.29211,407.160607 500.466803,409.075616 L500.602017,409.194948 C499.137198,415.167274 505.514795,420.037192 508.945852,422.168136 L509.385298,422.440897 C504.652806,428.06659 501.734435,438.613343 501.734435,438.613343 L514.985414,441 C514.985414,441 523.768695,433.351331 522.647545,426.168629 L522.737687,426.168629 C531.515334,424.395683 533.515375,414.951339 532.146333,409.348376 L532.304083,409.280186 C533.901769,408.618446 535.301535,407.549286 536.366139,406.177531 C538.794358,402.739608 533.639322,398.852766 531.120959,402.233864 Z" id="Path" fill="#000000" opacity="0.1"></path>
                <path d="M505,405.571155 L503.442854,410 C503.442854,410 502.582177,409.40582 501.489344,408.470536 C499.303677,406.616473 496.195047,403.4145 497.191621,400.949752 C498.256142,398.303449 501.789448,401.797009 503.714647,404.008681 C504.490389,404.888948 505,405.571155 505,405.571155 Z" id="Path" fill="#15CBCB"></path>
                <path d="M507.995668,403.257657 C507.477438,403.865019 506.922184,404.446671 506.332403,405 C506.184183,404.231107 506.083415,403.455571 506.030551,402.676877 C505.888866,400.424981 506.153756,397.422454 508.697936,398.096379 C511.242116,398.770304 509.535729,401.455045 507.995668,403.257657 Z" id="Path" fill="#15CBCB"></path>
                <path d="M527.991073,404.140324 C527.945619,405.729033 527.814305,407 527.814305,407 C527.203159,406.432717 526.62444,405.817861 526.081971,405.159495 C524.511255,403.229064 522.773872,400.237495 525.21328,398.444951 C527.763799,396.580466 528.061781,400.980891 527.991073,404.140324 Z" id="Path" fill="#15CBCB"></path>
                <path d="M537.342557,406.330574 C536.264489,407.727729 534.84702,408.816686 533.229128,409.490679 C532.78055,409.691316 532.319315,409.861466 531.848476,410 L530,407.366579 C530.194084,406.496372 530.449573,405.641442 530.764493,404.808399 C531.075881,403.921718 531.512091,403.085408 532.059567,402.325459 C534.615484,398.881755 539.835717,402.840568 537.342557,406.330574 Z" id="Path" fill="#15CBCB"></path>
                <path d="M503.535484,404 C504.419355,404.881543 505,405.564738 505,405.564738 L503.225806,410 C503.225806,410 502.245161,409.404959 501,408.46832 C501.27422,407.048344 501.959482,405.709369 502.993548,404.573003 C503.174194,404.363636 503.36129,404.176309 503.535484,404 Z" id="Path" fill="#000000" opacity="0.1"></path>
                <path d="M509,403.5 C508.47257,404.022883 507.90746,404.523634 507.30721,405 C507.156359,404.338052 507.053802,403.670386 507,403 C507.719337,403.007112 508.418062,403.181793 509,403.5 Z" id="Path" fill="#000000" opacity="0.1"></path>
                <path d="M516,421.265795 L512.00719,423 C511.279096,422.638783 510.569914,422.241335 509.882361,421.809179 C505.685241,419.254118 497.244301,412.820219 502.877432,405.235963 C508.510563,397.651708 513.250565,411.253654 515.136059,417.907219 C515.708128,419.901554 516,421.265795 516,421.265795 Z" id="Path" fill="#15CBCB"></path>
                <path d="M526,405.069182 C526.529269,404.425545 527.243712,404.04361 528,404 C527.952381,405.666667 527.814815,407 527.814815,407 C527.17457,406.40488 526.568297,405.759854 526,405.069182 Z" id="Path" fill="#000000" opacity="0.1"></path>
                <path d="M534,408.509476 C533.583252,408.702709 533.154744,408.866578 532.717314,409 L531,406.463768 C531.180313,405.625677 531.417673,404.802299 531.710247,404 C532.818021,404.691193 533.634276,406.38573 534,408.509476 Z" id="Path" fill="#000000" opacity="0.1"></path>
                <path d="M523.946586,426.521909 C523.727006,426.568143 523.507427,426.608598 523.282068,426.643274 C510.032153,428.654454 518.913583,421.505517 518.913583,421.505517 C518.913583,421.505517 519.491425,420.956487 520.317739,420.054924 C521.912583,418.321148 524.322184,415.20613 524.593769,412.351178 C525.009815,408.057192 525.495203,404.029052 530.562876,405.20802 C535.538095,406.375429 536.485756,424.013713 523.946586,426.521909 Z" id="Path" fill="#15CBCB"></path>
                <rect id="Rectangle" fill="#D4DFEC" x="499" y="458" width="25" height="7"></rect>
                <rect id="Rectangle" fill="#D4DFEC" x="495" y="437" width="32" height="23"></rect>
                <rect id="Rectangle" fill="#000000" opacity="0.1" x="499" y="458" width="25" height="7"></rect>
                <rect id="Rectangle" fill="#000000" opacity="0.1" x="495" y="437" width="32" height="23"></rect>
                <rect id="Rectangle" fill="#D4DFEC" x="501" y="458" width="25" height="7"></rect>
                <path d="M515.152672,418 C515.725191,419.954545 516,421.295455 516,421.295455 L512.083969,423 C511.369877,422.64496 510.674332,422.25431 510,421.829545 C511.545802,419.892045 513.274809,418.4375 515.152672,418 Z" id="Path" fill="#000000" opacity="0.1"></path>
                <path d="M524,425.518128 C523.778944,425.564728 523.557888,425.605503 523.331015,425.640452 C509.99204,427.667538 518.933167,420.462065 518.933167,420.462065 C518.933167,420.462065 519.514893,419.908693 520.346761,419 C522.836548,421.009611 523.866203,423.246395 524,425.518128 Z" id="Path" fill="#000000" opacity="0.1"></path>
                <path d="M503,438.613703 C503,438.613703 510.228663,412.478073 520.362304,420.546028 C530.495944,428.613984 516.24129,441 516.24129,441 L503,438.613703 Z" id="Path" fill="#15CBCB"></path>
                <circle id="Oval" fill="#000000" opacity="0.1" cx="507" cy="410" r="1"></circle>
                <circle id="Oval" fill="#000000" opacity="0.1" cx="507" cy="414" r="1"></circle>
                <circle id="Oval" fill="#000000" opacity="0.1" cx="530" cy="410" r="1"></circle>
                <circle id="Oval" fill="#000000" opacity="0.1" cx="511" cy="430" r="1"></circle>
                <circle id="Oval" fill="#000000" opacity="0.1" cx="528" cy="417" r="1"></circle>
                <circle id="Oval" fill="#000000" opacity="0.1" cx="520" cy="425" r="1"></circle>
                <circle id="Oval" fill="#000000" opacity="0.1" cx="509" cy="411" r="1"></circle>
                <circle id="Oval" fill="#000000" opacity="0.1" cx="528" cy="413" r="1"></circle>
                <circle id="Oval" fill="#000000" opacity="0.1" cx="525" cy="419" r="1"></circle>
                <circle id="Oval" fill="#000000" opacity="0.1" cx="517" cy="429" r="1"></circle>
                <circle id="Oval" fill="#000000" opacity="0.1" cx="515" cy="425" r="1"></circle>
                <circle id="Oval" fill="#000000" opacity="0.1" cx="511" cy="416" r="1"></circle>
                <rect id="Rectangle" fill="#000000" opacity="0.1" x="501" y="458" width="25" height="2"></rect>
                <rect id="Rectangle" fill="#D4DFEC" x="497" y="437" width="32" height="23"></rect>
                <circle id="Oval" fill="#000000" opacity="0.1" cx="518" cy="433" r="1"></circle>
                <circle id="Oval" fill="#000000" opacity="0.1" cx="513" cy="434" r="1"></circle>
            </g>
        </g>
    </g>
</svg>