<?xml version="1.0" encoding="UTF-8"?>
<svg width="230px" height="59px" viewBox="0 0 230 59" version="1.1" xmlns="http://www.w3.org/2000/svg" xmlns:xlink="http://www.w3.org/1999/xlink">
    <!-- Generator: Sketch 52.2 (67145) - http://www.bohemiancoding.com/sketch -->
    <title>path2987</title>
    <desc>Created with Sketch.</desc>
    <g id="Page-1" stroke="none" stroke-width="1" fill="none" fill-rule="evenodd">
        <g id="Desktop-HD" transform="translate(-530.000000, -563.000000)" fill="#B2BEC3" fill-rule="nonzero">
            <g id="brush-stroke-banner-7" transform="translate(530.000000, 563.000000)">
                <path d="M44.5511138,58.6906909 C43.4084531,58.6062681 41.483238,58.4816166 40.2728584,58.4136915 C35.9636772,58.1718659 33.2993433,57.9957396 32.9389379,57.9288838 C32.737819,57.8915763 31.9408322,57.814272 31.1678574,57.7571019 C30.3948826,57.6999319 29.5706637,57.6093053 29.3362615,57.5557144 C29.1018593,57.5021235 28.5526492,57.4303201 28.1157941,57.3961507 C26.6749108,57.2834531 25.3509801,57.0662059 24.302302,56.7703832 C23.8958575,56.6557315 23.5084501,56.5966049 23.4414028,56.638992 C23.3743532,56.6813817 23.3569399,56.6539968 23.4027053,56.5781381 C23.4590323,56.4847747 23.0521531,56.4230708 22.1433379,56.3871517 C21.4049206,56.3579697 20.719286,56.2976018 20.6197052,56.2530063 C20.5201244,56.2084108 20.4075647,55.963168 20.3695756,55.7080251 C20.2910237,55.1804639 20.1623778,55.0992539 18.9942377,54.8398164 C18.5588523,54.7431206 17.8750208,54.5392456 17.4746115,54.3867605 C17.0742045,54.2342754 16.6019823,54.0753124 16.4252273,54.033506 C15.9205659,53.9141436 15.929506,53.6210476 16.4548076,53.0635891 C17.0072055,52.4773823 17.442699,52.2332686 18.329004,52.013008 C18.9036821,51.8701963 19.6900682,51.2780873 19.697005,50.9829774 C19.699328,50.8838489 19.1726326,50.69121 18.4225313,50.5168409 C18.2216331,50.4701418 17.5629821,50.3852429 16.9588618,50.328175 C16.3547392,50.2711096 15.55134,50.1284475 15.1735236,50.0111488 C14.7536241,49.8807845 13.9093331,49.7819426 13.001622,49.7568857 C11.3895987,49.7123849 10.7002679,49.5053419 10.5985251,49.0351053 C10.5640596,48.8758158 10.2631966,48.6237661 9.83359342,48.3942758 C9.44412751,48.1862258 9.1549025,47.9672239 9.19087451,47.9076013 C9.22684421,47.8479761 9.18395151,47.8243249 9.0955763,47.8550448 C8.69861929,47.9930036 8.10758368,47.6887663 7.89831357,47.2387537 C7.67022947,46.7482806 7.77764407,46.2959974 8.11996688,46.3054489 C8.21853338,46.3081657 8.30066408,46.2656614 8.30248338,46.2109863 C8.30432338,46.1563112 8.67737189,46.1046271 9.1315322,46.0961327 C9.58569022,46.0876583 9.97697313,46.0238134 10.0010518,45.9543005 C10.0251305,45.8847877 10.1471018,45.8307382 10.2720999,45.8341903 C10.397098,45.83763 10.5347967,45.781741 10.5780965,45.70997 C10.6213986,45.638199 10.7118783,45.5809965 10.7791671,45.5828534 C10.8464559,45.5845982 10.8734832,45.6326881 10.839227,45.6894694 C10.8049685,45.7462506 10.9383018,45.794834 11.1355177,45.7974362 C11.3472902,45.8002278 11.495769,45.7309966 11.4981817,45.6283263 C11.5004817,45.5327147 11.5564538,45.4928798 11.6226846,45.5398058 C11.6889131,45.5867293 11.7444351,45.5683223 11.7460658,45.4989017 C11.7508728,45.2943661 11.4324132,45.210873 10.8692213,45.2690151 C10.5794351,45.2989274 10.0961913,45.2487263 9.79534442,45.1573394 C9.49449751,45.0660049 9.1661771,44.9716421 9.065743,44.9476469 C8.9653066,44.9236443 8.78702209,44.8564944 8.66954959,44.7984121 C8.55207709,44.7403298 8.34600398,44.7207488 8.21161268,44.7548958 C7.89907717,44.8343113 7.79666737,44.6509544 8.03832838,44.4446417 C8.14063698,44.3572976 8.22396368,44.3379086 8.22349908,44.4015541 C8.22303908,44.4651997 8.26450348,44.4587317 8.31565318,44.3871725 C8.47297319,44.1670988 8.9673122,43.9269607 8.9638967,44.0722773 C8.9620567,44.1458155 9.0190576,44.2075917 9.0903162,44.2095583 C9.1615748,44.2115522 9.19409681,44.1652419 9.1625845,44.1067035 C9.0813002,43.9557065 10.063621,43.9590115 10.3096543,44.1105668 C10.4410648,44.1915152 10.5649589,44.1839829 10.6567335,44.0894555 C10.8215354,43.919735 11.3146808,43.8634722 11.2168986,44.0255483 C11.102952,44.2144161 11.4964544,44.1517377 11.6544085,43.9558585 C11.7668762,43.8163892 11.8830814,43.8025684 12.1071106,43.9020209 C12.4943524,44.0739274 12.6259423,44.0736158 12.3957284,43.9015224 C12.2604953,43.8003226 12.3225217,43.7721028 12.6432199,43.7889146 C12.8785904,43.8012523 13.4856616,43.7552137 13.9922665,43.6866056 C14.4988669,43.6179951 15.0607753,43.5579138 15.2409435,43.5530884 C15.7766411,43.5387566 15.6330544,43.0917973 14.918219,42.5485334 C14.5098149,42.2381522 14.3166815,42.007134 14.3633324,41.8848005 C14.4089023,41.7653034 14.4842205,41.7419713 14.5707189,41.8205617 C14.6454252,41.8884345 14.8177895,41.8989129 14.9537448,41.8438415 C15.0897047,41.7887726 15.4062261,41.7451891 15.6571262,41.7469862 C16.0102314,41.7495285 16.1631791,41.6721868 16.3340116,41.404756 C16.6115066,40.9703513 16.6515082,40.7242984 16.4983098,40.3941418 C16.4317938,40.2507992 16.4271248,40.1687691 16.4879368,40.2118516 C16.5487442,40.2549342 16.6764908,40.0716396 16.7718212,39.8045278 C16.8671493,39.5374184 17.0072377,39.2767298 17.0831239,39.2252152 C17.1590101,39.173708 17.0009265,39.123654 16.7318265,39.1139906 C16.370439,39.1010297 16.2913098,39.0641535 16.4290867,38.972966 C16.5705482,38.8793434 16.519157,38.8463604 16.2163942,38.8364578 C15.9968201,38.8293293 15.7228418,38.766768 15.607552,38.6975418 C15.4922599,38.6283181 14.892183,38.337089 14.2740441,38.0503714 C13.0343878,37.4753683 12.3133654,37.3322076 9.67780522,37.1377815 C7.65807397,36.988786 7.43117666,36.9554515 7.11463915,36.7612348 C6.79241144,36.5635262 5.1268503,36.2436535 4.06899747,36.1763166 C3.51450656,36.1410231 3.02155675,36.0199682 2.66850904,35.832404 C2.36886043,35.6732067 1.84969062,35.4951812 1.51479911,35.4367898 C0.848813393,35.3206675 -0.00371382902,34.9670741 1.21710755e-05,34.8085174 C0.00139217111,34.7534983 0.321572879,34.6046448 0.711714989,34.4777351 C1.3112445,34.2827133 1.81886142,34.25648 3.99048467,34.3083062 C5.72519072,34.3497038 6.71260144,34.3188992 7.02993245,34.2134847 C7.48818676,34.0612588 7.92714177,34.0964128 9.0459354,34.3749377 C9.33431861,34.4467311 10.1545377,34.5324825 10.8686394,34.5654954 C11.5827428,34.5985083 12.2718136,34.6900771 12.3999121,34.7689816 C12.5368748,34.8533521 12.817461,34.8760163 13.0810824,34.8240106 C13.3276309,34.7753723 13.5776846,34.749615 13.6367578,34.7667683 C13.8549979,34.8301471 17.5802643,34.8915718 17.9953315,34.838634 C18.6989959,34.7488922 19.5820326,34.6940227 20.798889,34.664427 C21.4299699,34.6490733 22.0074332,34.573576 22.0821418,34.4966356 C22.2149116,34.3599055 21.9908019,34.2840618 21.5881409,34.3294623 C21.5037516,34.3389836 21.4363202,34.2780998 21.4382936,34.1941829 C21.4403636,34.1102635 21.3625569,34.0721036 21.265605,34.1093812 C21.1686531,34.1466562 21.0234334,34.0865002 20.942892,33.9757193 C20.8252999,33.8139598 20.7758269,33.8076139 20.6917297,33.943504 C20.6063744,34.0814255 20.5874155,34.0804111 20.5892371,33.9380206 C20.5906171,33.8275936 20.5060829,33.7901042 20.3594096,33.8361304 C20.2048841,33.8846191 20.1015681,33.8301983 20.0501792,33.6732317 C20.0077327,33.5435853 20.0326992,33.4177648 20.1056506,33.3936301 C20.2942874,33.3312258 20.6096611,32.9894044 20.6130858,32.8436391 C20.6178698,32.6403522 20.1394123,32.1610679 20.0120659,32.2415726 C19.9469943,32.2827135 19.9270717,32.2290105 19.9677955,32.1222051 C20.0240788,31.9746078 19.9754545,31.9449074 19.7650229,31.9983737 C19.5451866,32.0542327 19.5049918,32.0246968 19.569746,31.854884 C19.6903902,31.5385108 19.4334572,31.4287443 19.2235063,31.7069676 C19.1084465,31.8594452 19.0662852,31.875275 19.1082602,31.7502371 C19.1822328,31.5298992 18.6183993,31.1589855 18.4098813,31.2908104 C18.3380361,31.3362309 18.3229389,31.3057154 18.3747602,31.2198195 C18.4247508,31.1369645 18.4073489,31.0675588 18.3360903,31.0655922 C18.2648294,31.0635982 18.2044222,31.1515081 18.2018508,31.2608882 C18.1952498,31.5415815 17.9531702,31.5031026 17.9493453,31.2207492 C17.9466773,31.0235466 17.9304163,31.0281028 17.8415351,31.2509407 C17.7839684,31.3952853 17.7529299,31.5462125 17.7725627,31.5863315 C17.7922047,31.6264505 17.7017595,31.6650192 17.5715956,31.672038 C17.285379,31.6874665 17.2711167,31.5822588 17.5327992,31.3857814 C17.6848476,31.2716208 17.5769937,31.2447194 17.0364868,31.2620023 C16.6285427,31.275038 16.3761108,31.2340192 16.4197004,31.1617771 C16.4606519,31.0938969 16.3838043,31.0673395 16.2470026,31.1021021 C16.1036804,31.1385198 16.0020526,31.099485 16.0041801,31.0088633 C16.0062501,30.9231344 15.9424205,30.8943562 15.8624587,30.9449063 C15.760318,31.0094815 15.7467434,30.9621044 15.8168198,30.7856417 C15.8716794,30.6474958 15.9310585,30.4535309 15.9487708,30.3546118 C16.0038765,30.0468401 16.3174286,29.9652288 16.6974622,30.1597446 C16.8970562,30.2619039 16.9914298,30.3484354 16.9071785,30.3520346 C16.6065386,30.3648958 16.7538513,30.6239145 17.0667111,30.6325509 C17.2968629,30.6389068 17.3677443,30.5866419 17.3213142,30.4448247 C17.2859264,30.3367357 17.3131722,30.2127721 17.3818479,30.1693506 C17.4616303,30.1189102 17.4511538,30.0123093 17.3528334,29.8741286 C17.2227454,29.6913025 17.2287599,29.6708767 17.3916988,29.7420694 C17.4977173,29.7883897 17.6634507,29.7686617 17.7599978,29.6982291 C17.8986418,29.5970842 17.8898466,29.584734 17.7181562,29.6394789 C17.5348991,29.6979126 17.5149052,29.6524647 17.5907845,29.3499771 C17.6402897,29.1526274 17.7260521,28.9604246 17.7813671,28.9228579 C17.9614065,28.8005892 17.7724891,28.2764377 17.5756574,28.352117 C17.4479982,28.4011989 17.4069547,28.3475308 17.4388948,28.1733263 C17.4722839,27.991238 17.4186548,27.9304563 17.2391628,27.9469391 C17.104208,27.9593267 17.0637303,27.9381905 17.1492144,27.8999583 C17.2346985,27.8617261 17.2770323,27.7791652 17.2432936,27.7164917 C17.2095549,27.6538183 17.2946066,27.5215846 17.4322938,27.4226406 C17.569981,27.323694 17.6472081,27.2023426 17.6039106,27.1529665 C17.5606085,27.1035904 17.6307263,27.0651912 17.7597218,27.0676339 C17.9522525,27.0712729 17.9624898,27.0490649 17.8168791,26.9435482 C17.7004807,26.8592076 17.6078781,26.8674328 17.5475238,26.967476 C17.4969376,27.0513256 17.4214585,27.0810534 17.3797917,27.0335392 C17.3034041,26.9464295 17.5435885,26.3907281 17.708832,26.2722655 C17.8439018,26.1754325 18.0127402,25.571903 17.8815597,25.6548378 C17.8195678,25.6940271 17.7072082,25.6128046 17.6318694,25.4743448 C17.5099671,25.250313 17.5314192,25.2262905 17.8267323,25.2561379 C18.0358851,25.2772742 18.1487116,25.2280925 18.1318894,25.1231067 C18.1172154,25.031493 18.1463104,24.9647419 18.1965861,24.9747691 C18.4479279,25.0249154 18.5950267,24.9505422 18.5992426,24.7711733 C18.6018186,24.6617957 18.6622212,24.5739108 18.7334821,24.5758798 C18.8047407,24.5778738 18.8332078,24.5240287 18.7967413,24.456288 C18.7602725,24.3885474 18.8003063,24.3048149 18.8857053,24.2702168 C18.9793751,24.2322688 18.9561359,24.2008161 18.8271197,24.1909359 C18.7095,24.1819381 18.6143421,24.1287784 18.6156577,24.0728247 C18.6170377,24.016871 18.4253833,23.975588 18.1899023,23.9810814 C17.9544214,23.9865649 17.7935341,23.9383952 17.8323788,23.8740119 C17.8712212,23.8096286 17.7863949,23.7537322 17.6438754,23.7497966 C17.5013582,23.7458584 17.4201797,23.6839203 17.4634772,23.6121492 C17.5067793,23.5403782 17.4780132,23.4798832 17.3995533,23.4777197 C17.3175537,23.4754765 17.291842,23.382158 17.3390794,23.2582841 C17.4077896,23.0780976 17.3900819,23.0694014 17.2310024,23.2052117 C17.0749428,23.3384423 17.0415928,23.331755 17.045443,23.167994 C17.048019,23.0581902 17.1609766,22.9401861 17.2964489,22.9057649 C17.4447138,22.8680911 17.5453871,22.731675 17.54935,22.5630761 C17.554893,22.3271876 17.5025427,22.2936936 17.2176762,22.3508737 C16.940103,22.4065906 16.9177056,22.3937892 17.0928322,22.2795164 C17.2911175,22.1501292 17.2881758,22.1165554 17.051285,21.8056582 C16.9110609,21.6216308 16.7145052,21.4687993 16.6144897,21.4660401 C16.2463379,21.4558708 16.5789294,21.3254193 17.0739584,21.2858162 C17.3720384,21.2619632 17.5541915,21.2957363 17.5112781,21.3668568 C17.470828,21.4339045 17.4927861,21.4902845 17.5600726,21.4921414 C17.6273614,21.4938861 17.7116909,21.4469951 17.7474697,21.3876889 C17.7832508,21.3283853 17.9938503,21.2960105 18.2154668,21.3157484 C18.4370857,21.3354889 18.683602,21.2991734 18.7632809,21.2350543 C18.8522863,21.1634254 18.9375381,21.1730613 18.9843615,21.260044 C19.0359597,21.3558899 19.1352392,21.3609247 19.2917588,21.275622 C19.418912,21.206331 19.6508302,21.158236 19.8071359,21.1687444 C20.2414127,21.1979413 21.7438762,21.0941867 21.8489747,21.0277447 C21.9308455,20.9759858 23.2706209,20.8284184 23.6806718,20.8259957 C23.895432,20.8247495 23.8867104,20.201143 23.6693558,20.0170657 C23.5704788,19.9333233 23.4812296,19.6990549 23.4710291,19.496466 C23.4595061,19.2676611 23.3949612,19.1502403 23.3006405,19.1865084 C23.2117317,19.2206903 23.1768959,19.1712046 23.2165916,19.0671111 C23.2608827,18.9509689 23.1577898,18.8555193 22.9192338,18.7917965 C22.5180977,18.6846472 22.2378403,18.3874187 22.3549357,18.1933317 C22.3971269,18.1234001 22.3222503,18.0966109 22.1832866,18.1319219 C22.0077,18.1765373 21.9383343,18.1293297 21.9421316,17.9678044 C21.9450526,17.8430931 21.8380842,17.7068142 21.7044059,17.6649604 C21.4329645,17.5799767 21.3929629,17.4167616 21.6099564,17.2795778 C21.6999209,17.2227019 21.7188016,17.2462683 21.6605817,17.3427672 C21.6095194,17.4274045 21.6133236,17.4893626 21.6690457,17.4804569 C21.9311698,17.4385309 22.0750371,17.5222234 22.0705268,17.7140174 C22.0641098,17.987343 22.3603361,17.8893959 22.4194921,17.598638 C22.4444885,17.475776 22.4192621,17.382617 22.3631467,17.3916149 C22.0243313,17.4460931 21.8345399,17.3372489 21.8403083,17.0917793 C21.8438273,16.9416372 21.9009133,16.8571869 21.9671418,16.9041104 C22.0333726,16.9510338 22.0904448,16.8665836 22.0939753,16.7164414 C22.0974943,16.5662968 22.1770835,16.445571 22.2708154,16.4481582 C22.364552,16.4507504 22.4762055,16.361178 22.5189372,16.2491161 C22.5616689,16.1370566 22.545585,16.0776433 22.4831929,16.1170868 C22.4208008,16.1565303 22.3477321,16.1128247 22.3208151,16.0199922 C22.2938982,15.9271497 22.2838932,15.9559927 22.2985741,16.0840888 C22.3132711,16.2121874 22.2753809,16.3156155 22.2143918,16.313933 C22.1534004,16.3121883 22.1051717,16.2398066 22.1072141,16.1529511 C22.1092841,16.0660931 22.0303251,16.1083133 21.9318115,16.2467706 C21.800332,16.4315558 21.7895956,16.52465 21.891435,16.5968073 C21.9710748,16.6532321 21.9224712,16.6833164 21.7773205,16.6674293 C21.5528428,16.6428534 21.4026965,16.2915256 21.6192277,16.2975051 C21.6668929,16.2987513 21.7431287,16.1218225 21.7886434,15.904179 C21.8543751,15.5898696 21.9349487,15.5102148 22.180315,15.5169894 C22.3502161,15.5216753 22.4906311,15.4658561 22.4923446,15.3929361 C22.4939546,15.320016 22.605569,15.2633943 22.7401466,15.2671106 C22.9992761,15.274264 23.0645593,15.4692658 22.8526718,15.6032193 C22.6264645,15.7462279 22.8348928,15.9017713 23.2194942,15.8769736 C23.7202341,15.8446909 23.8428977,15.6989854 23.3937974,15.6699306 C23.0439812,15.6472988 23.0430704,15.645255 23.3453479,15.5609617 L23.6534237,15.4750609 L23.3819662,15.3051957 C23.0691961,15.1094786 23.0278973,14.8770521 23.3072576,14.8847614 C23.4121629,14.8876527 23.4625651,14.9487509 23.419263,15.0205219 C23.3759632,15.0922954 23.398839,15.1526259 23.4700976,15.1545925 C23.5413562,15.1565865 23.6024649,15.0388466 23.6058942,14.8930065 C23.6096892,14.732376 23.6936875,14.630097 23.8190237,14.6335566 C23.9990217,14.6385416 23.9956223,14.6138411 23.7928796,14.4437018 C23.6067705,14.2875179 23.5467152,14.2822014 23.4946547,14.4172989 C23.4550625,14.5200415 23.3403316,14.5491487 23.2024627,14.4914278 C22.9891308,14.4021172 22.9882591,14.3832117 23.1879727,14.1775296 C23.304861,14.0571552 23.4791435,13.9608382 23.5752697,13.9634902 C23.7331762,13.9678521 23.8076479,13.8088691 23.7746613,13.5378267 C23.7679683,13.4829173 23.8483418,13.4403607 23.9532448,13.4432569 C24.0581478,13.4461482 24.11361,13.3921087 24.0764926,13.3231592 C23.9886464,13.1599764 24.2244976,13.0118233 24.3878597,13.1275667 C24.4741764,13.1887222 24.4674052,13.2749621 24.3664697,13.400142 C24.2603086,13.5317899 24.2574037,13.5843214 24.3561197,13.5870457 C24.4995891,13.5910088 24.5422219,13.4316046 24.5106613,13.0092062 C24.4859938,12.679052 24.7210515,12.540303 25.2829691,12.5533263 C25.5532237,12.5595824 25.7306411,12.5035788 25.7146492,12.4170448 C25.6972842,12.3231281 25.9523358,12.2754843 26.4216785,12.2849657 C26.825478,12.2931161 27.2261932,12.2431269 27.3121534,12.1738584 C27.3981136,12.1045948 27.6278537,12.0870701 27.8226844,12.1349183 C28.0748656,12.196854 28.2244277,12.1579738 28.3418105,11.999933 C28.4324995,11.8778412 28.4566794,11.8216757 28.3955454,11.8751194 C28.3344137,11.9285657 28.1349186,11.7141076 27.9522273,11.3985469 C27.7695337,11.0829888 27.6185548,10.8787872 27.6167125,10.9447732 C27.6148725,11.0107566 27.5057996,10.9536963 27.3743247,10.818018 C27.2428521,10.6823223 27.1384896,10.5060116 27.1424134,10.4262198 C27.1463234,10.346428 27.2032093,10.3871028 27.2687938,10.5166047 C27.3343783,10.6461066 27.4788988,10.7545719 27.5899451,10.7576376 C27.7391691,10.7617502 27.7569504,10.7234134 27.6580941,10.6106834 C27.5845286,10.5267964 27.5572782,10.3717865 27.5975328,10.2662224 C27.6573857,10.1092633 27.6888175,10.1070326 27.7700121,10.2539843 C27.8430969,10.3862628 27.8704117,10.3636959 27.8735121,10.1684648 C27.8788021,9.83682511 27.6008885,9.40218363 27.4647101,9.52907339 C27.4088477,9.5811189 27.405078,9.54926249 27.4563381,9.45828192 C27.5075913,9.36729885 27.5999662,9.3285956 27.66162,9.37227883 C27.7232715,9.41595958 27.7751181,9.39204421 27.7768316,9.31911669 C27.7784416,9.24619664 27.7281268,9.14981984 27.6647894,9.10494769 C27.5100638,8.99532086 27.6636394,8.61167057 27.9453687,8.40353089 C28.0709395,8.31079561 28.1397946,8.17197683 28.0983762,8.0950389 C28.0493586,8.00397857 28.1237153,7.99125196 28.3114252,8.05857639 C28.5469728,8.14305657 28.5725189,8.12935789 28.450934,7.98377202 C28.2700712,7.76720526 28.2645719,7.36631198 28.441665,7.3077262 C28.5632913,7.26749255 28.5966252,7.03909647 28.5587028,6.50586487 C28.5488358,6.36718816 28.4392431,6.26958008 28.2873258,6.26417389 C28.1408687,6.25893968 28.0892912,6.21522653 28.1660491,6.1613291 C28.3587799,6.02599481 28.4833433,5.62907206 28.3604198,5.54197727 C28.3027404,5.50110804 28.2290944,5.5419324 28.196761,5.63271109 C28.1644299,5.72348229 28.106647,5.76530364 28.0683566,5.72565075 C28.0300662,5.68599536 28.0494506,5.56950673 28.1114172,5.46677909 C28.206467,5.30923181 28.2626445,5.31979245 28.4704403,5.53426304 C28.711018,5.78256657 28.7171475,5.78261144 28.7323781,5.53625702 C28.7410261,5.39643876 28.7737459,5.35860039 28.8057849,5.45138802 C28.8375801,5.54347276 28.9199546,5.62037081 28.9888327,5.62227506 C29.0577131,5.62426905 29.084722,5.53608504 29.0488512,5.42652052 C29.0129804,5.31695601 29.0227278,5.23731373 29.0705172,5.24954434 C29.1183066,5.26178243 29.3150624,5.20635711 29.5077564,5.12640328 C29.7004504,5.04645193 29.9077471,5.01620567 29.9684188,5.0591935 C30.0290928,5.10218632 30.0803,5.07065892 30.0822159,4.98912734 C30.0840559,4.90760076 30.136144,4.87663665 30.1977979,4.9203174 C30.2594494,4.96400063 30.3436455,4.94379658 30.384896,4.87541783 C30.4261488,4.80704407 30.5551466,4.75423336 30.6715634,4.75806181 C31.009438,4.76917828 31.2200605,4.70192863 31.7841217,4.40285822 C32.0754075,4.24841906 32.3900314,4.12416386 32.4832849,4.1267361 C32.5765361,4.12930335 32.6768943,4.05937428 32.7062952,3.97131988 C32.7634709,3.8001113 33.9064697,3.74806081 33.9025022,3.91684918 C33.9013522,3.97064442 34.0526738,3.97318924 34.2390291,3.92248219 C34.606277,3.82258601 35.3840703,3.8647937 35.9470091,4.01516264 C36.2390562,4.09317483 36.3290299,4.05426968 36.4676118,3.79005165 C36.5597567,3.61437405 36.6038201,3.41243068 36.5655251,3.34129524 C36.466793,3.15788596 35.6412908,3.00986494 34.2928744,2.93378692 C33.6540677,2.89774563 33.0114523,2.79311872 32.8648411,2.70128323 C32.7182299,2.60944773 32.5545711,2.54097926 32.5011536,2.54913216 C32.4477338,2.55728258 32.2041615,2.5513754 31.9598831,2.53597186 C31.625562,2.51493531 31.501454,2.44199532 31.4579817,2.24107387 C31.4110686,2.02424789 31.4612477,1.97503632 31.7253153,1.97889967 C32.0358291,1.98343599 32.0400864,1.97473723 31.8202685,1.78475777 C31.6144576,1.60688678 31.7085552,1.59240297 32.7104904,1.64771862 C33.326688,1.68173851 33.8302385,1.74612181 33.8294956,1.79079207 C33.8288056,1.83546482 33.9799938,1.85706217 34.1655878,1.83878979 C34.9964559,1.75698903 36.2633189,1.67865032 36.7315184,1.68012587 C37.0128981,1.68112286 37.2173405,1.63385544 37.1858374,1.57533695 C37.1543366,1.51681846 37.2283621,1.46285373 37.3503426,1.45541866 C37.8326618,1.42601485 37.9484806,1.40485119 38.1620127,1.30709356 C38.2840254,1.25123455 38.4945329,0.98451157 38.629812,0.714378878 C38.8795069,0.215767851 39.2796724,-0.0670042163 39.3553608,0.201682836 C39.3843017,0.304420446 39.4523334,0.301172742 39.5815175,0.19089039 C39.6986427,0.0908970022 39.7953393,0.0817745186 39.8456472,0.165965571 C39.9293879,0.306115334 41.9033721,0.361777439 42.0336005,0.227694377 C42.0753938,0.184651707 42.173199,0.209673733 42.2509459,0.283301647 C42.4009818,0.425385576 43.1397809,0.423623391 43.3659491,0.280634692 C43.4400367,0.233798465 43.689336,0.257579234 43.9199478,0.333480292 C44.1505619,0.409386335 45.3545383,0.529765731 46.5954551,0.600990893 C47.8363695,0.672218547 49.5666756,0.779784094 50.4405768,0.840024889 C55.1505951,1.16471053 56.5890082,1.23851043 59.5194567,1.30582987 C61.8215705,1.35871286 62.7303074,1.42177763 62.7277981,1.52848327 C62.7252681,1.636156 62.7695707,1.63870331 62.8879011,1.53768053 C63.0531354,1.39661603 63.7905016,1.37953007 65.9122011,1.4676069 C66.5512331,1.49413438 67.1292461,1.51237187 67.1966798,1.50813216 C67.2641089,1.50389494 67.9262168,1.46022915 68.668022,1.41109984 C69.4098295,1.36197302 70.1077508,1.35515359 70.2189558,1.39594555 C70.3301631,1.43674249 70.4512328,1.42024725 70.4880006,1.35930856 C70.5247707,1.29836489 71.0126283,1.2479993 71.5721263,1.24738865 C72.1316266,1.24689015 72.9056387,1.19472749 73.292156,1.13171506 C73.6786734,1.06870761 74.6992179,1.00990747 75.560032,1.00104669 C76.4208507,0.992148534 77.5110646,0.972914052 77.9827348,0.958260751 C78.4544027,0.943604957 78.9419498,0.991998985 79.0661728,1.06579639 C79.1903935,1.13959379 79.2627584,1.14559818 79.2269773,1.07913117 C79.190129,1.01067764 79.6754405,0.977400519 80.3464126,1.00237269 C80.9978807,1.02662454 81.7251937,0.980488704 81.9626641,0.899856916 C82.2886638,0.789168289 82.4156008,0.79142897 82.4808656,0.909104023 C82.5399779,1.01567258 82.5689763,1.01880064 82.5726057,0.918974252 C82.5758257,0.82913025 82.9191398,0.770995603 83.4655945,0.767725467 C84.679753,0.760472345 88.3753425,0.848728635 89.1244342,0.902875311 C89.4605217,0.927177009 90.2318635,0.923587835 90.8385276,0.894949219 C92.302128,0.825810264 94.5734977,0.848177797 94.571522,0.931713326 C94.569084,1.03485721 95.1571043,1.00407506 96.1396091,0.849628421 C96.6324853,0.772152115 97.1837793,0.755292968 97.3647088,0.812173896 C97.7884355,0.945377112 98.6100392,1.00105417 98.6123714,0.896721373 C98.6132914,0.852494775 98.7655629,0.820653319 98.9506025,0.825959813 C102.372883,0.924121227 108.832544,0.853626362 109.050627,0.715752235 C109.103219,0.682507512 109.144996,0.708150166 109.143481,0.772750311 C109.141871,0.837345471 109.305817,0.868573776 109.507617,0.842148483 C109.709407,0.815720698 109.970492,0.840902242 110.087794,0.898199415 C110.357786,1.02996945 110.846143,1.08366499 110.787732,0.975159778 C110.763497,0.930133093 111.690462,0.931922695 112.847661,0.979147749 C114.004857,1.02636533 114.951406,1.07521548 114.951114,1.0877078 C114.951114,1.10019513 115.294419,1.13171256 115.714675,1.15773906 C116.134908,1.18376555 116.479627,1.16661229 116.480706,1.11958415 C116.481856,1.07257345 116.674532,1.08660363 116.909035,1.1507626 C117.143562,1.21492407 117.36032,1.22614772 117.390754,1.17570985 C117.421178,1.12526701 117.944822,1.10116221 118.554377,1.12214393 C119.215167,1.14487536 119.664677,1.10676531 119.667653,1.02775613 C119.670689,0.949611839 119.708128,0.955444246 119.759126,1.04196328 C119.866332,1.22383719 120.790835,1.24002835 120.917908,1.062277 C120.979911,0.975541127 121.010469,0.976386079 121.009604,1.06481934 C121.009604,1.13777428 121.214932,1.19617562 121.467493,1.19461782 C121.720067,1.19312233 122.052983,1.24703471 122.207313,1.31455854 C122.375119,1.38799453 122.579536,1.38739135 122.71594,1.31306305 C122.935776,1.19327188 123.449414,1.15642801 126.091921,1.07090099 C126.765736,1.04909177 127.868871,0.992771655 128.543296,0.945741014 C129.217718,0.898710374 130.733146,0.879119467 131.910919,0.902204834 C133.088694,0.92531014 134.273587,0.90544506 134.544028,0.858127784 C134.814469,0.810795554 136.302247,0.795962794 137.850198,0.825167204 C141.485693,0.893750335 144.221626,0.861966206 145.311395,0.738486162 C145.788714,0.684404291 146.814459,0.568102595 147.590857,0.480038226 C148.367228,0.391976349 149.66473,0.269450925 150.474167,0.207759507 C151.283603,0.146065596 152.194316,0.0725548281 152.497964,0.0443972605 C153.492769,-0.0478470007 154.504917,0.00482911097 155.323103,0.191431258 C155.839043,0.309098834 157.407972,0.40904985 159.699156,0.470202892 C161.663623,0.522642218 163.30891,0.59141727 163.355349,0.623046865 C163.401786,0.654681445 165.475873,0.775721349 167.964423,0.89202803 C170.45297,1.0083372 172.928839,1.1437338 173.46634,1.19291296 C176.484216,1.4690326 178.775354,1.58270722 183.798934,1.7055791 C184.505522,1.72285199 185.275886,1.76105426 185.510852,1.79045309 C186.019041,1.8540363 188.371396,2.03422778 190.582228,2.17892633 C195.3604,2.49165304 197.143169,2.59238171 200.363001,2.73155691 C202.313642,2.8158701 204.101557,2.92247355 204.336138,2.96845236 C204.57072,3.01443117 205.202581,3.08606011 205.740249,3.12762723 C206.735291,3.20455021 207.871321,3.38149399 208.017778,3.48236224 C208.062295,3.51302974 208.473903,3.57959645 208.932454,3.63028605 C209.391016,3.68097815 210.095189,3.78830192 210.497284,3.86877918 C210.899382,3.94926142 211.392971,4.04418011 211.59412,4.07971293 C211.79528,4.11524326 212.406521,4.2823891 212.952433,4.45114757 C213.498347,4.61990354 214.059701,4.76114751 214.199882,4.76501833 C214.340083,4.76888168 214.453599,4.82177214 214.452162,4.88253636 C214.450782,4.94330307 214.518377,4.99559284 214.60246,4.99873835 C215.428595,5.0296227 217.402924,5.28814541 217.712603,5.40597998 C217.928364,5.48807984 218.217099,5.73556584 218.354245,5.9559486 C218.625057,6.39115338 219.358182,6.83706337 220.034313,6.97786118 C220.880276,7.15400985 222.344663,7.34222214 222.651621,7.3142565 C222.824098,7.29855386 222.963708,7.35004106 222.961868,7.42869382 C222.959568,7.50734658 222.996644,7.5324035 223.043288,7.48438085 C223.089932,7.43635321 223.240099,7.51706725 223.376995,7.66373735 C223.513914,7.81041243 223.992958,8.15079572 224.44155,8.42014827 C225.095072,8.81254966 225.429446,8.92523476 226.124023,8.98714053 C227.041378,9.06890889 227.203505,9.18701266 227.100718,9.69860951 C227.035237,10.0246585 226.542117,10.2797441 226.005918,10.2649413 C225.851703,10.2606791 225.690082,10.3159225 225.646796,10.387696 C225.60351,10.459467 225.38133,10.5130354 225.153124,10.5067344 C224.508825,10.4889381 223.495974,10.73115 223.495445,10.9031338 C223.495445,11.1859582 224.419815,11.5570613 225.330569,11.6391911 C225.823942,11.6836819 226.969986,11.7758339 227.877359,11.8439759 C229.709999,11.9816033 229.901865,12.0229834 229.992623,12.3001424 C230.126414,12.7087824 228.413788,14.0387806 227.01824,14.6100076 C226.567969,14.7943167 226.339418,14.9828181 226.182259,15.299468 C225.912561,15.8428939 226.029654,16.1081363 226.755626,16.5984299 C227.03733,16.7886686 227.265651,17.0355564 227.263029,17.1470725 C227.260499,17.2585862 227.338745,17.4415966 227.437116,17.5537608 C227.716037,17.8718339 227.63993,18.1909912 227.225539,18.4410619 C227.016699,18.5670918 226.604056,18.9054412 226.308552,19.1929415 C225.858718,19.6305939 225.673453,19.720919 225.170167,19.7479001 C224.727348,19.7716285 224.513402,19.8558395 224.357646,20.067673 C224.241358,20.225826 224.171599,20.4023685 224.202603,20.4599897 C224.233653,20.5176134 224.202626,20.5632009 224.133741,20.5612991 C224.064856,20.5593051 223.940886,20.6903 223.858247,20.8521942 C223.775654,21.0140908 223.750561,21.1057892 223.802541,21.0559745 C223.931893,20.9319785 224.260793,21.3262891 224.163089,21.4882406 C224.117618,21.5636233 224.178039,21.5926657 224.306701,21.5573696 C224.428808,21.5238906 224.306701,21.6091534 224.033139,21.7468606 C223.760589,21.8845577 223.362183,21.9939453 223.147846,21.9899424 C222.933486,21.9859295 222.615534,22.0369481 222.441263,22.1032979 C222.20825,22.1920153 222.124438,22.1809238 222.124484,22.0613893 C222.124507,21.9719865 222.067237,21.9994761 221.997133,22.1224751 C221.756392,22.5449508 221.977353,23.0145069 222.582736,23.368387 C222.896571,23.5517564 223.235637,23.8457671 223.336239,24.0217438 C223.436818,24.1977205 223.734231,24.4180683 223.997144,24.5114093 C224.977013,24.8592551 225.114001,25.550687 224.25111,25.7932778 C223.714796,25.9440555 223.450664,26.3656463 223.601314,26.8303845 C223.679721,27.0722001 223.67542,27.1820039 223.587514,27.1795812 C223.361516,27.17335 223.137772,27.4977814 223.143085,27.8240747 C223.148375,28.1467589 223.138715,28.1519781 222.10199,28.3817102 C221.932779,28.4192096 221.625499,28.6016468 221.419143,28.7871223 C221.212764,28.9725979 220.890534,29.2055776 220.703038,29.3048582 C220.515519,29.4041362 220.360108,29.5712272 220.357647,29.6761707 C220.351897,29.9223706 219.907514,30.1650984 219.378422,30.2110947 C218.799949,30.2613805 218.561002,30.4178286 218.528411,30.7676484 C218.501248,31.0592414 218.971115,31.6954947 219.218641,31.7023266 C219.369912,31.706514 220.04671,32.4877127 220.042823,32.6536571 C220.037533,32.8805328 219.592874,33.0241346 218.737458,33.0752804 C218.270997,33.1031687 217.612564,33.1818265 217.274303,33.2500781 C216.714161,33.3630922 214.71516,33.6752756 214.259518,33.7208955 C214.068947,33.739963 213.974668,34.2109099 214.160386,34.216037 C214.215618,34.2175325 214.203129,34.3287669 214.132646,34.4631641 C214.062153,34.5975562 214.041927,34.7502282 214.087713,34.8024307 C214.2411,34.9773531 214.146011,36.6602419 213.972198,36.846869 C213.881456,36.9442927 213.55357,37.0355125 213.243553,37.0495801 C212.743237,37.0722866 212.408432,37.2713935 212.518032,37.4810461 C212.539238,37.5215988 212.477982,37.6295856 212.381895,37.7210223 C212.285831,37.812454 212.20825,37.8431464 212.209508,37.7892291 C212.210658,37.7353092 212.145404,37.759581 212.064253,37.8431639 C211.956542,37.9540843 211.873885,37.9546077 211.758268,37.8451579 C211.642583,37.7356158 211.499709,37.736867 211.228829,37.8497939 C210.604381,38.1101137 210.798175,38.5147955 211.637157,38.7024694 C212.575541,38.9123788 212.784227,39.0078234 212.636792,39.1596579 C212.596779,39.2008711 211.725845,39.2306712 210.701368,39.2258806 C208.522647,39.2156864 208.27105,39.3169983 208.070598,40.2851406 C208.005763,40.5982586 207.81708,41.074714 207.65125,41.3439244 C207.377306,41.7886829 207.160571,42.3691296 207.140388,42.7120004 C207.13611,42.7848506 206.947022,42.8585384 206.720222,42.8757539 C206.437361,42.8972391 206.286738,42.9863379 206.240559,43.1595205 C206.203543,43.2983767 206.125232,43.3779616 206.066532,43.3363721 C206.007829,43.2947825 205.95837,43.3214172 205.956629,43.395571 C205.955019,43.4697198 205.700744,43.6816506 205.391873,43.8665279 C204.51557,44.3910284 204.384981,44.8349693 205.023569,45.1184567 C205.322266,45.2510493 205.334394,45.351105 205.119208,45.9065521 C204.961419,46.3138086 205.35809,46.5880988 206.66918,46.9783267 C207.93838,47.3560898 208.291892,47.6048719 207.920132,47.8586639 C207.689278,48.016271 206.031549,47.8157782 203.424407,47.3149464 C202.243274,47.0880458 201.744282,47.1777602 201.470058,47.6663265 C201.196707,48.1533101 200.914766,48.2918697 200.101118,48.3390947 C199.426797,48.3782342 198.792151,48.7223786 198.78438,49.053131 C198.77955,49.2559841 199.318412,49.462394 199.942736,49.496885 C200.412136,49.5228167 200.96308,49.8874419 200.688315,49.9903216 C200.602189,50.0225693 200.44805,50.1351298 200.345776,50.2404521 C200.243511,50.3457769 200.160663,50.3963269 200.161684,50.3527858 C200.165502,50.192422 199.411905,50.6747995 199.259183,50.9305132 C199.068915,51.2490922 198.425308,51.677657 198.171793,51.6545791 C197.541639,51.5972147 196.703059,51.6638512 196.700522,51.7714741 C196.695577,51.9770515 197.327116,52.5833178 197.45914,52.499857 C197.525601,52.4578388 197.541515,52.4871952 197.49454,52.5651002 C197.447528,52.6430002 197.465047,52.7463834 197.533419,52.7948397 C197.6018,52.8432961 197.623241,52.9401739 197.581024,53.0101329 C197.538831,53.0800893 197.570582,53.2286213 197.651777,53.3402097 C197.882382,53.6574105 197.647499,53.7777176 196.711719,53.8217921 C196.240881,53.8439752 195.606506,53.9142308 195.302026,53.9779287 C194.997522,54.041629 193.974617,54.2012002 193.028889,54.3325316 C192.083136,54.4638579 191.000216,54.6766386 190.622379,54.8053753 C190.236197,54.9369559 189.603518,55.0302769 189.177365,55.0185124 C188.760434,55.0069972 188.018033,55.1078205 187.527554,55.2425492 C186.685505,55.4738565 186.397161,55.4770169 182.355452,55.2992157 C180.001252,55.1956531 177.607771,55.0717219 177.036577,55.0238189 C175.548013,54.8989805 173.71839,54.7049657 173.467242,54.6453281 C173.348895,54.6172253 171.917877,54.5166637 170.287144,54.4218546 C167.955453,54.286291 166.96844,54.2839631 165.665727,54.4109625 C164.754655,54.4997796 163.080497,54.5830285 161.945343,54.5959645 C160.810213,54.6089005 159.680135,54.6404353 159.434054,54.6660456 C158.58476,54.754434 155.671969,54.8841153 153.962712,54.9096358 C153.019724,54.9237184 151.31095,54.9656893 150.165444,55.0029045 C149.019925,55.0401198 146.70546,55.0690849 145.022203,55.0672704 C143.338948,55.0655256 141.796117,55.0790598 141.593675,55.0974643 C141.391245,55.1158837 140.007933,55.1356416 138.519626,55.1413619 C137.031331,55.1470946 135.653578,55.1683654 135.457965,55.1886492 C135.081678,55.227669 134.154771,55.2710407 130.874576,55.4031223 C128.299944,55.5067946 126.36653,55.6446887 124.770141,55.8384991 C124.075976,55.9227749 123.297669,55.9859219 123.040594,55.9788258 C122.783527,55.9717222 122.412259,56.0175465 122.21557,56.0806437 C122.018879,56.1437384 121.509902,56.216808 121.084515,56.2430239 C120.659116,56.2692348 119.77475,56.3941929 119.119239,56.5207038 C118.463706,56.6472172 117.59631,56.773429 117.191664,56.8011803 C116.787018,56.8289291 116.041675,56.8982077 115.53536,56.9551359 C115.029024,57.0120617 114.283725,57.0794834 113.879137,57.1049665 C113.474546,57.1304521 112.544383,57.2267068 111.812111,57.3188713 C111.079841,57.4110358 110.030825,57.509419 109.48096,57.5375018 C108.931094,57.5655821 108.164614,57.6246166 107.777678,57.6686911 C107.390733,57.7127632 106.398419,57.742152 105.572542,57.7339991 C104.746662,57.7258487 103.656755,57.7622664 103.150527,57.814935 C102.151179,57.9189064 100.024599,57.9852862 98.3725642,57.9640801 C97.8004139,57.9567273 97.0833659,57.9941694 96.7791218,58.0472692 C96.4748801,58.1003641 94.3808957,58.1246134 92.1258215,58.1011517 C89.8707497,58.0776974 87.9068371,58.0816106 87.7615737,58.1098504 C87.616308,58.1380952 86.4310766,58.1721176 85.127724,58.1854549 C83.8243715,58.1987897 82.4822801,58.220903 82.1452979,58.2345842 C81.8083157,58.2482679 80.5682982,58.2693169 79.3897046,58.2813606 C78.211111,58.2933993 76.7779303,58.3292512 76.20486,58.3610178 C75.631792,58.392787 75.1082384,58.4012988 75.0414096,58.3799358 C74.9745785,58.3585752 74.1200986,58.3835997 73.1425617,58.4355131 C72.1650249,58.487444 70.8139106,58.5475801 70.1400842,58.56915 C69.4662555,58.59071 68.7216787,58.6274691 68.4854664,58.6508187 C68.2492564,58.6741733 67.3120754,58.7110819 66.402844,58.7328488 C65.4936125,58.7546081 64.7215186,58.7901958 64.6870784,58.8119203 C64.6526382,58.8336547 63.9353786,58.8709248 63.0931669,58.8947629 C62.2509552,58.918591 61.4512014,58.9590066 61.3159384,58.9845496 C61.06821,59.0313335 52.3980631,58.9641361 48.6475749,58.8863607 C47.5371372,58.8633302 45.6936917,58.7754204 44.551031,58.6909975 L44.5511138,58.6906909 Z M19.1428437,41.2148579 C19.1981471,41.212595 19.153833,41.1060445 19.0443835,40.9781184 C18.8740189,40.7789988 18.7338429,40.7473232 18.0704579,40.7580256 C17.6442495,40.7648979 17.2765746,40.8236459 17.2533989,40.8885665 C17.1927155,41.0585541 17.9571527,41.2679089 18.5422545,41.2415384 C18.8172746,41.2291347 19.0875381,41.2171375 19.1428437,41.2148579 Z M23.1162729,33.9534781 C23.1169235,33.9221523 23.0656631,33.8950438 23.0022225,33.893235 C22.9387819,33.8915354 22.8854767,33.951492 22.8837636,34.0267182 C22.8820289,34.101942 22.9333759,34.1290505 22.997814,34.0869614 C23.0622543,34.0448699 23.1155595,33.9848015 23.1162729,33.9534781 Z M16.4079426,30.0529019 C16.408448,30.024985 16.3468704,29.9652347 16.2711282,29.9201252 C16.1921616,29.8730928 16.1558084,29.8934223 16.1859081,29.9677841 C16.2363653,30.0924368 16.4060946,30.1575019 16.4079426,30.0529019 Z M18.2147215,25.9414656 C18.0956401,25.8457782 18.0810704,25.856431 18.1437099,25.9933841 C18.1870541,26.0881554 18.2544773,26.1423301 18.2935331,26.1137747 C18.3325913,26.0852194 18.2971145,26.0076797 18.2147215,25.9414656 Z M19.173057,24.9414656 C19.0539732,24.8457782 19.0394011,24.856431 19.102043,24.9933842 C19.1453895,25.0881537 19.2128105,25.1423303 19.2518686,25.1137749 C19.2909244,25.0852195 19.25545,25.0076798 19.173057,24.9414656 Z M18.2916251,24.0022799 C18.2513088,23.9350067 18.1937762,23.8793521 18.1637739,23.8786072 C18.1337693,23.877928 18.1078042,23.9314455 18.1060716,23.9976796 C18.1044437,24.0639137 18.1618716,24.1195661 18.2339251,24.1213546 C18.3059762,24.1231658 18.3319414,24.0695577 18.2916251,24.0022799 Z M23.0731357,17.9762613 C23.0059972,17.9365784 22.9248681,17.9383265 22.8928507,17.9801461 C22.8608315,18.0219706 22.9157637,18.0544376 23.0149197,18.0522961 C23.1244961,18.0498681 23.1473296,18.0201107 23.0731357,17.9762589 L23.0731357,17.9762613 Z M22.8941919,17.8651128 C22.7030744,17.7249176 22.4005636,17.2987384 22.404301,17.1749476 C22.4055004,17.1372781 22.4920348,17.1696434 22.5967378,17.2468571 C22.8447621,17.4297769 22.9953255,17.3071866 22.7912065,17.0885165 C22.6117615,16.896282 22.2807434,17.0383661 22.2725083,17.3111586 C22.2699416,17.3962434 22.2230546,17.4411484 22.1683211,17.4109472 C22.1135852,17.380746 22.0576259,17.4494164 22.0439671,17.5635484 C22.0273434,17.7025694 22.1007492,17.7728168 22.266401,17.7763779 C22.4023987,17.7793134 22.5122064,17.8301541 22.5104169,17.8893823 C22.5087377,17.9486104 22.6364068,17.9983053 22.7943681,17.9998156 C23.0408092,18.0021842 23.0549741,17.9830529 22.8941919,17.8651128 Z M22.8837283,17.0465201 C22.8843788,17.0151967 22.9377474,16.9551284 23.0021861,16.9130369 C23.0666248,16.8709454 23.1179484,16.8980562 23.1162375,16.97328 C23.1145027,17.0485038 23.0612187,17.1085721 22.9977775,17.1067633 C22.9343385,17.1050637 22.8830148,17.0778436 22.8837283,17.0465201 Z M25.0302167,13.9408828 C25.0396931,13.768314 25.0236873,13.7052796 24.9946363,13.8008024 C24.965589,13.8963278 24.90084,13.9379692 24.8507504,13.893338 C24.8006607,13.8487068 24.7853118,13.9106624 24.8166414,14.0309983 C24.8996092,14.3496849 25.01033,14.3029669 25.0302167,13.9408828 Z M24.0357919,14.0237251 C24.134928,13.8600742 24.0273269,13.8218795 23.9022668,13.9763313 C23.8303487,14.0651543 23.8223443,14.1197513 23.8810043,14.121365 C23.9327443,14.1228009 24.002399,14.078848 24.0357919,14.0237251 Z M28.0249268,10.0534223 C28.0258081,10.0255053 27.9220461,9.96699093 27.7943889,9.9233892 C27.6667347,9.87978747 27.560552,9.9003962 27.558431,9.96921011 C27.5563746,10.0380143 27.6600515,10.0965287 27.7889689,10.0992456 C27.9178863,10.101965 28.0240661,10.0813271 28.0249268,10.0534223 Z M7.55042092,44.031422 C7.55193837,43.9832497 7.60589033,43.9190152 7.67031054,43.8886811 C7.73472859,43.8583435 7.78537467,43.8988304 7.78285569,43.9786388 C7.78034106,44.0584506 7.72638693,44.1226833 7.66296607,44.1213797 C7.59954521,44.1201548 7.5489013,44.0795961 7.55042092,44.031422 Z M12.2810852,33.9984285 C12.3704881,33.9252904 12.5314454,33.8928064 12.6387644,33.9262373 C12.750176,33.9609429 12.6804352,34.0179932 12.4762106,34.0592155 C12.224993,34.1099191 12.1669151,34.0918258 12.2810852,33.9984285 Z M14.49336,33.0991597 C14.3464454,32.9984537 14.3367992,32.9497274 14.461632,32.9388822 C14.7762815,32.9115573 14.8529238,32.8907417 15.0283573,32.7849628 C15.1227963,32.7280182 15.2447374,32.7582885 15.2993355,32.852218 C15.3613336,32.9588825 15.3375597,32.9829487 15.2360139,32.9163144 C15.1396677,32.8530954 15.0711061,32.9008444 15.0677383,33.0335109 C15.0613362,33.2861142 14.8082893,33.3150347 14.49336,33.0991597 Z M13.2643224,32.9712063 C13.3873188,32.8759492 13.5031647,32.8712535 13.6036754,32.9574396 C13.7041862,33.0436282 13.6404385,33.0930012 13.4169283,33.1020625 C13.1613416,33.11243 13.1236728,33.0801135 13.2643224,32.9712014 L13.2643224,32.9712063 Z M17.1338137,30.9749375 C17.1363682,30.8956967 17.1903474,30.8576226 17.2537607,30.8903318 C17.3171717,30.9230392 17.3677905,30.9889337 17.3662446,31.0367614 C17.3647031,31.084589 17.310726,31.1226615 17.246302,31.1213671 C17.1818735,31.120151 17.131257,31.0541784 17.1338137,30.9749375 Z M17.2011364,29.0340878 C17.3643176,28.6860823 17.3808277,28.6763173 17.3581409,28.9412256 C17.3470899,29.0701374 17.2811626,29.1994194 17.2116133,29.2285154 C17.110662,29.2707505 17.1085487,29.2315405 17.2011364,29.0340878 Z M18.0126696,24.0894822 C17.9333094,24.0244394 17.9791072,23.9699058 18.1544465,23.9206547 C18.4722705,23.8313765 18.5330501,23.8875577 18.3027807,24.0577667 C18.207695,24.1280519 18.0771443,24.1423258 18.0126696,24.0894822 Z M20.9761832,15.9801448 C21.0082023,15.9383203 21.0893296,15.9365722 21.1564699,15.97626 C21.2306619,16.0201118 21.2078302,16.0499347 21.0982538,16.0522972 C20.9990979,16.0544824 20.9441658,16.0219717 20.9761832,15.9801496 L20.9761832,15.9801448 Z M20.976184,14.9801427 C21.0082016,14.9383206 21.0893309,14.9365725 21.1564697,14.9762579 C21.230662,15.0201097 21.2078302,15.049935 21.0982534,15.0522975 C20.9990971,15.0544827 20.9441647,15.0219695 20.976184,14.9801451 L20.976184,14.9801427 Z M22.9499101,13.0155775 C22.9478171,12.9120554 22.9789589,12.8547045 23.0190171,12.8881317 C23.0590752,12.9215608 23.0607519,13.0062621 23.022738,13.0763569 C22.9807357,13.1538159 22.9521682,13.1299788 22.9499054,13.0155775 L22.9499101,13.0155775 Z M27.742375,6.0010303 C27.6634158,5.92636475 27.6533215,5.87750431 27.717084,5.87861952 C27.7754494,5.87977878 27.8469584,5.93684445 27.8759871,6.00574152 C27.9415162,6.16126537 27.9106807,6.1601803 27.742375,6.00103493 L27.742375,6.0010303 Z" id="path2987"></path>
            </g>
        </g>
    </g>
</svg>