<?xml version="1.0" encoding="UTF-8"?>
<svg id="stroke" width="165px" height="43px" viewBox="0 0 165 43" version="1.1" xmlns="http://www.w3.org/2000/svg" xmlns:xlink="http://www.w3.org/1999/xlink">
    <!-- Generator: Sketch 52.2 (67145) - http://www.bohemiancoding.com/sketch -->
    <title>brush-stroke-banner-7</title>
    <desc>Created with Sketch.</desc>
    <defs>
        <filter x="-6.6%" y="-26.2%" width="113.1%" height="152.5%" filterUnits="objectBoundingBox" id="filter-1">
            <feOffset dx="5" dy="3" in="SourceAlpha" result="shadowOffsetOuter1"></feOffset>
            <feColorMatrix values="0 0 0 0 0.521568627   0 0 0 0 0.925490196   0 0 0 0 0.921568627  0 0 0 1 0" type="matrix" in="shadowOffsetOuter1" result="shadowMatrixOuter1"></feColorMatrix>
            <feMerge>
                <feMergeNode in="shadowMatrixOuter1"></feMergeNode>
                <feMergeNode in="SourceGraphic"></feMergeNode>
            </feMerge>
        </filter>
    </defs>
    <g id="Page-1" stroke="none" stroke-width="1" fill="none" fill-rule="evenodd">
        <g id="Desktop-HD" transform="translate(-530.000000, -563.000000)" fill="#B2BEC3" fill-rule="nonzero">
            <g id="brush-stroke-banner-7" filter="url(#filter-1)" transform="translate(530.000000, 563.000000)">
                <path d="M30.9920792,39.7902989 C30.1971848,39.7330631 28.8579047,39.6485536 28.0159015,39.6025027 C25.0182102,39.4385531 23.1647606,39.3191455 22.9140438,39.2738195 C22.774135,39.2485263 22.2197094,39.1961166 21.6819877,39.1573573 C21.1442661,39.1185979 20.5708965,39.0571561 20.4078341,39.0208233 C20.2447717,38.9844905 19.8627125,38.9358103 19.5588133,38.9126445 C18.5564597,38.8362394 17.6354644,38.6889532 16.9059492,38.4883954 C16.6232052,38.4106655 16.3537044,38.3705796 16.3070628,38.3993166 C16.2604196,38.4280554 16.248306,38.4094893 16.2801428,38.3580597 C16.3193268,38.2947625 16.0362804,38.2529294 15.4040612,38.2285774 C14.8903796,38.208793 14.4134164,38.1678656 14.3441428,38.1376314 C14.2748692,38.1073972 14.1965667,37.9411309 14.1701395,37.7681526 C14.1154947,37.410484 14.0260019,37.3554264 13.2133827,37.1795366 C12.9105059,37.1139801 12.4347971,36.9757597 12.1562515,36.87238 C11.8777075,36.7690003 11.5492051,36.6612288 11.4262451,36.6328854 C11.0751763,36.5519617 11.0813955,36.3532526 11.4468227,35.9753147 C11.8310995,35.5778863 12.1340515,35.4123855 12.7506115,35.2630563 C13.1503875,35.1662348 13.6974387,34.7648049 13.7022643,34.5647305 C13.7038803,34.4975247 13.3374835,34.366922 12.8156739,34.2487057 C12.6759187,34.2170453 12.2177267,34.1594867 11.7974691,34.1207966 C11.3772099,34.0821082 10.8183235,33.9853881 10.5554947,33.9058636 C10.2633906,33.817481 9.67605783,33.7504696 9.04460662,33.7334818 C7.92319907,33.7033118 7.44366466,33.5629437 7.37288705,33.2441392 C7.34891105,33.1361463 7.13961505,32.9652651 6.84076064,32.8096785 C6.56982783,32.6686277 6.36862783,32.5201518 6.39365183,32.4797297 C6.41867423,32.4393058 6.38883583,32.4232711 6.32735743,32.4440982 C6.05121342,32.5376296 5.64005821,32.331367 5.49447901,32.0262737 C5.3358118,31.6937496 5.410535,31.3871169 5.64867261,31.3935247 C5.71724061,31.3953666 5.77437501,31.3665501 5.77564061,31.3294822 C5.77692061,31.2924144 6.03643262,31.2573743 6.35237023,31.2516154 C6.66830624,31.24587 6.94050304,31.2025853 6.95725344,31.155458 C6.97400384,31.1083307 7.05885345,31.0716869 7.14580865,31.0740273 C7.23276385,31.0763593 7.32855425,31.0384685 7.35867585,30.9898102 C7.38879906,30.9411519 7.45174146,30.9023705 7.49855106,30.9036295 C7.54536066,30.9048123 7.56416226,30.9374157 7.54033186,30.9759114 C7.51649986,31.0144072 7.60925346,31.0473451 7.74644706,31.0491093 C7.89376707,31.0510019 7.99705667,31.0040655 7.99873507,30.9344585 C8.00033507,30.8696371 8.03927219,30.8426304 8.08534579,30.8744446 C8.13141779,30.9062571 8.17004179,30.8937778 8.17117619,30.846713 C8.1745202,30.7080448 7.95298307,30.6514393 7.56119746,30.6908577 C7.35960705,30.7111372 7.02343745,30.6771026 6.81415264,30.6151454 C6.60486784,30.5532237 6.37647103,30.4892489 6.30660383,30.472981 C6.23673503,30.456708 6.11271102,30.4111826 6.03099102,30.3718048 C5.94927102,30.332427 5.80591581,30.3191518 5.71242621,30.3423023 C5.49501021,30.3961433 5.42376861,30.2718335 5.59188061,30.1319605 C5.66305181,30.0727442 5.72101821,30.0595991 5.72069501,30.1027486 C5.72037501,30.1458981 5.74921981,30.141513 5.78480221,30.0929983 C5.89424222,29.9437958 6.23813023,29.7809903 6.23575423,29.8795101 C6.23447423,29.9293665 6.27412703,29.9712486 6.32369823,29.9725819 C6.37326943,29.9739337 6.39589343,29.9425369 6.37397183,29.9028498 C6.31742623,29.800479 7.00077985,29.8027197 7.17193345,29.905469 C7.26334945,29.9603493 7.34953665,29.9552426 7.41337986,29.8911563 C7.52802466,29.7760915 7.87108227,29.7379472 7.80305987,29.8478293 C7.72379266,29.9758753 7.99753347,29.9333815 8.10741459,29.800582 C8.185653,29.7060266 8.2664914,29.6966565 8.4223378,29.764082 C8.69172341,29.8806287 8.78326421,29.8804175 8.62311541,29.763744 C8.5290402,29.695134 8.57218901,29.6760019 8.79528341,29.6873997 C8.95901942,29.6957643 9.38132983,29.6645517 9.73375063,29.6180377 C10.0861682,29.5715221 10.4770611,29.530789 10.6023955,29.5275175 C10.9750547,29.5178011 10.8751683,29.2147778 10.3778915,28.8464634 C10.0937842,28.6360354 9.95943064,28.4794129 9.99188344,28.3964749 C10.0235842,28.3154599 10.0759794,28.2996416 10.1361522,28.3529232 C10.1881218,28.3989387 10.3080274,28.4060427 10.4026051,28.3687061 C10.4971859,28.3313713 10.7173747,28.3018231 10.8919139,28.3030415 C11.1375523,28.3047651 11.2439507,28.25233 11.3627907,28.071021 C11.5558307,27.7765093 11.5836579,27.6096939 11.4770851,27.3858588 C11.4308131,27.2886774 11.4275651,27.2330638 11.4698691,27.2622723 C11.5121699,27.2914808 11.6010371,27.1672133 11.6673539,26.9861205 C11.7336691,26.8050295 11.8311219,26.6282914 11.8839123,26.5933662 C11.9367027,26.5584461 11.8267315,26.5245112 11.6395315,26.5179598 C11.3881315,26.5091727 11.3330851,26.4841718 11.4289299,26.4223498 C11.5273379,26.3588769 11.4915875,26.3365155 11.2809699,26.3298019 C11.1282227,26.324969 10.9376291,26.2825546 10.8574275,26.2356216 C10.7772243,26.1886902 10.3597795,25.9912468 9.92976984,25.7968619 C9.06740022,25.4070293 8.56581941,25.3099712 6.73238624,25.178157 C5.3273558,25.077143 5.1695142,25.0545434 4.94931419,24.9228711 C4.72515579,24.7888313 3.56650456,24.5719685 2.83060694,24.5263164 C2.44487413,24.5023885 2.10195252,24.4203174 1.85635411,24.2931552 C1.64790291,24.1852249 1.2867413,24.0645296 1.05377329,24.0249422 C0.590478882,23.9462153 -0.00258353323,23.7064909 8.4668351e-06,23.5989948 C0.00096846686,23.5616938 0.223702873,23.4607761 0.495106079,23.3747357 C0.91217009,23.2425175 1.2652949,23.2247322 2.77598934,23.2598686 C3.98274137,23.2879348 4.66963579,23.2670503 4.89038779,23.1955828 C5.2091734,23.0923789 5.51453341,23.1162121 6.29282463,23.3050425 C6.49343903,23.353716 7.06402625,23.4118525 7.56079266,23.4342342 C8.05756019,23.4566158 8.5369138,23.5186963 8.62602581,23.5721909 C8.72130421,23.6293913 8.91649461,23.6447568 9.09988342,23.6094987 C9.27139542,23.5765236 9.44534583,23.559061 9.48644023,23.5706904 C9.63825943,23.6136591 12.2297491,23.6553029 12.5184915,23.6194129 C13.0079971,23.558571 13.6222835,23.5213713 14.4687924,23.5013064 C14.9078052,23.4908971 15.3095188,23.4397126 15.36149,23.3875496 C15.4538516,23.2948512 15.2979492,23.2434317 15.0178372,23.2742118 C14.9591316,23.2806669 14.9122228,23.2393897 14.9135956,23.1824969 C14.9150356,23.1256024 14.8609092,23.0997313 14.7934644,23.1250042 C14.7260196,23.1502754 14.6249972,23.1094917 14.5689684,23.034386 C14.4871652,22.9247185 14.4527492,22.9204162 14.3942468,23.0125451 C14.3348692,23.1060512 14.3216804,23.1053634 14.3229476,23.0088275 C14.3239076,22.9339618 14.2651012,22.9085452 14.1630675,22.9397494 C14.0555715,22.9726231 13.9836995,22.9357276 13.9479507,22.8293097 C13.9184227,22.7414138 13.9357907,22.6561117 13.9865395,22.6397492 C14.1177651,22.5974413 14.3371556,22.3656979 14.339538,22.2668739 C14.342866,22.1290524 14.0100259,21.8041138 13.9214371,21.8586933 C13.8761699,21.8865854 13.8623107,21.8501766 13.8906403,21.7777662 C13.9297939,21.6777002 13.8959683,21.6575644 13.7495811,21.6938127 C13.5966515,21.7316832 13.5686899,21.7116588 13.6137363,21.5965315 C13.6976627,21.3820412 13.5189267,21.3076233 13.3728739,21.4962492 C13.2928323,21.5996239 13.2635027,21.6103559 13.2927027,21.5255845 C13.3441619,21.3762029 12.9519299,21.124736 12.8068739,21.2141087 C12.7568947,21.2449023 12.7463923,21.2242139 12.7824419,21.1659793 C12.8172179,21.1098064 12.8051123,21.0627517 12.7555411,21.0614185 C12.7059683,21.0600666 12.6639459,21.1196665 12.6621571,21.1938225 C12.6575651,21.384123 12.4891619,21.3580356 12.4865011,21.1666096 C12.4846451,21.0329129 12.4733331,21.0360019 12.4115027,21.1870784 C12.3714563,21.2849392 12.3498643,21.3872627 12.3635219,21.414462 C12.3771859,21.4416614 12.3142675,21.4678096 12.2237187,21.4725681 C12.0246115,21.4830281 12.0146899,21.4117009 12.1967299,21.2784959 C12.3025027,21.2010988 12.2274739,21.1828606 11.8514691,21.1945778 C11.5676819,21.2034156 11.3920771,21.1756062 11.4224003,21.1266285 C11.4508883,21.080608 11.3974291,21.062603 11.3022627,21.0861709 C11.2025603,21.1108609 11.1318627,21.0843966 11.1333427,21.0229582 C11.1347827,20.9648369 11.0903795,20.9453263 11.0347539,20.9795975 C10.9636995,21.0233773 10.9542563,20.9912572 11.0030051,20.8716215 C11.0411683,20.7779633 11.0824755,20.6464616 11.0947971,20.5793978 C11.1331315,20.3707391 11.3512547,20.3154093 11.6156259,20.4472845 C11.7544739,20.516545 11.8201251,20.5752104 11.7615155,20.5776505 C11.5523747,20.58637 11.6548531,20.7619759 11.8724947,20.7678311 C12.0326003,20.7721402 12.0819091,20.7367064 12.0496099,20.6405591 C12.0249923,20.5672784 12.0439459,20.4832353 12.0917203,20.453797 C12.1472211,20.4196002 12.1399331,20.3473283 12.0715363,20.2536465 C11.9810403,20.1296966 11.9852243,20.1158486 12.0985731,20.1641149 C12.1723251,20.1955184 12.2876179,20.1821435 12.3547811,20.1343926 C12.4512291,20.0658198 12.4451107,20.0574468 12.3256739,20.0945619 C12.1981907,20.134178 12.1842819,20.1033659 12.2370675,19.8982896 C12.2715059,19.7644931 12.3311667,19.6341862 12.3696467,19.6087172 C12.4948915,19.5258232 12.3634707,19.1704663 12.2265443,19.2217742 C12.1377379,19.2550501 12.1091859,19.2186649 12.1314051,19.1005602 C12.1546323,18.9771105 12.1173251,18.9359026 11.9924611,18.9470774 C11.8985795,18.9554758 11.8704211,18.9411461 11.9298883,18.915226 C11.9893555,18.8893059 12.0188051,18.8333323 11.9953347,18.7908418 C11.9718643,18.7483514 12.0310307,18.6587014 12.1268131,18.5916207 C12.2225955,18.5245383 12.2763187,18.4422661 12.2461987,18.4087908 C12.2160755,18.3753155 12.2648531,18.3492822 12.3545891,18.3509382 C12.4885235,18.3534054 12.4956451,18.3383491 12.3943507,18.2668123 C12.3133779,18.2096322 12.2489587,18.2152086 12.2069731,18.2830346 C12.1717827,18.3398817 12.1192755,18.3600362 12.0902899,18.3278232 C12.0371507,18.2687657 12.2042355,17.8920191 12.3191875,17.8117054 C12.4131491,17.746056 12.5306019,17.3368834 12.4393459,17.3931104 C12.3962211,17.4196794 12.3180579,17.3646133 12.2656483,17.2707422 C12.1808467,17.1188563 12.1957699,17.1025698 12.4012051,17.1228054 C12.5467027,17.137135 12.6251907,17.1037915 12.6134883,17.0326147 C12.6032803,16.9705038 12.6235203,16.9252487 12.6584947,16.9320469 C12.8333411,16.9660443 12.9356707,16.9156218 12.9386035,16.7940158 C12.9403955,16.7198615 12.9824147,16.6602785 13.0319875,16.6616134 C13.0815587,16.6629653 13.1013619,16.6264601 13.0759939,16.5805343 C13.0506243,16.5346084 13.0784739,16.4778406 13.1378819,16.4543843 C13.2030435,16.4286568 13.1868771,16.407333 13.0971267,16.4006345 C13.0153043,16.3945343 12.9491075,16.3584938 12.9500227,16.3205591 C12.9509827,16.2826244 12.8176579,16.2546359 12.6538451,16.2583603 C12.4900323,16.2620779 12.3781107,16.2294205 12.4051331,16.1857708 C12.4321539,16.1421211 12.3731443,16.1042252 12.2740003,16.101557 C12.1748579,16.0988871 12.1183859,16.0568951 12.1485059,16.0082368 C12.1786291,15.9595785 12.1586179,15.9185649 12.1040371,15.9170981 C12.0469939,15.9155773 12.0291075,15.8523105 12.0619683,15.7683282 C12.1097667,15.6461679 12.0974483,15.6402721 11.9867843,15.7323469 C11.8782211,15.8226728 11.8550211,15.818139 11.8576995,15.7071146 C11.8594915,15.6326713 11.9380707,15.5526685 12.0323123,15.5293322 C12.1354531,15.5037906 12.2054867,15.4113051 12.2082435,15.2970007 C12.2120995,15.1370763 12.1756819,15.1143686 11.9775139,15.1531347 C11.7844195,15.1909089 11.7688387,15.18223 11.8906659,15.1047569 C12.0286035,15.0170367 12.0265571,14.9942749 11.8617635,14.7834971 C11.7642163,14.6587327 11.6274819,14.5551182 11.5579059,14.5532475 C11.3018003,14.5463531 11.5331683,14.4579114 11.8775363,14.4310618 C12.0848963,14.4148903 12.2116115,14.4377873 12.1817587,14.4860046 C12.1536195,14.5314607 12.1688947,14.5696844 12.2157027,14.5709433 C12.2625123,14.5721262 12.3211763,14.5403356 12.3460659,14.5001281 C12.3709571,14.4599223 12.5174611,14.4379732 12.6716291,14.4513549 C12.8257987,14.4647382 12.9972883,14.4401176 13.0527171,14.396647 C13.1146339,14.348085 13.1739395,14.3546179 13.2065123,14.4135891 C13.2424067,14.4785694 13.3114707,14.4819828 13.4203539,14.4241505 C13.5088083,14.3771735 13.6701427,14.3445668 13.7788771,14.3516911 C14.0809827,14.3714856 15.1261748,14.3011436 15.1992868,14.2560981 C15.2562404,14.2210073 16.188258,14.1209616 16.4735108,14.1193191 C16.6229092,14.1184742 16.616842,13.6956901 16.4656388,13.570892 C16.3968548,13.5141175 16.3347684,13.3552915 16.3276724,13.217943 C16.3196564,13.0628211 16.2747556,12.9832138 16.2091412,13.0078023 C16.1472916,13.0309765 16.123058,12.9974268 16.1506724,12.926855 C16.1814836,12.8481145 16.1097668,12.7834029 15.9438148,12.740201 C15.6647636,12.6675574 15.469802,12.4660466 15.5512596,12.3344621 C15.58061,12.2870509 15.528522,12.2688887 15.4318516,12.2928284 C15.3097044,12.3230762 15.26145,12.291071 15.2640916,12.1815623 C15.2661236,12.0970123 15.1917108,12.0046198 15.0987172,11.9762443 C14.9098884,11.9186283 14.8820612,11.8079739 15.0330132,11.714968 C15.0955972,11.6764081 15.1087316,11.6923853 15.0682308,11.7578083 C15.0327092,11.8151895 15.0353556,11.857195 15.0741188,11.8511572 C15.256466,11.8227328 15.3565476,11.8794735 15.35341,12.0095033 C15.348946,12.1948088 15.5550164,12.128404 15.5961684,11.93128 C15.6135572,11.8479838 15.5960084,11.7848251 15.5569716,11.7909254 C15.321274,11.8278597 15.1892452,11.754067 15.193258,11.587647 C15.195706,11.4858557 15.235418,11.4286013 15.28149,11.4604138 C15.3275636,11.4922263 15.367266,11.4349719 15.369722,11.3331806 C15.37217,11.2313877 15.4275364,11.1495396 15.4927412,11.1512937 C15.5579492,11.1530511 15.6356212,11.0923241 15.6653476,11.0163499 C15.695074,10.9403773 15.6838852,10.9000971 15.640482,10.9268385 C15.5970788,10.9535799 15.5462484,10.9239489 15.5275236,10.8610116 C15.5087988,10.7980676 15.5018388,10.8176222 15.5120516,10.904467 C15.5222756,10.9913135 15.4959172,11.0614342 15.45349,11.0602936 C15.4110612,11.0591107 15.3775108,11.0100384 15.3789316,10.9511533 C15.3803716,10.8922665 15.3254436,10.9208903 15.2569124,11.0147597 C15.1654484,11.1400378 15.1579796,11.2031525 15.2288244,11.2520727 C15.284226,11.2903269 15.2504148,11.310723 15.1494404,11.2999521 C14.993282,11.2832904 14.8888324,11.0451021 15.0394628,11.049156 C15.0726212,11.0500009 15.1256548,10.9300492 15.1573172,10.7824942 C15.2030436,10.5694031 15.2590948,10.5153999 15.4297844,10.5199928 C15.5479764,10.5231697 15.6456564,10.4853262 15.6468484,10.4358889 C15.6479684,10.3864515 15.7256132,10.3480639 15.8192324,10.3505835 C15.9994964,10.3554332 16.0449108,10.4876379 15.8975108,10.5784538 C15.7401492,10.6754088 15.8851428,10.7808619 16.1526916,10.7640499 C16.5010324,10.7421633 16.5863636,10.6433799 16.273946,10.6236817 C16.0305956,10.6083382 16.029962,10.6069525 16.240242,10.5498046 L16.4545556,10.4915667 L16.2657156,10.3764039 C16.0481364,10.2437143 16.0194068,10.086137 16.2137444,10.0913637 C16.286722,10.0933238 16.3217844,10.1347464 16.2916612,10.1834047 C16.2615396,10.2320647 16.2774532,10.2729667 16.3270244,10.2743 C16.3765956,10.2756518 16.419106,10.1958282 16.4214916,10.0969536 C16.4241316,9.98805155 16.4825652,9.91870986 16.5697556,9.92105533 C16.6949716,9.92443496 16.6926068,9.90768886 16.5515684,9.79234018 C16.4221012,9.68645279 16.3803236,9.68284841 16.3441076,9.77443994 C16.3165652,9.84409593 16.2367524,9.86382963 16.1408436,9.82469682 C15.9924388,9.76414726 15.9918324,9.75132998 16.1307636,9.6118845 C16.2120772,9.53027473 16.3333172,9.46497508 16.4001876,9.46677305 C16.5100356,9.46973023 16.561842,9.36194517 16.5388948,9.17818758 C16.5342388,9.14096089 16.5901508,9.11210893 16.6631268,9.1140725 C16.7361028,9.11603269 16.7746852,9.07939574 16.7488644,9.0326503 C16.687754,8.9220179 16.8518244,8.82157511 16.9654676,8.90004519 C17.025514,8.94150657 17.0208036,8.99997428 16.9505876,9.08484202 C16.8767364,9.17409484 16.8747156,9.20970945 16.9433876,9.21155642 C17.0431924,9.21424323 17.07285,9.1061726 17.0508948,8.8198008 C17.0337348,8.59596748 17.1972532,8.50190037 17.5881524,8.51072967 C17.7761556,8.51497111 17.8995764,8.47700258 17.8884516,8.41833548 C17.8763716,8.35466313 18.0537988,8.32236225 18.3802981,8.32879032 C18.6612021,8.33431602 18.9399605,8.30042503 18.9997589,8.25346329 C19.0595573,8.20650493 19.2193765,8.19462382 19.3549109,8.22706326 C19.5303413,8.26905356 19.6343845,8.24269408 19.7160421,8.13554778 C19.7791301,8.05277372 19.7959509,8.01469536 19.7534229,8.05092844 C19.7108965,8.08716321 19.5721173,7.94176787 19.4450277,7.72782844 C19.3179365,7.51389069 19.2129077,7.37544896 19.2116261,7.4201852 C19.2103461,7.46491976 19.1344693,7.42623475 19.0430085,7.3342495 C18.9515493,7.24225242 18.8789493,7.12271975 18.8816789,7.0686236 C18.8843989,7.01452744 18.9239717,7.04210359 18.9695957,7.12990147 C19.0152197,7.21769936 19.1157557,7.29123518 19.1930053,7.29331365 C19.2968133,7.29610185 19.3091829,7.27011076 19.2404133,7.19368366 C19.1892373,7.13681114 19.1702805,7.03171966 19.1982837,6.96015078 C19.2399205,6.85373786 19.2617861,6.85222548 19.3182693,6.95185378 C19.3691109,7.04153412 19.3881125,7.02623451 19.3902693,6.89387442 C19.3939493,6.66903397 19.2006181,6.37436178 19.1058853,6.46038874 C19.0670245,6.49567383 19.0644021,6.47407627 19.1000613,6.41239452 C19.1357157,6.35071109 19.1999765,6.32447159 19.2428661,6.35408734 C19.2857541,6.38370141 19.3218213,6.3674876 19.3230133,6.31804521 C19.3241333,6.26860789 19.2891317,6.20326769 19.2450709,6.17284589 C19.1374357,6.09852262 19.2442709,5.83842073 19.4402565,5.69730908 C19.5276101,5.6344377 19.5755093,5.54032328 19.5466965,5.48816197 C19.5125973,5.42642615 19.5643237,5.41779794 19.6949045,5.46344162 C19.8587637,5.52071632 19.8765349,5.51142908 19.7919541,5.41272679 C19.6661365,5.26590187 19.6623109,4.99410982 19.7855061,4.95439064 C19.8701157,4.9271136 19.8933045,4.77226879 19.8669237,4.41075584 C19.8600597,4.31673774 19.7838213,4.25056277 19.6781397,4.24689755 C19.5762565,4.24334893 19.5403765,4.2137129 19.5937733,4.17717227 C19.7278469,4.08542021 19.8144997,3.81632004 19.7289877,3.75727272 C19.6888629,3.72956478 19.6376309,3.75724231 19.6151381,3.81878718 C19.5926469,3.88032698 19.5524501,3.90868044 19.5258133,3.88179712 C19.4991765,3.85491211 19.5126613,3.77593677 19.5557685,3.70629091 C19.6218901,3.59947919 19.6609701,3.60663895 19.8055237,3.75204274 C19.9728821,3.92038412 19.9771461,3.92041453 19.9877413,3.75339459 C19.9937573,3.65860255 20.0165189,3.63294942 20.0388069,3.69585628 C20.0609253,3.75828662 20.1182293,3.81042089 20.1661445,3.81171191 C20.2140613,3.81306376 20.2328501,3.75327799 20.2078965,3.67899697 C20.1829429,3.60471594 20.1897237,3.55072118 20.2229685,3.55901311 C20.2562133,3.56731012 20.3930869,3.52973363 20.5271349,3.47552764 C20.6611829,3.42132335 20.8053893,3.4008174 20.8475957,3.4299617 C20.8898037,3.45910937 20.9254261,3.43773486 20.9267589,3.38245922 C20.9280389,3.32718695 20.9642741,3.30619434 21.0071637,3.33580841 C21.0500517,3.36542416 21.1086229,3.35172649 21.1373189,3.30536802 C21.1660165,3.25901293 21.2557541,3.22320906 21.3367397,3.22580462 C21.5717829,3.23334121 21.7183029,3.18774822 22.1106934,2.98498863 C22.313327,2.88028411 22.5321958,2.79604329 22.5970678,2.79778718 C22.6619382,2.7995277 22.7317526,2.75211816 22.7522054,2.69242026 C22.7919798,2.57634665 23.5871094,2.54105817 23.5843494,2.65549097 C23.5835494,2.69196232 23.6888166,2.69368762 23.818455,2.65930996 C24.0739318,2.59158374 24.6150054,2.62019912 25.006615,2.72214416 C25.2097782,2.77503378 25.2723686,2.74865741 25.3687734,2.56952654 C25.4328742,2.45042308 25.463527,2.31351232 25.436887,2.26528491 C25.3682038,2.14093964 24.7939414,2.0405864 23.8559126,1.98900808 C23.4115254,1.96457331 22.9644886,1.89363981 22.8624982,1.83137846 C22.7605078,1.76911711 22.6466582,1.7226978 22.6094982,1.7282252 C22.5723366,1.7337509 22.402895,1.72974603 22.2329622,1.71930296 C22.0003909,1.70504089 21.9140549,1.65559005 21.8838133,1.51937211 C21.8511781,1.37237145 21.8860853,1.33900768 22.0697845,1.3416269 C22.2857942,1.34470236 22.2887558,1.3388049 22.135839,1.21000527 C21.9926661,1.08941477 22.0581253,1.07959523 22.7551238,1.11709737 C23.183783,1.1401617 23.534079,1.18381139 23.5335622,1.21409632 C23.5330822,1.24438293 23.6382566,1.2590252 23.7673654,1.24663714 C24.3453606,1.191179 25.2266566,1.13806801 25.5523606,1.13906839 C25.748103,1.13974431 25.8903238,1.1076986 25.8684086,1.06802505 C25.846495,1.0283515 25.897991,0.991765243 25.982847,0.986724516 C26.3183735,0.96678973 26.3989431,0.952441484 26.5474871,0.886165124 C26.6323655,0.848294608 26.7788055,0.667465471 26.8729127,0.484324663 C27.0466135,0.146283289 27.3249895,-0.0454265873 27.3776423,0.136734126 C27.3977751,0.206386743 27.4451015,0.20418491 27.5349687,0.129417213 C27.6164471,0.0616250862 27.6837143,0.0554403516 27.7187111,0.112519031 C27.7769655,0.207535819 29.1501719,0.24527284 29.2407655,0.154369069 C29.2698391,0.125187598 29.3378775,0.142151683 29.3919623,0.192068913 C29.4963351,0.288397 30.0102824,0.287202299 30.1676168,0.190260808 C30.219156,0.158507434 30.3925816,0.174629989 30.5530072,0.226088334 C30.7134344,0.277550057 31.5509832,0.359163208 32.4142296,0.407451453 C33.2774744,0.455741388 34.4811657,0.528667183 35.0890969,0.569508399 C38.3656314,0.789634258 39.3662666,0.839668086 41.4048394,0.885308386 C43.0063099,0.921161259 43.6384747,0.963917039 43.6367291,1.03625985 C43.6349691,1.1092583 43.6657883,1.1109853 43.7481051,1.04249528 C43.8630507,0.946858324 44.3760011,0.93527462 45.851966,0.994987727 C46.29651,1.01297246 46.698606,1.02533686 46.7455164,1.02246248 C46.7924236,1.01958979 47.2530204,0.989985865 47.7690588,0.956677858 C48.2850988,0.923371541 48.7706092,0.918748198 48.8479692,0.946403763 C48.9253308,0.974062708 49.0095532,0.962879491 49.0351308,0.921565125 C49.06071,0.88024738 49.4000892,0.846101224 49.7893053,0.845687218 C50.1785229,0.845349255 50.7169661,0.809984739 50.9858477,0.767264445 C51.2547293,0.72454753 51.9646733,0.684683029 52.5635005,0.678675725 C53.1623309,0.672643074 53.9207406,0.659602747 54.248859,0.649668306 C54.5769758,0.639732174 54.916139,0.672541685 55.002555,0.722573822 C55.0889694,0.77260596 55.1393102,0.776676732 55.114419,0.73161435 C55.0887854,0.685205183 55.4263934,0.66264442 55.8931566,0.679574708 C56.3463518,0.696016639 56.8523086,0.664738104 57.0175054,0.610072485 C57.2442878,0.535029348 57.3325918,0.536562013 57.3779934,0.616341711 C57.419115,0.688591578 57.4392879,0.6907123 57.4418127,0.623033391 C57.4440527,0.562122204 57.6828799,0.522708884 58.0630223,0.520491842 C58.9076543,0.515574471 61.4784992,0.575409244 61.9996064,0.612118855 C62.2334064,0.628594583 62.769992,0.626161244 63.1920192,0.606745233 C64.210176,0.559871366 65.7902593,0.575035794 65.7888849,0.631670052 C65.7871889,0.701598109 66.1962465,0.680728854 66.8797281,0.576019269 C67.2225985,0.523492959 67.6061073,0.512063029 67.7319713,0.55062637 C68.0267377,0.640933635 68.5982881,0.678680794 68.5999105,0.607946694 C68.6005505,0.57796256 68.7064785,0.556375132 68.8352017,0.559972755 C71.2159186,0.626522865 75.7095955,0.578729737 75.8613059,0.485255753 C75.8978915,0.462716957 75.9269539,0.480101807 75.9258995,0.523898516 C75.9247795,0.567691844 76.0388291,0.588863577 76.1792115,0.570948124 C76.3195875,0.553030982 76.5012115,0.570103215 76.5828131,0.608948756 C76.7706339,0.698284376 77.1103604,0.734688129 77.0697268,0.661125273 C77.0528675,0.630598707 77.6977124,0.631811996 78.5027204,0.663828982 C79.3077268,0.695840898 79.9661956,0.728959646 79.9659924,0.737429014 C79.9659924,0.745895004 80.2048132,0.767262755 80.4971652,0.784907837 C80.7895012,0.802552918 81.0293061,0.79092359 81.0300565,0.7590401 C81.0308565,0.727168438 81.1648917,0.736680425 81.3280245,0.780178036 C81.4911733,0.823677336 81.6419621,0.831286587 81.6631333,0.797091426 C81.6842981,0.762892885 82.0485717,0.746550653 82.4726101,0.760775543 C82.9322901,0.776186685 83.2449925,0.750349364 83.2470629,0.696783817 C83.2491749,0.643804636 83.2752197,0.647758811 83.3106965,0.706415781 C83.3852741,0.829720126 84.0284069,0.840697185 84.1168053,0.720187799 C84.1599381,0.661383815 84.1811957,0.661956664 84.1805941,0.721911414 C84.1805941,0.771372393 84.3234309,0.810966523 84.4991253,0.809910387 C84.6748293,0.808896496 84.9064229,0.845447264 85.013783,0.891226129 C85.1305174,0.941013243 85.2727206,0.940604307 85.3676102,0.890212238 C85.5205398,0.808997885 85.8778534,0.784018992 87.716119,0.72603457 C88.1848598,0.711248661 88.9522583,0.673065529 89.4214231,0.641180349 C89.8905863,0.609295169 90.9447975,0.596013198 91.7641175,0.611664294 C92.5834391,0.627328909 93.4077128,0.613861058 93.5958456,0.581781549 C93.7839784,0.549691901 94.8189544,0.539635793 95.8957896,0.559435393 C98.4248297,0.605932431 100.328087,0.584383869 101.086188,0.500668585 C101.418236,0.464002909 102.131798,0.385154302 102.6719,0.325449644 C103.211985,0.265746677 104.114595,0.182678593 104.677681,0.140853903 C105.240767,0.0990275225 105.874307,0.049189714 106.08554,0.0300998377 C106.777579,-0.0324386446 107.481681,0.00327397354 108.050854,0.129783904 C108.409769,0.209558532 109.501198,0.277321932 111.095065,0.318781622 C112.461651,0.354333707 113.606198,0.400960861 113.638504,0.422404654 C113.670808,0.443851827 115.113651,0.525912779 116.844816,0.604764766 C118.575979,0.683618443 120.298323,0.775412748 120.672237,0.808754551 C122.771629,0.995954303 124.365464,1.07302184 127.860128,1.15632481 C128.351667,1.16803525 128.887573,1.19393509 129.051027,1.2138665 C129.40455,1.25697376 131.040971,1.37913748 132.578941,1.47723819 C135.902887,1.6892563 137.143074,1.75754692 139.382957,1.85190299 C140.739925,1.90906447 141.983692,1.981338 142.146879,2.01251007 C142.310066,2.04368215 142.749621,2.09224415 143.123652,2.12042524 C143.815855,2.17257641 144.606136,2.2925383 144.70802,2.36092355 C144.738988,2.38171507 145.025324,2.42684505 145.344316,2.46121088 C145.663316,2.49557841 146.153175,2.56834029 146.432893,2.62290114 C146.712613,2.67746537 147.05598,2.74181703 147.195909,2.76590707 C147.335847,2.78999543 147.761058,2.90331464 148.140823,3.01772716 C148.520589,3.132138 148.911097,3.22789661 149.008613,3.2305209 C149.106145,3.23314012 149.185113,3.26899806 149.184113,3.31019414 C149.183153,3.35139191 149.230175,3.38684261 149.288668,3.38897516 C149.86337,3.40991369 151.236817,3.58518333 151.452245,3.66507117 C151.60234,3.7207321 151.803199,3.88851922 151.898605,4.03793125 C152.086996,4.33298534 152.596996,4.6352972 153.067348,4.73075334 C153.655844,4.85017617 154.674548,4.97777772 154.888084,4.95881796 C155.008068,4.94817211 155.105188,4.98307868 155.103908,5.03640259 C155.102308,5.08972649 155.1281,5.10671423 155.160548,5.07415651 C155.192996,5.0415954 155.29746,5.09631678 155.392692,5.19575414 C155.48794,5.29519487 155.821188,5.5259632 156.133252,5.7085751 C156.587876,5.97460994 156.820484,6.05100662 157.303668,6.09297663 C157.941828,6.14841281 158.054612,6.22848316 157.983108,6.57532848 C157.937556,6.79637867 157.594516,6.96931805 157.221508,6.95928222 C157.114228,6.95639263 157.001796,6.99384576 156.971684,7.04250577 C156.941572,7.09116408 156.787012,7.12748165 156.62826,7.12320979 C156.180052,7.11114449 155.47546,7.27535596 155.475092,7.3919551 C155.475092,7.58370046 156.118132,7.83529581 156.7517,7.89097701 C157.094916,7.92114026 157.892164,7.98361622 158.52338,8.02981416 C159.79826,8.12312085 159.931732,8.15117522 159.994868,8.33907962 C160.08794,8.61612363 158.896548,9.51781739 157.925732,9.90508992 C157.6125,10.0300452 157.453508,10.1578428 157.34418,10.3725207 C157.156564,10.740945 157.23802,10.9207704 157.743044,11.2531728 C157.939012,11.3821482 158.097844,11.5495298 158.09602,11.6251339 C158.09426,11.7007364 158.148692,11.8248113 158.217124,11.9008548 C158.411156,12.1164976 158.358212,12.3328754 158.06994,12.5024149 C157.92466,12.5878588 157.637604,12.8172483 157.432036,13.0121637 C157.119108,13.3088772 156.990228,13.3701146 156.640116,13.3884068 C156.332068,13.4044939 156.183236,13.4615861 156.074884,13.6052021 C155.993988,13.7124244 155.94546,13.8321142 155.967028,13.8711794 C155.988628,13.9102464 155.967044,13.9411531 155.919124,13.9398638 C155.871204,13.9385119 155.784964,14.027322 155.727476,14.1370808 C155.67002,14.2468412 155.652564,14.3090097 155.688724,14.275237 C155.778708,14.1911719 156.007508,14.4585011 155.93954,14.5682987 C155.907908,14.6194056 155.94994,14.6390954 156.039444,14.6151659 C156.124388,14.5924682 156.039444,14.6502735 155.84914,14.7436343 C155.65954,14.8369883 155.382388,14.9111493 155.233284,14.9084355 C155.084164,14.9057149 154.86298,14.9403038 154.741748,14.9852867 C154.579652,15.0454341 154.521348,15.0379144 154.52138,14.9568741 C154.521396,14.896262 154.481556,14.914899 154.432788,14.9982882 C154.265316,15.2847124 154.419028,15.6030555 154.840164,15.8429742 C155.058484,15.9672925 155.294356,16.1666217 155.36434,16.285928 C155.434308,16.4052342 155.641204,16.5546226 155.8241,16.6179046 C156.505748,16.8537323 156.601044,17.3224997 156.000772,17.486968 C155.627684,17.5891901 155.44394,17.8750144 155.54874,18.1900912 C155.603284,18.354034 155.600292,18.4284772 155.53914,18.4268347 C155.381924,18.4226102 155.226276,18.6425637 155.229972,18.8637795 C155.233652,19.0825484 155.226932,19.0860869 154.505732,19.2418374 C154.38802,19.2672607 154.17426,19.390947 154.030708,19.5166931 C153.88714,19.6424392 153.66298,19.8003916 153.532548,19.8677005 C153.4021,19.9350076 153.293988,20.0482896 153.292276,20.1194378 C153.288276,20.2863529 152.97914,20.4509142 152.611076,20.4820981 C152.20866,20.5161902 152.042436,20.6222567 152.019764,20.8594227 C152.000868,21.0571128 152.327732,21.488471 152.499924,21.4931028 C152.605156,21.4959417 153.075972,22.0255679 153.073268,22.1380726 C153.069588,22.2918866 152.76026,22.3892438 152.165188,22.4239189 C151.840693,22.4428263 151.382653,22.4961535 151.147341,22.5424258 C150.757677,22.6190456 149.367068,22.8306953 149.0501,22.8616241 C148.917529,22.8745512 148.851943,23.1938372 148.981138,23.1973132 C149.019561,23.1983271 149.010873,23.2737403 148.961841,23.364857 C148.912802,23.4559703 148.898732,23.5594767 148.930583,23.5948683 C149.037287,23.7134597 148.971138,24.8544013 148.850225,24.9809282 C148.7871,25.0469781 148.559005,25.108822 148.343341,25.1183594 C147.995295,25.1337536 147.762388,25.2687414 147.838631,25.4108787 C147.853383,25.4383721 147.81077,25.5115835 147.743927,25.5735744 C147.6771,25.635562 147.62313,25.6563705 147.624005,25.6198163 C147.624805,25.5832605 147.579412,25.5997159 147.522959,25.6563823 C147.448029,25.7315826 147.390529,25.7319374 147.3101,25.6577341 C147.229623,25.5834683 147.130233,25.5843166 146.941794,25.6608772 C146.507396,25.8373652 146.642209,26.1117258 147.225849,26.2389623 C147.878637,26.3812737 148.02381,26.445982 147.921247,26.5489206 C147.893412,26.5768618 147.287545,26.5970652 146.574865,26.5938174 C145.059232,26.586906 144.884208,26.6555921 144.744764,27.3119597 C144.699661,27.5242431 144.568404,27.8472637 144.453044,28.0297793 C144.262474,28.3313104 144.111701,28.7248336 144.097661,28.9572884 C144.094685,29.0066784 143.963146,29.0566362 143.805372,29.0683078 C143.608599,29.082874 143.503818,29.1432799 143.471693,29.2606919 C143.445943,29.3548316 143.391466,29.4087875 143.350631,29.3805912 C143.309794,29.3523949 143.275388,29.3704523 143.274176,29.4207261 C143.273056,29.4709965 143.09617,29.6146784 142.881303,29.7400189 C142.271701,30.0956125 142.180856,30.3965894 142.625092,30.5887842 C142.83288,30.6786775 142.841317,30.7465118 142.691623,31.1230861 C142.581856,31.3991923 142.857802,31.5851517 143.769864,31.849713 C144.652786,32.1058236 144.898708,32.2744894 144.640092,32.4465518 C144.479498,32.553404 143.326295,32.4174768 141.512631,32.0779298 C140.690973,31.9240988 140.343848,31.9849222 140.153084,32.3161536 C139.962927,32.6463119 139.766794,32.7402506 139.200778,32.7722676 C138.731685,32.7988028 138.290192,33.0321211 138.284786,33.25636 C138.281426,33.3938875 138.656287,33.5338264 139.090599,33.5572101 C139.417138,33.574791 139.800404,33.8219945 139.609263,33.8917434 C139.549349,33.9136063 139.442122,33.9899185 139.370975,34.0613235 C139.299834,34.1327301 139.2422,34.1670013 139.242911,34.1374819 C139.245567,34.0287607 138.721325,34.3557963 138.615084,34.5291615 C138.482724,34.7451473 138.034997,35.0356997 137.858639,35.0200537 C137.420271,34.9811625 136.836911,35.0263398 136.835146,35.0993044 C136.831706,35.238679 137.271037,35.649707 137.36288,35.5931234 C137.409114,35.5646364 137.420184,35.5845391 137.387506,35.6373561 C137.354802,35.6901697 137.366989,35.7602599 137.414552,35.7931117 C137.462122,35.8259634 137.477037,35.8916433 137.447669,35.9390731 C137.418317,35.9865012 137.440405,36.0872009 137.496888,36.1628541 C137.657309,36.3779054 137.493912,36.4594695 136.842935,36.4893506 C136.515395,36.50439 136.074091,36.5520209 135.862279,36.5952059 C135.65045,36.6383926 134.938864,36.7465764 134.280967,36.8356146 C133.623051,36.9246495 132.869715,37.0689075 132.606872,37.1561867 C132.338224,37.2453938 131.898099,37.3086623 131.601645,37.3006864 C131.311607,37.2928794 130.795154,37.3612343 130.453951,37.4525757 C129.868178,37.6093942 129.66759,37.6115369 126.855966,37.4909937 C125.218262,37.4207818 123.553232,37.3367606 123.15588,37.304284 C122.120357,37.2196478 120.847576,37.0881123 120.672864,37.04768 C120.590536,37.0286273 119.595045,36.9604499 118.460622,36.8961726 C116.838576,36.8042651 116.151958,36.8026868 115.245723,36.8887881 C114.611934,36.9490031 113.447302,37.005443 112.65763,37.0142132 C111.867974,37.0229834 111.081833,37.0443629 110.910646,37.0617258 C110.319833,37.1216502 108.293544,37.2095697 107.104496,37.2268718 C106.448503,37.2364192 105.259791,37.2648741 104.462918,37.2901047 C103.666035,37.3153354 102.055972,37.3349728 100.885011,37.3337426 C99.7140505,37.3325597 98.6407769,37.3417355 98.4999481,37.3542131 C98.3591273,37.3667008 97.3968233,37.380096 96.3614792,37.3839742 C95.3261432,37.3878607 94.3677064,37.4022816 94.231628,37.4160334 C93.9698632,37.4424875 93.3250584,37.471892 91.0431831,37.5614389 C89.2521351,37.6317252 87.907151,37.7252127 86.7966198,37.8566095 C86.3137222,37.9137457 85.7722918,37.9565572 85.5934566,37.9517463 C85.4146278,37.9469303 85.1563542,37.9779976 85.019527,38.0207754 C84.8826981,38.0635514 84.5286277,38.1130902 84.2327061,38.1308637 C83.9367765,38.1486338 83.3215653,38.2333511 82.8655573,38.3191212 C82.4095349,38.404893 81.8061285,38.4904604 81.5246357,38.5092748 C81.2431429,38.5280875 80.7246436,38.575056 80.3724244,38.6136515 C80.0201908,38.6522452 79.501722,38.6979548 79.2202692,38.7152315 C78.9388148,38.7325099 78.2917444,38.7977673 77.782338,38.8602517 C77.2729332,38.9227361 76.5431827,38.9894366 76.1606675,39.0084758 C75.7781523,39.0275133 75.2449491,39.0675367 74.9757763,39.0974177 C74.7065971,39.1272971 74.0162915,39.1472217 73.4417683,39.1416943 C72.8672434,39.1361686 72.1090466,39.1608586 71.7568882,39.1965661 C71.0616898,39.2670552 69.5823298,39.3120584 68.4330881,39.2976814 C68.0350705,39.2926965 67.5362545,39.3180809 67.3246065,39.3540808 C67.1129601,39.3900773 65.6562753,39.4065176 64.087528,39.3906113 C62.5187824,39.3747101 61.1525823,39.3773631 61.0515295,39.3965088 C60.9504751,39.4156578 60.1259663,39.4387238 59.2192863,39.447766 C58.3126063,39.4568066 57.3789774,39.4717986 57.144555,39.481074 C56.9101326,39.4903511 56.0475118,39.5046217 55.2276206,39.5127869 C54.4077294,39.5209487 53.4107341,39.545255 53.0120765,39.5667918 C52.6134205,39.5883302 52.2492093,39.5941009 52.2027197,39.5796175 C52.1562285,39.5651357 51.5618077,39.5821015 50.8817821,39.617297 C50.2017565,39.6525044 49.2618508,39.6932747 48.793102,39.7078983 C48.3243516,39.7225153 47.8063852,39.7474367 47.6420636,39.7632669 C47.4777436,39.7791005 46.8257916,39.8041233 46.1932828,39.8188805 C45.5607739,39.8336326 45.0236651,39.8577599 44.9997067,39.8724883 C44.9757483,39.8872235 44.4767851,39.9124914 43.8908987,39.9286528 C43.3050123,39.9448075 42.7486619,39.9722079 42.6545659,39.9895251 C42.4822331,40.021243 36.4508265,39.9756855 33.8417912,39.9229564 C33.0693128,39.9073425 31.786916,39.8477426 30.9920216,39.7905068 L30.9920792,39.7902989 Z M13.3167608,27.9422765 C13.3552328,27.9407424 13.3244056,27.8685047 13.2482668,27.7817752 C13.1297523,27.6467788 13.0322385,27.6253039 12.5707533,27.6325597 C12.2742605,27.6372189 12.0184867,27.6770481 12.0023645,27.721062 C11.9601499,27.8363079 12.4919323,27.9782433 12.8989597,27.960365 C13.090278,27.9519557 13.2782874,27.943822 13.3167608,27.9422765 Z M16.0808855,23.0193072 C16.0813381,22.9980693 16.0456787,22.9796907 16.0015461,22.9784644 C15.9574135,22.9773121 15.9203316,23.0179607 15.9191399,23.0689615 C15.9179331,23.1199607 15.9536528,23.1383393 15.9984793,23.1098043 C16.0433073,23.0812677 16.0803892,23.0405434 16.0808855,23.0193072 Z M11.414221,20.3748488 C11.4145726,20.355922 11.371736,20.3154134 11.3190457,20.2848307 C11.2641124,20.2529442 11.2388232,20.266727 11.2597622,20.3171418 C11.2948628,20.4016521 11.4129354,20.445764 11.414221,20.3748488 Z M12.6711106,17.5874343 C12.5882714,17.5225615 12.5781359,17.5297838 12.6217112,17.6226333 C12.6518637,17.686885 12.6987668,17.7236136 12.7259361,17.7042541 C12.753107,17.6848945 12.7284275,17.6323252 12.6711106,17.5874343 Z M13.3377788,16.9094682 C13.2549379,16.8445954 13.2448008,16.8518176 13.2883777,16.9446672 C13.3185318,17.0089178 13.3654334,17.0456476 13.3926042,17.026288 C13.4197735,17.0069285 13.3950956,16.9543592 13.3377788,16.9094682 Z M12.7246088,16.2727322 C12.6965626,16.2271232 12.65654,16.1893912 12.6356688,16.1888862 C12.614796,16.1884258 12.5967333,16.2247088 12.5955281,16.2696133 C12.5943956,16.3145178 12.6343455,16.3522482 12.6844696,16.3534607 C12.7345922,16.3546887 12.7526549,16.3183442 12.7246088,16.2727322 Z M16.050877,12.1872958 C16.0041719,12.1603921 15.9477343,12.1615773 15.9254613,12.1899296 C15.9031871,12.2182851 15.9414008,12.2402966 16.0103789,12.2388448 C16.086606,12.2371987 16.1024902,12.2170242 16.050877,12.1872942 L16.050877,12.1872958 Z M15.9263944,12.1119409 C15.7934431,12.0168933 15.5830008,11.7279582 15.5856007,11.6440322 C15.5864351,11.6184936 15.6466329,11.6404362 15.7194698,11.6927845 C15.8920085,11.8167979 15.9967482,11.7336858 15.8547523,11.5854349 C15.7299211,11.4551065 15.4996476,11.5514346 15.4939188,11.7363787 C15.4921333,11.7940633 15.4595162,11.8245074 15.4214407,11.804032 C15.3833636,11.7835566 15.3444354,11.8301128 15.3349336,11.9074904 C15.3233693,12.001742 15.3744342,12.0493673 15.4896702,12.0517816 C15.5842774,12.0537718 15.6606653,12.0882401 15.6594204,12.1283948 C15.6582523,12.1685495 15.7470656,12.2022409 15.8569517,12.2032648 C16.028389,12.2048707 16.0382429,12.1919003 15.9263944,12.1119409 Z M15.9191153,11.5569628 C15.9195679,11.5357266 15.9566938,11.4950023 16.0015207,11.4664657 C16.0463477,11.4379291 16.0820511,11.4563093 16.0808609,11.5073085 C16.0796541,11.5583077 16.0425869,11.5990319 15.9984539,11.5978056 C15.9543225,11.5966533 15.918619,11.578199 15.9191153,11.5569628 Z M17.4123247,9.45144599 C17.4189169,9.33445017 17.4077825,9.29171501 17.387573,9.3564762 C17.3673663,9.42123917 17.3223235,9.44947064 17.2874785,9.41921221 C17.2526335,9.38895378 17.241956,9.43095753 17.2637505,9.51254122 C17.3214673,9.7285999 17.3984904,9.69692669 17.4123247,9.45144599 Z M16.7205509,9.50761026 C16.7895151,9.3966605 16.7146622,9.37076578 16.6276639,9.47547884 C16.5776339,9.53569786 16.5720656,9.57271275 16.6128726,9.57380676 C16.6488656,9.57478029 16.6973211,9.5449817 16.7205509,9.50761026 Z M19.4956013,6.81587952 C19.4962143,6.79695277 19.4240321,6.75728199 19.3352271,6.72772149 C19.2464241,6.698161 19.1725579,6.71213301 19.1710824,6.75878651 C19.1696519,6.80543343 19.2417749,6.84510421 19.3314566,6.84694618 C19.4211383,6.8487898 19.4950025,6.83479804 19.4956013,6.81587952 Z M5.25246673,29.8518115 C5.25352235,29.8191523 5.29105414,29.7756035 5.3358682,29.755038 C5.38068076,29.7344702 5.41591281,29.7619189 5.41416048,29.8160263 C5.41241117,29.870136 5.37487787,29.9136836 5.33075901,29.9127998 C5.28664015,29.9119693 5.2514096,29.884472 5.25246673,29.8518115 Z M8.54336362,23.049782 C8.60555693,23.0001969 8.71752725,22.9781738 8.79218394,23.0008388 C8.86968767,23.0243681 8.8211723,23.0630462 8.67910306,23.0909936 C8.50434295,23.1253689 8.46394094,23.1131022 8.54336362,23.049782 Z M10.0823374,22.4401083 C9.98013591,22.371833 9.97342553,22.3387982 10.0602657,22.3314456 C10.2791524,22.3129202 10.3324687,22.2988079 10.4545095,22.2270934 C10.5202061,22.1884869 10.6050347,22.2090092 10.643016,22.2726902 C10.6861451,22.3450051 10.6696068,22.3613211 10.5989662,22.3161454 C10.5319428,22.273285 10.4842477,22.3056573 10.4819049,22.3956006 C10.4774513,22.5668571 10.3014187,22.5864642 10.0823374,22.4401083 Z M9.22735468,22.3533602 C9.31291744,22.2887791 9.39350586,22.2855956 9.46342639,22.3440269 C9.53334693,22.4024598 9.48900071,22.435933 9.33351534,22.4420762 C9.15571592,22.4491051 9.12951153,22.4271956 9.22735468,22.3533569 L9.22735468,22.3533602 Z M11.9191747,20.9999577 C11.9209518,20.9462351 11.9585026,20.9204221 12.0026161,20.9425978 C12.0467282,20.9647724 12.0819412,21.0094466 12.0808658,21.0418721 C12.0797934,21.0742977 12.0422442,21.1001095 11.9974275,21.099232 C11.9526077,21.0984074 11.9173962,21.0536802 11.9191747,20.9999577 Z M11.9660079,19.6841274 C12.0795253,19.4481914 12.0910105,19.4415711 12.0752284,19.6211699 C12.0675408,19.7085677 12.0216784,19.7962165 11.9732962,19.8159426 C11.9030692,19.8445766 11.9015991,19.8179935 11.9660079,19.6841274 Z M12.5305528,16.3318524 C12.4753457,16.2877555 12.507205,16.2507836 12.6291801,16.217393 C12.8502752,16.1568654 12.8925566,16.1949543 12.7323691,16.3103503 C12.6662226,16.3580013 12.5754047,16.3676785 12.5305528,16.3318524 Z M14.5921274,10.8339965 C14.6144016,10.8056409 14.670838,10.8044557 14.7175442,10.8313627 C14.7691561,10.8610928 14.7532732,10.8813117 14.6770461,10.8829133 C14.6080681,10.8843948 14.5698544,10.8623537 14.5921274,10.8339998 L14.5921274,10.8339965 Z M14.592128,10.1560289 C14.6144011,10.127675 14.6708389,10.1264898 14.7175441,10.1533952 C14.7691562,10.1831252 14.7532732,10.2033458 14.6770459,10.2049474 C14.6080676,10.2064289 14.5698537,10.1843861 14.592128,10.1560306 L14.592128,10.1560289 Z M15.9651548,8.82412033 C15.9636988,8.7539359 15.9853627,8.71505388 16.0132293,8.73771641 C16.0410958,8.76038018 16.0422622,8.81780483 16.0158177,8.86532674 C15.9865987,8.91784127 15.9667257,8.90168055 15.9651516,8.82412033 L15.9651548,8.82412033 Z M19.2990435,4.06849512 C19.2441154,4.01787441 19.2370932,3.98474869 19.2814498,3.98550476 C19.3220518,3.9862907 19.3717972,4.02497929 19.391991,4.07168917 C19.4375765,4.17712906 19.4161257,4.17639342 19.2990435,4.06849826 L19.2990435,4.06849512 Z" id="path2987"></path>
            </g>
        </g>
    </g>
</svg>
